<svg width="53" height="52" viewBox="0 0 53 52" fill="none" xmlns="http://www.w3.org/2000/svg">
<g filter="url(#filter0_d_1468_1986)">
<circle cx="26" cy="25" r="25" fill="#F5F5F5"/>
</g>
<path d="M39 46.5C35.7101 48.6933 29.6667 49.8333 29.5 49.5L20.5 44.5L11.5 39L37 38L46 40C45.3333 40.8333 42 44.5 39 46.5Z" fill="#757575" fill-opacity="0.1"/>
<path d="M39.7857 35.4929C38.5136 33.3469 36.1753 32.0139 33.6833 32.0139C31.1912 32.0139 28.853 33.3469 27.5808 35.4929C27.0301 36.4217 27.0219 37.5386 27.5586 38.4807C28.1006 39.4321 29.0766 40 30.1695 40H37.1973C38.2902 40 39.2662 39.4321 39.8082 38.4807C40.3447 37.5386 40.3364 36.4217 39.7857 35.4929Z" fill="#158519"/>
<path d="M33.6833 32.0139V40H37.1974C38.2901 40 39.266 39.4321 39.808 38.4807C40.3447 37.5386 40.3365 36.4217 39.7858 35.4929C38.5137 33.3469 36.1754 32.0139 33.6833 32.0139Z" fill="#4DB151"/>
<path d="M21.2218 36.1843C20.1935 34.4496 18.3029 33.3718 16.2883 33.3718C14.2737 33.3718 12.3833 34.4494 11.355 36.1843C10.8885 36.971 10.8814 37.9169 11.3358 38.7146C11.7944 39.5193 12.6202 40 13.5449 40H19.0319C19.9566 40 20.7824 39.5193 21.2408 38.7146C21.6952 37.9169 21.6881 36.971 21.2218 36.1843V36.1843Z" fill="#FFCC00"/>
<path d="M16.2883 33.3718C16.2881 33.3718 16.2878 33.3718 16.2876 33.3718V40H19.0319C19.9566 40 20.7824 39.5193 21.2408 38.7146C21.6954 37.9169 21.6883 36.971 21.2218 36.1843C20.1935 34.4496 18.3031 33.3718 16.2883 33.3718V33.3718Z" fill="#896E00"/>
<path d="M18.6599 29.4394C17.3521 28.1316 15.2244 28.1318 13.9168 29.4394C13.2833 30.0727 12.9344 30.915 12.9344 31.8108C12.9344 32.7069 13.2833 33.549 13.9168 34.1825C14.5707 34.8364 15.4293 35.1633 16.2883 35.1633C17.147 35.1633 18.006 34.8362 18.6599 34.1825C19.9675 32.8747 19.9675 30.747 18.6599 29.4394Z" fill="#FFD2BF"/>
<path d="M16.2876 28.4586V35.1633H16.2883C17.147 35.1633 18.006 34.8362 18.66 34.1825C19.9676 32.8747 19.9676 30.747 18.66 29.4394C18.0058 28.7852 17.1466 28.4584 16.2876 28.4586V28.4586Z" fill="#FFB89C"/>
<path d="M16.4827 26.7986C16.3538 26.7986 16.2243 26.7709 16.103 26.7141C15.7878 26.5667 15.5864 26.2502 15.5864 25.9023V24.5782C13.8279 24.1705 12.5132 22.5912 12.5132 20.7108C12.5132 18.522 14.2939 16.7413 16.4827 16.7413H23.1788C25.3676 16.7413 27.1483 18.522 27.1483 20.7108C27.1483 22.8996 25.3676 24.6803 23.1788 24.6803H19.3442L17.0574 26.5903C16.8931 26.7274 16.6889 26.7986 16.4827 26.7986V26.7986Z" fill="#27488F"/>
<path d="M23.1788 16.7413H19.8369V24.6803H23.1788C25.3676 24.6803 27.1483 22.8996 27.1483 20.7108C27.1483 18.522 25.3676 16.7413 23.1788 16.7413V16.7413Z" fill="#12254C"/>
<path d="M36.5429 26.9032C34.9659 25.3262 32.4004 25.3264 30.8236 26.9032C30.0598 27.6669 29.6392 28.6825 29.6392 29.7628C29.6392 30.8429 30.0598 31.8584 30.8236 32.6222C31.6121 33.4107 32.6476 33.8049 33.6833 33.8049C34.719 33.8049 35.7544 33.4107 36.5429 32.6222C37.3067 31.8584 37.7274 30.8429 37.7274 29.7628C37.7274 28.6825 37.3067 27.6669 36.5429 26.9032V26.9032Z" fill="#FFD2BF"/>
<path d="M31.7512 10H22.056C19.1082 10 16.71 12.3982 16.71 15.346C16.71 18.2938 19.1082 20.6918 22.056 20.6918H27.7535L31.1764 23.5507C31.3408 23.688 31.5449 23.759 31.7512 23.759C31.88 23.759 32.0096 23.7313 32.1309 23.6745C32.446 23.5271 32.6475 23.2106 32.6475 22.8627V20.6167C35.1702 20.1891 37.0969 17.9884 37.0969 15.346C37.0969 12.3982 34.6989 10 31.7512 10V10Z" fill="#DBEEFF"/>
<path d="M31.7511 10H27.1617V20.6918H27.7534L31.1763 23.5507C31.3407 23.688 31.5448 23.759 31.7511 23.759C31.8799 23.759 32.0095 23.7313 32.1308 23.6745C32.4459 23.5271 32.6474 23.2106 32.6474 22.8627V20.6167C35.1699 20.1891 37.0968 17.9884 37.0968 15.346C37.0968 12.3982 34.6988 10 31.7511 10V10Z" fill="#BFE1FF"/>
<path d="M33.6833 25.7205V33.8049C34.719 33.8049 35.7545 33.4105 36.543 32.6222C37.3068 31.8584 37.7275 30.8429 37.7275 29.7626C37.7275 28.6825 37.3068 27.6669 36.543 26.9029C35.7545 26.1147 34.719 25.7205 33.6833 25.7205V25.7205Z" fill="#FFB89C"/>
<defs>
<filter id="filter0_d_1468_1986" x="0.5" y="0" width="52" height="52" filterUnits="userSpaceOnUse" color-interpolation-filters="sRGB">
<feFlood flood-opacity="0" result="BackgroundImageFix"/>
<feColorMatrix in="SourceAlpha" type="matrix" values="0 0 0 0 0 0 0 0 0 0 0 0 0 0 0 0 0 0 127 0" result="hardAlpha"/>
<feOffset dx="0.5" dy="1"/>
<feGaussianBlur stdDeviation="0.5"/>
<feComposite in2="hardAlpha" operator="out"/>
<feColorMatrix type="matrix" values="0 0 0 0 0 0 0 0 0 0 0 0 0 0 0 0 0 0 0.1 0"/>
<feBlend mode="normal" in2="BackgroundImageFix" result="effect1_dropShadow_1468_1986"/>
<feBlend mode="normal" in="SourceGraphic" in2="effect1_dropShadow_1468_1986" result="shape"/>
</filter>
</defs>
</svg>
