<svg width="35" height="40" viewBox="0 0 35 40" fill="none" xmlns="http://www.w3.org/2000/svg">
<path d="M28 36.5C24.7101 38.6933 18.6667 39.8333 18.5 39.5L9.5 34.5L0.5 29L26 28L35 30C34.3333 30.8333 31 34.5 28 36.5Z" fill="#757575" fill-opacity="0.1"/>
<path d="M28.7857 25.4929C27.5136 23.3469 25.1753 22.0139 22.6833 22.0139C20.1912 22.0139 17.853 23.3469 16.5808 25.4929C16.0301 26.4217 16.0219 27.5386 16.5586 28.4807C17.1006 29.4321 18.0766 30 19.1695 30H26.1973C27.2902 30 28.2662 29.4321 28.8082 28.4807C29.3447 27.5386 29.3364 26.4217 28.7857 25.4929Z" fill="#158519"/>
<path d="M22.6833 22.0139V30H26.1974C27.2901 30 28.266 29.4321 28.808 28.4807C29.3447 27.5386 29.3365 26.4217 28.7858 25.4929C27.5137 23.3469 25.1754 22.0139 22.6833 22.0139Z" fill="#4DB151"/>
<path d="M10.2218 26.1843C9.19348 24.4496 7.30292 23.3718 5.2883 23.3718C3.27368 23.3718 1.38335 24.4494 0.35498 26.1843C-0.111481 26.971 -0.118576 27.9169 0.335754 28.7146C0.794434 29.5193 1.62024 30 2.54492 30H8.03191C8.95659 30 9.78239 29.5193 10.2408 28.7146C10.6952 27.9169 10.6881 26.971 10.2218 26.1843V26.1843Z" fill="#FFCC00"/>
<path d="M5.28828 23.3718C5.28806 23.3718 5.28783 23.3718 5.2876 23.3718V30H8.03189C8.95657 30 9.78238 29.5193 10.2408 28.7146C10.6954 27.9169 10.6883 26.971 10.2218 26.1843C9.19347 24.4496 7.30313 23.3718 5.28828 23.3718V23.3718Z" fill="#896E00"/>
<path d="M7.65993 19.4394C6.3521 18.1316 4.22441 18.1318 2.91681 19.4394C2.28326 20.0727 1.93445 20.915 1.93445 21.8108C1.93445 22.7069 2.28326 23.549 2.91681 24.1825C3.57072 24.8364 4.42926 25.1633 5.28825 25.1633C6.14702 25.1633 7.00601 24.8362 7.65993 24.1825C8.96753 22.8747 8.96753 20.747 7.65993 19.4394Z" fill="#FFD2BF"/>
<path d="M5.2876 18.4586V25.1633H5.28828C6.14705 25.1633 7.00604 24.8362 7.65996 24.1825C8.96756 22.8747 8.96756 20.747 7.65996 19.4394C7.00581 18.7852 6.14659 18.4584 5.2876 18.4586V18.4586Z" fill="#FFB89C"/>
<path d="M5.48268 16.7986C5.35382 16.7986 5.22427 16.7709 5.10297 16.7141C4.7878 16.5667 4.58638 16.2502 4.58638 15.9023V14.5782C2.82788 14.1705 1.51318 12.5912 1.51318 10.7108C1.51318 8.52196 3.29388 6.74126 5.48268 6.74126H12.1788C14.3676 6.74126 16.1483 8.52196 16.1483 10.7108C16.1483 12.8996 14.3676 14.6803 12.1788 14.6803H8.34416L6.0574 16.5903C5.89307 16.7274 5.6889 16.7986 5.48268 16.7986V16.7986Z" fill="#27488F"/>
<path d="M12.1788 6.74126H8.83691V14.6803H12.1788C14.3676 14.6803 16.1483 12.8996 16.1483 10.7108C16.1483 8.52196 14.3676 6.74126 12.1788 6.74126V6.74126Z" fill="#12254C"/>
<path d="M25.5429 16.9032C23.9659 15.3262 21.4004 15.3264 19.8236 16.9032C19.0598 17.6669 18.6392 18.6825 18.6392 19.7628C18.6392 20.8429 19.0598 21.8584 19.8236 22.6222C20.6121 23.4107 21.6476 23.8049 22.6833 23.8049C23.719 23.8049 24.7544 23.4107 25.5429 22.6222C26.3067 21.8584 26.7274 20.8429 26.7274 19.7628C26.7274 18.6825 26.3067 17.6669 25.5429 16.9032V16.9032Z" fill="#FFD2BF"/>
<path d="M20.7512 0H11.056C8.10818 0 5.70996 2.39822 5.70996 5.34599C5.70996 8.29376 8.10818 10.6918 11.056 10.6918H16.7535L20.1764 13.5507C20.3408 13.688 20.5449 13.759 20.7512 13.759C20.88 13.759 21.0096 13.7313 21.1309 13.6745C21.446 13.5271 21.6475 13.2106 21.6475 12.8627V10.6167C24.1702 10.1891 26.0969 7.98843 26.0969 5.34599C26.0969 2.39822 23.6989 0 20.7512 0V0Z" fill="#DBEEFF"/>
<path d="M20.7511 0H16.1617V10.6918H16.7534L20.1763 13.5507C20.3407 13.688 20.5448 13.759 20.7511 13.759C20.8799 13.759 21.0095 13.7313 21.1308 13.6745C21.4459 13.5271 21.6474 13.2106 21.6474 12.8627V10.6167C24.1699 10.1891 26.0968 7.98843 26.0968 5.34599C26.0968 2.39822 23.6988 0 20.7511 0V0Z" fill="#BFE1FF"/>
<path d="M22.6833 15.7205V23.8049C23.719 23.8049 24.7545 23.4105 25.543 22.6222C26.3068 21.8584 26.7275 20.8429 26.7275 19.7626C26.7275 18.6825 26.3068 17.6669 25.543 16.9029C24.7545 16.1147 23.719 15.7205 22.6833 15.7205V15.7205Z" fill="#FFB89C"/>
</svg>
