<svg width="53" height="52" viewBox="0 0 53 52" fill="none" xmlns="http://www.w3.org/2000/svg">
<g filter="url(#filter0_d_1468_2410)">
<circle cx="26" cy="25" r="25" fill="#F5F5F5"/>
</g>
<path d="M38 47.5C34.4634 49.2683 28.1667 50.3333 28 50L20.5 44.5L12 38H37L45.5 42C44.8333 42.8333 41 46 38 47.5Z" fill="#757575" fill-opacity="0.1"/>
<path d="M41.9672 36.8426L37.5215 16.3043L36.1868 38.5706H40.5732C41.4825 38.5706 42.1596 37.7312 41.9672 36.8426Z" fill="#E2E2E2"/>
<path d="M38.7917 37.2359V22.1725L37.5215 16.3043L36.1868 38.5706H37.457C38.1911 38.5706 38.7917 37.97 38.7917 37.2359Z" fill="#BABABA"/>
<path d="M36.2472 14.9696H33.9949H15.5871H13.3347C12.6006 14.9696 12 15.5703 12 16.3043V37.2359C12 37.9699 12.6006 38.5706 13.3347 38.5706H36.2472C36.9813 38.5706 37.5819 37.9699 37.5819 37.2359V16.3043C37.582 15.5703 36.9813 14.9696 36.2472 14.9696Z" fill="#EFEFEF"/>
<path d="M13.2097 37.2359V16.3043C13.2097 15.5703 13.8104 14.9696 14.5444 14.9696H13.3347C12.6006 14.9696 12 15.5703 12 16.3043V37.2359C12 37.9699 12.6006 38.5706 13.3347 38.5706H14.5444C13.8104 38.5706 13.2097 37.97 13.2097 37.2359Z" fill="#E2E2E2"/>
<path d="M30.0397 26.8688L28.4298 24.8156C24.6596 21.7682 18.9968 24.4546 18.9968 29.3234C18.9968 32.5234 21.5909 35.1175 24.7909 35.1175C27.9909 35.1175 30.585 32.5234 30.585 29.3234C30.5851 28.4458 30.389 27.6143 30.0397 26.8688Z" fill="#85C2EF"/>
<path d="M20.2066 29.3234C20.2066 26.3295 22.4773 23.8662 25.3905 23.5612C21.9455 23.2062 18.9968 25.9085 18.9968 29.3234C18.9968 32.7528 21.9623 35.4423 25.3958 35.0861C22.4801 34.7837 20.2066 32.3191 20.2066 29.3234Z" fill="#69AFEB"/>
<path d="M23.8712 31.7037L22.1657 29.4866C21.7348 28.9267 21.8396 28.1237 22.3995 27.6929C22.9595 27.2623 23.7624 27.3669 24.1932 27.9269L24.938 28.8949L28.4753 24.7625C28.9346 24.226 29.7423 24.1633 30.2788 24.6225C30.8154 25.082 30.8781 25.8894 30.4187 26.426L25.8567 31.7556C25.329 32.3721 24.3662 32.3473 23.8712 31.7037Z" fill="#FFA92C"/>
<path d="M30.3222 24.6637L25.8567 29.8805C25.3292 30.4968 24.3662 30.4723 23.8712 29.8286L22.2965 27.7815C21.8285 28.227 21.7628 28.9631 22.1657 29.4866L23.8712 31.7037C24.3649 32.3457 25.3276 32.3738 25.8567 31.7557L30.4187 26.4261C30.865 25.9047 30.8172 25.1288 30.3222 24.6637Z" fill="#F2961D"/>
<path d="M36.2472 14.9696H33.9949H15.5871H13.3347C12.6006 14.9696 12 15.5703 12 16.3043V20.2183H37.582V16.3043C37.582 15.5703 36.9813 14.9696 36.2472 14.9696Z" fill="#6D018D"/>
<path d="M14.5452 14.9696H13.3347C12.6006 14.9696 12 15.5703 12 16.3043V20.2183H13.2105V16.3043C13.2105 15.5703 13.8111 14.9696 14.5452 14.9696Z" fill="#470A59"/>
<path d="M17.7757 17.594H16.2902C15.9034 17.594 15.587 17.2776 15.587 16.8908V11.7031C15.587 11.3164 15.9034 11 16.2902 11H17.7758C18.1625 11 18.4789 11.3164 18.4789 11.7031V16.8908C18.4789 17.2776 18.1625 17.594 17.7757 17.594Z" fill="#FFCF65"/>
<path d="M33.2918 17.594H31.8062C31.4194 17.594 31.103 17.2776 31.103 16.8908V11.7031C31.103 11.3164 31.4194 11 31.8062 11H33.2918C33.6785 11 33.9949 11.3164 33.9949 11.7031V16.8908C33.9949 17.2776 33.6785 17.594 33.2918 17.594Z" fill="#FFCF65"/>
<path d="M25.5337 17.594H24.0481C23.6614 17.594 23.345 17.2776 23.345 16.8908V11.7031C23.345 11.3164 23.6614 11 24.0481 11H25.5337C25.9205 11 26.2369 11.3164 26.2369 11.7031V16.8908C26.2369 17.2776 25.9205 17.594 25.5337 17.594Z" fill="#FFCF65"/>
<path d="M16.7968 16.8682V11.7259C16.7968 11.3267 17.1234 11 17.5226 11H16.3129C15.9137 11 15.587 11.3267 15.587 11.7259V16.8682C15.587 17.2674 15.9136 17.594 16.3129 17.594H17.5226C17.1234 17.594 16.7968 17.2674 16.7968 16.8682Z" fill="#FFB450"/>
<path d="M32.3128 16.8682V11.7259C32.3128 11.3267 32.6394 11 33.0386 11H31.8289C31.4297 11 31.103 11.3267 31.103 11.7259V16.8682C31.103 17.2674 31.4296 17.594 31.8289 17.594H33.0386C32.6394 17.594 32.3128 17.2674 32.3128 16.8682Z" fill="#FFB450"/>
<path d="M24.5547 16.8682V11.7259C24.5547 11.3267 24.8814 11 25.2806 11H24.0708C23.6716 11 23.345 11.3267 23.345 11.7259V16.8682C23.345 17.2674 23.6716 17.594 24.0708 17.594H25.2806C24.8814 17.594 24.5547 17.2674 24.5547 16.8682Z" fill="#FFB450"/>
<defs>
<filter id="filter0_d_1468_2410" x="0.5" y="0" width="52" height="52" filterUnits="userSpaceOnUse" color-interpolation-filters="sRGB">
<feFlood flood-opacity="0" result="BackgroundImageFix"/>
<feColorMatrix in="SourceAlpha" type="matrix" values="0 0 0 0 0 0 0 0 0 0 0 0 0 0 0 0 0 0 127 0" result="hardAlpha"/>
<feOffset dx="0.5" dy="1"/>
<feGaussianBlur stdDeviation="0.5"/>
<feComposite in2="hardAlpha" operator="out"/>
<feColorMatrix type="matrix" values="0 0 0 0 0 0 0 0 0 0 0 0 0 0 0 0 0 0 0.1 0"/>
<feBlend mode="normal" in2="BackgroundImageFix" result="effect1_dropShadow_1468_2410"/>
<feBlend mode="normal" in="SourceGraphic" in2="effect1_dropShadow_1468_2410" result="shape"/>
</filter>
</defs>
</svg>
