<svg width="53" height="52" viewBox="0 0 53 52" fill="none" xmlns="http://www.w3.org/2000/svg">
<g filter="url(#filter0_d_1468_2499)">
<circle cx="26" cy="25" r="25" fill="#F5F5F5"/>
</g>
<path d="M39.5 46.5C36.2101 48.6933 29.6667 50.3333 29.5 50L23 43.5L15 34H39.5L46.5 40C45.8333 40.8333 42.5 44.5 39.5 46.5Z" fill="#757575" fill-opacity="0.1"/>
<path d="M13.9234 37.0018L11.0527 20.7036C11.025 20.5463 11.0077 20.3873 11.001 20.2277C10.9583 18.3799 12.2851 16.7838 14.1096 16.488L19.6493 15.5105L19.4993 37.0018H13.9234Z" fill="#35495E"/>
<path d="M35.2441 36.288C35.1481 36.6868 34.8254 36.9912 34.4217 37.0639L18.1183 39.9398C17.0907 40.1192 16.0356 39.8473 15.2225 39.1938C14.4095 38.5402 13.9173 37.5681 13.8717 36.526C13.831 34.7593 15.0473 33.2113 16.7734 32.8329L21.3407 34.1156H21.3355L17.2234 34.8449C16.7648 34.9255 16.3665 35.2075 16.1381 35.6133C15.9097 36.0191 15.8752 36.5059 16.0441 36.9398C16.3367 37.6386 17.0797 38.0361 17.8234 37.8915L30.2838 35.6932L35.2441 36.288Z" fill="#2C3E50"/>
<path d="M21.3354 34.1156L17.2234 34.8449C16.7647 34.9255 16.3664 35.2075 16.138 35.6133C15.9096 36.0191 15.8751 36.5059 16.044 36.9398C16.3366 37.6386 17.0796 38.0361 17.8234 37.8915L30.2837 35.6932L21.3354 34.1156Z" fill="#F9EAB0"/>
<path d="M17.5989 27.1541L20.4732 10.8537C20.5761 10.2934 21.11 9.9197 21.6716 10.0148L37.8494 12.8674C39.6752 13.1633 41.003 14.7605 40.9606 16.6096C40.9536 16.7685 40.9363 16.9267 40.9089 17.0834L38.0346 33.3837L17.5989 27.1541Z" fill="#01ABE9"/>
<path d="M34.4672 15.4143C34.4369 15.4142 34.4066 15.4116 34.3767 15.4065L22.6607 13.3406C22.3963 13.2754 22.2277 13.0164 22.2752 12.7482C22.3227 12.4801 22.57 12.2947 22.8407 12.3243L34.5562 14.3875C34.8204 14.4338 35.0054 14.6744 34.9822 14.9417C34.9591 15.2089 34.7355 15.4141 34.4672 15.4143Z" fill="#F5F5F5"/>
<path d="M31.9803 17.6001C31.95 17.6002 31.9197 17.5974 31.8898 17.5918L24.2491 16.2465C23.9742 16.1907 23.7938 15.926 23.8425 15.6498C23.8912 15.3736 24.1512 15.1865 24.4286 15.228L32.0698 16.5729C32.3356 16.6178 32.5223 16.8593 32.4989 17.1278C32.4755 17.3963 32.2498 17.6018 31.9803 17.6001Z" fill="#F5F5F5"/>
<path d="M33.0602 19.9103L22.361 18.0203C22.0797 17.9706 21.8113 18.1584 21.7616 18.4398L20.8616 23.5346C20.8119 23.816 20.9997 24.0844 21.281 24.1341L31.9802 26.0241C32.2616 26.0738 32.53 25.886 32.5797 25.6046L33.4797 20.5098C33.5294 20.2284 33.3416 19.96 33.0602 19.9103Z" fill="#ECF0F1"/>
<path d="M40.9596 16.607C40.9534 16.7666 40.9361 16.9257 40.9079 17.0829L38.032 33.3812L34.0441 32.1656L36.3561 19.0587L36.9044 15.9656L37.463 12.8001L37.851 12.8674C39.6746 13.1645 41.0007 14.7598 40.9596 16.607Z" fill="#01ABE9"/>
<path d="M34.9751 29.1656L18.7958 26.3156C18.736 26.3053 18.6754 26.3001 18.6148 26.3001C18.0787 26.3015 17.6324 26.7122 17.5867 27.2463C17.5409 27.7805 17.9108 28.2611 18.4389 28.3536L34.7372 31.2242C35.1954 31.3072 35.5925 31.5908 35.8197 31.9972C36.047 32.4037 36.0806 32.8904 35.9113 33.3242C35.6203 34.0216 34.8784 34.4174 34.1372 34.2708L17.901 31.4105C17.8412 31.4002 17.7806 31.395 17.7199 31.3949C17.1828 31.3936 16.7341 31.8035 16.6869 32.3386C16.6397 32.8736 17.0099 33.3557 17.5389 33.4484L33.8424 36.3191C34.8692 36.4991 35.9239 36.2282 36.7369 35.5756C37.5499 34.923 38.0425 33.9519 38.0889 32.9105C38.1295 31.0605 36.8014 29.4633 34.9751 29.1656Z" fill="#0099D0"/>
<path d="M35.9113 33.3242C35.6204 34.0216 34.8784 34.4174 34.1372 34.2708L17.901 31.4105L18.4389 28.3536L34.7372 31.2243C35.1954 31.3072 35.5925 31.5908 35.8198 31.9972C36.047 32.4037 36.0806 32.8904 35.9113 33.3242Z" fill="#F9EAB0"/>
<defs>
<filter id="filter0_d_1468_2499" x="0.5" y="0" width="52" height="52" filterUnits="userSpaceOnUse" color-interpolation-filters="sRGB">
<feFlood flood-opacity="0" result="BackgroundImageFix"/>
<feColorMatrix in="SourceAlpha" type="matrix" values="0 0 0 0 0 0 0 0 0 0 0 0 0 0 0 0 0 0 127 0" result="hardAlpha"/>
<feOffset dx="0.5" dy="1"/>
<feGaussianBlur stdDeviation="0.5"/>
<feComposite in2="hardAlpha" operator="out"/>
<feColorMatrix type="matrix" values="0 0 0 0 0 0 0 0 0 0 0 0 0 0 0 0 0 0 0.1 0"/>
<feBlend mode="normal" in2="BackgroundImageFix" result="effect1_dropShadow_1468_2499"/>
<feBlend mode="normal" in="SourceGraphic" in2="effect1_dropShadow_1468_2499" result="shape"/>
</filter>
</defs>
</svg>
