<svg width="53" height="52" viewBox="0 0 53 52" fill="none" xmlns="http://www.w3.org/2000/svg">
<g filter="url(#filter0_d_1219_3476)">
<circle cx="26" cy="25" r="25" fill="#F5F5F5"/>
</g>
<path d="M39.5 46C36.2101 48.1933 29.6667 49.8333 29.5 49.5L23 42.5L15 33H39.5L47 39C46.3333 39.8333 42.5 44 39.5 46Z" fill="#757575" fill-opacity="0.1"/>
<path d="M28.5108 12.4566L27.623 15.794L26.2792 20.8494L23.8549 29.9664L13.2314 26.1054L19.8614 16.1052L22.813 11.6531L23.4256 10.7284C23.4257 10.7284 27.0027 8.24205 28.5108 12.4566V12.4566Z" fill="#FF5959"/>
<path d="M40.7256 14.3526L40.4681 17.7964L40.079 23.0128L39.3764 32.4205L28.2234 30.5834L32.8968 19.5326L34.9773 14.6128L35.4091 13.5911C35.4091 13.5912 38.4666 10.4882 40.7256 14.3526V14.3526Z" fill="#FF5959"/>
<path d="M34.787 19.9957L33.7589 22.9659L31.7669 24.036C27.8811 21.7051 23.4872 24.111 23.4872 24.111L22.5497 21.8804L24.7447 19.0155C24.7447 19.0155 30.2572 16.4713 34.787 19.9957Z" fill="#DE5D5D"/>
<path d="M33.7589 22.9659L31.7669 24.0359C27.8811 21.7051 23.4872 24.1109 23.4872 24.1109L22.5497 21.8803C22.5497 21.8803 28.7876 18.4245 33.7589 22.9659Z" fill="#AF0020"/>
<path d="M36.6818 19.5234C33.1188 18.9548 31.0215 20.0514 30.2724 22.9287L27.2869 30.5146L40.6375 33.5721L41.6441 25.669C41.7314 22.7606 40.1829 20.0821 36.6818 19.5234V19.5234Z" fill="#F67E7E"/>
<path d="M40.6617 33.5738C41.1642 30.4322 38.5298 27.399 34.7777 26.799C31.0257 26.1989 27.5768 28.2593 27.0744 31.401C26.572 34.5426 29.2063 37.5758 32.9584 38.1759C36.7104 38.7759 40.1593 36.7155 40.6617 33.5738Z" fill="#FF5959"/>
<path d="M38.4637 33.8018C38.4584 33.8506 38.4522 33.8992 38.4443 33.9481C38.1401 35.8548 35.7843 37.0645 33.1836 36.6495C30.582 36.2343 28.7196 34.3516 29.0239 32.4449C29.0958 31.9943 29.2824 31.5817 29.56 31.2206C30.4568 30.0563 32.2996 29.4268 34.2852 29.7431C36.8198 30.148 38.6531 31.9464 38.4637 33.8018V33.8018Z" fill="#6FE1FF"/>
<path d="M38.4637 33.8019C37.5672 34.9667 35.7249 35.5967 33.738 35.2797C31.2024 34.8745 29.3701 33.0764 29.56 31.2205C30.4569 30.0562 32.2997 29.4267 34.2852 29.7431C36.8198 30.148 38.6531 31.9464 38.4637 33.8019V33.8019Z" fill="#A1EDFF"/>
<path d="M23.5835 16.7935C20.1862 15.5781 17.9228 16.2693 16.6563 18.9592L12.3239 25.8651L24.8823 31.3306L27.3282 23.7484C27.95 20.9059 26.9217 17.9879 23.5835 16.7935V16.7935Z" fill="#F67E7E"/>
<path d="M24.8951 31.3311C25.9667 28.3357 23.9353 24.87 20.358 23.5902C16.7806 22.3104 13.0119 23.7011 11.9403 26.6965C10.8687 29.6919 12.9 33.1576 16.4774 34.4374C20.0547 35.7172 23.8235 34.3264 24.8951 31.3311Z" fill="#FF5959"/>
<path d="M22.7034 31.1558C22.6892 31.2028 22.6741 31.2494 22.6574 31.296C22.007 33.114 19.4686 33.8688 16.989 32.9816C14.5084 32.094 13.0249 29.9004 13.6753 28.0824C13.829 27.6528 14.0885 27.2816 14.4279 26.9778C15.5239 25.9987 17.4512 25.7197 19.3444 26.3965C21.7611 27.2617 23.2315 29.367 22.7034 31.1558Z" fill="#6FE1FF"/>
<path d="M22.7034 31.1558C21.6076 32.1355 19.6807 32.4153 17.7862 31.7374C15.3687 30.8719 13.8992 28.7669 14.4279 26.9778C15.5239 25.9987 17.4512 25.7197 19.3444 26.3965C21.7611 27.2617 23.2315 29.367 22.7034 31.1558Z" fill="#A1EDFF"/>
<defs>
<filter id="filter0_d_1219_3476" x="0.5" y="0" width="52" height="52" filterUnits="userSpaceOnUse" color-interpolation-filters="sRGB">
<feFlood flood-opacity="0" result="BackgroundImageFix"/>
<feColorMatrix in="SourceAlpha" type="matrix" values="0 0 0 0 0 0 0 0 0 0 0 0 0 0 0 0 0 0 127 0" result="hardAlpha"/>
<feOffset dx="0.5" dy="1"/>
<feGaussianBlur stdDeviation="0.5"/>
<feComposite in2="hardAlpha" operator="out"/>
<feColorMatrix type="matrix" values="0 0 0 0 0 0 0 0 0 0 0 0 0 0 0 0 0 0 0.1 0"/>
<feBlend mode="normal" in2="BackgroundImageFix" result="effect1_dropShadow_1219_3476"/>
<feBlend mode="normal" in="SourceGraphic" in2="effect1_dropShadow_1219_3476" result="shape"/>
</filter>
</defs>
</svg>
