<svg width="53" height="52" viewBox="0 0 53 52" fill="none" xmlns="http://www.w3.org/2000/svg">
<g filter="url(#filter0_d_1468_2434)">
<circle cx="26" cy="25" r="25" fill="#F5F5F5"/>
</g>
<path d="M37 47.5C33.4634 49.2683 27 50.5 24 50L20 44.5L15 38H37L45 41.5C44.3333 42.3333 40 46 37 47.5Z" fill="#757575" fill-opacity="0.1"/>
<path d="M37.8516 17.9102L31.6992 16.1523L29.9414 10H17.6367C16.1805 10 15 11.1805 15 12.6367V37.3633C15 38.8195 16.1805 40 17.6367 40H35.2148C36.6711 40 37.8516 38.8195 37.8516 37.3633V17.9102Z" fill="#2AB4E7"/>
<path d="M19.3945 25.8789C19.8799 25.8789 20.2734 25.4854 20.2734 25C20.2734 24.5146 19.8799 24.1211 19.3945 24.1211C18.9091 24.1211 18.5156 24.5146 18.5156 25C18.5156 25.4854 18.9091 25.8789 19.3945 25.8789Z" fill="#FFF5F5"/>
<path d="M19.3945 29.3945C19.8799 29.3945 20.2734 29.001 20.2734 28.5156C20.2734 28.0302 19.8799 27.6367 19.3945 27.6367C18.9091 27.6367 18.5156 28.0302 18.5156 28.5156C18.5156 29.001 18.9091 29.3945 19.3945 29.3945Z" fill="#FFF5F5"/>
<path d="M19.3945 32.9102C19.8799 32.9102 20.2734 32.5167 20.2734 32.0312C20.2734 31.5458 19.8799 31.1523 19.3945 31.1523C18.9091 31.1523 18.5156 31.5458 18.5156 32.0312C18.5156 32.5167 18.9091 32.9102 19.3945 32.9102Z" fill="#FFF5F5"/>
<path d="M37.8516 17.9102V37.3633C37.8516 38.8195 36.6711 40 35.2148 40H26.4258V10H29.9414L31.6992 16.1523L37.8516 17.9102Z" fill="#01ABE9"/>
<path d="M31.6992 25.8789H22.9102C22.4244 25.8789 22.0312 25.4858 22.0312 25C22.0312 24.5142 22.4244 24.1211 22.9102 24.1211H31.6992C32.185 24.1211 32.5781 24.5142 32.5781 25C32.5781 25.4858 32.185 25.8789 31.6992 25.8789Z" fill="#FFF5F5"/>
<path d="M31.6992 29.3945H22.9102C22.4244 29.3945 22.0312 29.0014 22.0312 28.5156C22.0312 28.0298 22.4244 27.6367 22.9102 27.6367H31.6992C32.185 27.6367 32.5781 28.0298 32.5781 28.5156C32.5781 29.0014 32.185 29.3945 31.6992 29.3945Z" fill="#FFF5F5"/>
<path d="M31.6992 32.9102H22.9102C22.4244 32.9102 22.0312 32.5171 22.0312 32.0312C22.0312 31.5454 22.4244 31.1523 22.9102 31.1523H31.6992C32.185 31.1523 32.5781 31.5454 32.5781 32.0312C32.5781 32.5171 32.185 32.9102 31.6992 32.9102Z" fill="#FFF5F5"/>
<path d="M26.4258 32.9102H31.6992C32.185 32.9102 32.5781 32.5171 32.5781 32.0312C32.5781 31.5454 32.185 31.1523 31.6992 31.1523H26.4258V32.9102Z" fill="#E3E7EA"/>
<path d="M26.4258 29.3945H31.6992C32.185 29.3945 32.5781 29.0014 32.5781 28.5156C32.5781 28.0298 32.185 27.6367 31.6992 27.6367H26.4258V29.3945Z" fill="#E3E7EA"/>
<path d="M26.4258 25.8789H31.6992C32.185 25.8789 32.5781 25.4858 32.5781 25C32.5781 24.5142 32.185 24.1211 31.6992 24.1211H26.4258V25.8789Z" fill="#E3E7EA"/>
<path d="M37.8516 17.9102H31.6992C30.7324 17.9102 29.9414 17.1191 29.9414 16.1523V10C30.1699 10 30.3984 10.0879 30.5566 10.2637L37.5878 17.295C37.7637 17.4531 37.8516 17.6816 37.8516 17.9102Z" fill="#003A69"/>
<defs>
<filter id="filter0_d_1468_2434" x="0.5" y="0" width="52" height="52" filterUnits="userSpaceOnUse" color-interpolation-filters="sRGB">
<feFlood flood-opacity="0" result="BackgroundImageFix"/>
<feColorMatrix in="SourceAlpha" type="matrix" values="0 0 0 0 0 0 0 0 0 0 0 0 0 0 0 0 0 0 127 0" result="hardAlpha"/>
<feOffset dx="0.5" dy="1"/>
<feGaussianBlur stdDeviation="0.5"/>
<feComposite in2="hardAlpha" operator="out"/>
<feColorMatrix type="matrix" values="0 0 0 0 0 0 0 0 0 0 0 0 0 0 0 0 0 0 0.1 0"/>
<feBlend mode="normal" in2="BackgroundImageFix" result="effect1_dropShadow_1468_2434"/>
<feBlend mode="normal" in="SourceGraphic" in2="effect1_dropShadow_1468_2434" result="shape"/>
</filter>
</defs>
</svg>
