<svg width="34" height="42" viewBox="0 0 34 42" fill="none" xmlns="http://www.w3.org/2000/svg">
<path d="M26 38.5C22.4634 40.2683 16 41.5 13 41L8 35.5L2 29H29.5L34 32.5C33.3333 33.3333 29 37 26 38.5Z" fill="#757575" fill-opacity="0.1"/>
<path d="M28.1249 18.9422V17.5234H25.0955V18.9422C24.1589 19.4829 23.5818 20.4816 23.5808 21.5626V29.641H29.6396V21.5626C29.6386 20.4816 29.0615 19.4829 28.1249 18.9422Z" fill="#E0E0E0"/>
<path d="M29.6397 22.2392C28.5102 25.1383 26.6406 27.69 24.217 29.641H29.6397V22.2392Z" fill="#D1D1D1"/>
<path d="M27.62 21.5626H23.5808V27.6214H27.62V21.5626Z" fill="#E0E0E0"/>
<path d="M26.1053 25.0969H23.5808V26.1067H26.1053V25.0969Z" fill="#B023AB"/>
<path d="M26.1053 23.0773H23.5808V24.0871H26.1053V23.0773Z" fill="#B023AB"/>
<path d="M28.1251 17.5234H25.0957V18.5332H28.1251V17.5234Z" fill="#D1D1D1"/>
<path d="M29.2848 5.76214L29.9988 5.04813L24.9507 6.3369e-07L24.2366 0.714017L29.2848 5.76214Z" fill="#E0E0E0"/>
<path d="M23.076 9.44506L28.2916 4.22945L25.7671 1.65955L20.5515 6.92058L23.076 9.44506Z" fill="#E0E0E0"/>
<path d="M0.713984 30.0002L6.26904 24.4452L5.55503 23.7312L-3.295e-05 29.2862L0.713984 30.0002Z" fill="#B023AB"/>
<path d="M6.91876 25.6028L8.93945 23.5821L6.41539 21.058L4.3947 23.0787L6.91876 25.6028Z" fill="#B023AB"/>
<path d="M25.959 12.116L17.8806 4.03761L17.1636 4.75458L18.6783 6.26923L4.89966 20.0479L9.94868 25.0969L23.7274 11.3183L25.242 12.833L25.959 12.116Z" fill="#6D018D"/>
<path d="M7.64624 22.7946L9.94859 25.0969L23.7273 11.3183L25.2419 12.833L25.9589 12.116L22.1418 8.29893L7.64624 22.7946Z" fill="#8D00B0"/>
<path d="M29.1347 15.5039H24.0857V17.5235H29.1347V15.5039Z" fill="#E0E0E0"/>
<path d="M29.1349 15.5039H27.1152V17.5235H29.1349V15.5039Z" fill="#FDA0FF"/>
<path d="M8.58335 20.4037L9.29736 19.6897L7.27667 17.669L6.56265 18.383L8.58335 20.4037Z" fill="#E0E0E0"/>
<path d="M10.0948 17.8809L10.8088 17.1669L9.29512 15.6532L8.5811 16.3672L10.0948 17.8809Z" fill="#E0E0E0"/>
<path d="M12.6249 16.3678L13.3389 15.6538L11.3182 13.6331L10.6042 14.3471L12.6249 16.3678Z" fill="#E0E0E0"/>
<path d="M14.1314 13.8381L14.8455 13.1241L13.3317 11.6104L12.6177 12.3244L14.1314 13.8381Z" fill="#E0E0E0"/>
<path d="M16.6624 12.3268L17.3765 11.6128L15.3558 9.59214L14.6418 10.3062L16.6624 12.3268Z" fill="#E0E0E0"/>
<path d="M18.1717 9.80366L18.8857 9.08965L17.372 7.57593L16.658 8.28995L18.1717 9.80366Z" fill="#E0E0E0"/>
</svg>
