<svg width="53" height="52" viewBox="0 0 53 52" fill="none" xmlns="http://www.w3.org/2000/svg">
<g filter="url(#filter0_d_1219_3408)">
<circle cx="26" cy="25" r="25" fill="#F5F5F5"/>
</g>
<path fill-rule="evenodd" clip-rule="evenodd" d="M41 33.1379C40.9958 33.7075 40.5351 34.1682 39.9656 34.1724H38.3C38.4518 33.4911 38.4518 32.7848 38.3 32.1034H39.9656C40.5362 32.1052 40.9983 32.5673 41 33.1379Z" fill="#BDC3C7"/>
<path fill-rule="evenodd" clip-rule="evenodd" d="M29.1035 33.1379C29.1041 33.4858 29.1423 33.8327 29.2173 34.1724H21.7483C21.9 33.4911 21.9 32.7848 21.7483 32.1034H29.2173C29.1423 32.4432 29.1041 32.79 29.1035 33.1379Z" fill="#BDC3C7"/>
<path fill-rule="evenodd" clip-rule="evenodd" d="M28.4155 25.8966H38.4138C39.2708 25.8966 39.9655 26.5913 39.9655 27.4483V32.1034H21.7483L13.2965 30.619L11.8534 29.569C11.037 28.9788 10.7678 27.8844 11.2172 26.9828L12.5931 24.2414L28.4155 25.8966Z" fill="#FFCC00"/>
<path fill-rule="evenodd" clip-rule="evenodd" d="M37.8965 21.2414V25.8966H27.0344L32.8999 19.1724H35.8275C36.9702 19.1724 37.8965 20.0987 37.8965 21.2414Z" fill="#67B9CC"/>
<path fill-rule="evenodd" clip-rule="evenodd" d="M41 15.0345V16.069C40.9983 16.6396 40.5361 17.1017 39.9655 17.1034H35.6621C34.7967 17.1025 33.9886 17.5357 33.5103 18.2569L32.9 19.1724L28.4155 25.8965L27.4431 27.3552C27.199 27.7231 26.7471 27.8938 26.3207 27.7793L23.931 27.1638L22.8603 26.8897L21.7431 26.6L20.6724 26.3259L19.5552 26.0362L18.4845 25.7569L12.5931 24.2414L11.7759 24.0293C11.3196 23.9094 11.0012 23.4976 11 23.0259V18.6552C11.0017 18.0845 11.4639 17.6224 12.0345 17.6207H25.4517C26.1215 17.6216 26.75 17.2977 27.1379 16.7517L28.4828 14.869C28.8706 14.323 29.4992 13.999 30.169 14H39.9655C40.5361 14.0017 40.9983 14.4639 41 15.0345Z" fill="#F3D55B"/>
<path fill-rule="evenodd" clip-rule="evenodd" d="M26.4241 23.6052L23.931 27.1638L22.8604 26.8897L25.5759 23.0155C25.6767 22.853 25.8589 22.7595 26.0497 22.7722C26.2405 22.7849 26.4087 22.9018 26.4871 23.0762C26.5655 23.2506 26.5413 23.454 26.4241 23.6052V23.6052Z" fill="#B19046"/>
<path fill-rule="evenodd" clip-rule="evenodd" d="M23.838 23.6052L21.7432 26.6L20.6725 26.3259L22.9897 23.0155C23.1583 22.798 23.4678 22.7506 23.6938 22.9077C23.9197 23.0648 23.9831 23.3713 23.838 23.6052V23.6052Z" fill="#B19046"/>
<path fill-rule="evenodd" clip-rule="evenodd" d="M21.2517 23.6052L19.5552 26.0362L18.4845 25.7569L20.4035 23.0155C20.5721 22.798 20.8815 22.7506 21.1075 22.9077C21.3335 23.0648 21.3969 23.3713 21.2517 23.6052V23.6052Z" fill="#B19046"/>
<path fill-rule="evenodd" clip-rule="evenodd" d="M13.069 21.7586C12.7833 21.7586 12.5518 21.527 12.5518 21.2414V19.6897C12.5518 19.404 12.7833 19.1724 13.069 19.1724H14.6207C14.9064 19.1724 15.138 19.404 15.138 19.6897C15.138 19.9753 14.9064 20.2069 14.6207 20.2069H13.5862V21.2414C13.5862 21.527 13.3547 21.7586 13.069 21.7586Z" fill="white"/>
<path fill-rule="evenodd" clip-rule="evenodd" d="M36.2569 23.0776L34.3793 25.8966H33.1379L35.3983 22.5086C35.4911 22.3357 35.6738 22.2301 35.8699 22.2361C36.0661 22.2421 36.242 22.3587 36.324 22.537C36.406 22.7153 36.38 22.9247 36.2569 23.0776Z" fill="#285680"/>
<path fill-rule="evenodd" clip-rule="evenodd" d="M33.6707 23.0776L31.7931 25.8966H30.5518L32.8121 22.5086C32.9049 22.3357 33.0876 22.2301 33.2838 22.2361C33.48 22.2421 33.6558 22.3587 33.7378 22.537C33.8198 22.7153 33.7939 22.9247 33.6707 23.0776V23.0776Z" fill="#285680"/>
<path fill-rule="evenodd" clip-rule="evenodd" d="M38.4137 33.1379C38.4131 33.4858 38.375 33.8327 38.3 34.1724C37.8162 36.291 35.9317 37.7937 33.7586 37.7937C31.5854 37.7937 29.701 36.291 29.2172 34.1724C29.0655 33.4911 29.0655 32.7848 29.2172 32.1034C29.701 29.9848 31.5854 28.4822 33.7586 28.4822C35.9317 28.4822 37.8162 29.9848 38.3 32.1034C38.375 32.4432 38.4131 32.79 38.4137 33.1379Z" fill="#424242"/>
<path d="M33.7586 34.6897C34.6156 34.6897 35.3104 33.9949 35.3104 33.1379C35.3104 32.2809 34.6156 31.5862 33.7586 31.5862C32.9016 31.5862 32.2069 32.2809 32.2069 33.1379C32.2069 33.9949 32.9016 34.6897 33.7586 34.6897Z" fill="#ECF0F1"/>
<path fill-rule="evenodd" clip-rule="evenodd" d="M21.8621 33.1379C21.8614 33.4858 21.8233 33.8327 21.7483 34.1724C21.2217 36.4827 19.0437 38.0289 16.689 37.7639C14.3343 37.499 12.5543 35.5075 12.5543 33.1379C12.5543 30.7684 14.3343 28.7769 16.689 28.512C19.0437 28.247 21.2217 29.7931 21.7483 32.1035C21.8233 32.4432 21.8614 32.79 21.8621 33.1379Z" fill="#424242"/>
<path d="M17.2069 34.6897C18.0639 34.6897 18.7586 33.9949 18.7586 33.1379C18.7586 32.2809 18.0639 31.5862 17.2069 31.5862C16.3499 31.5862 15.6552 32.2809 15.6552 33.1379C15.6552 33.9949 16.3499 34.6897 17.2069 34.6897Z" fill="#ECF0F1"/>
<path d="M39.5 46.5C36.2101 48.6933 29.6667 50.3333 29.5 50L23 43.5L15 34H39.5L46.5 40C45.8333 40.8333 42.5 44.5 39.5 46.5Z" fill="#757575" fill-opacity="0.1"/>
<defs>
<filter id="filter0_d_1219_3408" x="0.5" y="0" width="52" height="52" filterUnits="userSpaceOnUse" color-interpolation-filters="sRGB">
<feFlood flood-opacity="0" result="BackgroundImageFix"/>
<feColorMatrix in="SourceAlpha" type="matrix" values="0 0 0 0 0 0 0 0 0 0 0 0 0 0 0 0 0 0 127 0" result="hardAlpha"/>
<feOffset dx="0.5" dy="1"/>
<feGaussianBlur stdDeviation="0.5"/>
<feComposite in2="hardAlpha" operator="out"/>
<feColorMatrix type="matrix" values="0 0 0 0 0 0 0 0 0 0 0 0 0 0 0 0 0 0 0.1 0"/>
<feBlend mode="normal" in2="BackgroundImageFix" result="effect1_dropShadow_1219_3408"/>
<feBlend mode="normal" in="SourceGraphic" in2="effect1_dropShadow_1219_3408" result="shape"/>
</filter>
</defs>
</svg>
