<svg width="36" height="37" viewBox="0 0 36 37" fill="none" xmlns="http://www.w3.org/2000/svg">
<path fill-rule="evenodd" clip-rule="evenodd" d="M30 19.1379C29.9958 19.7075 29.5351 20.1682 28.9656 20.1724H27.3C27.4518 19.4911 27.4518 18.7848 27.3 18.1034H28.9656C29.5362 18.1052 29.9983 18.5673 30 19.1379Z" fill="#BDC3C7"/>
<path fill-rule="evenodd" clip-rule="evenodd" d="M18.1035 19.1379C18.1041 19.4858 18.1423 19.8327 18.2173 20.1724H10.7483C10.9 19.4911 10.9 18.7848 10.7483 18.1034H18.2173C18.1423 18.4432 18.1041 18.79 18.1035 19.1379Z" fill="#BDC3C7"/>
<path fill-rule="evenodd" clip-rule="evenodd" d="M17.4155 11.8966H27.4138C28.2708 11.8966 28.9655 12.5913 28.9655 13.4483V18.1034H10.7483L2.29655 16.619L0.853445 15.569C0.0369972 14.9788 -0.232235 13.8844 0.217238 12.9828L1.5931 10.2414L17.4155 11.8966Z" fill="#FFCC00"/>
<path fill-rule="evenodd" clip-rule="evenodd" d="M26.8965 7.24138V11.8966H16.0344L21.8999 5.17242H24.8275C25.9702 5.17242 26.8965 6.09872 26.8965 7.24138Z" fill="#67B9CC"/>
<path fill-rule="evenodd" clip-rule="evenodd" d="M30 1.03448V2.06896C29.9983 2.63958 29.5361 3.10174 28.9655 3.10344H24.6621C23.7967 3.1025 22.9886 3.5357 22.5103 4.25689L21.9 5.17241L17.4155 11.8965L16.4431 13.3552C16.199 13.7231 15.7471 13.8938 15.3207 13.7793L12.931 13.1638L11.8603 12.8897L10.7431 12.6L9.67241 12.3259L8.55517 12.0362L7.48448 11.7569L1.5931 10.2414L0.775862 10.0293C0.319629 9.90944 0.00117171 9.49757 0 9.02586V4.65517C0.00170421 4.08455 0.463861 3.62239 1.03448 3.62068H14.4517C15.1215 3.62163 15.75 3.2977 16.1379 2.75172L17.4828 0.86896C17.8706 0.322983 18.4992 -0.000954873 19.169 -5.54862e-06H28.9655C29.5361 0.00169866 29.9983 0.463856 30 1.03448Z" fill="#F3D55B"/>
<path fill-rule="evenodd" clip-rule="evenodd" d="M15.4241 9.60517L12.931 13.1638L11.8604 12.8897L14.5759 9.01551C14.6767 8.85305 14.8589 8.75946 15.0497 8.77217C15.2405 8.78488 15.4087 8.90181 15.4871 9.07622C15.5655 9.25062 15.5413 9.45405 15.4241 9.60517Z" fill="#B19046"/>
<path fill-rule="evenodd" clip-rule="evenodd" d="M12.838 9.60517L10.7432 12.6L9.67249 12.3259L11.9897 9.01551C12.1583 8.798 12.4678 8.75061 12.6938 8.9077C12.9197 9.06479 12.9831 9.37133 12.838 9.60517Z" fill="#B19046"/>
<path fill-rule="evenodd" clip-rule="evenodd" d="M10.2517 9.60517L8.55519 12.0362L7.4845 11.7569L9.40346 9.01551C9.57208 8.798 9.8815 8.75061 10.1075 8.9077C10.3335 9.06479 10.3969 9.37133 10.2517 9.60517Z" fill="#B19046"/>
<path fill-rule="evenodd" clip-rule="evenodd" d="M2.069 7.75862C1.78333 7.75862 1.55176 7.52705 1.55176 7.24138V5.68966C1.55176 5.40399 1.78333 5.17242 2.069 5.17242H3.62072C3.90639 5.17242 4.13796 5.40399 4.13796 5.68966C4.13796 5.97532 3.90639 6.2069 3.62072 6.2069H2.58624V7.24138C2.58624 7.52705 2.35466 7.75862 2.069 7.75862Z" fill="white"/>
<path fill-rule="evenodd" clip-rule="evenodd" d="M25.2569 9.07759L23.3793 11.8966H22.1379L24.3983 8.50862C24.4911 8.33565 24.6738 8.2301 24.8699 8.23612C25.0661 8.24214 25.242 8.35869 25.324 8.53702C25.406 8.71535 25.38 8.92473 25.2569 9.07759Z" fill="#285680"/>
<path fill-rule="evenodd" clip-rule="evenodd" d="M22.6707 9.07759L20.7931 11.8966H19.5518L21.8121 8.50862C21.9049 8.33565 22.0876 8.2301 22.2838 8.23612C22.48 8.24214 22.6558 8.35869 22.7378 8.53702C22.8198 8.71535 22.7939 8.92473 22.6707 9.07759Z" fill="#285680"/>
<path fill-rule="evenodd" clip-rule="evenodd" d="M27.4137 19.1379C27.4131 19.4858 27.375 19.8327 27.3 20.1724C26.8162 22.291 24.9317 23.7937 22.7586 23.7937C20.5854 23.7937 18.701 22.291 18.2172 20.1724C18.0655 19.4911 18.0655 18.7848 18.2172 18.1034C18.701 15.9848 20.5854 14.4822 22.7586 14.4822C24.9317 14.4822 26.8162 15.9848 27.3 18.1034C27.375 18.4432 27.4131 18.79 27.4137 19.1379Z" fill="#424242"/>
<path d="M22.7586 20.6897C23.6156 20.6897 24.3104 19.9949 24.3104 19.1379C24.3104 18.2809 23.6156 17.5862 22.7586 17.5862C21.9016 17.5862 21.2069 18.2809 21.2069 19.1379C21.2069 19.9949 21.9016 20.6897 22.7586 20.6897Z" fill="#ECF0F1"/>
<path fill-rule="evenodd" clip-rule="evenodd" d="M10.8621 19.1379C10.8614 19.4858 10.8233 19.8327 10.7483 20.1724C10.2217 22.4827 8.0437 24.0289 5.68899 23.7639C3.33428 23.499 1.55432 21.5075 1.55432 19.1379C1.55432 16.7684 3.33428 14.7769 5.68899 14.512C8.0437 14.247 10.2217 15.7931 10.7483 18.1035C10.8233 18.4432 10.8614 18.79 10.8621 19.1379Z" fill="#424242"/>
<path d="M6.20688 20.6897C7.06387 20.6897 7.7586 19.9949 7.7586 19.1379C7.7586 18.2809 7.06387 17.5862 6.20688 17.5862C5.34988 17.5862 4.65515 18.2809 4.65515 19.1379C4.65515 19.9949 5.34988 20.6897 6.20688 20.6897Z" fill="#ECF0F1"/>
<path d="M28.5 32.5C25.2101 34.6933 18.6667 36.3333 18.5 36L12 29.5L4 20H28.5L35.5 26C34.8333 26.8333 31.5 30.5 28.5 32.5Z" fill="#757575" fill-opacity="0.1"/>
</svg>
