<svg width="34" height="40" viewBox="0 0 34 40" fill="none" xmlns="http://www.w3.org/2000/svg">
<path d="M26 36.5C22.4634 38.2683 16.1667 39.3333 16 39L8.5 33.5L0 27H25L33.5 31C32.8333 31.8333 29 35 26 36.5Z" fill="#757575" fill-opacity="0.1"/>
<path d="M29.9672 25.8426L25.5215 5.30431L24.1868 27.5706H28.5732C29.4825 27.5706 30.1596 26.7312 29.9672 25.8426Z" fill="#E2E2E2"/>
<path d="M26.7917 26.2359V11.1725L25.5215 5.30431L24.1868 27.5706H25.457C26.1911 27.5706 26.7917 26.97 26.7917 26.2359Z" fill="#BABABA"/>
<path d="M24.2472 3.96961H21.9949H3.58705H1.33471C0.600644 3.96961 0 4.57026 0 5.30432V26.2359C0 26.9699 0.600644 27.5706 1.33471 27.5706H24.2472C24.9813 27.5706 25.5819 26.9699 25.5819 26.2359V5.30432C25.582 4.57026 24.9813 3.96961 24.2472 3.96961Z" fill="#EFEFEF"/>
<path d="M1.20973 26.2359V5.30432C1.20973 4.57026 1.81037 3.96961 2.54443 3.96961H1.33471C0.600644 3.96961 0 4.57026 0 5.30432V26.2359C0 26.9699 0.600644 27.5706 1.33471 27.5706H2.54443C1.81037 27.5706 1.20973 26.97 1.20973 26.2359Z" fill="#E2E2E2"/>
<path d="M18.0397 15.8688L16.4298 13.8156C12.6596 10.7682 6.99683 13.4546 6.99683 18.3234C6.99683 21.5234 9.59095 24.1175 12.7909 24.1175C15.9909 24.1175 18.585 21.5234 18.585 18.3234C18.5851 17.4458 18.389 16.6143 18.0397 15.8688Z" fill="#85C2EF"/>
<path d="M8.20655 18.3234C8.20655 15.3295 10.4773 12.8662 13.3905 12.5612C9.9455 12.2062 6.99683 14.9085 6.99683 18.3234C6.99683 21.7528 9.96231 24.4423 13.3958 24.0861C10.4801 23.7837 8.20655 21.3191 8.20655 18.3234Z" fill="#69AFEB"/>
<path d="M11.8712 20.7037L10.1657 18.4866C9.73482 17.9267 9.83965 17.1237 10.3995 16.6929C10.9595 16.2623 11.7624 16.3669 12.1932 16.9269L12.938 17.8949L16.4753 13.7625C16.9346 13.226 17.7423 13.1633 18.2788 13.6225C18.8154 14.082 18.8781 14.8894 18.4187 15.426L13.8567 20.7556C13.329 21.3721 12.3662 21.3473 11.8712 20.7037Z" fill="#FFA92C"/>
<path d="M18.3222 13.6637L13.8567 18.8805C13.3292 19.4968 12.3662 19.4723 11.8712 18.8286L10.2965 16.7815C9.82853 17.227 9.76285 17.9631 10.1657 18.4866L11.8712 20.7037C12.3649 21.3457 13.3276 21.3738 13.8567 20.7557L18.4187 15.4261C18.865 14.9047 18.8172 14.1288 18.3222 13.6637Z" fill="#F2961D"/>
<path d="M24.2472 3.96961H21.9949H3.58705H1.33471C0.600645 3.96961 0 4.57026 0 5.30432V9.21832H25.582V5.30432C25.582 4.57026 24.9813 3.96961 24.2472 3.96961Z" fill="#6D018D"/>
<path d="M2.5452 3.96961H1.33471C0.600644 3.96961 0 4.57026 0 5.30432V9.21832H1.21049V5.30432C1.21049 4.57026 1.81113 3.96961 2.5452 3.96961Z" fill="#470A59"/>
<path d="M5.77575 6.59396H4.29016C3.90344 6.59396 3.58704 6.27756 3.58704 5.89084V0.703125C3.58704 0.316406 3.90344 0 4.29016 0H5.77581C6.16252 0 6.47893 0.316406 6.47893 0.703125V5.89084C6.47887 6.27756 6.16247 6.59396 5.77575 6.59396Z" fill="#FFCF65"/>
<path d="M21.2918 6.59396H19.8062C19.4194 6.59396 19.103 6.27756 19.103 5.89084V0.703125C19.103 0.316406 19.4194 0 19.8062 0H21.2918C21.6785 0 21.9949 0.316406 21.9949 0.703125V5.89084C21.9949 6.27756 21.6785 6.59396 21.2918 6.59396Z" fill="#FFCF65"/>
<path d="M13.5337 6.59396H12.0481C11.6614 6.59396 11.345 6.27756 11.345 5.89084V0.703125C11.345 0.316406 11.6614 0 12.0481 0H13.5337C13.9205 0 14.2369 0.316406 14.2369 0.703125V5.89084C14.2369 6.27756 13.9205 6.59396 13.5337 6.59396Z" fill="#FFCF65"/>
<path d="M4.79676 5.86816V0.725859C4.79676 0.32666 5.12336 0 5.52262 0H4.3129C3.9137 0 3.58704 0.32666 3.58704 0.725859V5.86816C3.58704 6.26736 3.91364 6.59402 4.3129 6.59402H5.52262C5.12342 6.59396 4.79676 6.26736 4.79676 5.86816Z" fill="#FFB450"/>
<path d="M20.3128 5.86816V0.725859C20.3128 0.32666 20.6394 0 21.0386 0H19.8289C19.4297 0 19.103 0.32666 19.103 0.725859V5.86816C19.103 6.26736 19.4296 6.59402 19.8289 6.59402H21.0386C20.6394 6.59396 20.3128 6.26736 20.3128 5.86816Z" fill="#FFB450"/>
<path d="M12.5547 5.86816V0.725859C12.5547 0.32666 12.8814 0 13.2806 0H12.0708C11.6716 0 11.345 0.32666 11.345 0.725859V5.86816C11.345 6.26736 11.6716 6.59402 12.0708 6.59402H13.2806C12.8814 6.59396 12.5547 6.26736 12.5547 5.86816Z" fill="#FFB450"/>
</svg>
