<svg width="34" height="37" viewBox="0 0 34 37" fill="none" xmlns="http://www.w3.org/2000/svg">
<path d="M22.5 36.5L0 25.5L27 24L33.5 28.5C32.8333 29.3333 31.5 31.5 28.5 33.5C25.2101 35.6933 23 36.5 22.5 36.5Z" fill="#757575" fill-opacity="0.1"/>
<path d="M0.275962 21.9345L12.3517 1.01858C13.1358 -0.339527 15.0961 -0.339527 15.8802 1.01858L27.956 21.9344C28.7401 23.2925 27.76 24.9902 26.1918 24.9902H2.0402C0.471969 24.9902 -0.508124 23.2926 0.275962 21.9345V21.9345Z" fill="#FF5959"/>
<path d="M27.956 21.9345L15.8802 1.01858C15.4881 0.339498 14.802 1.52588e-05 14.116 1.52588e-05V24.9902H26.1917C27.76 24.9902 28.7401 23.2926 27.956 21.9345Z" fill="#F67E7E"/>
<path d="M14.116 5.9977C12.9915 5.9977 12.1035 6.95238 12.1847 8.07395L12.4661 13.2062C12.5287 14.0711 13.2488 14.7408 14.1159 14.7408C14.9831 14.7408 15.7031 14.0711 15.7657 13.2062L16.0471 8.07395C16.1285 6.95238 15.2405 5.9977 14.116 5.9977Z" fill="#FAFAFA"/>
<path d="M14.1159 22.0266C15.1736 22.0266 16.0311 21.1692 16.0311 20.1115C16.0311 19.0538 15.1736 18.1964 14.1159 18.1964C13.0582 18.1964 12.2008 19.0538 12.2008 20.1115C12.2008 21.1692 13.0582 22.0266 14.1159 22.0266Z" fill="#FAFAFA"/>
<path d="M14.116 18.1963V22.0266C15.1737 22.0266 16.0311 21.1692 16.0311 20.1115C16.0311 19.0538 15.1737 18.1963 14.116 18.1963V18.1963Z" fill="#EEEEEE"/>
<path d="M14.116 5.9977V14.7408C14.9832 14.7408 15.7031 14.0711 15.7658 13.2062L16.0472 8.07395C16.1285 6.95238 15.2405 5.9977 14.116 5.9977V5.9977Z" fill="#EEEEEE"/>
</svg>
