<svg width="53" height="52" viewBox="0 0 53 52" fill="none" xmlns="http://www.w3.org/2000/svg">
<g filter="url(#filter0_d_1219_3428)">
<circle cx="26" cy="25" r="25" fill="#F5F5F5"/>
</g>
<path d="M34.5 48.5L15 34L36.5 13L46 40C45.3333 40.8333 44.2699 42.1918 41.5 44.5C38.5 47 38.5 47 34.5 48.5Z" fill="#757575" fill-opacity="0.1"/>
<path d="M23.5958 27.7686L20.6538 30.7111C20.4821 30.8828 20.2571 30.9684 20.0321 30.9684C19.8071 30.9684 19.5821 30.8828 19.4104 30.7111C19.0676 30.3678 19.0676 29.8111 19.4104 29.4678L22.3524 26.5252C22.6958 26.1824 23.2524 26.1824 23.5958 26.5252V26.5258C23.9385 26.8691 23.9391 27.4252 23.5958 27.7686V27.7686Z" fill="#DFE7F4"/>
<path d="M23.5958 27.7686L20.6538 30.7111C20.4821 30.8828 20.2571 30.9684 20.0321 30.9684C19.8071 30.9684 19.5821 30.8828 19.4104 30.7111L23.5958 26.5258C23.9385 26.8691 23.9391 27.4252 23.5958 27.7686Z" fill="#C7CFE1"/>
<path d="M40.1209 20.0447C40.1209 25.583 35.6151 30.0895 30.0762 30.0895C28.0366 30.0895 26.0719 29.4807 24.3956 28.3293C23.8834 27.9777 23.4088 27.5834 22.9735 27.148C22.5387 26.7127 22.1432 26.2375 21.7916 25.7248C20.6403 24.049 20.0315 22.0844 20.0315 20.0447C20.0315 14.5059 24.5379 10 30.0762 10C32.8459 10 35.3573 11.1268 37.1754 12.9461C38.9948 14.7648 40.1209 17.2756 40.1209 20.0447V20.0447Z" fill="#F67E7E"/>
<path d="M40.121 20.0447C40.121 25.583 35.6151 30.0894 30.0762 30.0894C28.0366 30.0894 26.0719 29.4807 24.3956 28.3293C23.8835 27.9777 23.4089 27.5834 22.9735 27.148L37.1755 12.9461C38.9948 14.7648 40.121 17.2756 40.121 20.0447V20.0447Z" fill="#FF5959"/>
<path d="M22.6688 20.0453C22.6688 20.5307 23.0623 20.9242 23.5477 20.9242C24.0331 20.9242 24.4266 20.5307 24.4266 20.0453C24.4266 16.9298 26.9613 14.3951 30.0768 14.3951C30.5622 14.3951 30.9557 14.0016 30.9557 13.5162C30.9557 13.0308 30.5622 12.6373 30.0768 12.6373C25.992 12.6373 22.6688 15.9605 22.6688 20.0453Z" fill="#F0F7FF"/>
<path d="M21.896 31.9533L14.986 38.8639C14.6425 39.2074 14.0857 39.2063 13.7432 38.8639L12.5005 37.6211L11.2571 36.3777C10.915 36.0357 10.9136 35.4785 11.2571 35.135L18.1676 28.2244C18.3323 28.0598 18.5555 27.9672 18.7887 27.9672C19.0219 27.9672 19.2458 28.0598 19.4104 28.2244L20.6538 29.4678L21.896 30.7105C22.2393 31.0539 22.2393 31.6105 21.896 31.9533V31.9533Z" fill="#616161"/>
<path d="M21.896 31.9533L14.986 38.8639C14.6425 39.2074 14.0857 39.2063 13.7433 38.8639L12.5005 37.6211L20.6538 29.4678L21.896 30.7105C22.2394 31.0539 22.2394 31.6105 21.896 31.9533V31.9533Z" fill="#4E4E4E"/>
<defs>
<filter id="filter0_d_1219_3428" x="0.5" y="0" width="52" height="52" filterUnits="userSpaceOnUse" color-interpolation-filters="sRGB">
<feFlood flood-opacity="0" result="BackgroundImageFix"/>
<feColorMatrix in="SourceAlpha" type="matrix" values="0 0 0 0 0 0 0 0 0 0 0 0 0 0 0 0 0 0 127 0" result="hardAlpha"/>
<feOffset dx="0.5" dy="1"/>
<feGaussianBlur stdDeviation="0.5"/>
<feComposite in2="hardAlpha" operator="out"/>
<feColorMatrix type="matrix" values="0 0 0 0 0 0 0 0 0 0 0 0 0 0 0 0 0 0 0.1 0"/>
<feBlend mode="normal" in2="BackgroundImageFix" result="effect1_dropShadow_1219_3428"/>
<feBlend mode="normal" in="SourceGraphic" in2="effect1_dropShadow_1219_3428" result="shape"/>
</filter>
</defs>
</svg>
