<svg width="53" height="52" viewBox="0 0 53 52" fill="none" xmlns="http://www.w3.org/2000/svg">
<g filter="url(#filter0_d_1687_1628)">
<circle cx="26" cy="25" r="25" fill="#F5F5F5"/>
</g>
<path d="M26 50L14.5 34H37L45.5 40.5C43 43.5 41 45 38 47C34.7101 49.1933 30 50 26 50Z" fill="#757575" fill-opacity="0.1"/>
<path d="M40 23C40 27.39 38.1138 31.3395 35.1081 34.0829C32.4414 36.5159 28.8942 38 25 38C21.1058 38 17.5586 36.5159 14.8919 34.0829C11.8862 31.3395 10 27.39 10 23C10 14.7161 16.7161 8 25 8C33.2839 8 40 14.7161 40 23Z" fill="#FFAA20"/>
<path d="M40 23C40 27.39 38.1138 31.3395 35.1081 34.0829C32.4414 36.5159 28.8942 38 25 38V8C33.2839 8 40 14.7161 40 23Z" fill="#FF8900"/>
<path d="M35.1081 34.0232V34.0829C32.4414 36.5159 28.8941 38 25 38C21.1058 38 17.5585 36.5159 14.8918 34.0829V34.0232C14.8918 29.6779 17.6483 25.9636 21.5049 24.5388C22.5942 24.1355 23.7718 23.9153 25 23.9153C26.2281 23.9153 27.4057 24.1355 28.4957 24.5388C32.3523 25.9642 35.1081 29.6779 35.1081 34.0232Z" fill="#94D096"/>
<path d="M35.1081 34.0232V34.0829C32.4414 36.5159 28.8942 38 25 38V23.9153C26.2282 23.9153 27.4058 24.1355 28.4957 24.5388C32.3524 25.9642 35.1081 29.6779 35.1081 34.0232Z" fill="#4DB151"/>
<path d="M31.1997 19.4212C31.1997 22.8396 28.4191 25.6212 25 25.6212C21.5817 25.6212 18.8003 22.8396 18.8003 19.4212C18.8003 16.0029 21.5817 13.2215 25 13.2215C28.4191 13.2215 31.1997 16.0029 31.1997 19.4212V19.4212Z" fill="#FFDBA9"/>
<path d="M31.1997 19.4212C31.1997 22.8396 28.419 25.6212 25 25.6212V13.2215C28.419 13.2215 31.1997 16.0029 31.1997 19.4212V19.4212Z" fill="#FFC473"/>
<g clip-path="url(#clip0_1687_1628)">
<path d="M31.1285 36.0158L32.7756 34.3688L33.6291 35.2223L31.9821 36.8694L31.1285 36.0158Z" fill="#97C5D0"/>
<path d="M31.8768 37.4035L28.5456 40.7348C28.192 41.0884 27.6187 41.0884 27.2651 40.7348L31.2366 35.9097L31.8768 37.4035Z" fill="#2D4853"/>
<path d="M31.6635 36.3365L27.2651 40.7348C26.9117 40.3813 26.9115 39.8079 27.2651 39.4543L30.5964 36.1231L31.6635 36.3365Z" fill="#446875"/>
<path d="M32.5171 36.7633L31.8768 36.1231L31.3433 36.2298L31.2366 36.7633L31.8768 37.4035L32.5171 36.7633Z" fill="#BBE1E7"/>
<path d="M30.595 36.1225L31.2351 35.4823L31.8752 36.1225L31.2351 36.7626L30.595 36.1225Z" fill="#DFFDFF"/>
<path d="M36.5674 36.8652C39.5677 36.8652 41.9999 34.4329 41.9999 31.4326C41.9999 28.4323 39.5677 26 36.5674 26C33.567 26 31.1348 28.4323 31.1348 31.4326C31.1348 34.4329 33.567 36.8652 36.5674 36.8652Z" fill="#2D4853"/>
<path d="M39.7685 28.2314L33.3661 34.6338C35.1312 36.3989 38.0033 36.3989 39.7685 34.6338C41.5336 32.8686 41.5336 29.9965 39.7685 28.2314V28.2314Z" fill="#AAF4F9"/>
<path d="M39.1282 33.9935C40.8934 32.2284 41.1806 29.6435 39.7685 28.2314C38.0033 26.4663 35.1312 26.4663 33.3661 28.2314C31.601 29.9965 31.601 32.8686 33.3661 34.6338C34.7782 36.0459 37.3631 35.7587 39.1282 33.9935Z" fill="#DFFDFF"/>
</g>
<defs>
<filter id="filter0_d_1687_1628" x="0.5" y="0" width="52" height="52" filterUnits="userSpaceOnUse" color-interpolation-filters="sRGB">
<feFlood flood-opacity="0" result="BackgroundImageFix"/>
<feColorMatrix in="SourceAlpha" type="matrix" values="0 0 0 0 0 0 0 0 0 0 0 0 0 0 0 0 0 0 127 0" result="hardAlpha"/>
<feOffset dx="0.5" dy="1"/>
<feGaussianBlur stdDeviation="0.5"/>
<feComposite in2="hardAlpha" operator="out"/>
<feColorMatrix type="matrix" values="0 0 0 0 0 0 0 0 0 0 0 0 0 0 0 0 0 0 0.1 0"/>
<feBlend mode="normal" in2="BackgroundImageFix" result="effect1_dropShadow_1687_1628"/>
<feBlend mode="normal" in="SourceGraphic" in2="effect1_dropShadow_1687_1628" result="shape"/>
</filter>
<clipPath id="clip0_1687_1628">
<rect width="15" height="15" fill="white" transform="translate(27 26)"/>
</clipPath>
</defs>
</svg>
