<svg width="36" height="42" viewBox="0 0 36 42" fill="none" xmlns="http://www.w3.org/2000/svg">
<path d="M16 42L4.5 26H27L35.5 32.5C33 35.5 31 37 28 39C24.7101 41.1933 20 42 16 42Z" fill="#757575" fill-opacity="0.1"/>
<path d="M30 15C30 19.39 28.1138 23.3395 25.1081 26.0829C22.4414 28.5159 18.8942 30 15 30C11.1058 30 7.55859 28.5159 4.89189 26.0829C1.88622 23.3395 0 19.39 0 15C0 6.71608 6.71608 0 15 0C23.2839 0 30 6.71608 30 15Z" fill="#FFAA20"/>
<path d="M30 15C30 19.39 28.1138 23.3395 25.1081 26.0829C22.4414 28.5159 18.8942 30 15 30V0C23.2839 0 30 6.71608 30 15Z" fill="#FF8900"/>
<path d="M25.1081 26.0232V26.0829C22.4414 28.5159 18.8941 30 15 30C11.1058 30 7.55855 28.5159 4.89185 26.0829V26.0232C4.89185 21.6779 7.64827 17.9636 11.5049 16.5388C12.5942 16.1355 13.7718 15.9153 15 15.9153C16.2281 15.9153 17.4057 16.1355 18.4957 16.5388C22.3523 17.9642 25.1081 21.6779 25.1081 26.0232Z" fill="#94D096"/>
<path d="M25.1081 26.0232V26.0829C22.4414 28.5159 18.8942 30 15 30V15.9153C16.2282 15.9153 17.4058 16.1355 18.4957 16.5388C22.3524 17.9642 25.1081 21.6779 25.1081 26.0232Z" fill="#4DB151"/>
<path d="M21.1997 11.4212C21.1997 14.8396 18.4191 17.6212 15 17.6212C11.5817 17.6212 8.80029 14.8396 8.80029 11.4212C8.80029 8.00285 11.5817 5.22148 15 5.22148C18.4191 5.22148 21.1997 8.00285 21.1997 11.4212V11.4212Z" fill="#FFDBA9"/>
<path d="M21.1997 11.4212C21.1997 14.8396 18.419 17.6212 15 17.6212V5.22148C18.419 5.22148 21.1997 8.00285 21.1997 11.4212V11.4212Z" fill="#FFC473"/>
<g clip-path="url(#clip0_1399_3468)">
<path d="M21.1285 28.0158L22.7756 26.3688L23.6291 27.2223L21.9821 28.8694L21.1285 28.0158Z" fill="#97C5D0"/>
<path d="M21.8768 29.4035L18.5456 32.7348C18.192 33.0884 17.6187 33.0884 17.2651 32.7348L21.2366 27.9097L21.8768 29.4035Z" fill="#2D4853"/>
<path d="M21.6635 28.3365L17.2651 32.7348C16.9117 32.3813 16.9115 31.8079 17.2651 31.4543L20.5964 28.1231L21.6635 28.3365Z" fill="#446875"/>
<path d="M22.5171 28.7633L21.8768 28.1231L21.3433 28.2298L21.2366 28.7633L21.8768 29.4035L22.5171 28.7633Z" fill="#BBE1E7"/>
<path d="M20.595 28.1225L21.2351 27.4823L21.8752 28.1225L21.2351 28.7626L20.595 28.1225Z" fill="#DFFDFF"/>
<path d="M26.5674 28.8652C29.5677 28.8652 31.9999 26.4329 31.9999 23.4326C31.9999 20.4323 29.5677 18 26.5674 18C23.567 18 21.1348 20.4323 21.1348 23.4326C21.1348 26.4329 23.567 28.8652 26.5674 28.8652Z" fill="#2D4853"/>
<path d="M29.7685 20.2314L23.3661 26.6338C25.1312 28.3989 28.0033 28.3989 29.7685 26.6338C31.5336 24.8686 31.5336 21.9965 29.7685 20.2314V20.2314Z" fill="#AAF4F9"/>
<path d="M29.1282 25.9935C30.8934 24.2284 31.1806 21.6435 29.7685 20.2314C28.0033 18.4663 25.1312 18.4663 23.3661 20.2314C21.601 21.9965 21.601 24.8686 23.3661 26.6338C24.7782 28.0459 27.3631 27.7587 29.1282 25.9935Z" fill="#DFFDFF"/>
</g>
<defs>
<clipPath id="clip0_1399_3468">
<rect width="15" height="15" fill="white" transform="translate(17 18)"/>
</clipPath>
</defs>
</svg>
