<svg width="37" height="38" viewBox="0 0 37 38" fill="none" xmlns="http://www.w3.org/2000/svg">
<path d="M25.5 37L2 21L25.5 3L36.5 28.5C35.8333 29.3333 34 32 31 34C27.7101 36.1933 25.6667 37.3333 25.5 37Z" fill="#757575" fill-opacity="0.1"/>
<path d="M15.4257 5.04716L14.6859 7.8283L13.566 12.0411L11.5457 19.6386L2.69287 16.4212L8.21782 8.08763L10.6775 4.3776L11.188 3.60702C11.1881 3.60702 14.1689 1.53504 15.4257 5.04716V5.04716Z" fill="#FF5959"/>
<path d="M25.6047 6.62717L25.3901 9.497L25.0658 13.844L24.4803 21.6837L15.1862 20.1529L19.0807 10.9438L20.8144 6.84403L21.1742 5.99258C21.1742 5.99269 23.7221 3.40686 25.6047 6.62717V6.62717Z" fill="#FF5959"/>
<path d="M20.6559 11.3297L19.7992 13.8049L18.1392 14.6966C14.901 12.7543 11.2394 14.7591 11.2394 14.7591L10.4581 12.9003L12.2873 10.5129C12.2873 10.5129 16.8811 8.39274 20.6559 11.3297Z" fill="#DE5D5D"/>
<path d="M19.7992 13.8049L18.1392 14.6966C14.901 12.7543 11.2394 14.7591 11.2394 14.7591L10.4581 12.9003C10.4581 12.9003 15.6564 10.0204 19.7992 13.8049Z" fill="#AF0020"/>
<path d="M22.2349 10.9362C19.2657 10.4624 17.5179 11.3762 16.8937 13.7739L14.4058 20.0955L25.5313 22.6434L26.3701 16.0575C26.4429 13.6339 25.1525 11.4017 22.2349 10.9362V10.9362Z" fill="#F67E7E"/>
<path d="M25.5515 22.6449C25.9702 20.0268 23.7749 17.4991 20.6481 16.9991C17.5214 16.4991 14.6473 18.2161 14.2287 20.8341C13.81 23.4522 16.0053 25.9799 19.132 26.4799C22.2587 26.9799 25.1328 25.2629 25.5515 22.6449Z" fill="#FF5959"/>
<path d="M23.7198 22.8349C23.7154 22.8755 23.7102 22.916 23.7037 22.9568C23.4501 24.5457 21.487 25.5537 19.3197 25.2079C17.1517 24.8619 15.5997 23.293 15.8533 21.7041C15.9132 21.3286 16.0687 20.9847 16.3001 20.6838C17.0474 19.7136 18.5831 19.189 20.2377 19.4526C22.3499 19.79 23.8776 21.2887 23.7198 22.8349V22.8349Z" fill="#6FE1FF"/>
<path d="M23.7197 22.8349C22.9726 23.8056 21.4374 24.3306 19.7816 24.0664C17.6686 23.7288 16.1417 22.2303 16.3 20.6837C17.0473 19.7135 18.583 19.1889 20.2376 19.4525C22.3498 19.79 23.8775 21.2886 23.7197 22.8349V22.8349Z" fill="#A1EDFF"/>
<path d="M11.3196 8.66127C8.48852 7.6484 6.60231 8.22437 5.54687 10.466L1.93652 16.2209L12.4019 20.7755L14.4401 14.457C14.9583 12.0883 14.1014 9.65659 11.3196 8.66127V8.66127Z" fill="#F67E7E"/>
<path d="M12.4126 20.7759C13.3056 18.2797 11.6128 15.3917 8.63164 14.3252C5.65051 13.2587 2.5099 14.4176 1.61691 16.9138C0.723915 19.4099 2.41669 22.298 5.39782 23.3645C8.37896 24.431 11.5196 23.272 12.4126 20.7759Z" fill="#FF5959"/>
<path d="M10.5862 20.6299C10.5744 20.669 10.5618 20.7078 10.5479 20.7467C10.0058 22.2617 7.89053 22.8906 5.82416 22.1513C3.75702 21.4117 2.52076 19.5837 3.06279 18.0687C3.19086 17.7107 3.40713 17.4013 3.68994 17.1482C4.6033 16.3323 6.20934 16.0997 7.78703 16.6638C9.80093 17.3847 11.0263 19.1392 10.5862 20.6299Z" fill="#6FE1FF"/>
<path d="M10.5861 20.6299C9.67299 21.4462 8.06722 21.6794 6.48851 21.1145C4.47391 20.3933 3.24934 18.6391 3.68991 17.1482C4.60327 16.3323 6.2093 16.0997 7.787 16.6638C9.8009 17.3847 11.0262 19.1392 10.5861 20.6299Z" fill="#A1EDFF"/>
<path d="M25.6997 8.26141C25.6996 8.26141 25.6998 8.26141 25.6997 8.26141C24.4031 8.26141 23.3121 8.20057 22.4622 8.12601C21.9383 8.08006 21.6102 7.53767 21.8111 7.0516C22.3682 5.70326 23.0561 4.37131 23.863 3.07951C24.4123 2.20019 24.9426 1.45904 25.391 0.875917C25.7037 0.469238 26.3155 0.46912 26.6282 0.875781C27.0744 1.456 27.6018 2.19295 28.1483 3.06685C28.9512 4.35055 29.6365 5.67412 30.1927 7.01416C30.3946 7.50066 30.0653 8.04385 29.5406 8.08996C28.2449 8.20385 26.9572 8.26141 25.6997 8.26141V8.26141Z" fill="#FFCC00"/>
<path d="M26.1928 0.592537C26.0407 0.632537 25.8982 0.727947 25.7929 0.878553C25.3816 1.46683 24.8952 2.21463 24.3914 3.10176C23.6511 4.40502 23.0201 5.74879 22.5091 7.10896C22.342 7.5533 22.5735 8.0443 22.9761 8.16705C22.7961 8.15406 22.6248 8.14021 22.4622 8.12601C21.9382 8.08002 21.6103 7.53773 21.811 7.0515C22.3682 5.70332 23.0561 4.37135 23.8631 3.07953C24.4124 2.20027 24.9426 1.45896 25.391 0.875994C25.589 0.618514 25.907 0.523983 26.1928 0.592537V0.592537Z" fill="#685403"/>
<path d="M29.6298 4.44439V4.38787C29.6298 4.18849 29.7841 4.02316 29.9831 4.00951L30.5949 3.96754C30.8141 3.9525 31.0001 4.12623 31.0001 4.3459V4.48636C31.0001 4.70603 30.8141 4.87976 30.5949 4.86472L29.9831 4.82275C29.7842 4.80912 29.6298 4.64379 29.6298 4.44439Z" fill="#FFCC00"/>
<path d="M29.1576 2.62577L29.1293 2.57681C29.0297 2.40413 29.0807 2.18376 29.2461 2.07249L29.755 1.73022C29.9373 1.60763 30.1853 1.66505 30.2951 1.85528L30.3653 1.97694C30.4752 2.16718 30.4009 2.41065 30.2036 2.50722L29.6527 2.77679C29.4737 2.86444 29.2573 2.79845 29.1576 2.62577Z" fill="#FFCC00"/>
<path d="M27.8394 1.28689L27.7904 1.25863C27.6177 1.15894 27.5517 0.942575 27.6394 0.763493L27.9089 0.212633C28.0055 0.0153286 28.249 -0.0589292 28.4392 0.050895L28.5609 0.121129C28.7511 0.230973 28.8085 0.478942 28.6859 0.661227L28.3437 1.17011C28.2324 1.33554 28.012 1.38658 27.8394 1.28689V1.28689Z" fill="#FFCC00"/>
<path d="M22.3704 4.44439V4.38787C22.3704 4.18849 22.216 4.02316 22.0171 4.00951L21.4052 3.96754C21.1861 3.9525 21 4.12623 21 4.3459V4.48636C21 4.70603 21.1861 4.87976 21.4052 4.86472L22.0171 4.82275C22.216 4.80912 22.3704 4.64379 22.3704 4.44439Z" fill="#FFCC00"/>
<path d="M22.8425 2.62577L22.8708 2.57681C22.9704 2.40413 22.9194 2.18376 22.754 2.07249L22.2451 1.73022C22.0628 1.60763 21.8148 1.66505 21.705 1.85528L21.6348 1.97694C21.5249 2.16718 21.5992 2.41065 21.7965 2.50722L22.3474 2.77679C22.5264 2.86444 22.7428 2.79845 22.8425 2.62577Z" fill="#FFCC00"/>
<path d="M24.1607 1.28689L24.2097 1.25863C24.3824 1.15894 24.4483 0.942575 24.3607 0.763493L24.0911 0.212633C23.9946 0.0153286 23.7511 -0.0589292 23.5609 0.050895L23.4392 0.121129C23.249 0.230973 23.1915 0.478942 23.3141 0.661227L23.6564 1.17011C23.7677 1.33554 23.988 1.38658 24.1607 1.28689Z" fill="#FFCC00"/>
<path d="M25.7832 2.64867C25.9291 2.634 26.075 2.634 26.2209 2.64867C26.4055 2.66724 26.5468 2.8214 26.5536 3.00679C26.5759 3.61322 26.5759 4.21964 26.5536 4.82607C26.5469 5.01146 26.4055 5.16564 26.2209 5.18419C26.075 5.19886 25.9291 5.19886 25.7832 5.18419C25.5986 5.16562 25.4573 5.01146 25.4505 4.82607C25.4283 4.21964 25.4283 3.61322 25.4505 3.00679C25.4573 2.82138 25.5986 2.66722 25.7832 2.64867V2.64867Z" fill="white"/>
<path d="M25.7938 5.84974C25.9327 5.8431 26.0715 5.8431 26.2103 5.84974C26.4017 5.8589 26.5554 6.01292 26.564 6.20429C26.5724 6.39085 26.5724 6.57741 26.564 6.764C26.5554 6.95536 26.4017 7.10939 26.2103 7.11855C26.0715 7.12519 25.9327 7.12519 25.7938 7.11855C25.6025 7.10939 25.4488 6.95536 25.4402 6.764C25.4317 6.57743 25.4317 6.39087 25.4402 6.20429C25.4488 6.01292 25.6025 5.8589 25.7938 5.84974V5.84974Z" fill="white"/>
</svg>
