<svg width="53" height="52" viewBox="0 0 53 52" fill="none" xmlns="http://www.w3.org/2000/svg">
<g filter="url(#filter0_d_1468_1677)">
<circle cx="26" cy="25" r="25" fill="#F5F5F5"/>
</g>
<path d="M35.5 48L12 32L35.5 14L46.5 39.5C45.8333 40.3333 44 43 41 45C37.7101 47.1933 35.6667 48.3333 35.5 48Z" fill="#757575" fill-opacity="0.1"/>
<path d="M25.4257 16.0472L24.6859 18.8283L23.5661 23.0411L21.5458 30.6386L12.6929 27.4212L18.2179 19.0876L20.6775 15.3776L21.1881 14.607C21.1881 14.607 24.169 12.535 25.4257 16.0472Z" fill="#FF5959"/>
<path d="M35.6046 17.6272L35.39 20.497L35.0658 24.844L34.4803 32.6837L25.1861 31.1529L29.0806 21.9438L30.8144 17.844L31.1742 16.9926C31.1742 16.9927 33.7221 14.4069 35.6046 17.6272Z" fill="#FF5959"/>
<path d="M30.6558 22.3297L29.7991 24.8049L28.1391 25.6966C24.901 23.7543 21.2393 25.7591 21.2393 25.7591L20.4581 23.9003L22.2873 21.5129C22.2873 21.5129 26.881 19.3927 30.6558 22.3297Z" fill="#DE5D5D"/>
<path d="M29.7991 24.8049L28.1391 25.6966C24.901 23.7543 21.2393 25.7591 21.2393 25.7591L20.4581 23.9003C20.4581 23.9003 25.6563 21.0204 29.7991 24.8049Z" fill="#AF0020"/>
<path d="M32.2348 21.9362C29.2656 21.4624 27.5179 22.3762 26.8936 24.7739L24.4057 31.0955L35.5312 33.6434L36.3701 27.0575C36.4428 24.6339 35.1524 22.4017 32.2348 21.9362Z" fill="#F67E7E"/>
<path d="M35.5514 33.6449C35.9701 31.0268 33.7748 28.4991 30.6481 27.9991C27.5214 27.4991 24.6473 29.2161 24.2286 31.8341C23.8099 34.4522 26.0052 36.9799 29.1319 37.4799C32.2586 37.9799 35.1327 36.2629 35.5514 33.6449Z" fill="#FF5959"/>
<path d="M33.7197 33.8349C33.7153 33.8755 33.7101 33.916 33.7036 33.9568C33.4501 35.5457 31.4869 36.5537 29.3197 36.2079C27.1516 35.8619 25.5997 34.293 25.8532 32.7041C25.9132 32.3286 26.0687 31.9847 26.3 31.6838C27.0474 30.7136 28.583 30.189 30.2377 30.4526C32.3498 30.79 33.8775 32.2887 33.7197 33.8349Z" fill="#6FE1FF"/>
<path d="M33.7197 33.8349C32.9727 34.8056 31.4374 35.3306 29.7816 35.0664C27.6687 34.7288 26.1418 33.2303 26.3 31.6837C27.0474 30.7135 28.583 30.1889 30.2377 30.4525C32.3499 30.79 33.8776 32.2886 33.7197 33.8349Z" fill="#A1EDFF"/>
<path d="M21.3196 19.6613C18.4885 18.6484 16.6023 19.2244 15.5469 21.466L11.9365 27.2209L22.4019 31.7755L24.4401 25.457C24.9583 23.0883 24.1014 20.6566 21.3196 19.6613Z" fill="#F67E7E"/>
<path d="M22.4126 31.7759C23.3056 29.2797 21.6128 26.3917 18.6316 25.3252C15.6505 24.2587 12.5099 25.4176 11.6169 27.9138C10.7239 30.4099 12.4167 33.298 15.3978 34.3645C18.379 35.431 21.5196 34.272 22.4126 31.7759Z" fill="#FF5959"/>
<path d="M20.5861 31.6299C20.5743 31.669 20.5617 31.7078 20.5478 31.7467C20.0058 33.2617 17.8905 33.8906 15.8241 33.1513C13.757 32.4117 12.5207 30.5837 13.0627 29.0687C13.1908 28.7107 13.4071 28.4013 13.6899 28.1482C14.6032 27.3323 16.2093 27.0997 17.787 27.6638C19.8009 28.3847 21.0262 30.1392 20.5861 31.6299Z" fill="#6FE1FF"/>
<path d="M20.5861 31.6299C19.673 32.4462 18.0672 32.6794 16.4885 32.1145C14.4739 31.3933 13.2493 29.6391 13.6899 28.1482C14.6033 27.3323 16.2093 27.0997 17.787 27.6638C19.8009 28.3847 21.0262 30.1392 20.5861 31.6299Z" fill="#A1EDFF"/>
<path d="M34.0496 23.3921C34.0494 23.3921 34.0496 23.3921 34.0495 23.3921C32.1046 23.3921 30.4682 23.3008 29.1933 23.189C28.4074 23.1201 27.9153 22.3065 28.2166 21.5774C29.0523 19.5549 30.0841 17.557 31.2946 15.6193C32.1185 14.3003 32.9139 13.1886 33.5865 12.3139C34.0555 11.7039 34.9732 11.7037 35.4423 12.3137C36.1115 13.184 36.9027 14.2894 37.7225 15.6003C38.9267 17.5258 39.9547 19.5112 40.789 21.5212C41.092 22.251 40.598 23.0658 39.8109 23.1349C37.8673 23.3058 35.9357 23.3921 34.0496 23.3921Z" fill="#FFCC00"/>
<path d="M34.7892 11.8888C34.561 11.9488 34.3474 12.0919 34.1894 12.3178C33.5724 13.2003 32.8428 14.3219 32.087 15.6526C30.9766 17.6075 30.0301 19.6232 29.2636 21.6634C29.013 22.3299 29.3603 23.0664 29.9642 23.2506C29.6942 23.2311 29.4372 23.2103 29.1933 23.189C28.4073 23.12 27.9154 22.3066 28.2165 21.5773C29.0523 19.555 30.0842 17.557 31.2947 15.6193C32.1186 14.3004 32.9139 13.1884 33.5865 12.314C33.8834 11.9278 34.3605 11.786 34.7892 11.8888Z" fill="#685403"/>
<path d="M39.9446 17.6666V17.5818C39.9446 17.2827 40.1761 17.0347 40.4745 17.0143L41.3923 16.9513C41.7211 16.9287 42.0001 17.1893 42.0001 17.5188V17.7295C42.0001 18.059 41.721 18.3196 41.3923 18.2971L40.4745 18.2341C40.1762 18.2137 39.9446 17.9657 39.9446 17.6666Z" fill="#FFCC00"/>
<path d="M39.2363 14.9387L39.1939 14.8652C39.0444 14.6062 39.121 14.2756 39.3691 14.1087L40.1324 13.5953C40.4059 13.4114 40.7778 13.4976 40.9426 13.7829L41.0479 13.9654C41.2127 14.2508 41.1013 14.616 40.8053 14.7608L39.979 15.1652C39.7104 15.2967 39.3859 15.1977 39.2363 14.9387Z" fill="#FFCC00"/>
<path d="M37.259 12.9303L37.1856 12.8879C36.9266 12.7384 36.8276 12.4139 36.9591 12.1452L37.3634 11.3189C37.5083 11.023 37.8735 10.9116 38.1588 11.0763L38.3413 11.1817C38.6267 11.3465 38.7128 11.7184 38.5289 11.9918L38.0155 12.7552C37.8486 13.0033 37.518 13.0799 37.259 12.9303Z" fill="#FFCC00"/>
<path d="M29.0555 17.6666V17.5818C29.0555 17.2827 28.824 17.0347 28.5256 17.0143L27.6078 16.9513C27.2791 16.9287 27 17.1893 27 17.5188V17.7295C27 18.059 27.2791 18.3196 27.6078 18.2971L28.5256 18.2341C28.8239 18.2137 29.0555 17.9657 29.0555 17.6666Z" fill="#FFCC00"/>
<path d="M29.7638 14.9387L29.8061 14.8652C29.9557 14.6062 29.8791 14.2756 29.631 14.1087L28.8676 13.5953C28.5942 13.4114 28.2223 13.4976 28.0575 13.7829L27.9521 13.9654C27.7874 14.2508 27.8988 14.616 28.1948 14.7608L29.021 15.1652C29.2897 15.2967 29.6142 15.1977 29.7638 14.9387Z" fill="#FFCC00"/>
<path d="M31.7411 12.9303L31.8145 12.8879C32.0735 12.7384 32.1725 12.4139 32.041 12.1452L31.6367 11.3189C31.4918 11.023 31.1266 10.9116 30.8413 11.0763L30.6588 11.1817C30.3734 11.3465 30.2873 11.7184 30.4712 11.9918L30.9846 12.7552C31.1515 13.0033 31.4821 13.0799 31.7411 12.9303Z" fill="#FFCC00"/>
<path d="M34.1749 14.973C34.3937 14.951 34.6126 14.951 34.8314 14.973C35.1083 15.0009 35.3202 15.2321 35.3305 15.5102C35.3638 16.4198 35.3638 17.3295 35.3305 18.2391C35.3203 18.5172 35.1083 18.7485 34.8314 18.7763C34.6126 18.7983 34.3937 18.7983 34.1749 18.7763C33.898 18.7484 33.686 18.5172 33.6758 18.2391C33.6424 17.3295 33.6424 16.4198 33.6758 15.5102C33.686 15.2321 33.898 15.0008 34.1749 14.973Z" fill="white"/>
<path d="M34.1907 19.7746C34.399 19.7646 34.6072 19.7646 34.8155 19.7746C35.1025 19.7883 35.333 20.0194 35.346 20.3064C35.3586 20.5863 35.3586 20.8661 35.346 21.146C35.333 21.433 35.1025 21.6641 34.8155 21.6778C34.6072 21.6878 34.399 21.6878 34.1907 21.6778C33.9037 21.6641 33.6732 21.433 33.6602 21.146C33.6476 20.8661 33.6476 20.5863 33.6602 20.3064C33.6732 20.0194 33.9037 19.7883 34.1907 19.7746Z" fill="white"/>
<defs>
<filter id="filter0_d_1468_1677" x="0.5" y="0" width="52" height="52" filterUnits="userSpaceOnUse" color-interpolation-filters="sRGB">
<feFlood flood-opacity="0" result="BackgroundImageFix"/>
<feColorMatrix in="SourceAlpha" type="matrix" values="0 0 0 0 0 0 0 0 0 0 0 0 0 0 0 0 0 0 127 0" result="hardAlpha"/>
<feOffset dx="0.5" dy="1"/>
<feGaussianBlur stdDeviation="0.5"/>
<feComposite in2="hardAlpha" operator="out"/>
<feColorMatrix type="matrix" values="0 0 0 0 0 0 0 0 0 0 0 0 0 0 0 0 0 0 0.1 0"/>
<feBlend mode="normal" in2="BackgroundImageFix" result="effect1_dropShadow_1468_1677"/>
<feBlend mode="normal" in="SourceGraphic" in2="effect1_dropShadow_1468_1677" result="shape"/>
</filter>
</defs>
</svg>
