<svg width="53" height="52" viewBox="0 0 53 52" fill="none" xmlns="http://www.w3.org/2000/svg">
<g filter="url(#filter0_d_1219_3446)">
<circle cx="26" cy="25" r="25" fill="#F5F5F5"/>
</g>
<path d="M35.5 48L12 32L35.5 14L46.5 39.5C45.8333 40.3333 44 43 41 45C37.7101 47.1933 35.6667 48.3333 35.5 48Z" fill="#757575" fill-opacity="0.1"/>
<path d="M25.4257 16.0472L24.6859 18.8283L23.566 23.0411L21.5457 30.6386L12.6929 27.4212L18.2178 19.0876L20.6775 15.3776L21.188 14.607C21.1881 14.607 24.1689 12.535 25.4257 16.0472V16.0472Z" fill="#FF5959"/>
<path d="M35.6047 17.6272L35.3901 20.497L35.0658 24.844L34.4803 32.6837L25.1862 31.1529L29.0807 21.9438L30.8144 17.844L31.1742 16.9926C31.1742 16.9927 33.7221 14.4069 35.6047 17.6272V17.6272Z" fill="#FF5959"/>
<path d="M30.6559 22.3297L29.7992 24.8049L28.1392 25.6966C24.901 23.7543 21.2394 25.7591 21.2394 25.7591L20.4581 23.9003L22.2873 21.5129C22.2873 21.5129 26.8811 19.3927 30.6559 22.3297Z" fill="#DE5D5D"/>
<path d="M29.7992 24.8049L28.1392 25.6966C24.901 23.7543 21.2394 25.7591 21.2394 25.7591L20.4581 23.9003C20.4581 23.9003 25.6564 21.0204 29.7992 24.8049Z" fill="#AF0020"/>
<path d="M32.2349 21.9362C29.2657 21.4624 27.5179 22.3762 26.8937 24.7739L24.4058 31.0955L35.5313 33.6434L36.3701 27.0575C36.4429 24.6339 35.1525 22.4017 32.2349 21.9362V21.9362Z" fill="#F67E7E"/>
<path d="M35.5515 33.6449C35.9702 31.0268 33.7749 28.4991 30.6481 27.9991C27.5214 27.4991 24.6473 29.2161 24.2287 31.8341C23.81 34.4522 26.0053 36.9799 29.132 37.4799C32.2587 37.9799 35.1328 36.2629 35.5515 33.6449Z" fill="#FF5959"/>
<path d="M33.7198 33.8349C33.7154 33.8755 33.7102 33.916 33.7037 33.9568C33.4501 35.5457 31.487 36.5537 29.3197 36.2079C27.1517 35.8619 25.5997 34.293 25.8533 32.7041C25.9132 32.3286 26.0687 31.9847 26.3001 31.6838C27.0474 30.7136 28.5831 30.189 30.2377 30.4526C32.3499 30.79 33.8776 32.2887 33.7198 33.8349V33.8349Z" fill="#6FE1FF"/>
<path d="M33.7197 33.8349C32.9726 34.8056 31.4374 35.3306 29.7816 35.0664C27.6686 34.7288 26.1417 33.2303 26.3 31.6837C27.0473 30.7135 28.583 30.1889 30.2376 30.4525C32.3498 30.79 33.8775 32.2886 33.7197 33.8349V33.8349Z" fill="#A1EDFF"/>
<path d="M21.3196 19.6613C18.4885 18.6484 16.6023 19.2244 15.5469 21.466L11.9365 27.2209L22.4019 31.7755L24.4401 25.457C24.9583 23.0883 24.1014 20.6566 21.3196 19.6613V19.6613Z" fill="#F67E7E"/>
<path d="M22.4126 31.7759C23.3056 29.2797 21.6128 26.3917 18.6316 25.3252C15.6505 24.2587 12.5099 25.4176 11.6169 27.9138C10.7239 30.4099 12.4167 33.298 15.3978 34.3645C18.379 35.431 21.5196 34.272 22.4126 31.7759Z" fill="#FF5959"/>
<path d="M20.5862 31.6299C20.5744 31.669 20.5618 31.7078 20.5479 31.7467C20.0058 33.2617 17.8905 33.8906 15.8242 33.1513C13.757 32.4117 12.5208 30.5837 13.0628 29.0687C13.1909 28.7107 13.4071 28.4013 13.6899 28.1482C14.6033 27.3323 16.2093 27.0997 17.787 27.6638C19.8009 28.3847 21.0263 30.1392 20.5862 31.6299Z" fill="#6FE1FF"/>
<path d="M20.5861 31.6299C19.673 32.4462 18.0672 32.6794 16.4885 32.1145C14.4739 31.3933 13.2493 29.6391 13.6899 28.1482C14.6033 27.3323 16.2093 27.0997 17.787 27.6638C19.8009 28.3847 21.0262 30.1392 20.5861 31.6299Z" fill="#A1EDFF"/>
<path d="M35.6997 19.2614C35.6996 19.2614 35.6998 19.2614 35.6997 19.2614C34.4031 19.2614 33.3121 19.2006 32.4622 19.126C31.9383 19.0801 31.6102 18.5377 31.8111 18.0516C32.3682 16.7033 33.0561 15.3713 33.863 14.0795C34.4123 13.2002 34.9426 12.459 35.391 11.8759C35.7037 11.4692 36.3155 11.4691 36.6282 11.8758C37.0744 12.456 37.6018 13.1929 38.1483 14.0669C38.9512 15.3505 39.6365 16.6741 40.1927 18.0142C40.3946 18.5007 40.0653 19.0438 39.5406 19.09C38.2449 19.2038 36.9572 19.2614 35.6997 19.2614V19.2614Z" fill="#FFCC00"/>
<path d="M36.1928 11.5925C36.0407 11.6325 35.8982 11.7279 35.7929 11.8786C35.3816 12.4668 34.8952 13.2146 34.3914 14.1018C33.6511 15.405 33.0201 16.7488 32.5091 18.109C32.342 18.5533 32.5735 19.0443 32.9761 19.167C32.7961 19.1541 32.6248 19.1402 32.4622 19.126C31.9382 19.08 31.6103 18.5377 31.811 18.0515C32.3682 16.7033 33.0561 15.3713 33.8631 14.0795C34.4124 13.2003 34.9426 12.459 35.391 11.876C35.589 11.6185 35.907 11.524 36.1928 11.5925V11.5925Z" fill="#685403"/>
<path d="M39.6298 15.4444V15.3879C39.6298 15.1885 39.7841 15.0232 39.9831 15.0095L40.5949 14.9675C40.8141 14.9525 41.0001 15.1262 41.0001 15.3459V15.4864C41.0001 15.706 40.8141 15.8798 40.5949 15.8647L39.9831 15.8228C39.7842 15.8091 39.6298 15.6438 39.6298 15.4444Z" fill="#FFCC00"/>
<path d="M39.1576 13.6258L39.1293 13.5768C39.0297 13.4041 39.0807 13.1838 39.2461 13.0725L39.755 12.7302C39.9373 12.6076 40.1853 12.6651 40.2951 12.8553L40.3653 12.977C40.4752 13.1672 40.4009 13.4107 40.2036 13.5072L39.6527 13.7768C39.4737 13.8645 39.2573 13.7985 39.1576 13.6258Z" fill="#FFCC00"/>
<path d="M37.8394 12.2869L37.7904 12.2586C37.6177 12.1589 37.5517 11.9426 37.6394 11.7635L37.9089 11.2126C38.0055 11.0153 38.249 10.9411 38.4392 11.0509L38.5609 11.1211C38.7511 11.231 38.8085 11.4789 38.6859 11.6612L38.3437 12.1701C38.2324 12.3355 38.012 12.3866 37.8394 12.2869V12.2869Z" fill="#FFCC00"/>
<path d="M32.3704 15.4444V15.3879C32.3704 15.1885 32.216 15.0232 32.0171 15.0095L31.4052 14.9675C31.1861 14.9525 31 15.1262 31 15.3459V15.4864C31 15.706 31.1861 15.8798 31.4052 15.8647L32.0171 15.8228C32.216 15.8091 32.3704 15.6438 32.3704 15.4444Z" fill="#FFCC00"/>
<path d="M32.8425 13.6258L32.8708 13.5768C32.9704 13.4041 32.9194 13.1838 32.754 13.0725L32.2451 12.7302C32.0628 12.6076 31.8148 12.6651 31.705 12.8553L31.6348 12.977C31.5249 13.1672 31.5992 13.4107 31.7965 13.5072L32.3474 13.7768C32.5264 13.8645 32.7428 13.7985 32.8425 13.6258Z" fill="#FFCC00"/>
<path d="M34.1607 12.2869L34.2097 12.2586C34.3824 12.1589 34.4483 11.9426 34.3607 11.7635L34.0911 11.2126C33.9946 11.0153 33.7511 10.9411 33.5609 11.0509L33.4392 11.1211C33.249 11.231 33.1915 11.4789 33.3141 11.6612L33.6564 12.1701C33.7677 12.3355 33.988 12.3866 34.1607 12.2869Z" fill="#FFCC00"/>
<path d="M35.7832 13.6487C35.9291 13.634 36.075 13.634 36.2209 13.6487C36.4055 13.6672 36.5468 13.8214 36.5536 14.0068C36.5759 14.6132 36.5759 15.2196 36.5536 15.8261C36.5469 16.0115 36.4055 16.1656 36.2209 16.1842C36.075 16.1989 35.9291 16.1989 35.7832 16.1842C35.5986 16.1656 35.4573 16.0115 35.4505 15.8261C35.4283 15.2196 35.4283 14.6132 35.4505 14.0068C35.4573 13.8214 35.5986 13.6672 35.7832 13.6487V13.6487Z" fill="white"/>
<path d="M35.7938 16.8497C35.9327 16.8431 36.0715 16.8431 36.2103 16.8497C36.4017 16.8589 36.5554 17.0129 36.564 17.2043C36.5724 17.3909 36.5724 17.5774 36.564 17.764C36.5554 17.9554 36.4017 18.1094 36.2103 18.1185C36.0715 18.1252 35.9327 18.1252 35.7938 18.1185C35.6025 18.1094 35.4488 17.9554 35.4402 17.764C35.4317 17.5774 35.4317 17.3909 35.4402 17.2043C35.4488 17.0129 35.6025 16.8589 35.7938 16.8497V16.8497Z" fill="white"/>
<defs>
<filter id="filter0_d_1219_3446" x="0.5" y="0" width="52" height="52" filterUnits="userSpaceOnUse" color-interpolation-filters="sRGB">
<feFlood flood-opacity="0" result="BackgroundImageFix"/>
<feColorMatrix in="SourceAlpha" type="matrix" values="0 0 0 0 0 0 0 0 0 0 0 0 0 0 0 0 0 0 127 0" result="hardAlpha"/>
<feOffset dx="0.5" dy="1"/>
<feGaussianBlur stdDeviation="0.5"/>
<feComposite in2="hardAlpha" operator="out"/>
<feColorMatrix type="matrix" values="0 0 0 0 0 0 0 0 0 0 0 0 0 0 0 0 0 0 0.1 0"/>
<feBlend mode="normal" in2="BackgroundImageFix" result="effect1_dropShadow_1219_3446"/>
<feBlend mode="normal" in="SourceGraphic" in2="effect1_dropShadow_1219_3446" result="shape"/>
</filter>
</defs>
</svg>
