<svg width="53" height="52" viewBox="0 0 53 52" fill="none" xmlns="http://www.w3.org/2000/svg">
<g filter="url(#filter0_d_1219_3506)">
<circle cx="26" cy="25" r="25" fill="#F5F5F5"/>
</g>
<path d="M31.753 14.3702C31.753 13.0611 32.8142 12 34.1232 12H15.6745C14.6336 12 13.7897 12.8439 13.7897 13.8849V35.3488H31.753V17.9477V16.7404V14.3702H31.753Z" fill="#FFE07D"/>
<path d="M32.6923 12C31.3832 12 30.3221 13.0612 30.3221 14.3702V23.7695C30.3221 24.3225 29.9589 24.8145 29.4266 24.9646C25.5016 26.0714 22.6246 29.6781 22.6246 33.9572C22.6246 35.0822 22.8236 36.1607 23.188 37.1595H30.3221H31.7531V24.617V17.9476V14.3702C31.7531 13.0611 32.8142 12 34.1232 12H32.6923V12Z" fill="#FFD064"/>
<path d="M28.8884 16.0879H17.0135C16.7635 16.0879 16.5608 15.8853 16.5608 15.6352C16.5608 15.3851 16.7634 15.1824 17.0135 15.1824H28.8884C29.1384 15.1824 29.3411 15.3851 29.3411 15.6352C29.3411 15.8853 29.1384 16.0879 28.8884 16.0879Z" fill="#2B4D66"/>
<path d="M28.8884 20.6022H17.0135C16.7635 20.6022 16.5608 20.3996 16.5608 20.1495C16.5608 19.8994 16.7634 19.6968 17.0135 19.6968H28.8884C29.1384 19.6968 29.3411 19.8994 29.3411 20.1495C29.3411 20.3996 29.1384 20.6022 28.8884 20.6022Z" fill="#2B4D66"/>
<path d="M28.8884 25.1167H17.0135C16.7635 25.1167 16.5608 24.914 16.5608 24.6639C16.5608 24.4139 16.7634 24.2112 17.0135 24.2112H28.8884C29.1384 24.2112 29.3411 24.4139 29.3411 24.6639C29.3411 24.914 29.1384 25.1167 28.8884 25.1167Z" fill="#2B4D66"/>
<path d="M28.8884 29.6311H17.0135C16.7635 29.6311 16.5608 29.4284 16.5608 29.1783C16.5608 28.9282 16.7634 28.7256 17.0135 28.7256H28.8884C29.1384 28.7256 29.3411 28.9282 29.3411 29.1783C29.3411 29.4284 29.1384 29.6311 28.8884 29.6311Z" fill="#2B4D66"/>
<path d="M29.5875 37.1597H13.351C11.5003 37.1597 10 35.6593 10 33.8086V33.2151C10 33.0583 10.1272 32.9311 10.284 32.9311H29.5875V37.1597Z" fill="#EAB14D"/>
<path d="M22.6246 33.9572C22.6246 35.0822 22.8236 36.1607 23.188 37.1596H29.5875V32.931H22.681C22.6441 33.2681 22.6246 33.6104 22.6246 33.9572Z" fill="#E49542"/>
<path d="M36.0715 17.9476H31.7531V14.3702C31.7531 13.0611 32.8142 12 34.1232 12C35.4323 12 36.4934 13.0612 36.4934 14.3702V17.5257C36.4935 17.7588 36.3046 17.9476 36.0715 17.9476V17.9476Z" fill="#EAB14D"/>
<path d="M34.8954 12.1294C34.6532 12.0459 34.3937 12 34.1232 12C32.8142 12 31.7531 13.0612 31.7531 14.3702V17.9476H33.2973V14.3702C33.2973 13.3316 33.9656 12.4497 34.8954 12.1294V12.1294Z" fill="#E49542"/>
<path d="M41.3929 35.7412C40.7568 34.6682 39.5877 34.0017 38.3416 34.0017C37.0956 34.0017 35.9265 34.6682 35.2904 35.7412C35.0151 36.2056 35.0109 36.7641 35.2793 37.2351C35.5503 37.7109 36.0383 37.9948 36.5847 37.9948H40.0986C40.6451 37.9948 41.1331 37.7109 41.4041 37.2351C41.6723 36.7641 41.6682 36.2056 41.3929 35.7412Z" fill="#158519"/>
<path d="M38.3417 34.0017V37.9948H40.0987C40.645 37.9948 41.133 37.7109 41.404 37.2351C41.6724 36.7641 41.6682 36.2056 41.3929 35.7412C40.7568 34.6682 39.5877 34.0017 38.3417 34.0017Z" fill="#4DB151"/>
<path d="M32.1109 36.0869C31.5967 35.2196 30.6515 34.6807 29.6441 34.6807C28.6368 34.6807 27.6917 35.2195 27.1775 36.0869C26.9443 36.4803 26.9407 36.9533 27.1679 37.3521C27.3972 37.7545 27.8101 37.9948 28.2725 37.9948H31.016C31.4783 37.9948 31.8912 37.7545 32.1204 37.3521C32.3476 36.9533 32.344 36.4803 32.1109 36.0869V36.0869Z" fill="#FFCC00"/>
<path d="M29.6441 34.6807C29.644 34.6807 29.6439 34.6807 29.6438 34.6807V37.9948H31.0159C31.4783 37.9948 31.8912 37.7545 32.1204 37.3521C32.3477 36.9533 32.3441 36.4803 32.1109 36.0869C31.5967 35.2196 30.6516 34.6807 29.6441 34.6807V34.6807Z" fill="#896E00"/>
<path d="M30.83 32.7145C30.1761 32.0606 29.1123 32.0607 28.4585 32.7145C28.1417 33.0311 27.9673 33.4523 27.9673 33.9002C27.9673 34.3482 28.1417 34.7693 28.4585 35.086C28.7854 35.413 29.2147 35.5764 29.6442 35.5764C30.0736 35.5764 30.5031 35.4129 30.83 35.086C31.4838 34.4321 31.4838 33.3683 30.83 32.7145Z" fill="#FFD2BF"/>
<path d="M29.6438 32.2241V35.5764H29.6441C30.0735 35.5764 30.503 35.4129 30.83 35.086C31.4838 34.4321 31.4838 33.3683 30.83 32.7145C30.5029 32.3874 30.0733 32.224 29.6438 32.2241V32.2241Z" fill="#FFB89C"/>
<path d="M29.7413 31.3941C29.6769 31.3941 29.6121 31.3802 29.5515 31.3518C29.3939 31.2781 29.2932 31.1199 29.2932 30.9459V30.2839C28.4139 30.0801 27.7566 29.2904 27.7566 28.3502C27.7566 27.2558 28.6469 26.3654 29.7413 26.3654H33.0894C34.1838 26.3654 35.0742 27.2558 35.0742 28.3502C35.0742 29.4446 34.1838 30.3349 33.0894 30.3349H31.1721L30.0287 31.2899C29.9465 31.3585 29.8445 31.3941 29.7413 31.3941V31.3941Z" fill="#27488F"/>
<path d="M33.0894 26.3654H31.4185V30.3349H33.0894C34.1838 30.3349 35.0742 29.4446 35.0742 28.3502C35.0742 27.2558 34.1838 26.3654 33.0894 26.3654V26.3654Z" fill="#12254C"/>
<path d="M39.7715 31.4464C38.983 30.6579 37.7002 30.658 36.9118 31.4464C36.5299 31.8282 36.3196 32.336 36.3196 32.8762C36.3196 33.4162 36.5299 33.924 36.9118 34.3059C37.3061 34.7001 37.8238 34.8972 38.3416 34.8972C38.8595 34.8972 39.3772 34.7001 39.7715 34.3059C40.1534 33.924 40.3637 33.4162 40.3637 32.8762C40.3637 32.336 40.1534 31.8282 39.7715 31.4464V31.4464Z" fill="#FFD2BF"/>
<path d="M37.3756 22.9948H32.528C31.0541 22.9948 29.855 24.1939 29.855 25.6678C29.855 27.1417 31.0541 28.3407 32.528 28.3407H35.3768L37.0882 29.7701C37.1704 29.8388 37.2725 29.8743 37.3756 29.8743C37.44 29.8743 37.5048 29.8604 37.5654 29.8321C37.723 29.7584 37.8237 29.6001 37.8237 29.4261V28.3031C39.0851 28.0893 40.0485 26.989 40.0485 25.6678C40.0485 24.1939 38.8495 22.9948 37.3756 22.9948V22.9948Z" fill="#DBEEFF"/>
<path d="M37.3756 22.9948H35.0809V28.3407H35.3768L37.0882 29.7701C37.1704 29.8388 37.2725 29.8743 37.3756 29.8743C37.44 29.8743 37.5048 29.8604 37.5654 29.8321C37.723 29.7584 37.8237 29.6001 37.8237 29.4261V28.3031C39.085 28.0893 40.0485 26.989 40.0485 25.6678C40.0485 24.1939 38.8495 22.9948 37.3756 22.9948V22.9948Z" fill="#BFE1FF"/>
<path d="M38.3417 30.855V34.8972C38.8595 34.8972 39.3773 34.7 39.7715 34.3059C40.1534 33.924 40.3637 33.4162 40.3637 32.8761C40.3637 32.336 40.1534 31.8282 39.7715 31.4462C39.3773 31.0521 38.8595 30.855 38.3417 30.855V30.855Z" fill="#FFB89C"/>
<defs>
<filter id="filter0_d_1219_3506" x="0.5" y="0" width="52" height="52" filterUnits="userSpaceOnUse" color-interpolation-filters="sRGB">
<feFlood flood-opacity="0" result="BackgroundImageFix"/>
<feColorMatrix in="SourceAlpha" type="matrix" values="0 0 0 0 0 0 0 0 0 0 0 0 0 0 0 0 0 0 127 0" result="hardAlpha"/>
<feOffset dx="0.5" dy="1"/>
<feGaussianBlur stdDeviation="0.5"/>
<feComposite in2="hardAlpha" operator="out"/>
<feColorMatrix type="matrix" values="0 0 0 0 0 0 0 0 0 0 0 0 0 0 0 0 0 0 0.1 0"/>
<feBlend mode="normal" in2="BackgroundImageFix" result="effect1_dropShadow_1219_3506"/>
<feBlend mode="normal" in="SourceGraphic" in2="effect1_dropShadow_1219_3506" result="shape"/>
</filter>
</defs>
</svg>
