<svg width="53" height="52" viewBox="0 0 53 52" fill="none" xmlns="http://www.w3.org/2000/svg">
<g filter="url(#filter0_d_1687_1651)">
<circle cx="26" cy="25" r="25" fill="#F5F5F5"/>
</g>
<path d="M38.5 46.5C35.2101 48.6933 28.6667 50.3333 28.5 50L19 42.5L11 35.5L40.5 34.5L46 40.5C45.3333 41.3333 41.5 44.5 38.5 46.5Z" fill="#757575" fill-opacity="0.1"/>
<path d="M39.0645 16.8387H12.9355C11.8665 16.8387 11 17.7053 11 18.7742V35.2258C11 36.2947 11.8665 37.1613 12.9355 37.1613H39.0645C40.1334 37.1613 40.9999 36.2947 40.9999 35.2258V18.7742C41 17.7053 40.1335 16.8387 39.0645 16.8387Z" fill="#EDEBED"/>
<path d="M23.7983 28.9395L21.7783 28.154C21.4064 28.0093 21.1613 27.6511 21.1613 27.252V26.0323H18.2581V27.252C18.2581 27.6512 18.0131 28.0093 17.6412 28.154L15.6212 28.9395C14.8772 29.2289 14.3872 29.9452 14.3872 30.7434V32.8065C14.3872 33.341 14.8205 33.7742 15.3549 33.7742H24.0646C24.5991 33.7742 25.0323 33.3409 25.0323 32.8065V30.7434C25.0323 29.9452 24.5423 29.2288 23.7983 28.9395Z" fill="#E3AA75"/>
<path d="M23.7983 28.9395L22.4632 28.4203L20.3177 29.9529C19.9595 30.2087 19.4738 30.1906 19.1357 29.9088L17.2244 28.316L15.6211 28.9395C14.8771 29.2288 14.3871 29.9451 14.3871 30.7433V32.8064C14.3871 33.3409 14.8204 33.7742 15.3548 33.7742H24.0645C24.599 33.7742 25.0322 33.3409 25.0322 32.8064V30.7433C25.0323 29.9452 24.5423 29.2288 23.7983 28.9395Z" fill="#4DB151"/>
<path d="M18.2581 27.1524C18.6987 27.3627 19.1898 27.4839 19.7097 27.4839C20.2296 27.4839 20.7206 27.3627 21.1613 27.1524V25.5484H18.2581V27.1524V27.1524Z" fill="#D29B6E"/>
<path d="M19.7096 26.5162C18.3734 26.5162 17.2903 25.433 17.2903 24.0968V23.1291C17.2903 21.7929 18.3734 20.7097 19.7096 20.7097C21.0458 20.7097 22.129 21.7929 22.129 23.1291V24.0968C22.129 25.433 21.0458 26.5162 19.7096 26.5162Z" fill="#F5B97D"/>
<path d="M19.7096 29.595C19.4849 29.595 19.2603 29.5171 19.0789 29.3612L17.6461 28.151C17.6443 28.1518 17.6429 28.1533 17.641 28.154L16.62 28.551L18.4482 30.0952C18.799 30.3967 19.247 30.5627 19.7096 30.5627C20.1722 30.5627 20.6202 30.3966 20.9648 30.1005L22.7992 28.5509L21.7782 28.1539C21.7764 28.1531 21.775 28.1516 21.7731 28.1509L20.3403 29.3611C20.1591 29.517 19.9344 29.595 19.7096 29.595Z" fill="#158519"/>
<path d="M16.3226 32.44C16.3226 32.055 16.1696 31.6858 15.8974 31.4136L14.5247 30.0409C14.4385 30.2613 14.3871 30.4974 14.3871 30.7434V32.8065C14.3871 33.341 14.8204 33.7742 15.3548 33.7742H16.3226V32.44Z" fill="#158519"/>
<path d="M23.0968 32.44C23.0968 32.055 23.2497 31.6858 23.522 31.4136L24.8946 30.0409C24.9808 30.2613 25.0323 30.4974 25.0323 30.7434V32.8065C25.0323 33.341 24.599 33.7742 24.0645 33.7742H23.0968V32.44Z" fill="#158519"/>
<path d="M30.8388 18.7742H21.1613C20.3596 18.7742 19.7097 18.1243 19.7097 17.3226V16.8387H32.2904V17.3226C32.2904 18.1243 31.6405 18.7742 30.8388 18.7742Z" fill="#DBD9DC"/>
<path d="M26 12C24.9311 12 24.0646 12.8665 24.0646 13.9355V16.3548H27.9356V13.9355C27.9355 12.8665 27.069 12 26 12ZM26.0054 14.6613C25.6052 14.6613 25.2778 14.3364 25.2778 13.9355C25.2778 13.5347 25.5981 13.2097 25.9983 13.2097H26.0054C26.4056 13.2097 26.7294 13.5347 26.7294 13.9355C26.7294 14.3363 26.4056 14.6613 26.0054 14.6613Z" fill="#DBD9DC"/>
<path d="M30.8387 17.8065H21.1612C20.894 17.8065 20.6774 17.5898 20.6774 17.3226V16.3549C20.6774 16.0876 20.894 15.871 21.1612 15.871H30.8386C31.1059 15.871 31.3225 16.0876 31.3225 16.3549V17.3226C31.3226 17.5898 31.1059 17.8065 30.8387 17.8065Z" fill="#C9C6CA"/>
<path d="M35.6774 22.6452H28.9032C28.6357 22.6452 28.4193 22.4285 28.4193 22.1613C28.4193 21.8942 28.6358 21.6775 28.9032 21.6775H35.6774C35.9449 21.6775 36.1612 21.8942 36.1612 22.1613C36.1612 22.4285 35.9449 22.6452 35.6774 22.6452Z" fill="#4DB151"/>
<path d="M30.3549 28.4517H28.9033C28.6358 28.4517 28.4194 28.235 28.4194 27.9678C28.4194 27.7006 28.6359 27.4839 28.9033 27.4839H30.3549C30.6224 27.4839 30.8388 27.7006 30.8388 27.9678C30.8388 28.235 30.6223 28.4517 30.3549 28.4517Z" fill="#6F6571"/>
<path d="M30.3549 33.2904H28.9033C28.6358 33.2904 28.4194 33.0737 28.4194 32.8065C28.4194 32.5393 28.6359 32.3226 28.9033 32.3226H30.3549C30.6224 32.3226 30.8388 32.5393 30.8388 32.8065C30.8388 33.0737 30.6223 33.2904 30.3549 33.2904Z" fill="#6F6571"/>
<path d="M30.3549 30.871H28.9033C28.6358 30.871 28.4194 30.6543 28.4194 30.3872C28.4194 30.12 28.6359 29.9033 28.9033 29.9033H30.3549C30.6224 29.9033 30.8388 30.12 30.8388 30.3872C30.8388 30.6543 30.6223 30.871 30.3549 30.871Z" fill="#6F6571"/>
<path d="M35.6775 28.4517H32.2904C32.0229 28.4517 31.8065 28.235 31.8065 27.9678C31.8065 27.7006 32.023 27.4839 32.2904 27.4839H35.6775C35.9449 27.4839 36.1613 27.7006 36.1613 27.9678C36.1613 28.235 35.9449 28.4517 35.6775 28.4517Z" fill="#867E88"/>
<path d="M35.6775 33.2904H32.2904C32.0229 33.2904 31.8065 33.0737 31.8065 32.8065C31.8065 32.5393 32.023 32.3226 32.2904 32.3226H35.6775C35.9449 32.3226 36.1613 32.5393 36.1613 32.8065C36.1613 33.0737 35.9449 33.2904 35.6775 33.2904Z" fill="#867E88"/>
<path d="M35.6775 30.871H32.2904C32.0229 30.871 31.8065 30.6543 31.8065 30.3872C31.8065 30.12 32.023 29.9033 32.2904 29.9033H35.6775C35.9449 29.9033 36.1613 30.12 36.1613 30.3872C36.1613 30.6543 35.9449 30.871 35.6775 30.871Z" fill="#867E88"/>
<path d="M37.6129 25.0646H28.9032C28.6357 25.0646 28.4193 24.8479 28.4193 24.5807C28.4193 24.3135 28.6358 24.0968 28.9032 24.0968H37.6128C37.8803 24.0968 38.0967 24.3135 38.0967 24.5807C38.0967 24.8479 37.8803 25.0646 37.6129 25.0646Z" fill="#158519"/>
<path d="M20.3444 25.546C19.4285 25.498 18.7419 24.6761 18.7419 23.759V20.9139C17.8881 21.2876 17.2903 22.1375 17.2903 23.129V24.0968C17.2903 25.4329 18.3734 26.5161 19.7096 26.5161C21.0458 26.5161 22.129 25.4329 22.129 24.0968V23.8548C22.129 24.8204 21.321 25.5972 20.3444 25.546Z" fill="#E3AA75"/>
<path d="M19.7097 20.7097C18.6935 20.7097 17.827 21.3377 17.4686 22.2255C18.9584 23.0333 20.6905 23.4471 22.1291 23.637V23.1291C22.1291 21.7929 21.0459 20.7097 19.7097 20.7097Z" fill="#5D5360"/>
<path d="M39.0645 36.1936H12.9355C11.8665 36.1936 11 35.327 11 34.2581V35.2259C11 36.2948 11.8665 37.1613 12.9355 37.1613H39.0645C40.1334 37.1613 40.9999 36.2948 40.9999 35.2259V34.2581C41 35.327 40.1335 36.1936 39.0645 36.1936Z" fill="#DBD9DC"/>
<defs>
<filter id="filter0_d_1687_1651" x="0.5" y="0" width="52" height="52" filterUnits="userSpaceOnUse" color-interpolation-filters="sRGB">
<feFlood flood-opacity="0" result="BackgroundImageFix"/>
<feColorMatrix in="SourceAlpha" type="matrix" values="0 0 0 0 0 0 0 0 0 0 0 0 0 0 0 0 0 0 127 0" result="hardAlpha"/>
<feOffset dx="0.5" dy="1"/>
<feGaussianBlur stdDeviation="0.5"/>
<feComposite in2="hardAlpha" operator="out"/>
<feColorMatrix type="matrix" values="0 0 0 0 0 0 0 0 0 0 0 0 0 0 0 0 0 0 0.1 0"/>
<feBlend mode="normal" in2="BackgroundImageFix" result="effect1_dropShadow_1687_1651"/>
<feBlend mode="normal" in="SourceGraphic" in2="effect1_dropShadow_1687_1651" result="shape"/>
</filter>
</defs>
</svg>
