<svg width="35" height="39" viewBox="0 0 35 39" fill="none" xmlns="http://www.w3.org/2000/svg">
<path d="M27.5 34.5C24.2101 36.6933 17.6667 38.3333 17.5 38L8 30.5L0 23.5L29.5 22.5L35 28.5C34.3333 29.3333 30.5 32.5 27.5 34.5Z" fill="#757575" fill-opacity="0.1"/>
<path d="M28.0645 4.83875H1.93547C0.866543 4.83875 0 5.70529 0 6.77421V23.2258C0 24.2947 0.866543 25.1613 1.93547 25.1613H28.0645C29.1334 25.1613 29.9999 24.2947 29.9999 23.2258V6.77421C30 5.70529 29.1335 4.83875 28.0645 4.83875Z" fill="#EDEBED"/>
<path d="M12.7983 16.9395L10.7783 16.154C10.4064 16.0093 10.1613 15.6511 10.1613 15.252V14.0323H7.25814V15.252C7.25814 15.6512 7.01311 16.0093 6.64115 16.154L4.62119 16.9395C3.87723 17.2289 3.38721 17.9452 3.38721 18.7434V20.8065C3.38721 21.341 3.82051 21.7742 4.35494 21.7742H13.0646C13.5991 21.7742 14.0323 21.3409 14.0323 20.8065V18.7434C14.0323 17.9452 13.5423 17.2288 12.7983 16.9395Z" fill="#E3AA75"/>
<path d="M12.7983 16.9395L11.4632 16.4203L9.31771 17.9529C8.95953 18.2087 8.47384 18.1906 8.1357 17.9088L6.22437 16.316L4.62107 16.9395C3.8771 17.2288 3.38708 17.9451 3.38708 18.7433V20.8064C3.38708 21.3409 3.82039 21.7742 4.35482 21.7742H13.0645C13.599 21.7742 14.0322 21.3409 14.0322 20.8064V18.7433C14.0323 17.9452 13.5423 17.2288 12.7983 16.9395Z" fill="#4DB151"/>
<path d="M7.25806 15.1524C7.69874 15.3627 8.18976 15.4839 8.70966 15.4839C9.22956 15.4839 9.72058 15.3627 10.1613 15.1524V13.5484H7.25806V15.1524V15.1524Z" fill="#D29B6E"/>
<path d="M8.70962 14.5162C7.37345 14.5162 6.29028 13.433 6.29028 12.0968V11.1291C6.29028 9.79291 7.37345 8.70975 8.70962 8.70975C10.0458 8.70975 11.129 9.79291 11.129 11.1291V12.0968C11.129 13.433 10.0458 14.5162 8.70962 14.5162Z" fill="#F5B97D"/>
<path d="M8.70964 17.595C8.48494 17.595 8.26029 17.5171 8.07888 17.3612L6.64615 16.151C6.64427 16.1518 6.64292 16.1533 6.64099 16.154L5.62 16.551L7.44818 18.0952C7.79904 18.3967 8.24705 18.5627 8.70964 18.5627C9.17224 18.5627 9.62025 18.3966 9.96484 18.1005L11.7992 16.5509L10.7782 16.1539C10.7764 16.1531 10.775 16.1516 10.7731 16.1509L9.34035 17.3611C9.15906 17.517 8.93435 17.595 8.70964 17.595Z" fill="#158519"/>
<path d="M5.32255 20.44C5.32255 20.055 5.16962 19.6858 4.8974 19.4136L3.52472 18.0409C3.43853 18.2613 3.38708 18.4974 3.38708 18.7434V20.8065C3.38708 21.341 3.82039 21.7742 4.35482 21.7742H5.32255V20.44Z" fill="#158519"/>
<path d="M12.0968 20.44C12.0968 20.055 12.2497 19.6858 12.522 19.4136L13.8946 18.0409C13.9808 18.2613 14.0323 18.4974 14.0323 18.7434V20.8065C14.0323 21.341 13.599 21.7742 13.0645 21.7742H12.0968V20.44Z" fill="#158519"/>
<path d="M19.8388 6.77421H10.1613C9.35964 6.77421 8.70972 6.12429 8.70972 5.32261V4.83875H21.2904V5.32261C21.2904 6.12429 20.6405 6.77421 19.8388 6.77421Z" fill="#DBD9DC"/>
<path d="M15 0C13.9311 0 13.0646 0.866543 13.0646 1.93547V4.3548H16.9356V1.93547C16.9355 0.866543 16.069 0 15 0ZM15.0054 2.66133C14.6052 2.66133 14.2778 2.33637 14.2778 1.93553C14.2778 1.53469 14.5981 1.20973 14.9983 1.20973H15.0054C15.4056 1.20973 15.7294 1.53469 15.7294 1.93553C15.7294 2.33631 15.4056 2.66133 15.0054 2.66133Z" fill="#DBD9DC"/>
<path d="M19.8387 5.80647H10.1612C9.89399 5.80647 9.67737 5.58985 9.67737 5.3226V4.35487C9.67737 4.08762 9.89399 3.871 10.1612 3.871H19.8386C20.1059 3.871 20.3225 4.08762 20.3225 4.35487V5.3226C20.3226 5.58985 20.1059 5.80647 19.8387 5.80647Z" fill="#C9C6CA"/>
<path d="M24.6774 10.6452H17.9032C17.6357 10.6452 17.4193 10.4285 17.4193 10.1613C17.4193 9.89416 17.6358 9.67747 17.9032 9.67747H24.6774C24.9449 9.67747 25.1612 9.89416 25.1612 10.1613C25.1612 10.4285 24.9449 10.6452 24.6774 10.6452Z" fill="#4DB151"/>
<path d="M19.3549 16.4517H17.9033C17.6358 16.4517 17.4194 16.235 17.4194 15.9678C17.4194 15.7006 17.6359 15.4839 17.9033 15.4839H19.3549C19.6224 15.4839 19.8388 15.7006 19.8388 15.9678C19.8388 16.235 19.6223 16.4517 19.3549 16.4517Z" fill="#6F6571"/>
<path d="M19.3549 21.2904H17.9033C17.6358 21.2904 17.4194 21.0737 17.4194 20.8065C17.4194 20.5393 17.6359 20.3226 17.9033 20.3226H19.3549C19.6224 20.3226 19.8388 20.5393 19.8388 20.8065C19.8388 21.0737 19.6223 21.2904 19.3549 21.2904Z" fill="#6F6571"/>
<path d="M19.3549 18.871H17.9033C17.6358 18.871 17.4194 18.6543 17.4194 18.3872C17.4194 18.12 17.6359 17.9033 17.9033 17.9033H19.3549C19.6224 17.9033 19.8388 18.12 19.8388 18.3872C19.8388 18.6543 19.6223 18.871 19.3549 18.871Z" fill="#6F6571"/>
<path d="M24.6775 16.4517H21.2904C21.0229 16.4517 20.8065 16.235 20.8065 15.9678C20.8065 15.7006 21.023 15.4839 21.2904 15.4839H24.6775C24.9449 15.4839 25.1613 15.7006 25.1613 15.9678C25.1613 16.235 24.9449 16.4517 24.6775 16.4517Z" fill="#867E88"/>
<path d="M24.6775 21.2904H21.2904C21.0229 21.2904 20.8065 21.0737 20.8065 20.8065C20.8065 20.5393 21.023 20.3226 21.2904 20.3226H24.6775C24.9449 20.3226 25.1613 20.5393 25.1613 20.8065C25.1613 21.0737 24.9449 21.2904 24.6775 21.2904Z" fill="#867E88"/>
<path d="M24.6775 18.871H21.2904C21.0229 18.871 20.8065 18.6543 20.8065 18.3872C20.8065 18.12 21.023 17.9033 21.2904 17.9033H24.6775C24.9449 17.9033 25.1613 18.12 25.1613 18.3872C25.1613 18.6543 24.9449 18.871 24.6775 18.871Z" fill="#867E88"/>
<path d="M26.6129 13.0646H17.9032C17.6357 13.0646 17.4193 12.8479 17.4193 12.5807C17.4193 12.3135 17.6358 12.0968 17.9032 12.0968H26.6128C26.8803 12.0968 27.0967 12.3135 27.0967 12.5807C27.0967 12.8479 26.8803 13.0646 26.6129 13.0646Z" fill="#158519"/>
<path d="M9.34436 13.546C8.42854 13.498 7.74188 12.6761 7.74188 11.759V8.91394C6.88811 9.28759 6.29028 10.1375 6.29028 11.129V12.0968C6.29028 13.4329 7.37345 14.5161 8.70962 14.5161C10.0458 14.5161 11.129 13.4329 11.129 12.0968V11.8548C11.129 12.8204 10.321 13.5972 9.34436 13.546Z" fill="#E3AA75"/>
<path d="M8.70972 8.70969C7.69353 8.70969 6.82699 9.33769 6.46863 10.2255C7.95843 11.0333 9.69052 11.4471 11.1291 11.637V11.1291C11.1291 9.79291 10.0459 8.70969 8.70972 8.70969Z" fill="#5D5360"/>
<path d="M28.0645 24.1936H1.93547C0.866543 24.1936 0 23.327 0 22.2581V23.2259C0 24.2948 0.866543 25.1613 1.93547 25.1613H28.0645C29.1334 25.1613 29.9999 24.2948 29.9999 23.2259V22.2581C30 23.327 29.1335 24.1936 28.0645 24.1936Z" fill="#DBD9DC"/>
</svg>
