<svg width="30" height="41" viewBox="0 0 30 41" fill="none" xmlns="http://www.w3.org/2000/svg">
<path d="M22 37.5C18.4634 39.2683 12 40.5 9 40L5 34.5L0 28H22L30 31.5C29.3333 32.3333 25 36 22 37.5Z" fill="#757575" fill-opacity="0.1"/>
<path d="M22.8516 7.91016L16.6992 6.15234L14.9414 0H2.63672C1.18049 0 0 1.18049 0 2.63672V27.3633C0 28.8195 1.18049 30 2.63672 30H20.2148C21.6711 30 22.8516 28.8195 22.8516 27.3633V7.91016Z" fill="#2AB4E7"/>
<path d="M4.39453 15.8789C4.87994 15.8789 5.27344 15.4854 5.27344 15C5.27344 14.5146 4.87994 14.1211 4.39453 14.1211C3.90912 14.1211 3.51562 14.5146 3.51562 15C3.51562 15.4854 3.90912 15.8789 4.39453 15.8789Z" fill="#FFF5F5"/>
<path d="M4.39453 19.3945C4.87994 19.3945 5.27344 19.001 5.27344 18.5156C5.27344 18.0302 4.87994 17.6367 4.39453 17.6367C3.90912 17.6367 3.51562 18.0302 3.51562 18.5156C3.51562 19.001 3.90912 19.3945 4.39453 19.3945Z" fill="#FFF5F5"/>
<path d="M4.39453 22.9102C4.87994 22.9102 5.27344 22.5167 5.27344 22.0312C5.27344 21.5458 4.87994 21.1523 4.39453 21.1523C3.90912 21.1523 3.51562 21.5458 3.51562 22.0312C3.51562 22.5167 3.90912 22.9102 4.39453 22.9102Z" fill="#FFF5F5"/>
<path d="M22.8516 7.91016V27.3633C22.8516 28.8195 21.6711 30 20.2148 30H11.4258V0H14.9414L16.6992 6.15234L22.8516 7.91016Z" fill="#01ABE9"/>
<path d="M16.6992 15.8789H7.91016C7.42436 15.8789 7.03125 15.4858 7.03125 15C7.03125 14.5142 7.42436 14.1211 7.91016 14.1211H16.6992C17.185 14.1211 17.5781 14.5142 17.5781 15C17.5781 15.4858 17.185 15.8789 16.6992 15.8789Z" fill="#FFF5F5"/>
<path d="M16.6992 19.3945H7.91016C7.42436 19.3945 7.03125 19.0014 7.03125 18.5156C7.03125 18.0298 7.42436 17.6367 7.91016 17.6367H16.6992C17.185 17.6367 17.5781 18.0298 17.5781 18.5156C17.5781 19.0014 17.185 19.3945 16.6992 19.3945Z" fill="#FFF5F5"/>
<path d="M16.6992 22.9102H7.91016C7.42436 22.9102 7.03125 22.5171 7.03125 22.0312C7.03125 21.5454 7.42436 21.1523 7.91016 21.1523H16.6992C17.185 21.1523 17.5781 21.5454 17.5781 22.0312C17.5781 22.5171 17.185 22.9102 16.6992 22.9102Z" fill="#FFF5F5"/>
<path d="M11.4258 22.9102H16.6992C17.185 22.9102 17.5781 22.5171 17.5781 22.0312C17.5781 21.5454 17.185 21.1523 16.6992 21.1523H11.4258V22.9102Z" fill="#E3E7EA"/>
<path d="M11.4258 19.3945H16.6992C17.185 19.3945 17.5781 19.0014 17.5781 18.5156C17.5781 18.0298 17.185 17.6367 16.6992 17.6367H11.4258V19.3945Z" fill="#E3E7EA"/>
<path d="M11.4258 15.8789H16.6992C17.185 15.8789 17.5781 15.4858 17.5781 15C17.5781 14.5142 17.185 14.1211 16.6992 14.1211H11.4258V15.8789Z" fill="#E3E7EA"/>
<path d="M22.8516 7.91016H16.6992C15.7324 7.91016 14.9414 7.11914 14.9414 6.15234V0C15.1699 0 15.3984 0.0878906 15.5566 0.26373L22.5878 7.29498C22.7637 7.45312 22.8516 7.68164 22.8516 7.91016Z" fill="#003A69"/>
</svg>
