<svg width="53" height="52" viewBox="0 0 53 52" fill="none" xmlns="http://www.w3.org/2000/svg">
<g filter="url(#filter0_d_1468_2469)">
<circle cx="26" cy="25" r="25" fill="#F5F5F5"/>
</g>
<path d="M37 47.5C33.4634 49.2683 27 50.5 24 50L19 44.5L13 38H40.5L45 41.5C44.3333 42.3333 40 46 37 47.5Z" fill="#757575" fill-opacity="0.1"/>
<path d="M39.1249 27.9422V26.5234H36.0955V27.9422C35.1589 28.4829 34.5818 29.4816 34.5808 30.5626V38.641H40.6396V30.5626C40.6386 29.4816 40.0615 28.4829 39.1249 27.9422Z" fill="#E0E0E0"/>
<path d="M40.6397 31.2392C39.5102 34.1383 37.6406 36.69 35.217 38.641H40.6397V31.2392Z" fill="#D1D1D1"/>
<path d="M38.62 30.5626H34.5808V36.6214H38.62V30.5626Z" fill="#E0E0E0"/>
<path d="M37.1053 34.0969H34.5808V35.1067H37.1053V34.0969Z" fill="#B023AB"/>
<path d="M37.1053 32.0773H34.5808V33.0871H37.1053V32.0773Z" fill="#B023AB"/>
<path d="M39.1251 26.5234H36.0957V27.5332H39.1251V26.5234Z" fill="#D1D1D1"/>
<path d="M40.2848 14.7621L40.9988 14.0481L35.9507 9L35.2366 9.71402L40.2848 14.7621Z" fill="#E0E0E0"/>
<path d="M34.076 18.4451L39.2916 13.2294L36.7671 10.6596L31.5515 15.9206L34.076 18.4451Z" fill="#E0E0E0"/>
<path d="M11.714 39.0002L17.269 33.4452L16.555 32.7312L11 38.2862L11.714 39.0002Z" fill="#B023AB"/>
<path d="M17.9188 34.6028L19.9395 32.5821L17.4154 30.058L15.3947 32.0787L17.9188 34.6028Z" fill="#B023AB"/>
<path d="M36.959 21.116L28.8806 13.0376L28.1636 13.7546L29.6783 15.2692L15.8997 29.0479L20.9487 34.0969L34.7274 20.3183L36.242 21.833L36.959 21.116Z" fill="#6D018D"/>
<path d="M18.6462 31.7946L20.9486 34.0969L34.7273 20.3183L36.2419 21.833L36.9589 21.116L33.1418 17.2989L18.6462 31.7946Z" fill="#8D00B0"/>
<path d="M40.1347 24.5039H35.0857V26.5235H40.1347V24.5039Z" fill="#E0E0E0"/>
<path d="M40.1349 24.5039H38.1152V26.5235H40.1349V24.5039Z" fill="#FDA0FF"/>
<path d="M19.5833 29.4037L20.2974 28.6897L18.2767 26.669L17.5627 27.383L19.5833 29.4037Z" fill="#E0E0E0"/>
<path d="M21.0948 26.8809L21.8088 26.1669L20.2951 24.6532L19.5811 25.3672L21.0948 26.8809Z" fill="#E0E0E0"/>
<path d="M23.6249 25.3678L24.3389 24.6538L22.3182 22.6331L21.6042 23.3471L23.6249 25.3678Z" fill="#E0E0E0"/>
<path d="M25.1314 22.8381L25.8455 22.1241L24.3317 20.6104L23.6177 21.3244L25.1314 22.8381Z" fill="#E0E0E0"/>
<path d="M27.6624 21.3268L28.3765 20.6128L26.3558 18.5921L25.6418 19.3062L27.6624 21.3268Z" fill="#E0E0E0"/>
<path d="M29.1717 18.8037L29.8857 18.0896L28.372 16.5759L27.658 17.2899L29.1717 18.8037Z" fill="#E0E0E0"/>
<defs>
<filter id="filter0_d_1468_2469" x="0.5" y="0" width="52" height="52" filterUnits="userSpaceOnUse" color-interpolation-filters="sRGB">
<feFlood flood-opacity="0" result="BackgroundImageFix"/>
<feColorMatrix in="SourceAlpha" type="matrix" values="0 0 0 0 0 0 0 0 0 0 0 0 0 0 0 0 0 0 127 0" result="hardAlpha"/>
<feOffset dx="0.5" dy="1"/>
<feGaussianBlur stdDeviation="0.5"/>
<feComposite in2="hardAlpha" operator="out"/>
<feColorMatrix type="matrix" values="0 0 0 0 0 0 0 0 0 0 0 0 0 0 0 0 0 0 0.1 0"/>
<feBlend mode="normal" in2="BackgroundImageFix" result="effect1_dropShadow_1468_2469"/>
<feBlend mode="normal" in="SourceGraphic" in2="effect1_dropShadow_1468_2469" result="shape"/>
</filter>
</defs>
</svg>
