<svg width="53" height="52" viewBox="0 0 53 52" fill="none" xmlns="http://www.w3.org/2000/svg">
<g filter="url(#filter0_d_1468_2516)">
<circle cx="26" cy="25" r="25" fill="#F5F5F5"/>
</g>
<path d="M39.5 46.5C36.2101 48.6933 29.6667 50.3333 29.5 50L23 43.5L13.5 31.5H39.5L46.5 40C45.8333 40.8333 42.5 44.5 39.5 46.5Z" fill="#757575" fill-opacity="0.1"/>
<path d="M39.1892 33.2673H12.8108C11.8108 33.2673 11 32.4566 11 31.4564V14.4091C11 13.409 11.8108 12.5983 12.8108 12.5983H39.1891C40.1892 12.5983 40.9999 13.409 40.9999 14.4091V31.4564C41 32.4566 40.1892 33.2673 39.1892 33.2673Z" fill="#A6CDFB"/>
<path d="M39.1891 12.5983H37.3783C38.3784 12.5983 39.1891 13.409 39.1891 14.4091V31.4564C39.1891 32.4566 38.3784 33.2673 37.3783 33.2673H39.1891C40.1893 33.2673 41 32.4565 41 31.4564V14.4091C41 13.409 40.1892 12.5983 39.1891 12.5983Z" fill="#164A87"/>
<path d="M12.8108 30.3095V14.6506C12.8108 14.5172 12.9189 14.4091 13.0523 14.4091H38.9476C39.081 14.4091 39.1891 14.5172 39.1891 14.6506V30.3095C39.1891 30.4429 39.081 30.551 38.9476 30.551H13.0523C12.9189 30.551 12.8108 30.4429 12.8108 30.3095Z" fill="#ECF5FF"/>
<path d="M38.9477 14.4091H37.1368C37.2702 14.4091 37.3783 14.5172 37.3783 14.6506V30.3095C37.3783 30.4429 37.2702 30.551 37.1368 30.551H38.9477C39.081 30.551 39.1891 30.4429 39.1891 30.3095V14.6506C39.1891 14.5172 39.081 14.4091 38.9477 14.4091Z" fill="#DBEAFD"/>
<path d="M28.9905 40H23.0095L23.915 33.2673H28.0851L28.9905 40Z" fill="#164A87"/>
<path d="M28.085 33.2673H26.2742L27.1796 40H28.9905L28.085 33.2673Z" fill="#033465"/>
<path d="M29.9172 37.0891L30.5547 39.388C30.64 39.6957 30.4086 40 30.0894 40H21.9106C21.5913 40 21.3599 39.6957 21.4452 39.388L22.0828 37.0891C22.1408 36.88 22.3311 36.7353 22.5481 36.7353H29.4519C29.6688 36.7353 29.8592 36.8801 29.9172 37.0891Z" fill="#A6CDFB"/>
<path d="M30.5547 39.388L29.9172 37.0891C29.8592 36.88 29.6689 36.7353 29.4518 36.7353H27.641C27.858 36.7353 28.0483 36.88 28.1063 37.0891L28.7439 39.388C28.8292 39.6957 28.5978 40 28.2786 40H30.0894C30.4087 40 30.6401 39.6957 30.5547 39.388Z" fill="#164A87"/>
<path d="M16.4031 13.6217H35.597V30.551H16.4031V13.6217Z" fill="white"/>
<path d="M34.8726 10H33.0618C33.4618 10 33.7861 10.3243 33.7861 10.7243V30.551H35.5969V10.7243C35.5969 10.3243 35.2727 10 34.8726 10V10Z" fill="#EFEAF4"/>
<path d="M34.8726 10H17.1274C16.7274 10 16.4031 10.3243 16.4031 10.7243V13.6217H35.597V10.7243C35.597 10.3243 35.2727 10 34.8726 10V10Z" fill="#164A87"/>
<path d="M34.8726 10H33.0618C33.4618 10 33.7861 10.3243 33.7861 10.7243V13.6217H35.5969V10.7243C35.5969 10.3243 35.2727 10 34.8726 10V10Z" fill="#033465"/>
<path d="M18.2139 12.2635C18.4639 12.2635 18.6666 12.0609 18.6666 11.8108C18.6666 11.5608 18.4639 11.3581 18.2139 11.3581C17.9639 11.3581 17.7612 11.5608 17.7612 11.8108C17.7612 12.0609 17.9639 12.2635 18.2139 12.2635Z" fill="#B82DB2"/>
<path d="M20.0247 12.2635C20.2747 12.2635 20.4774 12.0609 20.4774 11.8108C20.4774 11.5608 20.2747 11.3581 20.0247 11.3581C19.7747 11.3581 19.572 11.5608 19.572 11.8108C19.572 12.0609 19.7747 12.2635 20.0247 12.2635Z" fill="#F0D16F"/>
<path d="M21.8356 12.2635C22.0856 12.2635 22.2883 12.0609 22.2883 11.8108C22.2883 11.5608 22.0856 11.3581 21.8356 11.3581C21.5856 11.3581 21.3829 11.5608 21.3829 11.8108C21.3829 12.0609 21.5856 12.2635 21.8356 12.2635Z" fill="#A4D9A6"/>
<path d="M31.1368 30.551V27.4204C31.1368 26.3889 30.5056 25.4625 29.5457 25.085L28.3226 24.604C27.839 24.4138 27.521 23.9471 27.521 23.4275V22.4279H24.4789V23.4275C24.4789 23.9471 24.1609 24.4139 23.6773 24.604L22.4542 25.085C21.4943 25.4625 20.8632 26.389 20.8632 27.4204V30.551" fill="#BC87DD"/>
<path d="M29.5457 25.085L28.3226 24.604C27.839 24.4138 27.521 23.9471 27.521 23.4275V22.4279H25.7102V24.333C25.7102 24.8526 26.0282 25.3193 26.5118 25.5095L27.7349 25.9905C28.6948 26.368 29.3259 27.2944 29.3259 28.3259V30.5511H31.1367V27.4205C31.1367 26.389 30.5056 25.4625 29.5457 25.085Z" fill="#B82DB2"/>
<path d="M27.9677 30.551V28.8463C27.9677 28.5963 28.1703 28.3936 28.4203 28.3936C28.6704 28.3936 28.873 28.5963 28.873 28.8463V30.551H27.9677Z" fill="#B82DB2"/>
<path d="M23.1267 30.551V28.8463C23.1267 28.5963 23.3294 28.3936 23.5794 28.3936C23.8294 28.3936 24.0321 28.5963 24.0321 28.8463V30.551H23.1267Z" fill="#B82DB2"/>
<path d="M26 25.5407C26.8676 25.5407 27.6425 25.1441 28.1536 24.5225C27.7664 24.2992 26.6156 23.8839 26.6156 23.4275V22.4279H24.4789V23.4275C24.4789 23.8839 24.2336 24.2992 23.8463 24.5225C24.3575 25.1441 25.1324 25.5407 26 25.5407Z" fill="#F2CCBC"/>
<path d="M26.486 25.4982C27.1541 25.3806 27.7402 25.0253 28.1536 24.5225C27.7953 24.3141 27.5195 23.9158 27.521 23.4275V22.4279H25.7102V24.333C25.7102 24.8431 26.0172 25.3016 26.486 25.4982Z" fill="#ECAD9A"/>
<path d="M26.0674 22.8292C25.9717 22.8292 25.8098 23.1358 25.7166 23.1263C24.3189 22.9844 23.2283 21.804 23.2283 20.3689V19.1665L24.1337 16.9885C24.1337 16.1876 24.7829 16.4438 25.5839 16.4438H27.3216C28.1224 16.4438 27.8663 16.1876 27.8663 16.9885L28.7717 19.1665V20.3689C28.7717 21.3379 28.2744 22.1908 27.5212 22.6863C27.0845 22.9735 26.0674 22.8292 26.0674 22.8292Z" fill="#F2CCBC"/>
<path d="M27.8662 16.9885C27.8662 16.1876 28.1224 16.4438 27.3216 16.4438L26.9608 18.261V20.3689C26.9733 20.5154 27.0283 21.3241 26.4349 21.993C25.6821 22.8416 24.566 22.6987 24.4789 22.686C24.6947 22.8257 25.0692 23.0287 25.5739 23.1077C25.5739 23.1077 25.7916 23.1405 26 23.1405C27.5307 23.1405 28.7717 21.8996 28.7717 20.3688V19.1664L27.8662 16.9885Z" fill="#ECAD9A"/>
<path d="M28.7717 16.9885C28.7717 16.1876 28.1224 15.5383 27.3216 15.5383H24.6784C23.8775 15.5383 23.2283 16.1876 23.2283 16.9885V19.1665C23.7393 19.2441 24.672 19.3111 25.7224 18.9354C26.1921 18.7674 26.5732 18.5511 26.8655 18.3506C26.921 18.3126 26.9971 18.3268 27.0338 18.3831C27.1454 18.5543 27.367 18.8285 27.745 19.011C28.2011 19.2313 28.6182 19.1894 28.7717 19.1664V16.9885H28.7717Z" fill="#CF9772"/>
<path d="M27.3216 15.5384H25.5107C26.3116 15.5384 26.9609 16.1876 26.9609 16.9885V18.3327C26.9898 18.3394 27.0164 18.3563 27.0339 18.3832C27.1454 18.5544 27.3671 18.8286 27.7451 19.0111C28.2011 19.2313 28.6183 19.1895 28.7717 19.1665V16.9885C28.7717 16.1876 28.1224 15.5384 27.3216 15.5384Z" fill="#C88556"/>
<path d="M32.1601 11.8108H39.5932C40.3702 11.8108 41 12.4407 41 13.2177V16.4247C41 17.2018 40.3702 17.8316 39.5932 17.8316H35.4201C35.333 17.8316 35.2495 17.8662 35.188 17.9278L33.8301 19.2856C33.7119 19.4038 33.5099 19.3201 33.5099 19.153V18.1599C33.5099 17.9786 33.3629 17.8316 33.1816 17.8316H32.1601C31.3831 17.8316 30.7532 17.2017 30.7532 16.4247V13.2177C30.7532 12.4407 31.3831 11.8108 32.1601 11.8108Z" fill="#F7E07F"/>
<path d="M39.5931 11.8108H37.7822C38.5592 11.8108 39.1891 12.4407 39.1891 13.2177V16.4247C39.1891 17.2018 38.5592 17.8316 37.7822 17.8316H39.5931C40.3701 17.8316 41 17.2018 41 16.4247V13.2177C41 12.4407 40.3701 11.8108 39.5931 11.8108Z" fill="#F0D16F"/>
<path d="M38.9517 14.3685H32.8015C32.5514 14.3685 32.3488 14.1658 32.3488 13.9158C32.3488 13.6658 32.5514 13.4631 32.8015 13.4631H38.9517C39.2018 13.4631 39.4044 13.6658 39.4044 13.9158C39.4044 14.1658 39.2018 14.3685 38.9517 14.3685Z" fill="#F9F6F6"/>
<path d="M38.9517 16.1794H32.8015C32.5514 16.1794 32.3488 15.9767 32.3488 15.7267C32.3488 15.4767 32.5514 15.274 32.8015 15.274H38.9517C39.2018 15.274 39.4044 15.4767 39.4044 15.7267C39.4044 15.9767 39.2018 16.1794 38.9517 16.1794Z" fill="#F9F6F6"/>
<defs>
<filter id="filter0_d_1468_2516" x="0.5" y="0" width="52" height="52" filterUnits="userSpaceOnUse" color-interpolation-filters="sRGB">
<feFlood flood-opacity="0" result="BackgroundImageFix"/>
<feColorMatrix in="SourceAlpha" type="matrix" values="0 0 0 0 0 0 0 0 0 0 0 0 0 0 0 0 0 0 127 0" result="hardAlpha"/>
<feOffset dx="0.5" dy="1"/>
<feGaussianBlur stdDeviation="0.5"/>
<feComposite in2="hardAlpha" operator="out"/>
<feColorMatrix type="matrix" values="0 0 0 0 0 0 0 0 0 0 0 0 0 0 0 0 0 0 0.1 0"/>
<feBlend mode="normal" in2="BackgroundImageFix" result="effect1_dropShadow_1468_2516"/>
<feBlend mode="normal" in="SourceGraphic" in2="effect1_dropShadow_1468_2516" result="shape"/>
</filter>
</defs>
</svg>
