<svg width="150" height="118" viewBox="0 0 150 118" fill="none" xmlns="http://www.w3.org/2000/svg">
<g clip-path="url(#clip0_1618_1410)">
<path d="M136.08 92.2845L135.753 92.1846L13.6504 54.9405L13.9863 54.7728L97.807 12.9154L97.873 13.0522L136.08 92.2845ZM14.456 54.8731L135.513 91.7983L97.6692 13.3191L14.456 54.8731Z" fill="#E6E6E6"/>
<path d="M149.4 75.7974H118.996V99.8536H149.4V75.7974Z" fill="white"/>
<path d="M150 100.454H118.396V75.1975H150V100.454ZM119.596 99.2536H148.8V76.3975H119.596V99.2536Z" fill="#E6E6E6"/>
<path d="M31.0041 43.1985H0.600098V67.2547H31.0041V43.1985Z" fill="white"/>
<path d="M31.604 67.8546H0V42.5985H31.604V67.8546ZM1.19996 66.6546H30.404V43.7985H1.19996V66.6546Z" fill="#E6E6E6"/>
<path d="M115.201 0.599915H84.7974V24.6561H115.201V0.599915Z" fill="white"/>
<path d="M115.801 25.2561H84.1973V0H115.801V25.2561ZM85.3972 24.0561H114.601V1.19996H85.3972V24.0561Z" fill="#E6E6E6"/>
<path d="M96.105 9.25806L103.893 12.7029L96.105 15.9978V9.25806Z" fill="#F5F5F5"/>
<path d="M22.1945 51.3832H9.40967V52.5493H22.1945V51.3832Z" fill="#F5F5F5"/>
<path d="M22.1945 54.6436H9.40967V55.8097H22.1945V54.6436Z" fill="#F5F5F5"/>
<path d="M22.1945 57.9039H9.40967V59.0701H22.1945V57.9039Z" fill="#F5F5F5"/>
<path d="M129.106 89.473C130.015 89.473 130.753 88.7354 130.753 87.8255C130.753 86.9156 130.015 86.178 129.106 86.178C128.196 86.178 127.458 86.9156 127.458 87.8255C127.458 88.7354 128.196 89.473 129.106 89.473Z" fill="#F5F5F5"/>
<path d="M134.198 89.473C135.108 89.473 135.845 88.7354 135.845 87.8255C135.845 86.9156 135.108 86.178 134.198 86.178C133.288 86.178 132.55 86.9156 132.55 87.8255C132.55 88.7354 133.288 89.473 134.198 89.473Z" fill="#F5F5F5"/>
<path d="M139.29 89.473C140.2 89.473 140.938 88.7354 140.938 87.8255C140.938 86.9156 140.2 86.178 139.29 86.178C138.38 86.178 137.643 86.9156 137.643 87.8255C137.643 88.7354 138.38 89.473 139.29 89.473Z" fill="#F5F5F5"/>
<path d="M58.8588 72.0829C59.0228 71.781 59.1186 71.4469 59.1394 71.1041C59.1603 70.7612 59.1057 70.4179 58.9796 70.0984C58.8534 69.7789 58.6587 69.491 58.4092 69.2549C58.1597 69.0187 57.8615 68.8402 57.5356 68.7318L57.1483 63.3765L53.8364 62.8181L54.4896 70.3732C54.3438 70.9328 54.4084 71.5265 54.6711 72.0418C54.9337 72.557 55.3763 72.958 55.9148 73.1687C56.4534 73.3794 57.0505 73.3853 57.5931 73.1852C58.1357 72.9851 58.5861 72.5929 58.8588 72.0829H58.8588Z" fill="#A0616A"/>
<path d="M68.8717 114.516L71.9436 114.516L73.4051 102.667L68.8711 102.667L68.8717 114.516Z" fill="#A0616A"/>
<path d="M68.0884 113.513L74.1383 113.513H74.1385C75.161 113.513 76.1416 113.919 76.8646 114.642C77.5877 115.365 77.9939 116.346 77.994 117.368V117.493L68.0885 117.494L68.0884 113.513Z" fill="#2F2E41"/>
<path d="M58.849 114.516L61.9211 114.516L63.3825 102.667L58.8486 102.667L58.849 114.516Z" fill="#A0616A"/>
<path d="M58.0654 113.513L64.1153 113.513H64.1156C65.1381 113.513 66.1187 113.919 66.8417 114.642C67.5647 115.365 67.971 116.346 67.971 117.368V117.493L58.0656 117.494L58.0654 113.513Z" fill="#2F2E41"/>
<path d="M58.0429 62.5973L56.5396 71.0882L58.5441 110.679H63.0553L65.546 91.2055L66.5624 76.3502L68.1656 110.679L72.8268 111.015L75.5227 91.3387L76.2095 71.7146L75.4855 62.5973H58.0429Z" fill="#2F2E41"/>
<path d="M64.1819 36.634L70.9474 37.8869L72.8268 62.0674C72.8268 62.0674 64.5578 65.826 61.5509 62.5685C58.544 59.3111 64.1819 36.634 64.1819 36.634Z" fill="#CCCCCC"/>
<path d="M77.3371 41.5203L70.9474 37.887L70.0704 54.5502C70.0704 54.5502 69.8199 74.095 74.8314 74.095L78.59 72.8421L76.5854 56.5548L77.3371 41.5203Z" fill="#2F2E41"/>
<path d="M56.5396 40.0168L64.1822 36.634L65.0592 51.2927C65.0592 51.2927 67.5649 70.8375 59.5465 71.5892C59.5465 71.5892 57.2914 71.8398 56.2891 70.0858L57.7925 55.5524L56.5396 40.0168Z" fill="#2F2E41"/>
<path d="M58.0428 40.7686L56.5394 40.0168C56.5394 40.0168 55.7876 40.0168 55.5371 40.518C55.2865 41.0191 52.1523 55.5525 52.1523 55.5525L54.0701 69.1227L57.7923 67.3295L57.0178 55.991L58.0428 40.7686Z" fill="#2F2E41"/>
<path d="M74.6051 73.8013C74.4178 73.5134 74.2959 73.1879 74.248 72.8477C74.2002 72.5076 74.2274 72.1611 74.328 71.8326C74.4285 71.5041 74.5998 71.2017 74.8298 70.9466C75.0599 70.6915 75.3431 70.49 75.6594 70.3562L75.6224 64.987L78.8798 64.1687L78.8256 71.7518C79.0151 72.2981 78.9977 72.8951 78.7765 73.4294C78.5554 73.9638 78.1459 74.3985 77.6257 74.6511C77.1054 74.9038 76.5106 74.9568 75.9539 74.8002C75.3972 74.6435 74.9173 74.2882 74.6051 73.8013H74.6051Z" fill="#A0616A"/>
<path d="M74.5807 41.7708L77.3371 41.5203C77.3371 41.5203 78.3394 41.8813 78.5899 44.9583C78.8405 48.0352 78.8405 55.7547 78.8405 55.7547L79.5922 69.5846H75.3325L74.0796 55.5525L74.5807 41.7708Z" fill="#2F2E41"/>
<path d="M68.3997 34.5475C71.6511 34.5475 74.2868 31.9118 74.2868 28.6605C74.2868 25.4092 71.6511 22.7734 68.3997 22.7734C65.1484 22.7734 62.5127 25.4092 62.5127 28.6605C62.5127 31.9118 65.1484 34.5475 68.3997 34.5475Z" fill="#A0616A"/>
<path d="M67.522 29.8618L67.4405 28.4639C67.4215 28.138 67.5221 27.684 67.8476 27.7074C68.1245 27.7274 68.741 27.8355 68.8228 27.7484C69.1291 27.422 69.7609 27.7552 70.0914 27.4534C70.2299 27.3269 70.2916 27.1039 70.4721 27.0531C70.5967 27.0359 70.7232 27.0648 70.8279 27.1344C71.1155 27.2971 71.4352 27.395 71.7645 27.421C71.9293 27.4317 72.0939 27.3982 72.2414 27.3239C72.3889 27.2496 72.5138 27.1372 72.6031 26.9983C72.6305 26.9285 72.6738 26.866 72.7295 26.8159C72.7995 26.7793 72.8796 26.7668 72.9574 26.7803L73.9723 26.8465C74.0094 26.305 73.9291 25.7618 73.737 25.2541C73.5448 24.7464 73.2454 24.2862 72.859 23.9049C72.3612 23.4548 71.794 23.0879 71.1794 22.8183C70.4917 22.4864 69.7905 22.1853 69.0756 21.915C68.293 21.618 67.4735 21.3544 66.6375 21.3962C65.8015 21.4381 64.9384 21.8431 64.559 22.5892C64.2837 22.4644 64.0538 22.2575 63.9008 21.9968C63.8542 22.0605 63.8222 22.1336 63.8069 22.211C63.7916 22.2884 63.7936 22.3683 63.8125 22.4448C63.8315 22.5214 63.8671 22.5929 63.9167 22.6543C63.9663 22.7156 64.0288 22.7653 64.0997 22.7999L63.1808 22.446C63.001 22.7326 63.5363 23.077 63.396 23.3848C63.3506 23.4632 63.2851 23.5279 63.2062 23.5723C62.7996 23.8343 62.4467 24.1713 62.1664 24.5655C61.7944 25.1293 61.6699 25.8171 61.5792 26.4865C61.3775 27.9754 61.3497 29.6414 62.303 30.8027C62.411 30.9344 63.9368 33.16 64.0934 33.227C64.6228 33.4536 64.1626 32.7382 64.5879 33.1264C64.9214 33.4308 64.5942 32.0726 65.0428 32.2941C65.2169 32.3719 65.4097 32.3975 65.598 32.3679C65.7864 32.3384 65.9621 32.2548 66.1039 32.1274C66.2419 31.9833 66.0643 31.3751 65.862 30.8246C65.8234 30.7198 65.8111 30.607 65.8262 30.4963C65.8413 30.3856 65.8833 30.2803 65.9486 30.1896C66.0138 30.0989 66.1003 30.0256 66.2005 29.9762C66.3007 29.9267 66.4115 29.9025 66.5231 29.9058C67.0289 29.9212 67.5254 29.9212 67.522 29.8618Z" fill="#2F2E41"/>
<path d="M92.4465 117.66H43.0481C42.9951 117.66 42.9442 117.639 42.9067 117.602C42.8692 117.564 42.8481 117.513 42.8481 117.46C42.8481 117.407 42.8692 117.356 42.9067 117.319C42.9442 117.281 42.9951 117.26 43.0481 117.26H92.4465C92.4995 117.26 92.5504 117.281 92.5879 117.319C92.6254 117.356 92.6465 117.407 92.6465 117.46C92.6465 117.513 92.6254 117.564 92.5879 117.602C92.5504 117.639 92.4995 117.66 92.4465 117.66Z" fill="#CCCCCC"/>
</g>
<defs>
<clipPath id="clip0_1618_1410">
<rect width="150" height="117.66" fill="white"/>
</clipPath>
</defs>
</svg>
