<svg width="100" height="121" viewBox="0 0 100 121" fill="none" xmlns="http://www.w3.org/2000/svg">
<g clip-path="url(#clip0_1618_1390)">
<path d="M0.71468 57.621C1.08211 58.2346 1.57963 58.7602 2.17217 59.1608C2.76471 59.5613 3.43788 59.8271 4.14425 59.9394C4.85062 60.0516 5.573 60.0076 6.26053 59.8105C6.94806 59.6134 7.58401 59.2679 8.12358 58.7984L23.205 67.4482L22.6429 58.4311L8.40752 51.5995C7.55872 50.7453 6.42607 50.2322 5.22422 50.1573C4.02237 50.0825 2.8348 50.4511 1.88656 51.1933C0.938318 51.9355 0.295278 52.9998 0.0792931 54.1845C-0.136692 55.3691 0.089384 56.5918 0.71468 57.621Z" fill="#FFB8B8"/>
<path d="M44.3772 92.2717C39.9036 98.5332 40.0636 109.009 41.3118 120.474H62.4633L63.383 118.328L64.6092 120.474H84.5346C84.5346 120.474 83.0018 91.3521 80.2429 90.4324C77.484 89.5128 44.3772 92.2717 44.3772 92.2717Z" fill="#2F2E41"/>
<path d="M62.4634 26.8528C68.3889 26.8528 73.1925 22.0493 73.1925 16.1238C73.1925 10.1983 68.3889 5.39471 62.4634 5.39471C56.5379 5.39471 51.7344 10.1983 51.7344 16.1238C51.7344 22.0493 56.5379 26.8528 62.4634 26.8528Z" fill="#FFB8B8"/>
<path d="M70.2175 29.6365L72.3157 33.6579L86.8277 40.1271L83.013 77.0428L81.4075 80.8656L82.275 84.1854L80.1836 86.6355C82.2829 88.5349 82.5495 90.5234 81.4075 92.5801L74.7247 94.111C74.7247 94.111 37.5668 97.4152 40.6983 91.6586C44.1199 85.3688 44.9912 66.7932 37.4377 56.8669C31.0248 48.4396 35.9482 37.5044 35.9482 37.5044L51.1596 32.9585L56.7546 29.6365L70.2175 29.6365Z" fill="#3F3D56"/>
<path d="M67.2263 0.407407C67.2767 0.300732 67.3579 0.211562 67.4593 0.151348C67.5608 0.0911335 67.6779 0.0626244 67.7957 0.0694831C62.8838 -0.224336 57.71 0.348167 53.6006 3.05499C52.605 3.71076 51.6664 4.49295 50.5831 4.96866C50.5319 4.99164 50.4876 5.02745 50.4544 5.07262C50.4212 5.11778 50.4003 5.17076 50.3936 5.22642C50.3869 5.28207 50.3947 5.33851 50.4163 5.39025C50.4379 5.44199 50.4725 5.48727 50.5167 5.52169L50.6357 5.615C50.6826 5.65182 50.7186 5.7008 50.7396 5.75663C50.7607 5.81245 50.766 5.87298 50.7551 5.93162C50.7441 5.99027 50.7173 6.04479 50.6775 6.08926C50.6377 6.13373 50.5865 6.16643 50.5295 6.18383C50.47 6.20196 50.4169 6.23672 50.3765 6.28401C50.3361 6.3313 50.3101 6.38914 50.3015 6.45073C50.2929 6.51232 50.302 6.57509 50.3279 6.63165C50.3538 6.6882 50.3953 6.73618 50.4475 6.76994L51.3594 7.35929C51.4053 7.38845 51.4432 7.42867 51.4695 7.47628C51.4958 7.52388 51.5098 7.57733 51.5101 7.63173C51.5104 7.68613 51.497 7.73973 51.4712 7.78762C51.4454 7.83551 51.408 7.87615 51.3624 7.9058C51.2851 7.95351 51.204 7.99463 51.1199 8.02875C51.0675 8.04841 51.0211 8.08123 50.9851 8.12404C50.9492 8.16684 50.9248 8.21819 50.9144 8.27314C50.9041 8.3281 50.9081 8.38479 50.926 8.43776C50.9439 8.49074 50.9751 8.5382 51.0167 8.57558C51.4116 8.92711 51.7145 9.36989 51.899 9.86533C52.2029 10.6556 52.2575 11.5162 52.3088 12.3614C52.6229 11.1419 53.9538 10.4241 55.2108 10.3512C56.4679 10.2783 57.694 10.693 58.9174 10.9912C61.582 11.6387 64.3495 11.7452 67.056 11.3043C66.1369 13.1487 66.9122 15.3486 67.6923 17.2559L70.2176 16.1735C73.6858 14.2158 71.27 22.4972 69.9734 23.6341C72.6208 24.552 79.55 14.365 77.3209 10.5009C76.1613 8.4908 76.9844 5.8983 74.7047 3.99189C73.5874 2.81569 71.3567 3.33847 70.2176 2.36091C69.7693 1.97616 70.4526 0.946808 69.8365 0.722478C69.6319 0.647969 67.2601 0.332312 67.2263 0.407407Z" fill="#2F2E41"/>
<path d="M49.0532 33.9971C47.0845 42.7375 42.035 63.1452 36.9121 67.4132C36.5872 67.72 36.1976 67.95 35.7721 68.0863C17.765 72.4731 11.9951 61.2832 11.9951 61.2832C11.9951 61.2832 16.8208 58.9315 16.9432 54.3349L26.675 57.3544L35.1584 38.2633L36.4068 37.0988L36.4138 37.0918L49.0532 33.9971Z" fill="#3F3D56"/>
<path d="M87.4473 114.711C87.963 114.215 88.3636 113.612 88.6211 112.945C88.8786 112.278 88.9867 111.562 88.9377 110.849C88.8887 110.135 88.6839 109.441 88.3376 108.815C87.9914 108.189 87.5121 107.647 86.9336 107.226L91.9816 90.5895L83.3201 93.159L79.8543 108.564C79.2122 109.582 78.9661 110.801 79.1626 111.989C79.3592 113.177 79.9846 114.252 80.9206 115.01C81.8565 115.767 83.0379 116.155 84.2408 116.1C85.4437 116.045 86.5846 115.551 87.4473 114.711V114.711Z" fill="#FFB8B8"/>
<path d="M82.8269 39.1964L86.8279 40.1271C86.8279 40.1271 103.365 72.3032 99.3803 78.4341C95.3952 84.565 90.5132 104.863 90.5132 104.863C90.5132 104.863 83.2925 103.427 80.5336 99.7488L85.5858 75.6752L80.3745 55.4433L82.8269 39.1964Z" fill="#3F3D56"/>
<path d="M6.92042 86.9769L7.06409 35.1553C7.06818 34.1064 7.48816 33.102 8.23187 32.3624C8.97559 31.6228 9.98232 31.2084 11.0312 31.2101L50.168 31.3186C51.2169 31.3227 52.2213 31.7427 52.9609 32.4864C53.7005 33.2301 54.1149 34.2368 54.1132 35.2857L53.9695 87.1073C53.9654 88.1562 53.5454 89.1606 52.8017 89.9002C52.058 90.6398 51.0513 91.0542 50.0024 91.0525L10.8656 90.944C9.81672 90.9399 8.8123 90.5199 8.0727 89.7762C7.33309 89.0325 6.91869 88.0257 6.92042 86.9769V86.9769Z" fill="#E6E6E6"/>
<path d="M9.96584 71.3329L10.0582 38.0173C10.062 37.035 10.4553 36.0943 11.1519 35.4016C11.8484 34.709 12.7912 34.3209 13.7735 34.3225L47.4083 34.4158C48.3906 34.4196 49.3313 34.8129 50.024 35.5094C50.7167 36.2059 51.1049 37.1487 51.1033 38.1311L50.9754 84.2453C50.9716 85.2276 50.5782 86.1683 49.8817 86.8609C49.1851 87.5536 48.2423 87.9417 47.2599 87.94L26.4239 87.8823C22.0483 87.8652 17.8583 86.1133 14.7728 83.0107C11.6874 79.9082 9.95867 75.7085 9.96584 71.3329V71.3329Z" fill="white"/>
<path d="M43.554 48.9566H17.3275C16.9102 48.9566 16.5099 48.7908 16.2148 48.4957C15.9197 48.2006 15.7539 47.8004 15.7539 47.383C15.7539 46.9657 15.9197 46.5654 16.2148 46.2703C16.5099 45.9752 16.9102 45.8094 17.3275 45.8094H43.554C43.9714 45.8094 44.3716 45.9752 44.6667 46.2703C44.9618 46.5654 45.1276 46.9657 45.1276 47.383C45.1276 47.8004 44.9618 48.2006 44.6667 48.4957C44.3716 48.7908 43.9714 48.9566 43.554 48.9566V48.9566Z" fill="#F5F5F5"/>
<path d="M23.0973 41.7006H17.3275C16.9102 41.7006 16.5099 41.5349 16.2148 41.2398C15.9197 40.9447 15.7539 40.5444 15.7539 40.1271C15.7539 39.7097 15.9197 39.3095 16.2148 39.0144C16.5099 38.7193 16.9102 38.5535 17.3275 38.5535H23.0973C23.5147 38.5535 23.9149 38.7193 24.21 39.0144C24.5051 39.3095 24.6709 39.7097 24.6709 40.1271C24.6709 40.5444 24.5051 40.9447 24.21 41.2398C23.9149 41.5349 23.5147 41.7006 23.0973 41.7006Z" fill="#F5F5F5"/>
<path d="M43.554 56.2127H17.3275C16.9102 56.2127 16.5099 56.0469 16.2148 55.7518C15.9197 55.4567 15.7539 55.0565 15.7539 54.6391C15.7539 54.2218 15.9197 53.8216 16.2148 53.5264C16.5099 53.2313 16.9102 53.0656 17.3275 53.0656H43.554C43.9714 53.0656 44.3716 53.2313 44.6667 53.5264C44.9618 53.8216 45.1276 54.2218 45.1276 54.6391C45.1276 55.0565 44.9618 55.4567 44.6667 55.7518C44.3716 56.0469 43.9714 56.2127 43.554 56.2127Z" fill="#F5F5F5"/>
<path d="M43.554 63.4687H17.3275C16.9102 63.4687 16.5099 63.3029 16.2148 63.0078C15.9197 62.7127 15.7539 62.3125 15.7539 61.8951C15.7539 61.4778 15.9197 61.0775 16.2148 60.7824C16.5099 60.4873 16.9102 60.3215 17.3275 60.3215H43.554C43.9714 60.3215 44.3716 60.4873 44.6667 60.7824C44.9618 61.0775 45.1276 61.4778 45.1276 61.8951C45.1276 62.3125 44.9618 62.7127 44.6667 63.0078C44.3716 63.3029 43.9714 63.4687 43.554 63.4687V63.4687Z" fill="#F5F5F5"/>
<path d="M41.4322 82.588C44.8903 82.588 47.6935 79.7847 47.6935 76.3266C47.6935 72.8686 44.8903 70.0653 41.4322 70.0653C37.9742 70.0653 35.1709 72.8686 35.1709 76.3266C35.1709 79.7847 37.9742 82.588 41.4322 82.588Z" fill="#F5F5F5"/>
<path d="M40.578 79.5853C40.4698 79.5853 40.3632 79.5601 40.2665 79.5118C40.1698 79.4634 40.0857 79.3932 40.0208 79.3066L38.3126 77.029C38.2576 76.9559 38.2176 76.8726 38.1948 76.7839C38.172 76.6953 38.1669 76.603 38.1798 76.5124C38.1927 76.4218 38.2233 76.3346 38.2699 76.2558C38.3165 76.177 38.3782 76.1082 38.4515 76.0533C38.5247 75.9984 38.608 75.9584 38.6967 75.9357C38.7854 75.9131 38.8777 75.9081 38.9683 75.9211C39.0589 75.9341 39.146 75.9648 39.2247 76.0115C39.3035 76.0582 39.3722 76.12 39.427 76.1933L40.5446 77.6833L43.4149 73.3779C43.4655 73.3015 43.5306 73.2358 43.6067 73.1846C43.6827 73.1334 43.7681 73.0978 43.8579 73.0797C43.9478 73.0615 44.0403 73.0613 44.1302 73.0791C44.2201 73.0968 44.3057 73.1321 44.3819 73.1829C44.4582 73.2337 44.5237 73.2991 44.5746 73.3753C44.6255 73.4515 44.6609 73.537 44.6788 73.6269C44.6966 73.7168 44.6965 73.8093 44.6785 73.8992C44.6605 73.989 44.625 74.0745 44.5739 74.1506L41.1575 79.2751C41.0957 79.3678 41.0126 79.4443 40.9152 79.4983C40.8177 79.5522 40.7087 79.5819 40.5973 79.5851C40.5909 79.5852 40.5844 79.5853 40.578 79.5853Z" fill="white"/>
<path d="M28.0807 19.1459C29.7223 19.1459 31.0531 17.8151 31.0531 16.1735C31.0531 14.5319 29.7223 13.2012 28.0807 13.2012C26.4392 13.2012 25.1084 14.5319 25.1084 16.1735C25.1084 17.8151 26.4392 19.1459 28.0807 19.1459Z" fill="#F2F2F2"/>
<path d="M17.2404 104.644C18.882 104.644 20.2127 103.314 20.2127 101.672C20.2127 100.03 18.882 98.6997 17.2404 98.6997C15.5988 98.6997 14.2681 100.03 14.2681 101.672C14.2681 103.314 15.5988 104.644 17.2404 104.644Z" fill="#F2F2F2"/>
<path d="M85.6042 30.6855C87.2458 30.6855 88.5765 29.3548 88.5765 27.7132C88.5765 26.0716 87.2458 24.7408 85.6042 24.7408C83.9626 24.7408 82.6318 26.0716 82.6318 27.7132C82.6318 29.3548 83.9626 30.6855 85.6042 30.6855Z" fill="#F2F2F2"/>
</g>
<defs>
<clipPath id="clip0_1618_1390">
<rect width="100" height="120.474" fill="white"/>
</clipPath>
</defs>
</svg>
