<svg width="150" height="100" viewBox="0 0 150 100" fill="none" xmlns="http://www.w3.org/2000/svg">
<g clip-path="url(#clip0_1618_1440)">
<path d="M95.2703 55.4721C95.7953 55.3624 96.2562 55.0507 96.5535 54.6042C96.8508 54.1578 96.9608 53.6124 96.8597 53.0856C96.8371 52.9693 96.8042 52.8551 96.7614 52.7446L102.215 48.0437L98.6494 47.0352L94.0176 51.6538C93.531 51.8858 93.1554 52.3 92.9718 52.8069C92.7882 53.3137 92.8114 53.8724 93.0365 54.3622C93.2277 54.7732 93.553 55.107 93.9589 55.3086C94.3648 55.5103 94.8272 55.568 95.2703 55.4721L95.2703 55.4721Z" fill="#FFB6B6"/>
<path d="M123.729 97.2752L121.286 97.275L120.124 87.8511L123.73 87.8512L123.729 97.2752Z" fill="#FFB6B6"/>
<path d="M124.352 99.6435L116.474 99.6432V99.5436C116.474 98.7303 116.797 97.9504 117.372 97.3754C117.947 96.8004 118.727 96.4773 119.541 96.4772H119.541L120.98 95.3855L123.665 96.4774L124.352 96.4774L124.352 99.6435Z" fill="#2F2E41"/>
<path d="M112.378 97.2752L109.935 97.275L108.772 87.8511L112.379 87.8512L112.378 97.2752Z" fill="#FFB6B6"/>
<path d="M113.001 99.6435L105.123 99.6432V99.5436C105.123 98.7303 105.446 97.9504 106.021 97.3754C106.596 96.8004 107.376 96.4773 108.189 96.4772H108.19L109.629 95.3855L112.314 96.4774L113.001 96.4774L113.001 99.6435Z" fill="#2F2E41"/>
<path d="M111.32 45.7532L127.212 46.1505C130.231 47.7898 130.276 51.338 129.287 55.5507C129.287 55.5507 129.621 58.0546 128.954 58.7223C128.286 59.39 127.952 59.39 128.286 60.5585C128.62 61.727 126.856 63.6354 127.07 63.8497C127.284 64.0639 127.785 65.2324 127.785 65.2324L126.116 74.7472C126.116 74.7472 124.947 91.2729 124.613 91.6068C124.28 91.9406 123.946 91.6068 124.28 92.4414C124.613 93.276 124.947 92.9422 124.613 93.276C124.318 93.5949 124.039 93.9292 123.779 94.2776H119.743C119.743 94.2776 119.439 92.6083 119.439 92.4414C119.439 92.2745 119.105 91.2729 119.105 91.106C119.105 90.939 119.4 90.644 119.4 90.644C119.502 90.3046 119.571 89.9562 119.606 89.6036C119.606 89.2698 120.607 76.4165 120.607 76.4165L118.604 59.7239L113.763 76.0826C113.763 76.0826 113.763 90.4383 113.429 90.7721C113.096 91.106 113.096 90.9391 113.263 91.6068C113.429 92.2745 114.097 92.1075 113.596 92.6083C113.096 93.1091 112.929 92.2745 113.096 93.1091L113.263 93.9437L108.255 94.0154C108.255 94.0154 107.587 92.6083 107.921 92.1075C108.255 91.6067 108.235 91.7434 107.827 90.9239C107.42 90.1044 107.253 89.9375 107.42 89.7706C107.587 89.6036 107.587 88.7158 107.587 88.7158L108.422 72.7441C108.422 72.7441 108.589 55.8846 108.589 55.3838C108.601 55.1261 108.554 54.869 108.45 54.6328V53.9531L109.089 51.5445L111.32 45.7532Z" fill="#2F2E41"/>
<path d="M95.0864 50.0499L97.7722 52.2159L112.414 40.8663L111.548 21.1128C110.724 21.7716 110.04 22.5871 109.533 23.5121C109.027 24.4372 108.709 25.4534 108.598 26.5021L106.089 37.6607L95.0864 50.0499Z" fill="#E6E6E6"/>
<path d="M108.949 50.743C114.132 51.4054 118.907 49.3986 123.417 47.884C125.454 47.2002 127.505 47.914 129.395 46.7577C128.578 38.706 129.372 29.6366 131.108 19.9715C131.207 19.4244 131.104 18.8599 130.817 18.3833C130.531 17.9068 130.081 17.5508 129.551 17.3817L123.956 15.7764L122.233 13.876L117.784 15.0054L116.226 17.8205L110.874 21.4368C110.562 21.6478 110.317 21.9445 110.169 22.2912C110.021 22.638 109.977 23.02 110.041 23.3915C111.649 32.4811 111.276 41.8106 108.949 50.743V50.743Z" fill="#E6E6E6"/>
<path d="M125.49 53.2351C125.965 52.9862 126.323 52.5606 126.487 52.05C126.652 51.5394 126.609 50.9846 126.368 50.5055C126.314 50.3997 126.251 50.2988 126.18 50.2041L130.144 44.1937L126.438 44.1962L123.243 49.9034C122.838 50.2594 122.589 50.7604 122.551 51.2981C122.513 51.8358 122.688 52.367 123.038 52.7768C123.334 53.12 123.738 53.3523 124.183 53.4356C124.629 53.5189 125.09 53.4482 125.49 53.2351L125.49 53.2351Z" fill="#FFB6B6"/>
<path d="M124.37 47.6241L126.796 50.7431L135.287 38.0939L134.552 25.2432C134.459 23.6064 133.953 22.0199 133.081 20.6313C132.21 19.2426 131.001 18.0969 129.568 17.3008V17.3008L129.742 37.0543L124.37 47.6241Z" fill="#E6E6E6"/>
<path d="M118.274 13.1408C121.273 13.1408 123.704 10.7098 123.704 7.71106C123.704 4.71233 121.273 2.28137 118.274 2.28137C115.275 2.28137 112.844 4.71233 112.844 7.71106C112.844 10.7098 115.275 13.1408 118.274 13.1408Z" fill="#FFB6B6"/>
<path d="M114.815 4.52454C115.025 4.52618 115.234 4.55362 115.437 4.60624C115.838 4.70264 116.246 4.77093 116.656 4.8106C117.913 4.92886 119.094 5.46493 120.011 6.33319C120.927 7.20144 121.526 8.3518 121.713 9.60054C122.028 9.32547 122.746 8.81946 123.334 9.28973C123.343 9.2972 123.349 9.30104 123.369 9.29123C123.76 9.10585 124.454 6.82394 124.475 4.81476C124.486 3.74837 124.318 2.38663 123.456 1.95539L123.41 1.93268L123.398 1.88329C123.341 1.64341 122.697 1.23394 121.578 0.915235C119.545 0.336065 116.514 -0.79217 114.807 0.868223C114.678 1.42798 114.257 2.62586 113.833 2.76164C113.363 2.91193 112.957 3.04163 112.893 3.61824C112.839 4.4388 112.843 5.26209 112.904 6.08211C113.064 5.58033 113.376 5.14115 113.798 4.82639C114.098 4.62439 114.453 4.51905 114.815 4.52454V4.52454Z" fill="#2F2E41"/>
<path d="M150 99.6778C150 99.7049 149.995 99.7317 149.984 99.7568C149.974 99.7818 149.959 99.8046 149.94 99.8237C149.921 99.8429 149.898 99.8581 149.873 99.8684C149.848 99.8788 149.821 99.884 149.794 99.884H0.206199C0.151512 99.884 0.0990663 99.8622 0.0603965 99.8236C0.0217268 99.7849 0 99.7324 0 99.6778C0 99.6231 0.0217268 99.5706 0.0603965 99.5319C0.0990663 99.4933 0.151512 99.4716 0.206199 99.4716H149.794C149.821 99.4715 149.848 99.4767 149.873 99.4871C149.898 99.4974 149.921 99.5126 149.94 99.5318C149.959 99.5509 149.974 99.5737 149.984 99.5988C149.995 99.6238 150 99.6507 150 99.6778Z" fill="#CCCCCC"/>
<path d="M61.9078 17.5221L41.5262 22.1075C40.9801 22.2311 40.5053 22.5661 40.206 23.0393C39.9066 23.5124 39.8072 24.085 39.9294 24.6313L45.5183 49.473L69.4655 44.0854C69.6623 44.0417 69.8424 43.9424 69.9842 43.7992L64.4316 19.1188C64.3081 18.5728 63.973 18.098 63.4999 17.7986C63.0267 17.4993 62.4542 17.3998 61.9078 17.5221V17.5221Z" fill="#E6E6E6"/>
<path d="M54.5041 20.9427L43.3344 23.4556C42.8371 23.568 42.4047 23.873 42.132 24.3038C41.8594 24.7345 41.7687 25.2559 41.8798 25.7534L47.1344 49.1093L68.403 44.3243L64.5763 27.3152C64.0834 25.1358 62.7461 23.241 60.8578 22.0463C58.9696 20.8516 56.6846 20.4547 54.5041 20.9427V20.9427Z" fill="white"/>
<path d="M64.3131 43.0653L50.2913 46.2199C50.2312 46.2333 50.1743 46.2584 50.1239 46.2938C50.0735 46.3293 50.0306 46.3743 49.9976 46.4263C49.9646 46.4783 49.9422 46.5363 49.9317 46.597C49.9212 46.6577 49.9227 46.7198 49.9362 46.7799C49.9497 46.84 49.975 46.8968 50.0105 46.9472C50.046 46.9975 50.0911 47.0403 50.1432 47.0732C50.1952 47.1061 50.2533 47.1284 50.314 47.1388C50.3747 47.1492 50.4369 47.1476 50.4969 47.1339L64.5187 43.9793C64.5788 43.966 64.6358 43.9408 64.6862 43.9054C64.7367 43.87 64.7796 43.825 64.8126 43.773C64.8457 43.721 64.8681 43.663 64.8786 43.6022C64.8892 43.5415 64.8877 43.4793 64.8741 43.4192C64.8606 43.3591 64.8354 43.3022 64.7998 43.2519C64.7643 43.2015 64.7192 43.1587 64.667 43.1258C64.6149 43.0929 64.5568 43.0707 64.4961 43.0603C64.4353 43.0499 64.3731 43.0516 64.3131 43.0653Z" fill="#E4E4E4"/>
<path d="M63.9063 41.2578L49.8845 44.4124C49.7632 44.4397 49.6577 44.5141 49.5912 44.6192C49.5247 44.7242 49.5027 44.8515 49.53 44.9728C49.5573 45.0941 49.6317 45.1996 49.7368 45.2661C49.8419 45.3326 49.9691 45.3546 50.0904 45.3273L64.1122 42.1727C64.1722 42.1592 64.2291 42.134 64.2794 42.0985C64.3297 42.063 64.3726 42.018 64.4055 41.966C64.4384 41.9139 64.4608 41.8559 64.4713 41.7952C64.4818 41.7345 64.4802 41.6724 64.4667 41.6123C64.4532 41.5522 64.428 41.4954 64.3925 41.4451C64.357 41.3948 64.312 41.3519 64.2599 41.319C64.2079 41.2861 64.1499 41.2637 64.0892 41.2532C64.0285 41.2427 63.9664 41.2443 63.9063 41.2578H63.9063Z" fill="#E4E4E4"/>
<path d="M55.5561 41.2384L49.4779 42.6059C49.3567 42.6331 49.2513 42.7074 49.1849 42.8124C49.1185 42.9174 49.0965 43.0445 49.1237 43.1657C49.151 43.2869 49.2253 43.3923 49.3303 43.4587C49.4353 43.5251 49.5623 43.5471 49.6836 43.5199L55.7618 42.1524C55.8219 42.139 55.8788 42.1139 55.9293 42.0785C55.9797 42.0431 56.0227 41.9981 56.0557 41.9461C56.0887 41.8941 56.1112 41.836 56.1217 41.7753C56.1323 41.7146 56.1307 41.6524 56.1172 41.5923C56.1037 41.5322 56.0784 41.4753 56.0429 41.425C56.0073 41.3746 55.9622 41.3318 55.9101 41.2989C55.858 41.266 55.7999 41.2438 55.7391 41.2334C55.6784 41.223 55.6162 41.2247 55.5561 41.2384V41.2384Z" fill="#E4E4E4"/>
<path d="M62.6485 35.6665L48.6267 38.8211C48.5667 38.8346 48.5098 38.8598 48.4595 38.8953C48.4092 38.9308 48.3663 38.9758 48.3334 39.0278C48.2669 39.1329 48.2449 39.2601 48.2722 39.3815C48.2995 39.5028 48.3739 39.6083 48.479 39.6748C48.584 39.7413 48.7112 39.7633 48.8326 39.736L62.8543 36.5814C62.9144 36.5679 62.9712 36.5427 63.0216 36.5072C63.0719 36.4717 63.1148 36.4267 63.1477 36.3746C63.1806 36.3226 63.203 36.2646 63.2135 36.2039C63.224 36.1432 63.2224 36.0811 63.2089 36.021C63.1954 35.9609 63.1702 35.9041 63.1347 35.8538C63.0992 35.8034 63.0542 35.7606 63.0021 35.7277C62.9501 35.6948 62.8921 35.6724 62.8314 35.6619C62.7707 35.6514 62.7086 35.6529 62.6485 35.6665V35.6665Z" fill="#E4E4E4"/>
<path d="M62.2418 33.8599L48.22 37.0145C48.1599 37.0279 48.103 37.0531 48.0526 37.0885C48.0022 37.1239 47.9593 37.1689 47.9263 37.2209C47.8934 37.2729 47.871 37.3309 47.8604 37.3916C47.8499 37.4523 47.8514 37.5145 47.8649 37.5745C47.8785 37.6346 47.9037 37.6915 47.9392 37.7418C47.9747 37.7921 48.0198 37.8349 48.0719 37.8678C48.124 37.9007 48.182 37.923 48.2427 37.9334C48.3034 37.9438 48.3656 37.9422 48.4256 37.9285L62.4474 34.7739C62.5075 34.7605 62.5643 34.7353 62.6146 34.6999C62.665 34.6645 62.7078 34.6195 62.7408 34.5675C62.7737 34.5155 62.7961 34.4575 62.8066 34.3968C62.8171 34.3362 62.8155 34.2741 62.802 34.214C62.7885 34.1539 62.7633 34.0972 62.7278 34.0468C62.6924 33.9965 62.6473 33.9537 62.5953 33.9208C62.5433 33.888 62.4853 33.8657 62.4246 33.8552C62.3639 33.8447 62.3018 33.8463 62.2418 33.8599V33.8599Z" fill="#E4E4E4"/>
<path d="M53.8915 33.8394L47.8132 35.2069C47.7532 35.2204 47.6963 35.2456 47.646 35.2811C47.5957 35.3166 47.5528 35.3616 47.5199 35.4137C47.487 35.4657 47.4646 35.5237 47.4541 35.5844C47.4436 35.6451 47.4452 35.7072 47.4587 35.7673C47.4722 35.8274 47.4974 35.8842 47.5329 35.9345C47.5684 35.9849 47.6134 36.0277 47.6655 36.0606C47.7175 36.0936 47.7755 36.1159 47.8362 36.1264C47.8969 36.1369 47.959 36.1354 48.0191 36.1219L54.0973 34.7544C54.1574 34.7409 54.2142 34.7157 54.2645 34.6802C54.3149 34.6447 54.3577 34.5997 54.3906 34.5476C54.4236 34.4956 54.4459 34.4376 54.4564 34.3769C54.4669 34.3162 54.4654 34.2541 54.4519 34.194C54.4383 34.1339 54.4131 34.0771 54.3776 34.0268C54.3422 33.9764 54.2971 33.9336 54.2451 33.9006C54.193 33.8677 54.135 33.8454 54.0744 33.8349C54.0137 33.8244 53.9515 33.8259 53.8915 33.8394V33.8394Z" fill="#E4E4E4"/>
<path d="M60.9839 28.2675L46.9622 31.4221C46.8408 31.4494 46.7353 31.5238 46.6688 31.6289C46.6024 31.734 46.5803 31.8612 46.6076 31.9825C46.6349 32.1039 46.7093 32.2094 46.8144 32.2759C46.9195 32.3424 47.0467 32.3644 47.168 32.3371L61.1898 29.1825C61.2499 29.169 61.3067 29.1438 61.357 29.1083C61.4074 29.0728 61.4502 29.0278 61.4831 28.9757C61.516 28.9237 61.5384 28.8657 61.5489 28.805C61.5594 28.7443 61.5579 28.6822 61.5443 28.6221C61.5308 28.562 61.5056 28.5052 61.4701 28.4549C61.4346 28.4045 61.3896 28.3617 61.3376 28.3287C61.2855 28.2958 61.2275 28.2735 61.1668 28.263C61.1062 28.2525 61.044 28.254 60.9839 28.2675V28.2675Z" fill="#E6E6E6"/>
<path d="M60.5772 26.461L46.5554 29.6156C46.4954 29.6291 46.4385 29.6544 46.3882 29.6898C46.3379 29.7253 46.295 29.7704 46.2621 29.8224C46.1956 29.9275 46.1736 30.0547 46.2009 30.176C46.2282 30.2974 46.3026 30.4029 46.4077 30.4694C46.5128 30.5359 46.64 30.5579 46.7613 30.5306L60.7831 27.376C60.8431 27.3625 60.9 27.3372 60.9503 27.3018C61.0006 27.2663 61.0435 27.2212 61.0764 27.1692C61.1093 27.1172 61.1317 27.0591 61.1422 26.9985C61.1527 26.9378 61.1511 26.8756 61.1376 26.8156C61.1241 26.7555 61.0989 26.6987 61.0634 26.6483C61.0279 26.598 60.9829 26.5552 60.9308 26.5222C60.8788 26.4893 60.8208 26.467 60.7601 26.4565C60.6994 26.446 60.6373 26.4475 60.5772 26.461V26.461Z" fill="#E6E6E6"/>
<path d="M52.2269 26.4406L46.1487 27.8081C46.0274 27.8354 45.9219 27.9098 45.8554 28.0149C45.7889 28.12 45.7669 28.2472 45.7942 28.3685C45.8214 28.4898 45.8958 28.5953 46.0009 28.6618C46.106 28.7283 46.2332 28.7504 46.3546 28.7231L52.4328 27.3556C52.4928 27.3421 52.5497 27.3168 52.6 27.2814C52.6503 27.2459 52.6932 27.2008 52.7261 27.1488C52.759 27.0968 52.7814 27.0388 52.7919 26.9781C52.8024 26.9174 52.8008 26.8553 52.7873 26.7952C52.7738 26.7351 52.7486 26.6783 52.7131 26.6279C52.6776 26.5776 52.6326 26.5348 52.5805 26.5018C52.5285 26.4689 52.4705 26.4466 52.4098 26.4361C52.3491 26.4256 52.287 26.4271 52.2269 26.4406Z" fill="#E6E6E6"/>
<path d="M21.2462 46.345C21.1134 46.3451 20.986 46.398 20.8921 46.4919C20.7981 46.5859 20.7453 46.7132 20.7451 46.8461V98.6639C20.7453 98.7968 20.7981 98.9241 20.8921 99.0181C20.986 99.1121 21.1134 99.1649 21.2462 99.1651H86.2154C86.3483 99.1649 86.4757 99.1121 86.5696 99.0181C86.6635 98.9241 86.7163 98.7967 86.7165 98.6639V55.164C86.7164 55.0311 86.6635 54.9037 86.5696 54.8097C86.4757 54.7158 86.3483 54.6629 86.2154 54.6627H48.9274C48.5489 54.6631 48.1838 54.522 47.9039 54.2673L39.521 46.6505C39.3047 46.4537 39.0228 46.3447 38.7304 46.345H21.2462Z" fill="#3F3D56"/>
<path d="M98.7809 32.7919L63.9934 17.8362C63.0607 17.4364 62.0074 17.423 61.0648 17.7988C60.1222 18.1747 59.3671 18.909 58.9652 19.8409L40.7368 62.2407L81.61 79.8127C81.9452 79.9581 82.3151 80.0038 82.6756 79.9445L100.786 37.8201C101.185 36.8873 101.199 35.8341 100.823 34.8915C100.447 33.9488 99.7127 33.1937 98.7809 32.7919Z" fill="#E6E6E6"/>
<path d="M84.2773 29.9345L65.2129 21.7384C64.3636 21.3743 63.4046 21.3619 62.5461 21.7039C61.6877 22.0459 61 22.7144 60.6338 23.5628L43.4956 63.4267L79.7969 79.0332L92.2779 50.002C93.8732 46.2795 93.9268 42.0761 92.4269 38.314C90.9271 34.552 87.9962 31.5384 84.2773 29.9345V29.9345Z" fill="white"/>
<path d="M75.1346 72.8341L51.2023 62.5452C51.0998 62.5009 50.9896 62.4773 50.878 62.4757C50.7664 62.4741 50.6556 62.4945 50.5519 62.5357C50.4481 62.577 50.3536 62.6382 50.2736 62.7161C50.1936 62.7939 50.1297 62.8868 50.0856 62.9893C50.0415 63.0918 50.0181 63.2021 50.0167 63.3137C50.0152 63.4253 50.0358 63.5361 50.0772 63.6397C50.1186 63.7434 50.1801 63.8378 50.2581 63.9177C50.336 63.9976 50.429 64.0613 50.5316 64.1052L74.464 74.3941C74.5664 74.4384 74.6766 74.462 74.7882 74.4636C74.8998 74.4652 75.0107 74.4448 75.1144 74.4036C75.2181 74.3623 75.3126 74.301 75.3926 74.2232C75.4726 74.1454 75.5365 74.0525 75.5806 73.95C75.6247 73.8474 75.6481 73.7372 75.6496 73.6256C75.651 73.514 75.6304 73.4032 75.589 73.2996C75.5476 73.1959 75.4861 73.1015 75.4082 73.0216C75.3302 72.9417 75.2373 72.878 75.1346 72.8341V72.8341Z" fill="#E4E4E4"/>
<path d="M76.4609 69.749L52.5286 59.4601C52.3215 59.3712 52.0876 59.3681 51.8783 59.4516C51.669 59.5351 51.5014 59.6983 51.4124 59.9053C51.3234 60.1124 51.3202 60.3463 51.4036 60.5556C51.487 60.765 51.6502 60.9326 51.8572 61.0217L75.7896 71.3106C75.8921 71.3547 76.0023 71.3782 76.1139 71.3797C76.2255 71.3811 76.3363 71.3606 76.44 71.3193C76.5437 71.278 76.6382 71.2166 76.7182 71.1388C76.7981 71.0609 76.862 70.968 76.9061 70.8655C76.9502 70.763 76.9736 70.6527 76.9751 70.5411C76.9766 70.4295 76.9561 70.3187 76.9147 70.2151C76.8734 70.1114 76.8121 70.0169 76.7342 69.9369C76.6563 69.8569 76.5635 69.7931 76.4609 69.749H76.4609Z" fill="#E4E4E4"/>
<path d="M64.2283 60.8368L53.854 56.3767C53.7516 56.3325 53.6414 56.309 53.5299 56.3075C53.4183 56.3059 53.3076 56.3263 53.2039 56.3676C53.1003 56.4089 53.0058 56.4702 52.9258 56.548C52.8459 56.6258 52.782 56.7186 52.738 56.8211C52.6939 56.9236 52.6705 57.0337 52.669 57.1453C52.6676 57.2568 52.6881 57.3676 52.7294 57.4712C52.7708 57.5748 52.8322 57.6693 52.9101 57.7491C52.9879 57.829 53.0808 57.8928 53.1833 57.9367L63.5576 62.3968C63.6601 62.441 63.7702 62.4645 63.8818 62.4661C63.9933 62.4676 64.1041 62.4472 64.2078 62.4059C64.3114 62.3646 64.4059 62.3034 64.4858 62.2255C64.5658 62.1477 64.6296 62.0549 64.6737 61.9524C64.7177 61.8499 64.7412 61.7398 64.7426 61.6282C64.7441 61.5167 64.7236 61.4059 64.6822 61.3023C64.6408 61.1987 64.5795 61.1043 64.5016 61.0244C64.4237 60.9445 64.3309 60.8807 64.2283 60.8368V60.8368Z" fill="#E4E4E4"/>
<path d="M80.5634 60.2057L56.631 49.9168C56.424 49.828 56.1902 49.8251 55.981 49.9086C55.7718 49.9922 55.6044 50.1553 55.5154 50.3623C55.4264 50.5692 55.4232 50.803 55.5065 51.0123C55.5898 51.2215 55.7528 51.3892 55.9597 51.4784L79.892 61.7673C79.9946 61.8116 80.1049 61.8352 80.2166 61.8368C80.3283 61.8384 80.4392 61.818 80.543 61.7767C80.6468 61.7354 80.7415 61.674 80.8215 61.5961C80.9016 61.5182 80.9655 61.4253 81.0097 61.3226C81.0538 61.22 81.0772 61.1097 81.0787 60.998C81.0801 60.8863 81.0596 60.7754 81.0181 60.6716C80.9767 60.5679 80.9152 60.4733 80.8371 60.3934C80.7591 60.3134 80.6661 60.2496 80.5634 60.2057V60.2057Z" fill="#E4E4E4"/>
<path d="M81.889 57.1222L57.9567 46.8332C57.8542 46.789 57.744 46.7654 57.6324 46.7638C57.5208 46.7621 57.41 46.7825 57.3063 46.8238C57.2025 46.865 57.108 46.9263 57.028 47.0042C56.948 47.082 56.8841 47.1748 56.84 47.2774C56.7959 47.3799 56.7725 47.4901 56.7711 47.6018C56.7696 47.7134 56.7902 47.8242 56.8316 47.9278C56.873 48.0314 56.9345 48.1259 57.0124 48.2058C57.0904 48.2857 57.1834 48.3494 57.286 48.3933L81.2184 58.6822C81.3208 58.7265 81.431 58.7501 81.5426 58.7517C81.6542 58.7533 81.7651 58.7329 81.8688 58.6917C81.9725 58.6504 82.067 58.5891 82.147 58.5113C82.227 58.4335 82.2909 58.3406 82.335 58.2381C82.3791 58.1355 82.4025 58.0253 82.4039 57.9137C82.4054 57.8021 82.3848 57.6913 82.3434 57.5877C82.302 57.484 82.2405 57.3895 82.1626 57.3097C82.0846 57.2298 81.9917 57.1661 81.889 57.1222V57.1222Z" fill="#E4E4E4"/>
<path d="M69.6572 48.2084L59.2829 43.7483C59.0759 43.6594 58.842 43.6563 58.6327 43.7398C58.4233 43.8233 58.2558 43.9865 58.1668 44.1936C58.0777 44.4006 58.0746 44.6345 58.158 44.8438C58.2414 45.0532 58.4046 45.2208 58.6116 45.3099L68.9859 49.77C69.0884 49.8141 69.1987 49.8376 69.3103 49.8392C69.4219 49.8407 69.5328 49.8202 69.6365 49.7789C69.7402 49.7375 69.8347 49.6762 69.9147 49.5983C69.9947 49.5204 70.0586 49.4276 70.1027 49.325C70.1468 49.2224 70.1702 49.1122 70.1717 49.0006C70.1732 48.8889 70.1527 48.7781 70.1113 48.6744C70.0699 48.5707 70.0085 48.4762 69.9306 48.3962C69.8527 48.3163 69.7598 48.2524 69.6572 48.2084V48.2084Z" fill="#E4E4E4"/>
<path d="M85.9929 47.5773L62.0605 37.2884C61.8534 37.1997 61.6197 37.1968 61.4106 37.2804C61.2014 37.3639 61.034 37.5271 60.9451 37.734C60.8561 37.9409 60.8529 38.1746 60.9362 38.3838C61.0194 38.5931 61.1823 38.7607 61.3891 38.85L85.3215 49.1389C85.424 49.183 85.5343 49.2065 85.6459 49.2081C85.7575 49.2096 85.8684 49.1891 85.9721 49.1478C86.0758 49.1064 86.1704 49.0451 86.2503 48.9672C86.3303 48.8893 86.3942 48.7965 86.4383 48.6939C86.4824 48.5913 86.5059 48.4811 86.5073 48.3695C86.5088 48.2578 86.4883 48.147 86.4469 48.0433C86.4055 47.9396 86.3441 47.8451 86.2662 47.7651C86.1883 47.6851 86.0954 47.6213 85.9929 47.5773V47.5773Z" fill="#F5F5F5"/>
<path d="M87.3183 44.4938L63.3859 34.2048C63.1789 34.1161 62.9451 34.1132 62.7359 34.1967C62.5267 34.2802 62.3592 34.4434 62.2703 34.6503C62.1813 34.8573 62.1781 35.0911 62.2614 35.3003C62.3447 35.5096 62.5077 35.6773 62.7145 35.7665L86.6469 46.0554C86.7495 46.0999 86.8599 46.1236 86.9717 46.1254C87.0835 46.1271 87.1946 46.1068 87.2985 46.0655C87.4024 46.0243 87.4972 45.9629 87.5774 45.8849C87.6576 45.807 87.7216 45.714 87.7657 45.6113C87.8099 45.5085 87.8334 45.3981 87.8348 45.2863C87.8362 45.1745 87.8155 45.0635 87.7739 44.9596C87.7324 44.8558 87.6707 44.7612 87.5925 44.6813C87.5144 44.6014 87.4212 44.5376 87.3183 44.4938V44.4938Z" fill="#F5F5F5"/>
<path d="M75.0865 35.5799L64.7122 31.1199C64.5051 31.0309 64.2712 31.0279 64.0619 31.1114C63.8525 31.1949 63.685 31.3581 63.596 31.5651C63.507 31.7722 63.5038 32.0061 63.5872 32.2154C63.6706 32.4248 63.8338 32.5924 64.0408 32.6815L74.4151 37.1416C74.5176 37.1857 74.6279 37.2092 74.7395 37.2107C74.8511 37.2123 74.962 37.1918 75.0657 37.1504C75.1694 37.1091 75.2639 37.0478 75.3439 36.9699C75.4239 36.892 75.4878 36.7991 75.5319 36.6966C75.576 36.594 75.5994 36.4838 75.6009 36.3721C75.6024 36.2605 75.5819 36.1497 75.5405 36.046C75.4991 35.9423 75.4377 35.8478 75.3598 35.7678C75.2819 35.6878 75.189 35.624 75.0865 35.5799V35.5799Z" fill="#F5F5F5"/>
<path d="M49.2584 48.192L28.8768 52.7775C28.3307 52.901 27.8559 53.2361 27.5566 53.7092C27.2572 54.1823 27.1578 54.7549 27.28 55.3012L32.8689 80.1429L56.8161 74.7553C57.0129 74.7117 57.193 74.6123 57.3348 74.4691L51.7822 49.7888C51.6587 49.2427 51.3236 48.7679 50.8505 48.4686C50.3773 48.1692 49.8048 48.0698 49.2584 48.192Z" fill="#E6E6E6"/>
<path d="M41.8546 51.6126L30.685 54.1255C30.1877 54.2379 29.7553 54.5429 29.4826 54.9737C29.21 55.4045 29.1193 55.9258 29.2304 56.4233L34.485 79.7792L55.7536 74.9942L51.9269 57.9851C51.434 55.8058 50.0967 53.9109 48.2084 52.7162C46.3202 51.5216 44.0352 51.1247 41.8546 51.6126V51.6126Z" fill="white"/>
<path d="M51.6636 73.7352L37.6419 76.8898C37.5818 76.9032 37.5249 76.9284 37.4745 76.9638C37.4241 76.9992 37.3812 77.0442 37.3482 77.0962C37.3152 77.1482 37.2928 77.2062 37.2823 77.2669C37.2718 77.3276 37.2733 77.3898 37.2868 77.4499C37.3003 77.5099 37.3256 77.5668 37.3611 77.6171C37.3966 77.6674 37.4417 77.7102 37.4938 77.7431C37.5458 77.776 37.6039 77.7983 37.6646 77.8087C37.7253 77.8191 37.7875 77.8175 37.8475 77.8038L51.8693 74.6492C51.9294 74.6359 51.9864 74.6108 52.0368 74.5754C52.0872 74.54 52.1302 74.495 52.1632 74.4429C52.1962 74.3909 52.2187 74.3329 52.2292 74.2722C52.2398 74.2114 52.2383 74.1492 52.2247 74.0891C52.2112 74.029 52.1859 73.9722 52.1504 73.9218C52.1149 73.8715 52.0697 73.8286 52.0176 73.7957C51.9655 73.7629 51.9074 73.7406 51.8467 73.7302C51.7859 73.7198 51.7237 73.7215 51.6636 73.7352V73.7352Z" fill="#E4E4E4"/>
<path d="M51.2569 71.9277L37.2351 75.0823C37.1138 75.1096 37.0083 75.184 36.9418 75.2891C36.8753 75.3942 36.8533 75.5214 36.8806 75.6427C36.9079 75.764 36.9823 75.8696 37.0873 75.936C37.1924 76.0025 37.3197 76.0246 37.441 75.9973L51.4627 72.8427C51.5841 72.8154 51.6896 72.741 51.7561 72.6359C51.8226 72.5308 51.8446 72.4036 51.8173 72.2822C51.79 72.1609 51.7156 72.0554 51.6105 71.9889C51.5054 71.9224 51.3782 71.9004 51.2569 71.9277V71.9277Z" fill="#E4E4E4"/>
<path d="M42.9072 71.9082L36.829 73.2757C36.769 73.2892 36.7122 73.3144 36.6619 73.3498C36.6117 73.3852 36.5688 73.4302 36.536 73.4822C36.5031 73.5342 36.4807 73.5922 36.4702 73.6528C36.4597 73.7134 36.4613 73.7755 36.4748 73.8355C36.4883 73.8955 36.5135 73.9523 36.5489 74.0025C36.5844 74.0528 36.6294 74.0956 36.6814 74.1285C36.7333 74.1614 36.7913 74.1837 36.8519 74.1942C36.9125 74.2047 36.9746 74.2032 37.0346 74.1897L43.1128 72.8222C43.173 72.8088 43.2299 72.7837 43.2804 72.7483C43.3308 72.7129 43.3738 72.6679 43.4068 72.6159C43.4398 72.5639 43.4622 72.5058 43.4728 72.4451C43.4833 72.3844 43.4818 72.3222 43.4683 72.2621C43.4548 72.202 43.4295 72.1451 43.394 72.0948C43.3584 72.0444 43.3133 72.0016 43.2612 71.9687C43.2091 71.9358 43.151 71.9136 43.0902 71.9032C43.0295 71.8928 42.9673 71.8945 42.9072 71.9082V71.9082Z" fill="#E4E4E4"/>
<path d="M49.9991 66.3363L35.9773 69.4909C35.9172 69.5044 35.8604 69.5296 35.8101 69.5651C35.7598 69.6006 35.7169 69.6456 35.684 69.6976C35.6175 69.8027 35.5955 69.9299 35.6228 70.0513C35.6501 70.1726 35.7244 70.2781 35.8295 70.3446C35.9346 70.4111 36.0618 70.4331 36.1832 70.4058L50.2049 67.2512C50.3263 67.2239 50.4318 67.1495 50.4983 67.0444C50.5648 66.9393 50.5868 66.8121 50.5595 66.6908C50.5322 66.5695 50.4578 66.464 50.3527 66.3975C50.2476 66.331 50.1204 66.309 49.9991 66.3363V66.3363Z" fill="#E4E4E4"/>
<path d="M49.5928 64.5297L35.5711 67.6843C35.511 67.6977 35.4541 67.7228 35.4037 67.7583C35.3533 67.7937 35.3104 67.8387 35.2774 67.8907C35.2444 67.9427 35.222 68.0007 35.2115 68.0614C35.201 68.1221 35.2025 68.1842 35.216 68.2443C35.2295 68.3044 35.2548 68.3613 35.2903 68.4116C35.3258 68.4619 35.3709 68.5047 35.423 68.5376C35.475 68.5705 35.5331 68.5928 35.5938 68.6032C35.6545 68.6136 35.7167 68.612 35.7767 68.5983L49.7985 65.4437C49.8585 65.4303 49.9154 65.4051 49.9657 65.3697C50.016 65.3343 50.0589 65.2893 50.0918 65.2373C50.1248 65.1853 50.1471 65.1273 50.1576 65.0666C50.1682 65.006 50.1666 64.9438 50.1531 64.8838C50.1396 64.8237 50.1144 64.7669 50.0789 64.7166C50.0434 64.6663 49.9984 64.6235 49.9464 64.5906C49.8943 64.5578 49.8363 64.5355 49.7757 64.525C49.715 64.5145 49.6529 64.5161 49.5928 64.5297V64.5297Z" fill="#E4E4E4"/>
<path d="M41.2425 64.5094L35.1643 65.8768C35.043 65.9041 34.9375 65.9785 34.871 66.0836C34.8045 66.1887 34.7825 66.3159 34.8098 66.4372C34.8371 66.5586 34.9115 66.6641 35.0165 66.7306C35.1216 66.7971 35.2489 66.8191 35.3702 66.7918L41.4484 65.4243C41.5697 65.397 41.6752 65.3226 41.7417 65.2175C41.8082 65.1124 41.8302 64.9852 41.8029 64.8639C41.7756 64.7426 41.7013 64.6371 41.5962 64.5706C41.4911 64.5041 41.3639 64.4821 41.2425 64.5094Z" fill="#E4E4E4"/>
<path d="M48.3345 58.9375L34.3128 62.0921C34.2527 62.1056 34.1959 62.1308 34.1455 62.1663C34.0952 62.2018 34.0524 62.2468 34.0194 62.2988C33.9529 62.4039 33.9309 62.5311 33.9582 62.6525C33.9855 62.7738 34.0599 62.8793 34.165 62.9458C34.2701 63.0123 34.3973 63.0343 34.5186 63.007L48.5404 59.8524C48.6005 59.8389 48.6573 59.8137 48.7076 59.7782C48.7579 59.7427 48.8008 59.6977 48.8337 59.6456C48.8666 59.5936 48.889 59.5356 48.8995 59.4749C48.91 59.4142 48.9084 59.3521 48.8949 59.292C48.8814 59.2319 48.8562 59.1751 48.8207 59.1248C48.7852 59.0744 48.7402 59.0316 48.6882 58.9987C48.6361 58.9657 48.5781 58.9434 48.5174 58.9329C48.4568 58.9224 48.3946 58.9239 48.3345 58.9375H48.3345Z" fill="#E6E6E6"/>
<path d="M47.9283 57.1308L33.9065 60.2854C33.8464 60.2989 33.7896 60.3242 33.7393 60.3596C33.6889 60.3951 33.6461 60.4402 33.6132 60.4922C33.5467 60.5973 33.5247 60.7245 33.552 60.8458C33.5793 60.9672 33.6536 61.0727 33.7587 61.1392C33.8638 61.2057 33.991 61.2277 34.1124 61.2004L48.1341 58.0458C48.2555 58.0185 48.361 57.9441 48.4275 57.839C48.494 57.7339 48.516 57.6067 48.4887 57.4854C48.4614 57.364 48.387 57.2585 48.2819 57.192C48.1768 57.1255 48.0496 57.1035 47.9283 57.1308H47.9283Z" fill="#E6E6E6"/>
<path d="M39.578 57.1104L33.4998 58.4779C33.3784 58.5052 33.2729 58.5796 33.2064 58.6847C33.1399 58.7898 33.1179 58.917 33.1452 59.0383C33.1725 59.1596 33.2469 59.2651 33.352 59.3316C33.4571 59.3981 33.5843 59.4202 33.7056 59.3929L39.7838 58.0254C39.8439 58.0119 39.9007 57.9866 39.9511 57.9512C40.0014 57.9157 40.0442 57.8706 40.0772 57.8186C40.1101 57.7666 40.1324 57.7086 40.1429 57.6479C40.1535 57.5872 40.1519 57.5251 40.1384 57.465C40.1249 57.4049 40.0997 57.3481 40.0642 57.2977C40.0287 57.2474 39.9837 57.2046 39.9316 57.1716C39.8796 57.1387 39.8216 57.1164 39.7609 57.1059C39.7002 57.0954 39.6381 57.0969 39.578 57.1104Z" fill="#E6E6E6"/>
<path d="M20.8156 59.9551C20.7498 59.9551 20.6846 59.968 20.6239 59.9932C20.5631 60.0184 20.5078 60.0553 20.4613 60.1018C20.4147 60.1483 20.3778 60.2035 20.3526 60.2643C20.3274 60.3251 20.3145 60.3903 20.3145 60.4561C20.3145 60.4748 20.3299 99.0666 20.3299 99.0666C20.3436 99.1891 20.402 99.3022 20.4939 99.3843C20.5857 99.4664 20.7047 99.5117 20.8279 99.5116H90.6188C90.742 99.5117 90.8609 99.4664 90.9528 99.3843C91.0447 99.3022 91.103 99.1891 91.1167 99.0666L95.4608 60.5123C95.4687 60.4422 95.4618 60.3712 95.4404 60.304C95.419 60.2368 95.3836 60.1749 95.3366 60.1223C95.2899 60.0694 95.2323 60.0271 95.1679 59.9983C95.1035 59.9694 95.0336 59.9547 94.963 59.9551L20.8156 59.9551Z" fill="#3F3D56"/>
<path d="M25.7405 62.0916C25.0325 62.0937 24.3537 62.3742 23.8508 62.8727C23.348 63.3712 23.0615 64.0476 23.0532 64.7556L23.1404 94.6643C23.1373 95.0192 23.2045 95.3712 23.3381 95.6999C23.4718 96.0287 23.6693 96.3277 23.9191 96.5798C24.169 96.8318 24.4663 97.0319 24.7939 97.1684C25.1215 97.3049 25.4729 97.3752 25.8278 97.3751H70.1305C75.2117 97.3785 80.1157 95.5084 83.9044 92.1226C87.6931 88.7368 90.1005 84.073 90.666 79.0234L92.2371 65.0799C92.2795 64.704 92.2421 64.3234 92.1272 63.9629C92.0123 63.6025 91.8226 63.2703 91.5706 62.9882C91.3185 62.7062 91.0097 62.4805 90.6644 62.326C90.319 62.1715 89.945 62.0916 89.5667 62.0916H25.7405ZM93.632 62.0916L93.6241 61.9183H93.632V62.0916Z" fill="#F5F5F5"/>
<path d="M45.0922 84.4992H27.9299C27.7526 84.4992 27.5825 84.4287 27.4571 84.3033C27.3317 84.1779 27.2612 84.0078 27.2612 83.8305C27.2612 83.6531 27.3317 83.4831 27.4571 83.3577C27.5825 83.2323 27.7526 83.1618 27.9299 83.1618H45.0922C45.9546 83.1498 45.9632 84.5113 45.0922 84.4992Z" fill="#E4E4E4"/>
<path d="M68.2119 87.997H27.9299C27.7526 87.997 27.5825 87.9265 27.4571 87.8011C27.3317 87.6757 27.2612 87.5056 27.2612 87.3283C27.2612 87.1509 27.3317 86.9809 27.4571 86.8555C27.5825 86.7301 27.7526 86.6596 27.9299 86.6596H68.2119C69.0742 86.6476 69.0828 88.0091 68.2119 87.997Z" fill="#E4E4E4"/>
</g>
<defs>
<clipPath id="clip0_1618_1440">
<rect width="150" height="99.8839" fill="white"/>
</clipPath>
</defs>
</svg>
