<svg width="70" height="79" viewBox="0 0 70 79" fill="none" xmlns="http://www.w3.org/2000/svg">
<path d="M65.8534 78.8119H4.14653C3.04718 78.8106 1.99322 78.3733 1.21586 77.596C0.438508 76.8186 0.00124055 75.7646 0 74.6653V4.14655C0.00124105 3.0472 0.438508 1.99324 1.21586 1.21588C1.99322 0.438515 3.04718 0.00124702 4.14653 0H65.8534C66.9528 0.00124205 68.0068 0.438509 68.7841 1.21587C69.5615 1.99323 69.9988 3.0472 70 4.14655V74.6653C69.9988 75.7646 69.5615 76.8186 68.7841 77.596C68.0068 78.3733 66.9528 78.8106 65.8534 78.8119Z" fill="#E6E6E6"/>
<path d="M62.9699 75.3559H7.02982C6.05372 75.3548 5.11792 74.9665 4.42771 74.2763C3.7375 73.5861 3.34925 72.6503 3.34814 71.6742V7.13761C3.34925 6.16151 3.7375 5.22571 4.42771 4.5355C5.11792 3.84529 6.05372 3.45704 7.02982 3.45593H62.9699C63.946 3.45704 64.8818 3.84528 65.572 4.53549C66.2622 5.2257 66.6505 6.16151 66.6516 7.13761V71.6742C66.6505 72.6503 66.2622 73.5861 65.572 74.2763C64.8818 74.9665 63.946 75.3548 62.9699 75.3559Z" fill="white"/>
<path d="M60.7448 12.6413H32.5247C32.4037 12.6415 32.2839 12.6178 32.1721 12.5716C32.0603 12.5254 31.9587 12.4577 31.8731 12.3722C31.7875 12.2867 31.7195 12.1852 31.6732 12.0735C31.6269 11.9617 31.603 11.8419 31.603 11.721C31.603 11.6 31.6269 11.4802 31.6732 11.3684C31.7195 11.2567 31.7875 11.1552 31.8731 11.0697C31.9587 10.9842 32.0603 10.9165 32.1721 10.8703C32.2839 10.8241 32.4037 10.8004 32.5247 10.8006H60.7448C60.8658 10.8004 60.9856 10.8241 61.0974 10.8703C61.2093 10.9165 61.3109 10.9842 61.3965 11.0697C61.4821 11.1552 61.55 11.2567 61.5963 11.3684C61.6427 11.4802 61.6665 11.6 61.6665 11.721C61.6665 11.8419 61.6427 11.9617 61.5963 12.0735C61.55 12.1852 61.4821 12.2867 61.3965 12.3722C61.3109 12.4577 61.2093 12.5254 61.0974 12.5716C60.9856 12.6178 60.8658 12.6415 60.7448 12.6413Z" fill="#E4E4E4"/>
<path d="M60.745 16.2781H32.5249C32.2808 16.2781 32.0467 16.1811 31.8741 16.0085C31.7015 15.8359 31.6045 15.6018 31.6045 15.3577C31.6045 15.1135 31.7015 14.8794 31.8741 14.7068C32.0467 14.5342 32.2808 14.4373 32.5249 14.4373H60.745C60.9891 14.4373 61.2232 14.5342 61.3958 14.7068C61.5685 14.8794 61.6654 15.1135 61.6654 15.3577C61.6654 15.6018 61.5685 15.8359 61.3958 16.0085C61.2232 16.1811 60.9891 16.2781 60.745 16.2781Z" fill="#E4E4E4"/>
<path d="M44.7576 19.9148H32.5249C32.2808 19.9148 32.0467 19.8178 31.8741 19.6452C31.7015 19.4726 31.6045 19.2385 31.6045 18.9944C31.6045 18.7503 31.7015 18.5162 31.8741 18.3436C32.0467 18.1709 32.2808 18.074 32.5249 18.074H44.7576C45.0017 18.074 45.2359 18.1709 45.4085 18.3436C45.5811 18.5162 45.678 18.7503 45.678 18.9944C45.678 19.2385 45.5811 19.4726 45.4085 19.6452C45.2359 19.8178 45.0017 19.9148 44.7576 19.9148Z" fill="#E4E4E4"/>
<path d="M57.3416 34.6032H12.7908C12.6698 34.6033 12.55 34.5796 12.4382 34.5335C12.3264 34.4873 12.2248 34.4195 12.1392 34.3341C12.0536 34.2486 11.9857 34.1471 11.9393 34.0353C11.893 33.9236 11.8691 33.8038 11.8691 33.6828C11.8691 33.5618 11.893 33.442 11.9393 33.3303C11.9857 33.2185 12.0536 33.117 12.1392 33.0316C12.2248 32.9461 12.3264 32.8783 12.4382 32.8321C12.55 32.786 12.6698 32.7623 12.7908 32.7625H57.3416C57.4626 32.7623 57.5824 32.786 57.6942 32.8321C57.8061 32.8783 57.9077 32.9461 57.9933 33.0316C58.0789 33.117 58.1468 33.2185 58.1931 33.3303C58.2395 33.442 58.2633 33.5618 58.2633 33.6828C58.2633 33.8038 58.2395 33.9236 58.1931 34.0353C58.1468 34.1471 58.0789 34.2486 57.9933 34.3341C57.9077 34.4195 57.8061 34.4873 57.6942 34.5335C57.5824 34.5796 57.4626 34.6033 57.3416 34.6032Z" fill="#E4E4E4"/>
<path d="M57.3413 38.24H12.7905C12.5464 38.24 12.3123 38.143 12.1397 37.9704C11.9671 37.7978 11.8701 37.5637 11.8701 37.3196C11.8701 37.0755 11.9671 36.8414 12.1397 36.6687C12.3123 36.4961 12.5464 36.3992 12.7905 36.3992H57.3413C57.5854 36.3992 57.8195 36.4961 57.9922 36.6687C58.1648 36.8414 58.2617 37.0755 58.2617 37.3196C58.2617 37.5637 58.1648 37.7978 57.9922 37.9704C57.8195 38.143 57.5854 38.24 57.3413 38.24Z" fill="#E4E4E4"/>
<path d="M57.3413 46.4954H12.7905C12.5464 46.4954 12.3123 46.3984 12.1397 46.2258C11.9671 46.0532 11.8701 45.8191 11.8701 45.575C11.8701 45.3309 11.9671 45.0968 12.1397 44.9242C12.3123 44.7516 12.5464 44.6547 12.7905 44.6547H57.3413C57.5854 44.6547 57.8195 44.7516 57.9921 44.9242C58.1647 45.0968 58.2616 45.3309 58.2616 45.575C58.2616 45.8191 58.1647 46.0532 57.9921 46.2258C57.8195 46.3984 57.5854 46.4954 57.3413 46.4954Z" fill="#E4E4E4"/>
<path d="M57.3413 50.1321H12.7905C12.5464 50.1321 12.3123 50.0351 12.1397 49.8625C11.9671 49.6899 11.8701 49.4558 11.8701 49.2117C11.8701 48.9676 11.9671 48.7335 12.1397 48.5609C12.3123 48.3883 12.5464 48.2913 12.7905 48.2913H57.3413C57.5854 48.2913 57.8195 48.3883 57.9922 48.5609C58.1648 48.7335 58.2617 48.9676 58.2617 49.2117C58.2617 49.4558 58.1648 49.6899 57.9922 49.8625C57.8195 50.0351 57.5854 50.1321 57.3413 50.1321Z" fill="#E4E4E4"/>
<path d="M57.3413 58.3873H12.7905C12.5464 58.3873 12.3123 58.2904 12.1397 58.1178C11.9671 57.9452 11.8701 57.7111 11.8701 57.467C11.8701 57.2229 11.9671 56.9888 12.1397 56.8162C12.3123 56.6436 12.5464 56.5466 12.7905 56.5466H57.3413C57.5854 56.5466 57.8195 56.6436 57.9921 56.8162C58.1647 56.9888 58.2616 57.2229 58.2616 57.467C58.2616 57.7111 58.1647 57.9452 57.9921 58.1178C57.8195 58.2904 57.5854 58.3873 57.3413 58.3873Z" fill="#E4E4E4"/>
<path d="M57.3413 62.0242H12.7905C12.5464 62.0242 12.3123 61.9272 12.1397 61.7546C11.9671 61.582 11.8701 61.3479 11.8701 61.1038C11.8701 60.8596 11.9671 60.6255 12.1397 60.4529C12.3123 60.2803 12.5464 60.1833 12.7905 60.1833H57.3413C57.5854 60.1833 57.8195 60.2803 57.9922 60.4529C58.1648 60.6255 58.2617 60.8596 58.2617 61.1038C58.2617 61.3479 58.1648 61.582 57.9922 61.7546C57.8195 61.9272 57.5854 62.0242 57.3413 62.0242Z" fill="#E4E4E4"/>
<path d="M57.3338 72.098H45.1011C44.857 72.098 44.6229 72.001 44.4502 71.8284C44.2776 71.6558 44.1807 71.4217 44.1807 71.1776C44.1807 70.9335 44.2776 70.6994 44.4502 70.5268C44.6229 70.3542 44.857 70.2572 45.1011 70.2572H57.3338C57.5779 70.2572 57.812 70.3542 57.9846 70.5268C58.1572 70.6994 58.2542 70.9335 58.2542 71.1776C58.2542 71.4217 58.1572 71.6558 57.9846 71.8284C57.812 72.001 57.5779 72.098 57.3338 72.098Z" fill="#F5F5F5"/>
<path d="M24.713 15.4655C24.7155 17.442 24.0463 19.3608 22.8153 20.9072C22.4171 21.4105 21.9637 21.8676 21.4637 22.2699C20.0992 23.3768 18.4321 24.0455 16.6809 24.1883C16.4425 24.209 16.2022 24.2184 15.96 24.2184C15.4802 24.2185 15.0011 24.1789 14.5278 24.1001C14.3608 24.0738 14.1975 24.0419 14.0342 24.0044C13.7499 23.9411 13.4692 23.8628 13.1932 23.7697C12.2983 23.4719 11.4577 23.0306 10.7042 22.4633C10.5033 22.3131 10.31 22.1536 10.1223 21.9846C9.89276 21.781 9.67526 21.5641 9.47095 21.3352C9.41651 21.2751 9.36206 21.2131 9.30954 21.1512C8.39364 20.0792 7.75033 18.8018 7.43441 17.4277C7.11848 16.0535 7.13928 14.6234 7.49504 13.2591C7.8508 11.8947 8.53098 10.6365 9.47768 9.59162C10.4244 8.54673 11.6095 7.74607 12.9323 7.25782C14.255 6.76957 15.6762 6.60819 17.0747 6.78741C18.4732 6.96663 19.8078 7.48115 20.9646 8.28715C22.1215 9.09316 23.0665 10.1668 23.7191 11.4166C24.3718 12.6665 24.7127 14.0555 24.713 15.4655L24.713 15.4655Z" fill="#E4E4E4"/>
<path d="M15.6553 18.4525C17.6363 18.4525 19.2422 16.8466 19.2422 14.8656C19.2422 12.8846 17.6363 11.2787 15.6553 11.2787C13.6743 11.2787 12.0684 12.8846 12.0684 14.8656C12.0684 16.8466 13.6743 18.4525 15.6553 18.4525Z" fill="#9E616A"/>
<path d="M19.6481 13.1172C19.6643 12.7967 19.5739 12.4798 19.3909 12.2162L19.2614 12.0322C18.7939 11.1312 18.0225 10.3203 17.4575 9.72716C17.0333 9.28229 16.6091 9.0683 16.2017 9.08895C15.9052 9.11012 15.6292 9.24779 15.434 9.47188C14.8975 9.43911 14.3632 9.56356 13.8964 9.82995C13.4296 10.0964 13.0507 10.4931 12.806 10.9717C11.0885 11.8783 11.601 14.555 11.6066 14.5832L12.0215 15.2796L12.0684 15.1914C12.0684 15.1895 12.074 15.182 12.0815 15.167C12.1623 15.0224 12.6015 14.219 12.8981 13.7103C13.0063 13.5368 13.1503 13.3884 13.3204 13.2749C13.5982 13.0851 13.9175 12.9647 14.2514 12.9238L15.1637 12.8056L14.8183 13.3237H17.3035L18.259 13.211C18.3547 13.6034 19.1131 15.1257 19.205 15.3096L19.2125 15.3246L19.2632 15.4279L19.5467 14.6489C19.7122 14.1556 19.7471 13.6279 19.6481 13.1172Z" fill="#2F2E41"/>
<path d="M10.7304 22.482C10.8843 22.2793 11.6821 21.3332 13.5179 20.832L14.4902 19.7489L18.3889 19.1276L20.373 20.2238L22.8151 20.9071C22.4169 21.4104 21.9636 21.8675 21.4636 22.2699C20.0991 23.3768 18.4319 24.0454 16.6808 24.1883C16.4424 24.2089 16.2021 24.2183 15.96 24.2183C15.4801 24.2184 15.0011 24.1789 14.5277 24.1C14.3607 24.0738 14.1974 24.0418 14.0341 24.0043C13.7498 23.9411 13.4691 23.8627 13.1931 23.7697C12.3083 23.4757 11.4767 23.0409 10.7304 22.482C10.721 22.4764 10.7135 22.4688 10.7041 22.4632L10.7304 22.482Z" fill="#F5F5F5"/>
</svg>
