<svg width="130" height="88" viewBox="0 0 130 88" fill="none" xmlns="http://www.w3.org/2000/svg">
<g clip-path="url(#clip0_1640_1568)">
<path d="M39.7895 40.7697H23.0557V59.4811H39.7895V40.7697Z" fill="#CCCCCC"/>
<path d="M14.5368 87.6244H6.01773L5.10498 80.3224H15.4495L14.5368 87.6244Z" fill="#E6E6E6"/>
<path d="M31.6434 82.3354L31.3559 86.2655C31.3429 86.4434 31.368 86.622 31.4297 86.7894C31.4914 86.9568 31.5881 87.109 31.7135 87.2359C31.8388 87.3629 31.9898 87.4615 32.1564 87.5253C32.323 87.589 32.5013 87.6164 32.6794 87.6056L34.698 87.4834C34.7916 87.4777 34.8827 87.4515 34.965 87.4066C35.0472 87.3617 35.1186 87.2993 35.174 87.2237C35.2294 87.1481 35.2675 87.0613 35.2856 86.9693C35.3036 86.8774 35.3012 86.7826 35.2785 86.6916L34.1579 82.2096L31.6434 82.3354Z" fill="#E6E6E6"/>
<path d="M48.5287 84.6593C50.9046 85.2151 52.6018 86.0051 53.7167 87.0742C54.1137 87.452 54.6332 87.6747 55.1807 87.7018C55.8799 87.7386 56.4516 87.6602 56.8813 87.4683H56.8814C56.9915 87.4197 57.0865 87.3426 57.1567 87.245C57.227 87.1473 57.2697 87.0327 57.2807 86.9129C57.2937 86.7912 57.2739 86.6682 57.2234 86.5568C57.1729 86.4453 57.0935 86.3494 56.9934 86.279L51.3587 82.2698L48.9653 83.2273L48.407 83.7856C48.3465 83.846 48.301 83.9197 48.2738 84.0008C48.2466 84.0818 48.2386 84.1681 48.2504 84.2527C48.2622 84.3374 48.2935 84.4182 48.3418 84.4887C48.3901 84.5593 48.4541 84.6177 48.5287 84.6593H48.5287Z" fill="#E6E6E6"/>
<path d="M41.2169 20.4905L25.1108 20.3414C25.1513 17.9955 25.6971 15.6919 26.8902 13.6305C27.6738 12.2767 27.6568 10.8033 27.468 9.56203C27.1766 7.64646 27.8542 5.68655 29.36 4.46716C30.5107 3.53366 31.9631 3.05314 33.4435 3.11608L33.7562 3.12911C34.7749 3.17145 35.7666 3.46902 36.6404 3.99452C37.5141 4.52001 38.2418 5.25659 38.7567 6.13661C39.28 7.07607 39.491 8.15759 39.3593 9.22487C39.2572 10.2291 39.5015 11.2436 40.0728 12.2677C41.0586 14.5165 41.2721 17.3941 41.2169 20.4905Z" fill="#2F2E41"/>
<path d="M51.9929 82.479L48.8319 83.3036L33.4393 49.7696L34.4013 82.479H31.2404C27.8626 67.0901 21.7644 49.3297 24.5061 43.7225L40.8607 42.7605L51.9929 82.479Z" fill="#F5F5F5"/>
<path d="M33.3015 14.8614C35.6545 14.8614 37.5619 12.9539 37.5619 10.6009C37.5619 8.24793 35.6545 6.34045 33.3015 6.34045C30.9485 6.34045 29.041 8.24793 29.041 10.6009C29.041 12.9539 30.9485 14.8614 33.3015 14.8614Z" fill="#FFB9B9"/>
<path d="M37.0126 18.4347L30.0034 18.0224C30.6903 16.4458 30.9647 14.9276 30.6906 13.4871H35.9131C35.9013 14.5931 36.4517 16.5064 37.0126 18.4347Z" fill="#FFB9B9"/>
<path d="M41.4101 43.9973L26.0176 45.0969L27.598 17.8162L30.278 17.0603L33.3015 17.7474L36.325 16.2356L38.2491 16.9229L41.4101 43.9973Z" fill="#F5F5F5"/>
<path d="M28.6289 63.6505L18.1152 61.2454C21.2415 50.8783 26.8736 27.1614 25.0557 18.7095L30.553 16.2357L28.6289 63.6505Z" fill="#E6E6E6"/>
<path d="M23.5437 33.6898L19.5581 31.216L22.9571 21.261C23.3362 20.2338 24.0623 19.3713 25.0099 18.8227L26.1549 18.1598L25.4678 28.1925L23.5437 33.6898Z" fill="#E6E6E6"/>
<path d="M50.5499 61.3828C47.2315 63.3026 38.9367 64.3728 35.2947 63.032C35.0267 53.6652 34.5011 27.1701 36.188 15.9608L42.2351 18.4346L41.6853 25.8561C38.7943 32.2047 47.1892 54.3171 50.5499 61.3828Z" fill="#E6E6E6"/>
<path d="M50.0685 32.4529L46.3577 31.216L41.4102 25.5811L42.2348 18.4346L50.4808 29.9791L50.0685 32.4529Z" fill="#E6E6E6"/>
<path d="M38.4395 37.8023C38.5002 38.0687 38.6641 38.3002 38.8952 38.446C39.1264 38.5918 39.4059 38.64 39.6725 38.58L42.8224 37.8667L42.3672 35.8561L39.2172 36.5693C38.9506 36.6297 38.7189 36.7935 38.573 37.0248C38.4272 37.256 38.3792 37.5357 38.4395 37.8023V37.8023Z" fill="#FFB9B9"/>
<path d="M37.0122 9.50139C34.6458 8.52832 32.3086 8.4579 30.0031 9.36395L29.041 5.9281H37.8368L37.0122 9.50139Z" fill="#2F2E41"/>
<path d="M41.2729 35.4765L43.0596 38.7749C46.0647 37.9368 48.6691 35.2945 51.1682 32.1781L50.481 29.9791L46.2206 31.0786L41.2729 35.4765Z" fill="#E6E6E6"/>
<path d="M39.9673 28.6735H39.4176C39.4176 20.8982 37.8167 15.4798 36.2566 15.4798L36.1191 14.9301C37.5182 14.9301 38.4102 17.1852 38.9121 19.077C39.5926 21.6418 39.9673 25.0498 39.9673 28.6735Z" fill="#3F3D56"/>
<path d="M27.3232 26.7494H26.7734C26.7734 19.6285 28.3854 15.205 30.759 15.205L30.6216 15.7547C28.9798 15.7547 27.3232 19.1544 27.3232 26.7494Z" fill="#3F3D56"/>
<path d="M39.6922 30.1852C40.4512 30.1852 41.0666 29.5699 41.0666 28.8109C41.0666 28.0518 40.4512 27.4365 39.6922 27.4365C38.9332 27.4365 38.3179 28.0518 38.3179 28.8109C38.3179 29.5699 38.9332 30.1852 39.6922 30.1852Z" fill="#3F3D56"/>
<path d="M25.1244 30.0478H24.5747C24.5747 28.0775 25.6844 26.4745 27.0485 26.4745V27.0242C25.9876 27.0242 25.1244 28.3806 25.1244 30.0478Z" fill="#3F3D56"/>
<path d="M29.5222 30.0478H28.9724C28.9724 28.3806 28.1093 27.0242 27.0483 27.0242V26.4745C28.4124 26.4745 29.5222 28.0775 29.5222 30.0478Z" fill="#3F3D56"/>
<path d="M29.2475 30.735C29.5511 30.735 29.7972 30.4888 29.7972 30.1852C29.7972 29.8816 29.5511 29.6355 29.2475 29.6355C28.9439 29.6355 28.6978 29.8816 28.6978 30.1852C28.6978 30.4888 28.9439 30.735 29.2475 30.735Z" fill="#3F3D56"/>
<path d="M24.8495 30.735C25.1532 30.735 25.3993 30.4888 25.3993 30.1852C25.3993 29.8816 25.1532 29.6355 24.8495 29.6355C24.5459 29.6355 24.2998 29.8816 24.2998 30.1852C24.2998 30.4888 24.5459 30.735 24.8495 30.735Z" fill="#3F3D56"/>
<path d="M17.9775 25.1301L21.4075 25.7426L29.2472 36.8897L25.0823 35.9098L17.9775 25.1301Z" fill="#F5F5F5"/>
<path d="M17.3694 24.9937C17.3171 24.9944 17.266 25.0093 17.2214 25.0365C17.1768 25.0638 17.1404 25.1026 17.116 25.1488C17.0915 25.195 17.0799 25.2469 17.0824 25.2991C17.0848 25.3514 17.1013 25.4019 17.13 25.4456L24.4581 36.5642C24.499 36.6263 24.5622 36.6704 24.6346 36.6874L28.0441 37.4896C28.1016 37.5032 28.1619 37.4989 28.2169 37.4774C28.2719 37.4559 28.319 37.4182 28.3521 37.3693C28.3852 37.3203 28.4026 37.2625 28.4021 37.2035C28.4015 37.1444 28.383 37.0869 28.3491 37.0386L20.3033 25.5985C20.2814 25.5673 20.2537 25.5408 20.2216 25.5203C20.1895 25.4999 20.1537 25.486 20.1162 25.4794L17.4243 24.9986C17.4062 24.9954 17.3878 24.9937 17.3694 24.9937V24.9937Z" fill="#3F3D56"/>
<path d="M21.9409 32.9432L22.1446 34.9947L25.3584 34.6756C25.6305 34.6486 25.8807 34.5147 26.0539 34.3032C26.2272 34.0918 26.3094 33.8201 26.2824 33.5481C26.2554 33.2761 26.1214 33.0259 25.91 32.8526C25.6985 32.6794 25.4269 32.5972 25.1549 32.6242L21.9409 32.9432Z" fill="#FFB9B9"/>
<path d="M19.146 32.7056C19.1507 33.4051 19.4316 34.0744 19.9276 34.5677C20.4236 35.061 21.0944 35.3382 21.794 35.339H22.3224L22.7071 32.1329L19.5217 30.9861L19.146 32.7056Z" fill="#E6E6E6"/>
<path d="M130 0H67.3242V33.0113H130V0Z" fill="#E6E6E6"/>
<path d="M69.1499 31.1858H128.175V1.82556H69.1499V31.1858Z" fill="white"/>
<path d="M94.7067 6.08508H73.7134V27.0784H94.7067V6.08508Z" fill="#3F3D56"/>
<path d="M86.7965 5.62866H80.7114V6.54142H86.7965V5.62866Z" fill="#E6E6E6"/>
<path d="M121.481 6.08508H100.488V27.0784H121.481V6.08508Z" fill="#3F3D56"/>
<path d="M113.57 5.62866H107.485V6.54142H113.57V5.62866Z" fill="#E6E6E6"/>
<path d="M3.8299 77.6211C6.0235 80.5588 10.577 80.868 10.577 80.868C10.577 80.868 11.5739 76.4142 9.38034 73.4765C7.18674 70.5388 2.63326 70.2296 2.63326 70.2296C2.63326 70.2296 1.6363 74.6834 3.8299 77.6211Z" fill="#E6E6E6"/>
<path d="M15.0047 78.7254C13.5572 80.6639 10.5525 80.868 10.5525 80.868C10.5525 80.868 9.89461 77.9291 11.3421 75.9906C12.7896 74.0521 15.7943 73.848 15.7943 73.848C15.7943 73.848 16.4522 76.7869 15.0047 78.7254Z" fill="#E6E6E6"/>
<path d="M79.0379 87.5721H0V87.913H79.0379V87.5721Z" fill="#3F3D56"/>
</g>
<defs>
<clipPath id="clip0_1640_1568">
<rect width="130" height="87.913" fill="white"/>
</clipPath>
</defs>
</svg>
