<svg width="150" height="96" viewBox="0 0 150 96" fill="none" xmlns="http://www.w3.org/2000/svg">
<g clip-path="url(#clip0_1618_1522)">
<path d="M31.8295 22.5126L37.5025 30.2567C37.5025 30.2567 42.3392 32.2906 47.9921 36.3743L46.639 38.4867C46.639 38.4867 37.3085 34.666 34.9207 33.0517L30.5605 26.2162L31.8295 22.5126V22.5126Z" fill="#A0616A"/>
<path d="M51.3846 40.1251C51.926 39.3329 51.2832 37.9514 49.9489 37.0396C48.6145 36.1278 47.0939 36.0309 46.5525 36.8232C46.0112 37.6154 46.654 38.9969 47.9883 39.9087C49.3227 40.8205 50.8432 40.9174 51.3846 40.1251Z" fill="#A0616A"/>
<path d="M29.0566 15.9015L30.9132 15.3749C30.9132 15.3749 31.9939 15.3769 32.6035 16.4384C33.2132 17.4999 37.5299 26.9642 37.3253 27.3308C37.1207 27.6975 36.8351 27.7785 37.2017 27.9831C37.5684 28.1877 37.904 28.084 37.6542 28.3905C37.4043 28.6971 37.7496 29.3707 37.7496 29.3707L32.9873 32.8843L29.0566 15.9015V15.9015Z" fill="#F5F5F5"/>
<path d="M21.854 93.7248L24.1189 93.7245L25.1964 84.9882L21.8535 84.9884L21.854 93.7248Z" fill="#A0616A"/>
<path d="M29.6141 93.6733C29.6846 93.7921 29.7218 94.1755 29.7218 94.3136C29.7218 94.7381 29.3776 95.0823 28.9531 95.0823H21.9388C21.6491 95.0823 21.4143 94.8475 21.4143 94.5579V94.2659C21.4143 94.2659 21.0673 93.3882 21.7817 92.3064C21.7817 92.3064 22.6696 93.1534 23.9964 91.8267L24.3876 91.1179L27.2197 93.1892L28.7895 93.3824C29.1329 93.4246 29.4374 93.3758 29.6141 93.6733V93.6733Z" fill="#2F2E41"/>
<path d="M30.0518 91.5174L32.2855 91.8925L34.7955 83.4554L31.4988 82.9017L30.0518 91.5174Z" fill="#A0616A"/>
<path d="M37.7129 92.7525C37.7628 92.8813 37.736 93.2655 37.7131 93.4017C37.6428 93.8204 37.2463 94.1028 36.8276 94.0325L29.9103 92.8703C29.6246 92.8223 29.432 92.5519 29.48 92.2662L29.5284 91.9783C29.5284 91.9783 29.3316 91.0552 30.2154 90.1067C30.2154 90.1067 30.9506 91.0892 32.4789 90.0006L32.9821 89.3665L35.4319 91.8783L36.948 92.3289C37.2797 92.4275 37.588 92.4298 37.713 92.7525H37.7129Z" fill="#2F2E41"/>
<path d="M34.695 46.6896C34.695 46.6896 37.7381 50.2522 37.7381 53.518C37.7381 56.7838 37.8124 67.0427 37.8124 67.0427C37.8124 67.0427 36.031 83.0583 35.5857 84.3943C35.1404 85.7303 34.9177 87.957 34.9177 87.957L30.6128 86.9179C30.6128 86.9179 30.0191 71.8508 31.8004 68.2882L27.4955 56.1158L26.0111 90.5547H21.0137C21.0137 90.5547 18.4404 72.4446 19.7764 67.6944C19.7764 67.6944 16.8076 49.5842 17.5498 48.5451C18.292 47.506 34.695 46.6896 34.695 46.6896V46.6896Z" fill="#2F2E41"/>
<path d="M23.6361 11.2116L27.6441 11.5084L28.9801 13.7351C28.9801 13.7351 32.0974 15.0711 32.5427 17.0009C32.988 18.9306 33.1365 41.4941 33.1365 41.4941L35.3631 44.7599L35.2147 47.5803L17.4014 48.471V45.7592L15.7686 42.5332C15.7686 42.5332 17.5499 16.704 17.9952 16.5555C18.4405 16.4071 21.8547 14.032 21.8547 14.032L23.6361 11.2115V11.2116Z" fill="#F5F5F5"/>
<path d="M25.4494 10.6591C28.2369 10.6591 30.4965 8.39946 30.4965 5.61203C30.4965 2.8246 28.2369 0.564941 25.4494 0.564941C22.662 0.564941 20.4023 2.8246 20.4023 5.61203C20.4023 8.39946 22.662 10.6591 25.4494 10.6591Z" fill="#A0616A"/>
<path d="M29.4814 1.55249C29.2245 0.824122 28.5121 0.382238 27.7399 0.39945C27.7072 0.400171 27.6745 0.399868 27.6421 0.398538C27.2533 0.382639 26.8801 0.249829 26.4988 0.171916C25.7881 0.0266933 25.0389 0.0753138 24.353 0.311143C24.1398 0.384451 23.9263 0.476633 23.7009 0.476658C23.4754 0.47669 23.2298 0.353068 23.1748 0.134438C23.1618 0.332381 23.1488 0.530314 23.1358 0.728247C23.0624 0.568044 22.989 0.407831 22.9157 0.24762L22.7687 0.886525L22.298 0.352563C22.3401 0.587915 22.2029 0.825123 22.0171 0.975593C21.8314 1.12607 21.6019 1.20931 21.382 1.30306C20.4327 1.70769 19.5413 2.4241 19.2678 3.41913C19.095 4.04778 19.1854 4.71497 19.277 5.36047C19.3579 5.93113 19.4459 6.5215 19.7561 7.00727C19.9549 7.31867 20.2416 7.5807 20.3626 7.92979C20.4755 8.25517 20.4327 8.6277 20.5933 8.93239C20.7545 9.23843 21.0874 9.41157 21.4132 9.52785C21.7389 9.64417 22.0853 9.72643 22.3658 9.92878C22.6463 10.1312 22.972 10.7141 23.5832 10.6828L23.7805 10.3121C23.9834 10.1468 23.2324 10.2779 23.2245 10.0162C23.2167 9.75456 24.1282 9.59291 23.999 9.36522C23.8009 9.01608 23.5329 8.71221 23.3096 8.37855C23.0485 7.98835 22.8432 7.53243 22.9333 7.05618C22.9683 6.87092 23.055 6.69591 23.1871 6.56134C23.5679 6.17338 23.9924 6.34391 24.405 6.3994C24.6893 6.43768 25.0289 6.39349 25.1766 6.14746C25.3493 5.85961 25.1568 5.49344 25.1804 5.15858C25.2053 4.80376 25.4741 4.51281 25.7667 4.31052C26.0593 4.10824 26.3915 3.96086 26.6546 3.7216C26.9178 3.48233 27.1053 3.10854 26.9906 2.77186C28.2381 2.25247 28.4291 2.20334 29.7428 2.52009C29.6802 2.19156 29.5926 1.86788 29.4814 1.55249L29.4814 1.55249Z" fill="#2F2E41"/>
<path d="M8.17383 66.1043V50.7847C8.17383 50.3645 8.35292 49.9623 8.66521 49.6812C8.97748 49.4002 9.39614 49.2642 9.8141 49.3082C13.6857 48.7874 17.3322 49.0351 20.6369 50.4494C21.0112 50.4494 21.3157 50.754 21.3157 51.1283V66.5015C21.3157 66.8758 21.0112 67.1803 20.6369 67.1803C16.9992 66.3272 13.1624 66.5493 9.24985 67.1803C8.65653 67.1803 8.17383 66.6976 8.17383 66.1043V66.1043Z" fill="#E6E6E6"/>
<path d="M8.17383 67.4681V51.9865C8.17383 51.1679 8.83982 50.5019 9.65845 50.5019C13.3607 49.5332 17.0202 49.5316 20.6369 50.5019C21.0112 50.5019 21.3157 50.8064 21.3157 51.1808V66.3966C21.3157 66.7703 21.0121 67.0745 20.6386 67.0754C17.0725 66.455 13.2525 67.0593 9.24985 68.5441C8.65653 68.5441 8.17383 68.0614 8.17383 67.4681V67.4681Z" fill="#F2F2F2"/>
<path d="M16.7226 56.8996H13.2607C12.0174 56.8996 11.0059 55.8882 11.0059 54.6449C11.0059 53.4016 12.0174 52.39 13.2607 52.39H16.7226C17.966 52.39 18.9775 53.4016 18.9775 54.6449C18.9775 55.8882 17.966 56.8996 16.7226 56.8996Z" fill="#E6E6E6"/>
<path d="M19.8962 26.4921L19.7639 34.4849C19.7639 34.4849 19.3409 40.714 18.2906 47.7241L15.7871 47.8838C15.7871 47.8838 16.0951 36.9385 15.9829 34.0584L16.16 27.6615L19.8962 26.4921H19.8962Z" fill="#A0616A"/>
<path d="M17.2751 52.6786C18.2342 52.646 18.9671 51.3102 18.9122 49.695C18.8573 48.0798 18.0353 46.7968 17.0763 46.8294C16.1173 46.862 15.3844 48.1978 15.4393 49.813C15.4942 51.4282 16.3161 52.7112 17.2751 52.6786Z" fill="#A0616A"/>
<path d="M19.8566 16.3163L17.9281 16.3865C17.9281 16.3865 16.9005 16.721 16.647 17.9186C16.3936 19.1162 14.6168 31.5099 14.9243 31.7958C15.2318 32.0817 15.5285 32.0709 15.2426 32.3784C14.9567 32.6858 14.6054 32.6905 14.9375 32.9053C15.2696 33.1201 15.1483 33.8672 15.1483 33.8672L20.482 33.4893L19.8566 16.3163V16.3163Z" fill="#F5F5F5"/>
<path d="M147.094 87.7267H95.7834C95.4857 87.7267 95.1909 87.6811 94.9071 87.5914L94.877 87.5793C78.8103 79.5945 65.0352 75.2365 52.7645 74.2561L52.7178 74.2469C51.504 73.8629 50.6885 72.7495 50.6885 71.4764V2.90827C50.6885 1.97199 51.1217 1.1176 51.877 0.564288C52.6324 0.0109771 53.5775 -0.144283 54.4705 0.137811L95.0339 12.9681C95.2768 13.045 95.529 13.0839 95.7834 13.0839H147.094C148.697 13.0839 150 14.3874 150 15.9896V84.821C150 86.4233 148.697 87.7267 147.094 87.7267V87.7267ZM95.0491 87.1956C95.2871 87.269 95.5341 87.3064 95.7834 87.3064H147.094C148.465 87.3064 149.58 86.1915 149.58 84.821V15.9896C149.58 14.6191 148.465 13.5042 147.094 13.5042H95.7834C95.4859 13.5042 95.1912 13.4588 94.9071 13.369L54.3437 0.538634C53.5799 0.296868 52.7715 0.430065 52.1254 0.903335C51.4793 1.37671 51.1088 2.10744 51.1088 2.90827V71.4764C51.1088 72.5576 51.7963 73.504 52.8224 73.8391C65.1375 74.8275 78.9507 79.1965 95.0491 87.1955L95.0491 87.1956Z" fill="#3F3D56"/>
<path d="M97.1539 84.613C111.144 79.6624 126.752 80.2306 143.333 84.1193C145.414 84.6075 147.41 83.0402 147.41 80.9022V18.2506C147.41 16.7292 146.373 15.399 144.895 15.0376C127.403 10.7603 111.066 9.97331 96.6675 15.056C95.6127 15.4283 94.4419 15.2266 93.5518 14.549C81.419 5.31331 69.0019 0.682602 56.214 2.05758C54.5411 2.23745 53.2793 3.66314 53.2793 5.34568V68.6805C53.2793 70.3763 54.5624 71.7943 56.2491 71.9697C70.0133 73.4013 82.6611 77.7398 94.4236 84.3838C95.2565 84.8542 96.2521 84.9321 97.1539 84.613V84.613Z" fill="#F2F2F2"/>
<path d="M96.7043 81.0996C95.7515 81.0996 94.813 80.8377 93.986 80.3242C84.1076 74.1892 73.3452 70.6052 61.9981 69.6718C59.3379 69.4528 57.2539 67.1837 57.2539 64.5058V10.4075C57.2539 7.63086 59.4072 5.35573 62.1562 5.22798C70.4177 4.84275 80.449 8.52702 93.7233 16.8184C94.8462 17.5196 96.2116 17.7278 97.4697 17.3904C110.085 14.004 123.76 13.9051 139.277 17.088C141.686 17.5822 143.435 19.7203 143.435 22.1721V74.9771C143.435 76.5705 142.718 78.0507 141.468 79.0376C140.209 80.032 138.589 80.3885 137.024 80.0158C122.345 76.5221 109.741 76.7745 98.4892 80.7881C97.9049 80.9966 97.3016 81.0996 96.7043 81.0996ZM63.3356 5.6212C62.9445 5.6212 62.5588 5.63003 62.1757 5.64788C59.6516 5.76518 57.6742 7.8558 57.6742 10.4075V64.5058C57.6742 66.9666 59.5887 69.0518 62.0326 69.2527C73.4468 70.1918 84.2721 73.7966 94.2078 79.9671C95.444 80.7351 96.9531 80.8899 98.348 80.3924L98.4186 80.5902L98.348 80.3924C109.678 76.3505 122.361 76.0936 137.121 79.607C138.561 79.9495 140.05 79.6221 141.208 78.7078C142.356 77.8009 143.014 76.4412 143.014 74.9771V22.1721C143.014 19.919 141.407 17.9539 139.193 17.4997C123.741 14.33 110.129 14.4271 97.5787 17.7963C96.208 18.1639 94.722 17.9376 93.5006 17.1749C80.9209 9.31737 71.2876 5.6212 63.3356 5.6212Z" fill="white"/>
<path d="M95.7494 17.7044L95.3291 17.7083L95.9139 81.0036L96.3342 80.9997L95.7494 17.7044Z" fill="white"/>
<path d="M61.3517 13.5273L61.2197 13.9263L90.6491 23.6639L90.7811 23.265L61.3517 13.5273Z" fill="#3F3D56"/>
<path d="M61.3517 21.3175L61.2197 21.7164L90.6491 31.4541L90.7811 31.0551L61.3517 21.3175Z" fill="#3F3D56"/>
<path d="M61.3517 29.1075L61.2197 29.5065L90.6491 39.2441L90.7811 38.8452L61.3517 29.1075Z" fill="#3F3D56"/>
<path d="M61.3517 36.8977L61.2197 37.2966L90.6491 47.0343L90.7811 46.6353L61.3517 36.8977Z" fill="#3F3D56"/>
<path d="M138.105 23.6871H102.833V24.1075H138.105V23.6871Z" fill="#3F3D56"/>
<path d="M138.105 31.0444H102.833V31.4648H138.105V31.0444Z" fill="#3F3D56"/>
<path d="M138.105 38.4017H102.833V38.8221H138.105V38.4017Z" fill="#3F3D56"/>
<path d="M138.105 45.7592H102.833V46.1795H138.105V45.7592Z" fill="#3F3D56"/>
<path d="M138.105 53.1163H102.833V53.5367H138.105V53.1163Z" fill="#3F3D56"/>
<path d="M138.105 60.4739H102.833V60.8942H138.105V60.4739Z" fill="#3F3D56"/>
<path d="M11.403 91.9544C10.9689 91.9816 10.7289 91.4421 11.0574 91.1277L11.0901 90.9978C11.0858 90.9874 11.0814 90.977 11.0771 90.9666C10.638 89.9197 9.14994 89.9269 8.7146 90.9754C8.3282 91.906 7.83626 92.8383 7.71513 93.8222C7.66082 94.2566 7.68526 94.6991 7.78164 95.1253C6.87625 93.1476 6.3998 90.988 6.3998 88.8162C6.3998 88.2705 6.42967 87.7248 6.49075 87.1805C6.54098 86.7353 6.6102 86.2928 6.6998 85.8543C7.18438 83.4843 8.23366 81.227 9.74714 79.3415C10.4747 78.9438 11.0815 78.3221 11.448 77.5769C11.5796 77.3082 11.6828 77.019 11.7317 76.7245C11.6489 76.7353 11.4194 75.4743 11.4819 75.3969C11.3665 75.2218 11.16 75.1348 11.034 74.9639C10.4072 74.1142 9.54367 74.2626 9.09287 75.4173C8.12987 75.9033 8.12055 76.7094 8.71144 77.4846C9.08737 77.9778 9.13903 78.6452 9.46888 79.1732C9.43493 79.2167 9.39964 79.2587 9.36571 79.3022C8.74341 80.1003 8.20519 80.9582 7.75146 81.8595C7.8797 80.8579 7.69038 79.6511 7.36762 78.8732C7.00022 77.9869 6.31159 77.2405 5.70516 76.4743C4.97675 75.5539 3.48307 75.9556 3.35473 77.1223C3.35349 77.1336 3.35228 77.1448 3.3511 77.1561C3.44117 77.2069 3.52941 77.2609 3.61561 77.3179C4.10728 77.6431 3.93736 78.4053 3.35479 78.4952L3.3416 78.4972C3.37418 78.8217 3.42983 79.1434 3.51127 79.4596C2.7333 82.4682 4.41288 83.564 6.81109 83.6133C6.86403 83.6404 6.91562 83.6676 6.96856 83.6934C6.72558 84.3775 6.53146 85.0792 6.38759 85.7905C6.25864 86.419 6.16904 87.0542 6.11883 87.6922C6.05638 88.4972 6.06181 89.3062 6.12969 90.1097L6.12561 90.0812C5.95323 89.1962 5.47271 88.3696 4.775 87.7967C3.73563 86.9429 2.2672 86.6285 1.1459 85.9422C0.606142 85.6119 -0.0855195 86.0388 0.00868264 86.6646L0.0132683 86.6946C0.180226 86.7624 0.343108 86.8412 0.500568 86.9294C0.590643 86.9802 0.678885 87.0342 0.765084 87.0912C1.25675 87.4164 1.08683 88.1785 0.504261 88.2684L0.491059 88.2705C0.481559 88.2718 0.473411 88.2732 0.463925 88.2746C0.750335 88.9546 1.1494 89.5858 1.64892 90.1301C2.13536 92.7565 4.22465 93.0057 6.45953 92.2409H6.46089C6.70522 93.3051 7.06222 94.3448 7.52102 95.3357H11.3081C11.3217 95.2936 11.3339 95.2502 11.3462 95.2081C10.9959 95.2299 10.643 95.2095 10.2982 95.1457C10.5792 94.8009 10.8602 94.4534 11.1412 94.1086C11.148 94.1018 11.1534 94.0951 11.1588 94.0883C11.3014 93.9118 11.4452 93.7367 11.5878 93.5603L11.5878 93.56C11.5968 93.0183 11.5318 92.4784 11.4032 91.9545L11.403 91.9544V91.9544Z" fill="#F2F2F2"/>
<path d="M53.7609 95.347C53.7609 95.4857 53.6495 95.5971 53.5108 95.5971H0.279387C0.140688 95.5971 0.0292969 95.4857 0.0292969 95.347C0.0292969 95.2083 0.140688 95.0969 0.279387 95.0969H53.5108C53.6495 95.0969 53.7609 95.2083 53.7609 95.347V95.347Z" fill="#CCCCCC"/>
<path d="M139.586 82.0524C142.255 82.0524 144.419 79.8883 144.419 77.2187C144.419 74.5491 142.255 72.385 139.586 72.385C136.916 72.385 134.752 74.5491 134.752 77.2187C134.752 79.8883 136.916 82.0524 139.586 82.0524Z" fill="#F5F5F5"/>
<path d="M141.849 77.0367L138.85 75.3048C138.71 75.2239 138.535 75.3251 138.535 75.4869V77.0085H137.635C137.519 77.0085 137.425 77.1026 137.425 77.2187C137.425 77.3347 137.519 77.4288 137.635 77.4288H138.535V78.9505C138.535 79.1123 138.71 79.2134 138.85 79.1325L141.849 77.4007C141.989 77.3198 141.989 77.1176 141.849 77.0367V77.0367Z" fill="white"/>
<path d="M70.7539 63.5934C70.9422 61.4394 71.8365 59.3816 73.2678 57.7622C74.6621 56.1847 76.5679 55.1026 78.6231 54.6617C79.7703 54.4156 80.9588 54.3676 82.1206 54.5334C82.3987 54.5731 82.3913 55.0146 82.1102 54.9745C80.1328 54.6924 78.0891 55.0371 76.3123 55.9502C74.4911 56.886 73.0335 58.4082 72.133 60.2438C71.6181 61.2935 71.2969 62.4391 71.1951 63.6038C71.1705 63.8857 70.7292 63.877 70.7539 63.5934V63.5934Z" fill="white"/>
<path d="M81.6312 52.7623L85.0279 54.4381C85.1515 54.4991 85.1718 54.7003 85.0668 54.7871L81.8513 57.4451C81.6336 57.625 81.3273 57.3071 81.5466 57.1258L84.7622 54.4678L84.801 54.8167L81.4044 53.1409C81.1493 53.015 81.3782 52.6374 81.6312 52.7623V52.7623Z" fill="white"/>
</g>
<defs>
<clipPath id="clip0_1618_1522">
<rect width="150" height="95.5971" fill="white"/>
</clipPath>
</defs>
</svg>
