<svg width="130" height="120" viewBox="0 0 130 120" fill="none" xmlns="http://www.w3.org/2000/svg">
<g clip-path="url(#clip0_1618_1493)">
<path d="M59.6925 65.883C59.6693 65.883 59.6547 65.8824 59.6496 65.8821L56.87 65.8824V65.4725H59.6597C59.7243 65.4748 61.042 65.512 62.2562 64.0388C64.0656 61.8431 65.5515 56.4075 62.3549 42.9818C58.0566 24.9291 61.6415 8.98045 63.3823 2.96147C63.4681 2.66368 63.4834 2.35003 63.4271 2.0453C63.3709 1.74056 63.2445 1.4531 63.058 1.20561C62.8715 0.958122 62.63 0.757393 62.3526 0.619286C62.0752 0.481179 61.7694 0.409477 61.4595 0.409845H19.9474C19.6317 0.410269 19.3207 0.485101 19.0394 0.628269C18.7582 0.771437 18.5146 0.978908 18.3285 1.23384C17.5911 2.24824 16.5791 4.19701 15.9458 7.7207L15.5425 7.64826C16.1895 4.04802 17.2344 2.04192 17.997 0.992896C18.2212 0.685716 18.5146 0.435718 18.8535 0.263202C19.1923 0.0906853 19.5671 0.000510422 19.9473 1.11519e-06H61.4595C61.833 -0.000358223 62.2014 0.0861269 62.5357 0.252624C62.8699 0.41912 63.1609 0.661067 63.3856 0.959348C63.6102 1.25763 63.7625 1.60407 63.8303 1.97131C63.898 2.33854 63.8795 2.71651 63.7761 3.07534C62.0442 9.0631 58.4779 24.929 62.7536 42.887C65.9952 56.5015 64.4368 62.0548 62.5588 64.316C61.3201 65.8074 59.9552 65.883 59.6925 65.883Z" fill="#E6E6E6"/>
<path d="M52.2131 73.3626C52.1899 73.3626 52.1752 73.362 52.1701 73.3617L49.3905 73.362V72.9522H52.1802C52.2451 72.9542 53.5626 72.9917 54.7767 71.5184C56.5861 69.3227 58.072 63.8872 54.8754 50.4615C50.5771 32.4087 54.1621 16.4601 55.9029 10.4411C55.9886 10.1434 56.004 9.82971 55.9477 9.52497C55.8914 9.22024 55.765 8.93277 55.5785 8.68529C55.392 8.4378 55.1505 8.23707 54.8731 8.09896C54.5957 7.96085 54.29 7.88915 53.9801 7.88952H12.4679C12.1523 7.88994 11.8412 7.96478 11.56 8.10794C11.2787 8.25111 11.0351 8.45858 10.8491 8.71351C10.1116 9.72792 9.09963 11.6767 8.46638 15.2004L8.06299 15.1279C8.71 11.5277 9.75492 9.5216 10.5176 8.47257C10.7417 8.16539 11.0351 7.91539 11.374 7.74288C11.7129 7.57036 12.0876 7.48019 12.4679 7.47968H53.9801C54.3535 7.47932 54.7219 7.5658 55.0562 7.7323C55.3904 7.8988 55.6814 8.14074 55.9061 8.43902C56.1308 8.7373 56.283 9.08375 56.3508 9.45098C56.4186 9.81822 56.4 10.1962 56.2966 10.555C54.5648 16.5428 50.9984 32.4086 55.2741 50.3666C58.5157 63.9811 56.9574 69.5345 55.0793 71.7957C53.8406 73.2871 52.4757 73.3626 52.2131 73.3626Z" fill="#CCCCCC"/>
<path d="M44.7333 80.8422C44.7101 80.8422 44.6955 80.8416 44.6904 80.8413L3.81802 80.8416C3.42451 80.8421 3.03688 80.7461 2.68906 80.5621C2.34124 80.3781 2.04382 80.1116 1.82284 79.786C1.60186 79.4604 1.46404 79.0856 1.42146 78.6944C1.37887 78.3032 1.43281 77.9075 1.57856 77.542C3.06154 73.8369 5.05831 64.9477 1.76944 47.0415C-2.11412 25.8976 1.3627 18.2562 3.03778 15.9522C3.26191 15.645 3.55533 15.395 3.89421 15.2225C4.23309 15.05 4.60787 14.9598 4.98814 14.9593H46.5003C46.8737 14.9589 47.2421 15.0454 47.5764 15.2119C47.9107 15.3784 48.2016 15.6204 48.4263 15.9186C48.651 16.2169 48.8032 16.5634 48.871 16.9306C48.9388 17.2978 48.9202 17.6758 48.8168 18.0346C47.085 24.0224 43.5186 39.8882 47.7944 57.8462C51.0359 71.4608 49.4776 77.0141 47.5996 79.2753C46.3608 80.7667 44.996 80.8422 44.7333 80.8422ZM4.98814 15.3691C4.67252 15.3696 4.36145 15.4444 4.08018 15.5876C3.7989 15.7307 3.55534 15.9382 3.36927 16.1931C1.72527 18.4544 -1.68236 25.9797 2.17253 46.9675C5.31438 64.0731 3.79059 73.1183 1.95903 77.6943C1.83559 77.9962 1.78925 78.3241 1.82421 78.6484C1.85916 78.9726 1.97431 79.2831 2.15925 79.5518C2.34263 79.823 2.58976 80.0451 2.87897 80.1985C3.16818 80.3519 3.49062 80.432 3.81801 80.4318H44.7004C44.765 80.4349 46.0828 80.4714 47.297 78.998C49.1063 76.8023 50.5922 71.3668 47.3956 57.9411C43.0974 39.8883 46.6823 23.9397 48.4231 17.9208C48.5089 17.623 48.5242 17.3093 48.4679 17.0046C48.4116 16.6999 48.2852 16.4124 48.0987 16.1649C47.9122 15.9174 47.6707 15.7167 47.3933 15.5786C47.1159 15.4405 46.8102 15.3688 46.5003 15.3691H4.98814Z" fill="#3F3D56"/>
<path d="M39.4393 33.4023H6.85666C6.42187 33.4023 6.00489 33.2296 5.69745 32.9221C5.39 32.6147 5.21729 32.1977 5.21729 31.7629C5.21729 31.3281 5.39 30.9111 5.69745 30.6037C6.00489 30.2963 6.42187 30.1235 6.85666 30.1235H39.4393C39.8741 30.1235 40.2911 30.2963 40.5985 30.6037C40.9059 30.9111 41.0787 31.3281 41.0787 31.7629C41.0787 32.1977 40.9059 32.6147 40.5985 32.9221C40.2911 33.2296 39.8741 33.4023 39.4393 33.4023Z" fill="#F5F5F5"/>
<path d="M39.4393 40.3697H6.85666C6.42187 40.3697 6.00489 40.197 5.69745 39.8895C5.39 39.5821 5.21729 39.1651 5.21729 38.7303C5.21729 38.2955 5.39 37.8785 5.69745 37.5711C6.00489 37.2637 6.42187 37.0909 6.85666 37.0909H39.4393C39.8741 37.0909 40.2911 37.2637 40.5985 37.5711C40.9059 37.8785 41.0787 38.2955 41.0787 38.7303C41.0787 39.1651 40.9059 39.5821 40.5985 39.8895C40.2911 40.197 39.8741 40.3697 39.4393 40.3697Z" fill="#CCCCCC"/>
<path d="M39.4393 47.337H6.85666C6.42187 47.337 6.00489 47.1643 5.69745 46.8568C5.39 46.5494 5.21729 46.1324 5.21729 45.6976C5.21729 45.2628 5.39 44.8458 5.69745 44.5384C6.00489 44.2309 6.42187 44.0582 6.85666 44.0582H39.4393C39.8741 44.0582 40.2911 44.2309 40.5985 44.5384C40.9059 44.8458 41.0787 45.2628 41.0787 45.6976C41.0787 46.1324 40.9059 46.5494 40.5985 46.8568C40.2911 47.1643 39.8741 47.337 39.4393 47.337Z" fill="#CCCCCC"/>
<path d="M41.8988 54.3044H9.31613C8.88134 54.3044 8.46436 54.1317 8.15692 53.8242C7.84948 53.5168 7.67676 53.0998 7.67676 52.665C7.67676 52.2302 7.84948 51.8132 8.15692 51.5058C8.46436 51.1984 8.88134 51.0256 9.31613 51.0256H41.8988C42.3335 51.0256 42.7505 51.1984 43.058 51.5058C43.3654 51.8132 43.5381 52.2302 43.5381 52.665C43.5381 53.0998 43.3654 53.5168 43.058 53.8242C42.7505 54.1317 42.3335 54.3044 41.8988 54.3044Z" fill="#CCCCCC"/>
<path d="M41.8988 61.2717H9.31613C8.88134 61.2717 8.46436 61.099 8.15692 60.7915C7.84948 60.4841 7.67676 60.0671 7.67676 59.6323C7.67676 59.1975 7.84948 58.7805 8.15692 58.4731C8.46436 58.1656 8.88134 57.9929 9.31613 57.9929H41.8988C42.3335 57.9929 42.7505 58.1656 43.058 58.4731C43.3654 58.7805 43.5381 59.1975 43.5381 59.6323C43.5381 60.0671 43.3654 60.4841 43.058 60.7915C42.7505 61.099 42.3335 61.2717 41.8988 61.2717Z" fill="#CCCCCC"/>
<path d="M22.2258 26.435H6.85666C6.42187 26.435 6.00489 26.2623 5.69745 25.9548C5.39 25.6474 5.21729 25.2304 5.21729 24.7956C5.21729 24.3608 5.39 23.9439 5.69745 23.6364C6.00489 23.329 6.42187 23.1562 6.85666 23.1562H22.2258C22.6606 23.1562 23.0776 23.329 23.385 23.6364C23.6925 23.9439 23.8652 24.3608 23.8652 24.7956C23.8652 25.2304 23.6925 25.6474 23.385 25.9548C23.0776 26.2623 22.6606 26.435 22.2258 26.435Z" fill="#F5F5F5"/>
<path d="M20.2414 72.5059C20.5722 71.1053 22.1263 70.6462 23.3969 70.6975C24.1996 70.7517 24.9959 70.8777 25.7762 71.074C26.5926 71.2567 27.4011 71.473 28.2055 71.7024C29.6806 72.123 31.1406 72.6318 32.64 72.9607C33.8883 73.2345 35.2448 73.3951 36.4896 73.0171C37.6862 72.6537 38.7014 71.7617 39.027 70.5284C39.3338 69.3662 38.9126 68.0954 37.7864 67.5643C36.7594 67.08 35.4621 67.3263 34.953 68.4216C34.3791 69.6566 34.9525 71.0035 35.8613 71.8971C36.3779 72.3821 36.9436 72.8119 37.5494 73.1793C38.1643 73.5984 38.8487 73.9049 39.5707 74.0847C40.7562 74.3379 42.1684 73.9648 42.7797 72.8322C42.9156 72.5758 42.9974 72.2942 43.0199 72.0049C43.056 71.6111 42.4411 71.6136 42.4051 72.0049C42.3015 73.1327 40.9807 73.6609 39.9931 73.5371C39.3264 73.4267 38.6898 73.1796 38.1231 72.8114C37.5762 72.4925 37.058 72.1269 36.5743 71.7186C35.7366 70.9936 34.9513 69.8007 35.5139 68.6694C35.9721 67.7483 37.1663 67.7575 37.8926 68.3516C38.7723 69.071 38.6154 70.3767 38.0352 71.2311C37.3928 72.177 36.2285 72.5736 35.1307 72.6164C33.9378 72.6628 32.7549 72.3891 31.6149 72.0654C30.1983 71.6631 28.7959 71.2129 27.3726 70.8342C26.5645 70.6192 25.7502 70.4252 24.9276 70.2742C24.1497 70.1028 23.3508 70.0475 22.5567 70.1101C21.2739 70.2582 19.9645 71.0049 19.6486 72.3425C19.5577 72.7272 20.1504 72.8914 20.2414 72.5059L20.2414 72.5059Z" fill="#3F3D56"/>
<path d="M83.0502 107.265C83.0856 111.3 83.3812 115.328 83.9351 119.325C83.9544 119.466 83.9756 119.606 83.995 119.746L121.783 119.535C121.894 119.396 122.003 119.255 122.109 119.112C122.462 118.639 122.793 118.153 123.096 117.651C124.555 115.229 125.223 112.394 124.554 110.438L124.542 110.407C124.397 109.979 124.169 109.584 123.872 109.243C122.346 107.526 119.26 107.812 116.46 109.198C118.972 106.449 120.971 102.981 121.123 99.8842C121.272 96.864 119.693 94.7065 117.98 92.873C117.924 92.8123 117.868 92.7534 117.812 92.6945C117.784 92.6642 117.755 92.6356 117.728 92.6053C116.392 91.208 114.834 89.8306 112.579 89.9972C110.105 90.1802 107.363 92.2519 105.44 94.6659C103.518 97.0783 102.24 99.8188 100.945 102.493C99.6483 105.166 98.2454 107.907 96.1646 110.192C98.9829 106.627 101.255 102.571 102.095 98.6264C102.934 94.6816 102.195 90.893 99.6835 89.0351C98.9209 88.4885 98.0385 88.1324 97.1102 87.9968C97.0018 87.9788 96.8917 87.9642 96.7799 87.9512C94.4547 87.6867 91.6784 88.4909 89.3163 90.4132C86.715 92.5298 84.9115 95.6675 84.0141 98.6462C83.1169 101.625 83.0212 104.492 83.0502 107.265Z" fill="#F2F2F2"/>
<path d="M107.773 119.613L108.496 119.609C108.725 119.466 108.956 119.324 109.188 119.184C109.331 119.094 109.476 119.006 109.621 118.918C112.018 117.454 114.43 116.05 116.856 114.705C119.281 113.36 121.718 112.076 124.167 110.855C124.232 110.826 124.285 110.776 124.316 110.713C124.348 110.65 124.357 110.577 124.341 110.508C124.338 110.499 124.334 110.491 124.329 110.483C124.295 110.419 124.218 110.392 124.107 110.447C123.807 110.598 123.504 110.748 123.204 110.902C120.748 112.145 118.303 113.449 115.869 114.816C113.436 116.182 111.017 117.608 108.612 119.094C108.561 119.125 108.51 119.157 108.46 119.188C108.231 119.33 108.003 119.472 107.773 119.613Z" fill="white"/>
<path d="M98.4565 119.665L98.9034 119.663C99.0041 119.522 99.1032 119.381 99.204 119.24C101.572 115.919 103.939 112.599 106.306 109.279C110.182 103.843 114.056 98.4072 117.93 92.9713C117.953 92.9421 117.97 92.9086 117.98 92.8729C118.013 92.7525 117.925 92.6819 117.811 92.6944C117.764 92.7012 117.718 92.7182 117.677 92.7441C117.637 92.77 117.602 92.8043 117.575 92.8447C115.402 95.8931 113.23 98.9404 111.058 101.987C107.202 107.395 103.347 112.803 99.4927 118.211C99.2475 118.554 99.0023 118.899 98.7571 119.242C98.6564 119.383 98.5556 119.524 98.4565 119.665Z" fill="white"/>
<path d="M88.5021 117.071C88.5249 117.824 88.5747 118.565 88.6398 119.299C88.6524 119.439 88.6651 119.58 88.6777 119.72L89.1465 119.717C89.1322 119.577 89.1178 119.437 89.1052 119.296C89.0062 118.236 88.9359 117.163 88.9263 116.061C88.9139 113.007 89.2116 109.959 89.8148 106.964C90.456 103.74 91.3767 100.578 92.5665 97.5135C93.8152 94.2814 95.3207 91.1545 97.0686 88.1628C97.1015 88.1141 97.1162 88.0552 97.11 87.9967C97.0906 87.8631 96.9127 87.8235 96.7797 87.9512C96.7535 87.9762 96.7308 88.0048 96.7125 88.0362C96.4963 88.408 96.2839 88.781 96.0756 89.1551C94.3921 92.1634 92.9512 95.3011 91.7665 98.5385C90.6381 101.613 89.7798 104.78 89.2012 108.004C88.6593 110.994 88.4251 114.032 88.5021 117.071V117.071Z" fill="white"/>
<path d="M42.8295 72.6516C42.7518 72.5868 42.6949 72.5006 42.6662 72.4036C42.6374 72.3066 42.638 72.2033 42.6678 72.1067C42.6977 72.0101 42.7555 71.9244 42.8339 71.8606C42.9124 71.7967 43.0079 71.7575 43.1086 71.7479C44.2263 71.64 45.3543 71.7556 46.4269 72.088L57.3524 75.4622C57.4938 75.5059 57.6252 75.577 57.7391 75.6715C57.8531 75.7659 57.9473 75.8819 58.0164 76.0128C58.0855 76.1437 58.1282 76.2869 58.142 76.4342C58.1557 76.5816 58.1404 76.7303 58.0967 76.8717C58.053 77.0131 57.9819 77.1445 57.8874 77.2585C57.793 77.3724 57.677 77.4666 57.5461 77.5357C57.4152 77.6048 57.272 77.6475 57.1246 77.6613C56.9773 77.675 56.8286 77.6597 56.6872 77.616L45.7617 74.2418C44.6885 73.9115 43.6917 73.3709 42.8295 72.6516V72.6516Z" fill="#3F3D56"/>
<path d="M87.6149 86.6681C87.3181 86.5436 87.0522 86.3556 86.8359 86.1172C86.6197 85.8789 86.4583 85.596 86.3632 85.2886C86.2681 84.9811 86.2416 84.6565 86.2855 84.3377C86.3294 84.0189 86.4426 83.7136 86.6173 83.4433L84.7446 73.6497L89.5176 73.2776L89.8057 82.8571C90.2403 83.1806 90.5412 83.6523 90.6513 84.1829C90.7614 84.7134 90.6731 85.2659 90.403 85.7357C90.133 86.2054 89.7 86.5598 89.1861 86.7317C88.6722 86.9035 88.1132 86.8809 87.6149 86.6681Z" fill="#FFB8B8"/>
<path d="M84.45 81.6137L79.5887 58.9734C79.3891 58.0435 79.567 57.0724 80.0834 56.2736C80.5997 55.4749 81.4122 54.9141 82.3421 54.7144C83.272 54.5148 84.2432 54.6927 85.0419 55.2091C85.8406 55.7255 86.4014 56.538 86.6011 57.4679L91.4625 80.108C91.5135 80.3471 91.4677 80.5966 91.3349 80.802C91.2022 81.0073 90.9935 81.1516 90.7545 81.2032L85.5452 82.3217C85.4268 82.3472 85.3046 82.349 85.1854 82.3272C85.0663 82.3054 84.9526 82.2604 84.8509 82.1946C84.7492 82.1289 84.6615 82.0437 84.5927 81.944C84.5239 81.8443 84.4754 81.7321 84.45 81.6137V81.6137Z" fill="#F5F5F5"/>
<path d="M76.4706 117.229H73.9585L72.7632 107.538L76.4712 107.538L76.4706 117.229Z" fill="#FFB8B8"/>
<path d="M72.1639 116.511H77.0091V119.561H69.1133C69.1133 119.161 69.1922 118.764 69.3455 118.394C69.4988 118.024 69.7235 117.687 70.0068 117.404C70.2901 117.121 70.6264 116.896 70.9965 116.743C71.3666 116.59 71.7633 116.511 72.1639 116.511V116.511Z" fill="#2F2E41"/>
<path d="M84.8725 117.024H82.3604L81.165 107.333L84.8731 107.333L84.8725 117.024Z" fill="#FFB8B8"/>
<path d="M80.5658 116.306H85.4109V119.356H77.5151C77.5151 118.956 77.594 118.559 77.7474 118.189C77.9007 117.819 78.1254 117.482 78.4087 117.199C78.6919 116.916 79.0282 116.691 79.3984 116.538C79.7685 116.385 80.1652 116.306 80.5658 116.306V116.306Z" fill="#2F2E41"/>
<path d="M73.4607 115.421C73.3666 115.344 73.2887 115.248 73.2319 115.141C73.175 115.033 73.1402 114.915 73.1295 114.793L70.2089 82.6659C70.1975 82.5412 70.2117 82.4155 70.2506 82.2965C70.2894 82.1774 70.3521 82.0675 70.4348 81.9735C70.5175 81.8795 70.6185 81.8033 70.7316 81.7495C70.8447 81.6958 70.9675 81.6656 71.0927 81.6609L85.7405 81.1116C85.8672 81.1069 85.9936 81.1284 86.1117 81.1747C86.2298 81.221 86.337 81.2912 86.4268 81.3809C86.5165 81.4705 86.5868 81.5777 86.6332 81.6958C86.6796 81.8138 86.7012 81.9402 86.6966 82.067L85.5257 114.071C85.5171 114.295 85.4273 114.508 85.2731 114.671C85.119 114.834 84.9109 114.935 84.6876 114.956L81.7341 115.224C81.6117 115.235 81.4882 115.222 81.371 115.185C81.2538 115.147 81.1453 115.087 81.0518 115.007C80.9583 114.927 80.8817 114.829 80.8265 114.719C80.7713 114.61 80.7387 114.49 80.7306 114.367L79.3751 94.0353C79.3742 93.9962 79.3654 93.9577 79.3494 93.9221C79.3334 93.8864 79.3105 93.8543 79.282 93.8276C79.2534 93.8009 79.2199 93.7802 79.1832 93.7666C79.1466 93.753 79.1076 93.7469 79.0686 93.7485H79.0673C79.0282 93.747 78.9891 93.7533 78.9524 93.7671C78.9157 93.7809 78.8821 93.8019 78.8536 93.8288C78.8251 93.8557 78.8023 93.8881 78.7865 93.9239C78.7707 93.9598 78.7622 93.9985 78.7615 94.0377L77.5485 114.506C77.5364 114.726 77.4461 114.933 77.2941 115.092C77.142 115.25 76.9383 115.348 76.7198 115.369L74.1396 115.628C74.0184 115.64 73.896 115.628 73.7794 115.593C73.6628 115.557 73.5545 115.499 73.4607 115.421H73.4607Z" fill="#2F2E41"/>
<path d="M79.0951 49.9034C81.8748 49.9034 84.1282 47.65 84.1282 44.8703C84.1282 42.0906 81.8748 39.8372 79.0951 39.8372C76.3154 39.8372 74.062 42.0906 74.062 44.8703C74.062 47.65 76.3154 49.9034 79.0951 49.9034Z" fill="#FFB8B8"/>
<path d="M69.403 82.8834C69.3133 82.7816 69.2475 82.6612 69.2102 82.5308C69.1729 82.4004 69.165 82.2634 69.1872 82.1296C70.1164 76.4816 69.5927 68.1797 68.9897 62.2097C68.8323 60.6261 69.095 59.0289 69.7512 57.5791C70.4074 56.1292 71.4341 54.8779 72.7277 53.951L75.3563 51.698C75.531 51.55 75.7539 51.4711 75.9828 51.4763L82.5128 51.6628C82.7483 51.6693 82.9723 51.7659 83.1386 51.9328L84.1476 54.1673L84.158 54.1749C85.3604 55.0588 86.3251 56.2268 86.9657 57.5746C87.6064 58.9225 87.903 60.408 87.8292 61.8985L86.868 81.763C86.8557 81.9939 86.7575 82.212 86.5927 82.3743C86.4279 82.5365 86.2084 82.6314 85.9772 82.6401L70.127 83.197C70.1168 83.1972 70.1066 83.1974 70.0964 83.1974C69.9651 83.1976 69.8353 83.1697 69.7157 83.1155C69.5961 83.0614 69.4894 82.9822 69.403 82.8834V82.8834Z" fill="#F5F5F5"/>
<path d="M50.3908 74.5941C50.3829 74.2723 50.4456 73.9528 50.5746 73.6579C50.7036 73.363 50.8956 73.1 51.1372 72.8874C51.3788 72.6748 51.6641 72.5177 51.9729 72.4273C52.2818 72.3369 52.6067 72.3152 52.9249 72.364L61.0941 66.647L63.3871 70.8495L54.7646 75.0331C54.6474 75.5621 54.3401 76.0297 53.9011 76.3473C53.4621 76.6649 52.9218 76.8104 52.3827 76.7563C51.8436 76.7022 51.343 76.4522 50.9759 76.0537C50.6088 75.6551 50.4006 75.1358 50.3908 74.594L50.3908 74.5941Z" fill="#FFB8B8"/>
<path d="M57.2655 75.5878C57.1458 75.5697 57.0308 75.5281 56.9272 75.4653C56.8236 75.4025 56.7334 75.3198 56.662 75.222L53.5094 70.9268C53.3649 70.7295 53.3047 70.483 53.3417 70.2414C53.3788 69.9997 53.5102 69.7826 53.7071 69.6377L72.3744 55.9359C73.1411 55.3731 74.1001 55.138 75.0402 55.2822C75.5057 55.3536 75.9525 55.516 76.3553 55.7601C76.758 56.0043 77.1087 56.3253 77.3874 56.705C77.6661 57.0846 77.8672 57.5154 77.9794 57.9728C78.0915 58.4302 78.1125 58.9052 78.0411 59.3707C77.9697 59.8362 77.8073 60.2831 77.5632 60.6858C77.319 61.0886 76.998 61.4393 76.6183 61.7179L57.951 75.4197C57.7936 75.5359 57.603 75.5986 57.4074 75.5986C57.3599 75.5986 57.3125 75.595 57.2655 75.5878V75.5878Z" fill="#F5F5F5"/>
<path d="M79.3527 49.3507C80.0202 48.5323 79.9471 47.2858 79.4114 46.3757C78.8757 45.4656 77.9663 44.8388 77.0306 44.3492C76.0949 43.8596 75.1008 43.4746 74.2202 42.8917C73.3396 42.3087 73.378 39.8409 73.1436 38.8112L73.7028 38.9975C73.4879 38.7225 73.4189 37.91 73.204 37.635C73.8359 37.6975 74.3218 38.2974 74.9537 38.3599L74.5891 37.3811C76.756 37.2475 78.1032 38.7533 80.2702 38.6197C81.3438 38.5535 82.5097 38.5116 83.3924 39.1265C84.1593 39.6608 84.5476 40.5856 84.8023 41.4849C85.3493 43.416 85.4343 45.579 84.4896 47.3498C83.5449 49.1205 81.3673 50.3137 79.4648 49.6743L79.3527 49.3507Z" fill="#2F2E41"/>
<path d="M51.7196 119.674H129.795C129.849 119.674 129.901 119.653 129.94 119.614C129.978 119.576 130 119.524 130 119.47C130 119.415 129.978 119.363 129.94 119.325C129.901 119.286 129.849 119.265 129.795 119.265H51.7196C51.6652 119.265 51.6131 119.286 51.5747 119.325C51.5362 119.363 51.5146 119.415 51.5146 119.47C51.5146 119.524 51.5362 119.576 51.5747 119.614C51.6131 119.653 51.6652 119.674 51.7196 119.674Z" fill="#3F3D56"/>
</g>
<defs>
<clipPath id="clip0_1618_1493">
<rect width="130" height="119.746" fill="white"/>
</clipPath>
</defs>
</svg>
