<svg width="144" height="144" viewBox="0 0 144 144" fill="none" xmlns="http://www.w3.org/2000/svg">
<path opacity="0.1" d="M18.5501 136.763V143.096C21.2234 142.917 23.8874 142.632 26.542 142.24V136.763H18.5501Z" fill="#F5F5F5"/>
<path opacity="0.1" d="M51.0808 97.7073H79.0552V101.34H51.0808V97.7073Z" fill="#F5F5F5"/>
<path opacity="0.1" d="M51.0808 108.74H79.0552V112.372H51.0808V108.74Z" fill="#F5F5F5"/>
<path opacity="0.1" d="M112.651 51.0386H117.853V56.2581H112.651V51.0386Z" fill="#F5F5F5"/>
<path opacity="0.1" d="M112.651 63.1656H117.853V68.3852H112.651V63.1656Z" fill="#F5F5F5"/>
<path opacity="0.1" d="M112.651 75.2908H117.853V80.5103H112.651V75.2908Z" fill="#F5F5F5"/>
<path opacity="0.1" d="M112.651 87.418H117.853V92.6375H112.651V87.418Z" fill="#F5F5F5"/>
<path opacity="0.1" d="M112.651 99.5449H117.853V104.764H112.651V99.5449Z" fill="#F5F5F5"/>
<path opacity="0.1" d="M112.651 111.67H117.853V116.89H112.651V111.67Z" fill="#F5F5F5"/>
<path opacity="0.1" d="M5.20166 143.113V139.746H-5.10216e-05V142.634L5.20166 143.113Z" fill="#F5F5F5"/>
<path opacity="0.1" d="M143.839 65.5874V68.5817H123.944V65.5874H143.839ZM142.067 68.3946H143.527V65.7745H142.067V68.3946ZM140.295 68.3946H141.756V65.7745H140.295V68.3946ZM138.523 68.3946H139.984V65.7745H138.523V68.3946ZM136.752 68.3946H138.212V65.7745H136.752V68.3946ZM134.98 68.3946H136.44V65.7745H134.98V68.3946ZM133.208 68.3946H134.668V65.7745H133.208V68.3946ZM131.436 68.3946H132.896V65.7745H131.436V68.3946ZM129.664 68.3946H131.125V65.7745H129.664V68.3946ZM127.892 68.3946H129.353V65.7745H127.892V68.3946ZM126.121 68.3946H127.581V65.7745H126.121V68.3946ZM124.256 68.3946H125.809V65.7745H124.256V68.3946Z" fill="#F5F5F5"/>
<path opacity="0.1" d="M143.839 74.2821V77.2671H123.944V74.2821H143.839ZM142.067 77.0799H143.527V74.4693H142.067V77.0799ZM140.295 77.0799H141.756V74.4693H140.295V77.0799ZM138.523 77.0799H139.984V74.4693H138.523V77.0799ZM136.752 77.0799H138.212V74.4693H136.752V77.0799ZM134.98 77.0799H136.44V74.4693H134.98V77.0799ZM133.208 77.0799H134.668V74.4693H133.208V77.0799ZM131.436 77.0799H132.896V74.4693H131.436V77.0799ZM129.664 77.0799H131.125V74.4693H129.664V77.0799ZM127.892 77.0799H129.353V74.4693H127.892V77.0799ZM126.121 77.0799H127.581V74.4693H126.121V77.0799ZM124.256 77.0799H125.809V74.4693H124.256V77.0799Z" fill="#F5F5F5"/>
<path opacity="0.1" d="M143.839 82.9751V85.9601H123.944V82.9751H143.839ZM142.067 85.7729H143.527V83.1622H142.067V85.7729ZM140.295 85.7729H141.756V83.1622H140.295V85.7729ZM138.523 85.7729H139.984V83.1622H138.523V85.7729ZM136.752 85.7729H138.212V83.1622H136.752V85.7729ZM134.98 85.7729H136.44V83.1622H134.98V85.7729ZM133.208 85.7729H134.668V83.1622H133.208V85.7729ZM131.436 85.7729H132.896V83.1622H131.436V85.7729ZM129.664 85.7729H131.125V83.1622H129.664V85.7729ZM127.892 85.7729H129.353V83.1622H127.892V85.7729ZM126.121 85.7729H127.581V83.1622H126.121V85.7729ZM124.256 85.7729H125.809V83.1622H124.256V85.7729Z" fill="#F5F5F5"/>
<path opacity="0.1" d="M143.839 91.6605V94.6549H123.944V91.6605H143.839ZM142.067 94.4677H143.527V91.8477H142.067V94.4677ZM140.295 94.4677H141.756V91.8477H140.295V94.4677ZM138.523 94.4677H139.984V91.8477H138.523V94.4677ZM136.752 94.4677H138.212V91.8477H136.752V94.4677ZM134.98 94.4677H136.44V91.8477H134.98V94.4677ZM133.208 94.4677H134.668V91.8477H133.208V94.4677ZM131.436 94.4677H132.896V91.8477H131.436V94.4677ZM129.664 94.4677H131.125V91.8477H129.664V94.4677ZM127.892 94.4677H129.353V91.8477H127.892V94.4677ZM126.121 94.4677H127.581V91.8477H126.121V94.4677ZM124.256 94.4677H125.809V91.8477H124.256V94.4677Z" fill="#F5F5F5"/>
<path opacity="0.1" d="M143.762 100.361C143.691 100.642 143.611 100.922 143.527 101.199V100.548H142.067V103.168H142.846C142.824 103.23 142.8 103.293 142.774 103.355H123.936V100.361H143.762ZM140.295 103.168H141.755V100.548H140.295V103.168ZM138.523 103.168H139.984V100.548H138.523V103.168ZM136.751 103.168H138.212V100.548H136.751V103.168ZM134.98 103.168H136.44V100.548H134.98V103.168ZM133.208 103.168H134.668V100.548H133.208V103.168ZM131.436 103.168H132.896V100.548H131.436V103.168ZM129.664 103.168H131.124V100.548H129.664V103.168ZM127.892 103.168H129.353V100.548H127.892V103.168ZM126.12 103.168H127.581V100.548H126.12V103.168ZM124.255 103.168H125.809V100.548H124.255V103.168Z" fill="#F5F5F5"/>
<path opacity="0.1" d="M139.627 109.054C139.583 109.116 139.538 109.179 139.491 109.241H138.523V110.497C138.421 110.622 138.316 110.746 138.212 110.871V109.243H136.751V111.863H137.343C137.285 111.925 137.227 111.988 137.166 112.05H123.944V109.056L139.627 109.054ZM134.98 111.861H136.44V109.241H134.98V111.861ZM133.208 111.861H134.668V109.241H133.208V111.861ZM131.436 111.861H132.896V109.241H131.436V111.861ZM129.664 111.861H131.125V109.241H129.664V111.861ZM127.892 111.861H129.353V109.241H127.892V111.861ZM126.121 111.861H127.581V109.241H126.121V111.861ZM124.255 111.861H125.809V109.241H124.255V111.861Z" fill="#F5F5F5"/>
<path opacity="0.1" d="M129.862 117.747C129.694 117.842 129.524 117.934 129.353 118.026V117.934H127.892V118.761L127.581 118.903V117.934H126.12V119.523L125.809 119.643V117.934H124.255V120.18L123.944 120.277V117.747H129.862Z" fill="#F5F5F5"/>
<path opacity="0.1" d="M80.1875 54.8751C80.1875 54.8751 81.7075 59.0746 78.5705 59.4583C78.4268 59.5292 78.2645 59.5527 78.1067 59.5255C77.949 59.4983 77.8038 59.4217 77.692 59.3067C77.692 59.3067 77.9102 59.2337 77.7088 58.8239C77.6382 58.6783 77.5844 58.5251 77.5484 58.3672C77.5012 58.1528 77.5248 57.9288 77.6155 57.7291C77.6155 57.7291 77.7554 56.3797 79.5757 55.3298C79.5757 55.3298 79.9003 54.8564 80.014 54.8376L79.9208 55.6517C79.9208 55.6517 79.3296 55.5582 78.9547 55.8801C78.9547 55.8801 79.8872 55.6274 79.9115 55.7734C79.9115 55.8014 79.8425 56.2019 79.8425 56.2019C79.8425 56.2019 78.8129 56.0447 78.2515 56.5613C78.2515 56.5613 79.3296 56.1084 79.8163 56.3535L79.6709 56.9487C79.6709 56.9487 78.591 56.7316 77.9289 57.293C77.9289 57.293 79.0703 56.8607 79.6298 57.0778L79.4079 57.6392C79.4079 57.6392 78.3504 57.4521 77.8021 57.9181C77.8021 57.9181 79.1748 57.5438 79.3482 57.7646C79.2527 57.9825 79.1312 58.188 78.9864 58.3766C78.9864 58.3766 78.2236 58.2568 77.9307 58.5637C77.9307 58.5637 78.8726 58.4159 78.9062 58.5132C78.9062 58.5132 78.4231 59.0933 78.024 59.2618C78.3988 59.1287 78.7325 58.8997 78.992 58.5974C79.0167 58.8421 78.9694 59.0887 78.8558 59.3067C78.8558 59.3067 79.2624 59.1195 79.1076 58.4552C79.1076 58.4552 79.4657 57.9892 79.4657 57.8937C79.4657 57.8937 79.7119 58.5244 79.6522 58.9698C79.6522 58.9698 79.9506 58.5038 79.5291 57.7459L79.7641 57.1845C79.7641 57.1845 80.1371 58.0023 80.111 58.4028C80.111 58.4028 80.3423 57.8806 79.8126 57.0366L79.96 56.4546C80.1551 56.8081 80.3037 57.1855 80.402 57.5775C80.402 57.5775 80.5139 57.0478 79.9973 56.2787L80.0513 55.8782C80.0513 55.8782 80.3125 56.3797 80.374 56.5313C80.4355 56.6829 80.4822 56.6773 80.4822 56.6773C80.4392 56.3234 80.2991 55.9884 80.0775 55.7097C80.0775 55.7097 80.1371 54.8751 80.1875 54.8751Z" fill="#F5F5F5"/>
<path opacity="0.1" d="M92.8457 85.6718C92.8457 85.6718 94.3657 89.8732 91.2287 90.2569C91.0849 90.3278 90.9224 90.3512 90.7645 90.3236C90.6067 90.2961 90.4616 90.2189 90.3502 90.1034C90.3502 90.1034 90.5684 90.0304 90.367 89.6224C90.2953 89.4766 90.2415 89.3227 90.2066 89.1639C90.1585 88.9496 90.1821 88.7253 90.2738 88.5258C90.2738 88.5258 90.4136 87.1764 92.234 86.1284C92.234 86.1284 92.5585 85.6549 92.6722 85.6362L92.579 86.4484C92.579 86.4484 91.9859 86.3567 91.6129 86.6786C91.6129 86.6786 92.5454 86.426 92.5697 86.5701C92.5697 86.6 92.5007 86.9987 92.5007 86.9987C92.5007 86.9987 91.4711 86.8433 90.9097 87.358C90.9097 87.358 91.9878 86.907 92.4745 87.1502L92.3291 87.7472C92.3291 87.7472 91.2492 87.5283 90.5871 88.0916C90.5871 88.0916 91.7285 87.6574 92.288 87.8745L92.0661 88.4359C92.0661 88.4359 91.0086 88.2488 90.4603 88.7148C90.4603 88.7148 91.8311 88.3405 92.0064 88.5632C91.9109 88.7811 91.7894 88.9866 91.6446 89.1752C91.6446 89.1752 90.8818 89.0535 90.5871 89.3623C90.5871 89.3623 91.5308 89.2145 91.5644 89.3137C91.5644 89.3137 91.0813 89.8919 90.6822 90.0622C91.0571 89.9302 91.3909 89.7018 91.6502 89.3997C91.6749 89.6438 91.6275 89.8898 91.514 90.1071C91.514 90.1071 91.9206 89.92 91.7658 89.2575C91.7658 89.2575 92.122 88.7896 92.1239 88.6961C92.1239 88.6961 92.3701 89.3286 92.3104 89.7722C92.3104 89.7722 92.6088 89.308 92.1873 88.5482L92.4223 87.9868C92.4223 87.9868 92.7953 88.8046 92.7674 89.2032C92.7674 89.2032 92.9986 88.683 92.469 87.8389L92.6182 87.2569C92.8137 87.6102 92.9623 87.9877 93.0602 88.3798C93.0602 88.3798 93.1721 87.8483 92.6555 87.081L92.7095 86.6786C92.7095 86.6786 92.9707 87.1802 93.0322 87.3318C93.0938 87.4834 93.1404 87.4778 93.1404 87.4778C93.0973 87.1235 92.9565 86.7884 92.7338 86.5102C92.7338 86.5102 92.7953 85.6718 92.8457 85.6718Z" fill="#F5F5F5"/>
<path opacity="0.1" d="M98.8771 46.0736C98.8771 46.0736 100.395 50.2731 97.2601 50.6568C97.1161 50.7275 96.9536 50.751 96.7955 50.7238C96.6375 50.6966 96.492 50.6201 96.3798 50.5052C96.3798 50.5052 96.5999 50.4322 96.3966 50.0223C96.3262 49.8762 96.273 49.7223 96.2381 49.5638C96.1903 49.3503 96.2132 49.1269 96.3033 48.9275C96.3033 48.9275 96.4432 47.5782 98.2654 46.5283C98.2654 46.5283 98.5899 46.0548 98.7037 46.0361L98.6086 46.8502C98.6086 46.8502 98.0173 46.7566 97.6443 47.0785C97.6443 47.0785 98.5769 46.8259 98.6011 46.9719C98.6011 46.9999 98.5321 47.4004 98.5321 47.4004C98.5321 47.4004 97.5026 47.2432 96.9393 47.7598C96.9393 47.7598 98.0173 47.3069 98.506 47.552L98.3605 48.1471C98.3605 48.1471 97.2806 47.9282 96.6167 48.4915C96.6167 48.4915 97.76 48.0573 98.3195 48.2763L98.0975 48.8377C98.0975 48.8377 97.04 48.6506 96.4917 49.1184C96.4917 49.1184 97.8625 48.7441 98.0379 48.965C97.9423 49.1829 97.8208 49.3884 97.676 49.5769C97.676 49.5769 96.9132 49.4572 96.6185 49.7641C96.6185 49.7641 97.5604 49.6162 97.594 49.7135C97.594 49.7135 97.1128 50.2937 96.7137 50.4621C97.0882 50.3286 97.4218 50.0996 97.6816 49.7978C97.7063 50.0425 97.659 50.2891 97.5455 50.5071C97.5455 50.5071 97.9521 50.3199 97.7954 49.6555C97.7954 49.6555 98.1535 49.1895 98.1554 49.0941C98.1554 49.0941 98.3997 49.7248 98.3419 50.1702C98.3419 50.1702 98.6421 49.7042 98.2188 48.9463L98.4556 48.3848C98.4556 48.3848 98.8287 49.2026 98.8007 49.6031C98.8007 49.6031 99.0319 49.081 98.5023 48.237L98.6515 47.6549C98.8467 48.0084 98.9952 48.3859 99.0935 48.7778C99.0935 48.7778 99.2035 48.2482 98.6888 47.479L98.741 47.0785C98.741 47.0785 99.004 47.5801 99.0655 47.7298C99.1271 47.8795 99.1737 47.8776 99.1737 47.8776C99.1306 47.5234 98.9898 47.1883 98.7671 46.9101C98.7671 46.9101 98.8249 46.0736 98.8771 46.0736Z" fill="#F5F5F5"/>
<path opacity="0.1" d="M87.605 68.9428C87.605 68.9428 86.4318 73.2471 83.6491 71.75C83.491 71.7247 83.3449 71.6499 83.2317 71.5363C83.1184 71.4227 83.0439 71.2761 83.0187 71.1174C83.0187 71.1174 83.2388 71.1848 83.3078 70.7338C83.3341 70.5737 83.3792 70.4172 83.4421 70.2678C83.5248 70.0646 83.6724 69.8948 83.8618 69.7849C83.8618 69.7849 84.7514 68.7631 86.8459 68.9577C86.8459 68.9577 87.383 68.7612 87.4875 68.8118L86.9429 69.42C86.9429 69.42 86.512 69.0027 86.0215 69.0457C86.0215 69.0457 86.9336 69.3826 86.8664 69.5117C86.8515 69.5379 86.5643 69.8224 86.5643 69.8224C86.5643 69.8224 85.8182 69.0981 85.0573 69.1936C85.0573 69.1936 86.1968 69.4481 86.4542 69.9309L85.9936 70.3333C85.9936 70.3333 85.2363 69.5304 84.3709 69.6053C84.3709 69.6053 85.5553 69.9122 85.8872 70.4137L85.3799 70.7487C85.3799 70.7487 84.6339 69.9796 83.9065 70.0488C83.9065 70.0488 85.2382 70.541 85.2587 70.818C85.055 70.9409 84.837 71.0383 84.6097 71.1081C84.6097 71.1081 84.0501 70.5691 83.6417 70.6458C83.6417 70.6458 84.4978 71.0706 84.4679 71.1698C84.4679 71.1698 83.7405 71.357 83.3209 71.2671C83.703 71.3758 84.1068 71.3823 84.4922 71.2858C84.3722 71.5 84.1918 71.6739 83.9737 71.7855C83.9737 71.7855 84.4138 71.866 84.6675 71.2353C84.6675 71.2353 85.227 71.0613 85.2867 70.9827C85.2867 70.9827 85.1226 71.6414 84.8204 71.9708C84.8204 71.9708 85.3314 71.7631 85.4228 70.8984L85.9395 70.5747C85.9395 70.5747 85.7697 71.4561 85.5236 71.7687C85.5236 71.7687 86.0122 71.4767 86.0644 70.4811L86.5195 70.0919C86.4752 70.4957 86.3786 70.892 86.2323 71.2709C86.2323 71.2709 86.6258 70.8966 86.6463 69.9758L86.9205 69.6783C86.9205 69.6783 86.8459 70.2397 86.8105 70.3988C86.775 70.5578 86.8105 70.5859 86.8105 70.5859C86.9785 70.2715 87.056 69.9164 87.0343 69.5604C87.0343 69.5604 87.5621 68.9147 87.605 68.9428Z" fill="#F5F5F5"/>
<path d="M67.7194 116.014C67.7194 116.014 58.0434 112.744 60.0465 101.16L72.3373 97.958L75.1909 107.463L67.7194 116.014Z" fill="#CED7E7"/>
<path opacity="0.1" d="M75.1909 107.463L67.7213 116.014C67.7213 116.014 58.0452 112.744 60.0483 101.16L75.1909 107.463Z" fill="black"/>
<path d="M115.85 21.8813C115.85 21.8813 114.544 24.0129 112.759 22.948C110.974 21.8832 112.686 18.9412 112.686 18.9412C112.686 18.9412 116.105 18.4715 115.85 21.8813Z" fill="#D0D0D0"/>
<path opacity="0.1" d="M112.759 22.948C112.97 23.0847 113.206 23.1768 113.453 23.2187C113.7 23.2605 113.954 23.2512 114.197 23.1913C114.852 23.0248 115.355 22.5195 115.626 22.1882C115.706 22.0912 115.781 21.9893 115.85 21.8832C115.941 20.6667 115.564 19.9425 115.042 19.5158C114.324 18.93 113.33 18.9057 112.901 18.9244C112.768 18.9244 112.692 18.9431 112.692 18.9431L112.657 19.003C112.606 19.0984 112.496 19.3099 112.379 19.5925C111.98 20.5189 111.504 22.1976 112.759 22.948Z" fill="white"/>
<path d="M66.7683 100.615L60.054 101.16L47.558 101.263L57.4038 113.427C57.4038 113.427 60.5278 113.598 61.1712 114.039C61.8147 114.481 70.8491 114.245 70.8491 114.245L72.3076 108.01L66.7683 100.615Z" fill="#FFA2A2"/>
<path opacity="0.05" d="M66.7683 100.615L60.054 101.16L47.558 101.263L57.4038 113.427C57.4038 113.427 60.5278 113.598 61.1712 114.039C61.8147 114.481 70.8491 114.245 70.8491 114.245L72.3076 108.01L66.7683 100.615Z" fill="black"/>
<path d="M73.5589 67.9099L71.9978 70.5673L71.6583 75.2011C71.6583 75.2011 70.571 79.1517 69.756 80.3102C68.9409 81.4686 68.6015 84.5359 68.6015 84.5359C68.6015 84.5359 68.262 87.3974 67.8554 88.0093C67.4489 88.6213 66.9042 93.0623 66.9042 93.0623C66.9042 93.0623 63.3046 100.284 60.0463 101.169C60.0463 101.169 76.2073 106.484 67.7193 116.023C67.7193 116.023 73.7621 117.52 75.1889 115.819C76.6157 114.118 80.3496 88.9058 80.3496 88.9058L79.1951 67.646L73.5589 67.9099Z" fill="#CED7E7"/>
<path opacity="0.05" d="M73.5589 67.9099L71.9978 70.5673L71.6583 75.2011C71.6583 75.2011 70.571 79.1517 69.756 80.3102C68.9409 81.4686 68.6015 84.5359 68.6015 84.5359C68.6015 84.5359 68.262 87.3974 67.8554 88.0093C67.4489 88.6213 66.9042 93.0623 66.9042 93.0623C66.9042 93.0623 63.3046 100.284 60.0463 101.169C60.0463 101.169 76.2073 106.484 67.7193 116.023C67.7193 116.023 73.7621 117.52 75.1889 115.819C76.6157 114.118 80.3496 88.9058 80.3496 88.9058L79.1951 67.646L73.5589 67.9099Z" fill="black"/>
<path d="M93.1666 42.0107C93.6201 44.3713 93.4856 46.8077 92.775 49.1035L95.2891 56.3255C95.2891 56.3255 114.438 45.6282 112.808 43.0381C111.885 41.569 111.767 37.682 111.842 34.5941C111.896 32.2473 112.062 30.3646 112.062 30.3646C112.062 30.3646 88.5617 32.6834 91.6895 38.0657C92.3973 39.289 92.8965 40.6224 93.1666 42.0107Z" fill="#FFA2A2"/>
<path opacity="0.1" d="M91.6892 38.0657C92.3971 39.289 92.8963 40.6224 93.1664 42.0107C96.6539 43.1302 100.42 43.0031 103.825 41.651C107.229 40.2989 110.062 37.8053 111.841 34.5941C111.896 32.2473 112.062 30.3646 112.062 30.3646C112.062 30.3646 88.5671 32.6834 91.6892 38.0657Z" fill="black"/>
<path d="M82.1829 26.4813C82.1813 28.9795 82.7672 31.4428 83.8929 33.671C85.0186 35.8992 86.6525 37.8294 88.6616 39.3047C90.6707 40.78 92.9984 41.7588 95.4555 42.1615C97.9126 42.5642 100.43 42.3794 102.802 41.6223C105.175 40.8651 107.336 39.5568 109.11 37.8039C110.883 36.0509 112.22 33.9027 113.011 31.5338C113.801 29.165 114.024 26.6424 113.66 24.171C113.296 21.6997 112.356 19.3494 110.916 17.3112C110.693 16.9955 110.457 16.6874 110.209 16.3867C108.8 14.6672 107.045 13.2645 105.06 12.2695C103.983 11.7288 102.847 11.3156 101.675 11.0381C99.5585 10.535 97.3615 10.4742 95.2207 10.8596C93.0799 11.245 91.0411 12.0683 89.231 13.2783C87.4209 14.4883 85.8783 16.0591 84.6991 17.8929C83.52 19.7268 82.7295 21.7845 82.3769 23.938C82.2451 24.7793 82.1803 25.6298 82.1829 26.4813Z" fill="#FFA2A2"/>
<path d="M75.9371 91.7597C76.1739 93.0286 75.8774 95.3473 75.4279 97.7072C75.4093 97.8101 75.3887 97.9131 75.3682 98.016C75.3477 98.1189 75.3179 98.278 75.2918 98.4071C75.0847 99.4215 74.8591 100.426 74.639 101.34C74.4189 102.253 74.2212 103.035 74.0533 103.679C73.7997 104.643 73.6262 105.249 73.6262 105.249C73.6262 105.249 73.6039 105.844 73.574 106.791C73.5572 107.338 73.5386 108.004 73.5199 108.739C73.5199 108.953 73.5069 109.17 73.5013 109.394C73.492 109.786 73.4826 110.192 73.4733 110.607C73.4733 110.742 73.4733 110.877 73.464 111.013C73.464 111.461 73.4472 111.917 73.4397 112.372C73.4304 112.997 73.423 113.622 73.4192 114.228C73.4192 114.461 73.4192 114.689 73.4192 114.913C73.4192 115.494 73.4192 116.049 73.4192 116.56C73.4397 118.011 73.4976 119.105 73.6206 119.422C73.6635 119.53 73.7027 119.648 73.74 119.772C73.9017 120.353 74.019 120.945 74.0907 121.544L74.4077 121.284C75.0139 120.782 75.6144 120.27 76.2243 119.772C77.238 118.92 78.3141 118.145 79.4434 117.455C79.5199 117.41 79.5964 117.365 79.6747 117.322C79.8836 117.2 80.0962 117.086 80.3126 116.978C80.7583 116.752 81.2152 116.55 81.6815 116.371C83.8357 115.548 86.1428 115.248 88.4816 115.299C89.4142 115.656 90.0203 115.913 90.0203 115.913L91.2065 116.272L91.4042 116.332C92.6892 116.725 94.4965 117.283 95.1474 117.515C96.1993 117.889 105.333 119.796 105.333 119.796C106.167 120.025 107.019 120.181 107.88 120.264C109.448 120.706 111.044 121.042 112.657 121.267C116.322 121.737 120.045 121.436 123.588 120.384C123.694 120.39 123.8 120.387 123.905 120.374C123.84 120.374 123.776 120.359 123.719 120.348L123.946 120.281L124.258 120.183C124.78 120.019 125.298 119.838 125.811 119.643L126.123 119.523C126.62 119.331 127.107 119.124 127.583 118.903L127.894 118.761C128.392 118.529 128.879 118.284 129.355 118.026C129.526 117.936 129.696 117.838 129.864 117.747C130.371 117.462 130.869 117.164 131.356 116.852C131.438 116.147 131.481 115.675 131.481 115.675L132.208 112.041L132.246 111.854L132.768 109.234L132.805 109.046L133.941 103.346L133.978 103.159L134.501 100.539L134.538 100.352L135.689 94.6549L135.726 94.4677L136.248 91.8477L136.285 91.6605L137.427 85.9526L137.464 85.7654L137.986 83.1547L138.024 82.9676L138.231 81.9383L138.542 80.3794C138.542 80.3794 139.536 78.9533 140.655 77.2671L140.78 77.08C141.099 76.6065 141.428 76.1143 141.746 75.6315C141.853 75.4724 141.955 75.3152 142.058 75.1599C142.213 74.9241 142.364 74.6939 142.509 74.4693L142.61 74.314L142.63 74.2822C144.238 71.7856 143.162 70.7002 143.162 70.7002C143.162 70.7002 142.487 69.7832 141.616 68.5705C141.573 68.5087 141.528 68.4469 141.482 68.3833C141.109 67.8593 140.698 67.2866 140.295 66.714L139.984 66.2686C139.866 66.102 139.751 65.9354 139.639 65.7708C139.594 65.709 139.551 65.6454 139.51 65.5836C138.65 64.3372 137.942 63.2499 137.796 62.8644C137.569 62.2562 136.118 60.4577 134.672 58.88C133.533 57.6336 132.399 56.5257 131.889 56.26C130.735 55.648 130.259 53.6699 130.259 53.6699C130.259 53.6699 127.747 52.7866 127.408 52.1054C127.068 51.4242 122.314 48.3624 122.314 48.3624C122.314 48.3624 120.391 47.1198 119.614 46.3712C119.503 46.2733 119.407 46.1606 119.328 46.0362C119.058 45.5496 117.292 45.1491 116.573 45.005C116.387 44.9676 116.271 44.947 116.271 44.947C115.981 44.4185 115.615 43.936 115.184 43.5154C114.891 43.2552 114.526 42.3588 114.218 41.4904C113.884 40.5435 113.625 39.6321 113.625 39.6321C113.08 37.7924 111.995 38.337 111.995 38.337C111.996 38.5883 111.972 38.8391 111.924 39.0856C111.471 41.3314 109.009 42.2671 107.716 43.317C106.289 44.4735 104.049 47.4735 102.283 48.0855C100.821 48.5926 99.1256 50.5053 98.5885 51.1434L98.5474 51.1921C98.4579 51.2969 98.4132 51.3568 98.4132 51.3568C98.4132 51.3568 97.4116 51.3044 96.8017 51.2931H96.5798C96.4557 51.2807 96.3379 51.2326 96.2403 51.1547C95.6342 50.7411 94.7315 49.5284 94.338 49.2495C93.8642 48.907 93.3868 43.3881 93.3868 43.3881L93.3625 43.3769C91.6709 42.5815 89.8562 50.5427 89.8562 50.5427C89.8562 50.5427 86.665 51.4971 86.3927 52.1783C86.3405 52.3131 86.0999 52.5526 85.7381 52.8427C84.0906 54.1061 82.3371 55.2238 80.4972 56.1833C80.4562 56.2039 80.417 56.2244 80.376 56.2413C80.339 56.2613 80.301 56.2794 80.2622 56.2956C80.1932 56.3292 80.126 56.3592 80.0626 56.3873C79.9619 56.4322 79.8687 56.4696 79.7829 56.4995L79.671 56.5388C79.4036 56.6281 79.1519 56.7588 78.9249 56.9262C78.8578 56.9749 78.7906 57.0254 78.7254 57.0797C78.4714 57.2918 78.2378 57.5274 78.0278 57.7834C77.9961 57.8208 77.9663 57.8601 77.9364 57.8975C77.7947 58.0753 77.6679 58.2512 77.5634 58.414C77.392 58.6652 77.2357 58.9264 77.0953 59.1963C77.0953 59.1963 74.3126 63.9667 73.4285 64.5094C72.5445 65.0521 72.0018 70.5748 72.0018 70.5748L74.9859 81.6744C74.9859 81.6744 75.1258 84.4816 75.3869 87.3449C75.5323 88.9506 75.717 90.5844 75.9371 91.7597Z" fill="#CED7E7"/>
<path d="M98.4127 51.6937C98.4127 51.6937 100.414 52.7829 101.977 52.8858C102.182 52.8954 102.387 52.8835 102.589 52.8503C104.226 52.6014 106.628 51.2502 106.628 51.2502L103.81 48.1492L100.382 49.8541L99.1215 51.0312L98.4127 51.6937Z" fill="#63667E"/>
<path opacity="0.1" d="M82.3842 23.9379C82.4552 24.0386 82.5357 24.132 82.6248 24.2168C83.6059 25.1525 85.3479 24.7651 86.6851 24.548C87.8471 24.3574 88.9823 24.0282 90.0665 23.5674C91.0102 23.1632 92.1423 22.6691 92.991 23.2492C93.3173 23.4701 93.5411 23.8238 93.8806 24.0184C94.22 24.213 94.6527 24.2261 95.0537 24.2318C96.3593 24.2318 97.6648 24.2467 98.9387 23.951C100.839 23.5056 102.805 22.3846 104.612 23.1239C106.026 23.7003 106.793 25.2442 107.175 26.7283C107.361 27.4563 107.499 28.2255 107.921 28.843C108.342 29.4606 109.157 29.8985 109.851 29.6085C110.875 29.1799 111.026 27.4357 112.261 27.3477C113.617 27.2523 113.6 28.6578 113.205 29.674C112.619 31.1711 111.853 32.6683 111.819 34.2291C113.276 31.6101 113.965 28.6307 113.805 25.6355C113.645 22.6402 112.644 19.7516 110.916 17.3036C110.616 17.1168 110.38 16.8408 110.243 16.5139C110.229 16.4697 110.218 16.4247 110.209 16.3791C110.107 15.857 110.396 15.3086 110.413 14.7622C110.478 13.4278 109.038 12.4977 107.718 12.3293C106.839 12.217 105.94 12.3031 105.06 12.275C104.616 12.2652 104.175 12.2062 103.745 12.0991C103.002 11.8758 102.307 11.5174 101.693 11.0417C99.577 10.5386 97.3801 10.4779 95.2393 10.8633C93.0985 11.2487 91.0596 12.072 89.2495 13.282C87.4394 14.492 85.8968 16.0627 84.7177 17.8966C83.5385 19.7304 82.7481 21.7881 82.3954 23.9417L82.3842 23.9379Z" fill="black"/>
<path d="M82.0656 22.8358C82.1585 23.2059 82.3522 23.5429 82.6251 23.8089C83.6061 24.7446 85.3481 24.3554 86.6854 24.1383C87.8475 23.9518 88.9828 23.6251 90.0667 23.1651C91.0105 22.7628 92.1426 22.2687 92.9912 22.8489C93.3176 23.0697 93.5414 23.4234 93.8808 23.618C94.2203 23.8127 94.653 23.8258 95.054 23.8295C96.3595 23.8389 97.6651 23.8463 98.9389 23.5506C100.839 23.1034 102.805 21.9842 104.613 22.7216C106.026 23.298 106.793 24.8438 107.175 26.3279C107.362 27.0559 107.5 27.8251 107.921 28.4408C108.343 29.0565 109.158 29.4981 109.852 29.2081C110.875 28.7795 111.027 27.0353 112.261 26.9473C113.617 26.8519 113.6 28.2574 113.205 29.2736C112.511 31.0458 111.567 32.8088 111.877 34.6877C112.185 34.6877 112.694 34.6765 112.996 34.669C112.761 34.2666 113.209 33.7875 113.654 33.6509C114.1 33.5143 114.621 33.5162 114.96 33.1905C115.299 32.8649 115.301 32.3615 115.266 31.9105C115.188 30.9465 114.953 30.0018 114.57 29.1145C114.326 28.5531 114.011 27.9448 114.197 27.3572C114.309 27.0908 114.444 26.8347 114.6 26.5918C114.988 25.8432 114.897 24.9075 114.565 24.1345C114.423 23.8052 114.32 23.4945 114.203 23.1988C114.054 22.7785 113.84 22.3848 113.567 22.0329C113.14 21.4995 112.722 20.6967 113.194 20.2007C113.313 20.0754 113.074 19.9893 113.151 19.8264C113.164 19.7986 113.174 19.769 113.179 19.7385C113.201 19.5414 113.153 19.3427 113.045 19.1771C113.023 19.134 112.998 19.0921 112.972 19.0517C112.95 19.0089 112.926 18.9676 112.899 18.9281C112.486 18.2362 111.937 17.6358 111.286 17.1634C110.881 16.8695 110.407 16.587 110.247 16.1116C110.06 15.5502 110.389 14.9532 110.417 14.3599C110.482 13.0256 109.042 12.0954 107.722 11.927C106.401 11.7586 105.032 12.0374 103.745 11.695C101.919 11.2121 100.636 9.59518 98.9781 8.68752C98.0711 8.20087 97.0652 7.92865 96.0372 7.89168C95.0093 7.8547 93.9866 8.05394 93.0471 8.47418C91.1112 9.36125 89.6508 11.1541 87.6291 11.8278C86.9129 12.0674 86.137 12.1628 85.4917 12.5596C84.7457 13.02 84.2925 13.8247 83.9045 14.6182C83.3133 15.8215 83.1939 17.0305 82.7855 18.305C82.4609 19.3155 82.0115 20.6368 81.9742 21.8008C81.9532 22.1484 81.984 22.4973 82.0656 22.8358Z" fill="#896363"/>
<g opacity="0.1">
<path d="M112.951 20.4908C112.921 20.371 112.918 20.2461 112.943 20.1251C112.967 20.004 113.017 19.8899 113.091 19.7909C113.043 19.9369 113.253 20.0211 113.138 20.1427C113.046 20.2399 112.981 20.3601 112.951 20.4908Z" fill="black"/>
<path d="M113.097 19.3624C113.119 19.4277 113.132 19.4957 113.136 19.5645C113.101 19.5047 113.053 19.4429 113.097 19.3624Z" fill="black"/>
<path d="M82.5729 23.3523C83.5558 24.288 85.2959 23.9006 86.6369 23.6817C87.7982 23.4941 88.9324 23.1654 90.0146 22.7029C90.9602 22.2987 92.0904 21.8046 92.9409 22.3847C93.2654 22.6056 93.4892 22.9593 93.8305 23.1539C94.1718 23.3485 94.6027 23.3616 95.0037 23.3654C96.3092 23.3654 97.6148 23.3822 98.8905 23.0847C100.789 22.6393 102.755 21.522 104.562 22.2575C105.976 22.8358 106.742 24.3797 107.125 25.8638C107.311 26.5918 107.447 27.361 107.871 27.9785C108.294 28.5961 109.109 29.034 109.801 28.7458C110.825 28.3154 110.976 26.5731 112.211 26.4851C113.175 26.4159 113.444 27.1083 113.378 27.8775C113.322 27.2898 113.005 26.8369 112.211 26.8931C110.976 26.981 110.825 28.7252 109.801 29.1538C109.109 29.4439 108.292 29.0078 107.871 28.3865C107.449 27.7652 107.311 26.9998 107.125 26.2736C106.742 24.7896 105.976 23.2437 104.562 22.6673C102.755 21.93 100.789 23.0416 98.8905 23.4945C97.6222 23.7921 96.3055 23.7827 95.0037 23.7734C94.6027 23.7734 94.1793 23.7621 93.8305 23.5638C93.4818 23.3654 93.271 23.0154 92.9409 22.7927C92.0904 22.2144 90.9602 22.7085 90.0146 23.1109C88.9322 23.5731 87.7981 23.9024 86.6369 24.0915C85.2959 24.3086 83.5558 24.6997 82.5729 23.7603C82.0395 23.2494 81.8791 22.5101 81.9145 21.7017C81.9444 22.3436 82.1309 22.9256 82.5729 23.3523Z" fill="black"/>
<path d="M110.351 14.0212C110.361 14.1144 110.365 14.2082 110.362 14.302C110.344 14.6912 110.196 15.0805 110.15 15.4604C110.081 14.9944 110.295 14.5078 110.351 14.0212Z" fill="black"/>
<path d="M114.141 27.2992C114.125 27.3552 114.114 27.412 114.105 27.4695C114.075 27.2765 114.087 27.0791 114.141 26.8912C114.252 26.6239 114.387 26.3671 114.544 26.1239C114.684 25.8471 114.767 25.5448 114.788 25.235C114.826 25.6822 114.741 26.1312 114.544 26.5338C114.387 26.7761 114.252 27.0323 114.141 27.2992Z" fill="black"/>
<path d="M111.827 34.2198L112.918 34.203C112.892 34.2691 112.882 34.3402 112.888 34.4109C112.894 34.4815 112.915 34.5499 112.951 34.611C112.643 34.611 112.132 34.6222 111.832 34.6297C111.78 34.3094 111.762 33.9844 111.778 33.6603C111.782 33.8476 111.798 34.0346 111.827 34.2198Z" fill="black"/>
<path d="M113.611 33.185C114.057 33.0503 114.576 33.0484 114.908 32.7209C115.103 32.5064 115.213 32.2274 115.217 31.9368C115.245 32.3672 115.217 32.8313 114.908 33.1308C114.576 33.4583 114.057 33.4601 113.611 33.5949C113.466 33.6372 113.331 33.7089 113.215 33.8054C113.099 33.902 113.003 34.0214 112.934 34.1563C112.746 33.7689 113.179 33.3142 113.611 33.185Z" fill="black"/>
</g>
<path opacity="0.1" d="M79.6803 117.322C79.8892 117.2 80.1018 117.086 80.3182 116.978C80.7639 116.752 81.2208 116.55 81.6871 116.371C83.8413 115.548 86.1484 115.248 88.4872 115.299C89.4197 115.656 90.0259 115.913 90.0259 115.913L91.2121 116.272L91.4098 116.332C91.4228 116.201 91.4378 116.07 91.4508 115.937C91.4639 115.804 91.4788 115.677 91.4937 115.546C91.9115 111.577 92.2397 107.499 92.2397 107.499V103.977V103.567L92.2621 93.1895L92.4486 89.7684L92.5363 88.2544L92.5531 87.9662L92.5867 87.3748L92.6053 87.023C92.6465 86.9115 92.6813 86.7978 92.7097 86.6824C92.7228 86.6356 92.7359 86.5832 92.7471 86.5289C92.7937 86.3418 92.844 86.1004 92.8963 85.8384C93.2376 84.1166 93.6647 81.214 93.6908 80.6245C93.7244 79.8385 94.4032 75.1374 94.4032 75.1374C94.4723 72.5491 96.6413 67.6759 97.1878 66.757C97.7343 65.8381 98.3442 60.3173 98.139 60.0197C98.0327 59.8607 97.9637 58.9193 97.9208 58.051C97.9208 57.9518 97.9115 57.8544 97.9077 57.759C97.8797 57.0797 97.8667 56.5126 97.8667 56.5126L95.733 56.0897L95.1605 55.9774L95.1157 55.968L95.0971 56.0054C95.0355 56.1196 94.8434 56.4845 94.6177 56.9636C94.5916 57.0142 94.5674 57.0684 94.5413 57.1227C94.5301 57.1489 94.517 57.1751 94.504 57.2013C94.0862 58.1183 93.6031 59.3254 93.6236 60.0197C93.6572 61.2474 92.264 64.2118 92.264 64.2118C92.1297 64.893 89.1754 71.6714 89.1754 71.6714C89.1754 71.6714 86.7639 78.3151 86.9 79.4062C87.0362 80.4972 85.7455 87.7192 85.7455 87.7192L84.4213 95.147C83.7779 96.6105 82.9293 99.9829 82.9293 99.9829L82.6066 101.895L82.5451 102.26L81.6853 107.364L81.2638 109.864C81.2638 109.864 81.0866 111.193 80.818 112.671C80.7956 112.804 80.7695 112.939 80.7434 113.074C80.5779 114.047 80.3429 115.007 80.0403 115.946C79.8902 116.396 79.7699 116.856 79.6803 117.322Z" fill="black"/>
<path d="M79.4487 117.455C79.5252 117.41 79.6016 117.365 79.68 117.322C79.8889 117.2 80.1015 117.086 80.3178 116.978C80.7635 116.752 81.2204 116.55 81.6868 116.371C83.841 115.548 86.1481 115.248 88.4869 115.299C89.4194 115.656 90.0256 115.913 90.0256 115.913L91.2118 116.272C91.2267 116.141 91.2397 116.01 91.2547 115.877C91.2696 115.744 91.2808 115.638 91.292 115.518C91.7097 111.558 92.038 107.499 92.038 107.499V103.943V103.533L92.0604 93.1821L92.2469 89.9145L92.2842 89.237L92.3103 88.7785L92.3439 88.1722L92.3774 87.5565L92.4017 87.1129V87.0156C92.4017 87.0062 92.4017 86.995 92.4147 86.9838C92.4502 86.8827 92.4931 86.7293 92.5397 86.5346L92.5621 86.4411C92.5714 86.398 92.5826 86.3512 92.5919 86.3044C92.9426 84.7081 93.4573 81.2665 93.4853 80.6208C93.5189 79.8348 94.1978 75.1337 94.1978 75.1337C94.2668 72.5455 96.4358 67.6722 96.9823 66.7533C97.5288 65.8344 98.1368 60.3136 97.9335 60.0161C97.816 59.8289 97.747 58.6929 97.7022 57.7553C97.7022 57.6805 97.7022 57.6075 97.7022 57.5383C97.678 56.96 97.6687 56.509 97.6687 56.509L95.6842 56.1159L95.1806 56.0168L95.1023 56.0018L94.9158 55.9644C94.9158 55.9644 94.6715 56.4172 94.3787 57.0404L94.3414 57.119C93.9143 58.0435 93.4088 59.3012 93.4237 60.0161C93.4573 61.2437 92.0641 64.2081 92.0641 64.2081C91.9298 64.8893 88.9755 71.6678 88.9755 71.6678C88.9755 71.6678 86.564 78.3114 86.7001 79.4025C86.8363 80.4936 85.5456 87.7155 85.5456 87.7155L84.2214 95.1433C83.578 96.6068 82.7294 99.9792 82.7294 99.9792L82.4291 101.761L82.3676 102.122L81.6905 106.149L81.0657 109.86C81.0657 109.86 80.8792 111.184 80.6218 112.668C80.5976 112.802 80.5733 112.937 80.5472 113.074C80.382 114.051 80.147 115.016 79.8441 115.96C79.6788 116.448 79.5466 116.948 79.4487 117.455Z" fill="#63667E"/>
<path d="M81.131 21.3385C81.131 21.3385 81.8435 22.2593 82.487 22.2593C83.1304 22.2593 85.6352 22.1564 86.9408 21.7484C88.2463 21.3404 94.6473 21.0316 94.6473 21.0316C94.6473 21.0316 103.712 21.0653 104.017 20.7584C104.323 20.4515 109.654 18.8158 110.196 18.9187C110.31 18.9412 110.588 18.9899 110.959 19.0516L111.385 19.1209C112.028 19.2238 112.832 19.3436 113.567 19.4315C114.475 19.5382 115.273 19.5925 115.527 19.4989V18.7148C115.527 18.7148 114.475 17.1802 114.408 16.7404C114.341 16.3006 113.457 9.92452 111.148 7.64321C110.194 5.8135 108.65 4.36217 106.768 3.526C103.644 2.1617 100.52 1.00514 100.52 1.00514L99.974 0.926542L98.2114 0.664537C98.1579 0.611021 98.0998 0.562186 98.038 0.518564C97.5493 0.144272 96.0685 -0.669813 94.1381 1.08L93.7968 1.62647C93.7968 1.62647 87.8565 3.02258 85.1074 7.89398C82.3583 12.7654 82.2203 17.5357 82.017 19.716C82.017 19.716 82.1531 20.3298 81.8808 20.5675C81.7822 20.6549 81.6882 20.7473 81.5992 20.8445C81.5749 20.8688 81.5507 20.8931 81.5283 20.9193C81.45 20.9979 81.3772 21.0803 81.3176 21.1477C81.3104 21.1529 81.3041 21.1592 81.2989 21.1664C81.2843 21.1841 81.2688 21.201 81.2523 21.2169L81.131 21.3385Z" fill="#F5F5F5"/>
<path opacity="0.05" d="M81.1311 21.3386C81.1311 21.3386 81.8436 22.2593 82.487 22.2593C83.1305 22.2593 85.6353 22.1564 86.9408 21.7484C88.2464 21.3404 94.6473 21.0316 94.6473 21.0316C94.6473 21.0316 103.712 21.0653 104.018 20.7584C104.323 20.4515 109.654 18.8158 110.197 18.9188C110.31 18.9412 110.588 18.9899 110.959 19.0516L111.056 18.4528L111.081 18.3049C111.081 18.3049 100.793 16.091 93.9349 17.2513C87.077 18.4116 82.017 19.7029 82.017 19.7029C82.017 19.7029 82.1532 20.3167 81.8809 20.5544C81.7823 20.6418 81.6883 20.7342 81.5992 20.8314C81.575 20.8557 81.5508 20.88 81.5284 20.9062C81.45 20.9848 81.3773 21.0672 81.3176 21.1346C81.3105 21.1398 81.3042 21.1461 81.299 21.1533C81.2844 21.171 81.2688 21.1878 81.2523 21.2038L81.1311 21.3386Z" fill="black"/>
<path opacity="0.1" d="M82.0657 22.8358C83.3358 22.935 85.6764 22.6243 86.7004 22.4727C86.9913 22.4297 87.2767 22.3773 87.5639 22.3137C88.6624 22.0741 92.0401 21.4023 94.0917 21.7129C96.5704 22.0872 103.564 21.406 103.564 21.406C103.564 21.406 107.876 20.5208 109.609 19.8059C110.245 19.542 111.308 19.4597 112.366 19.5907C112.635 19.6244 112.903 19.6725 113.168 19.7348C114.611 20.0773 115.829 20.8577 115.618 22.1883C115.699 22.0912 115.774 21.9894 115.842 21.8832C115.934 20.6668 115.557 19.9425 115.035 19.5158L114.912 19.4653C114.274 19.2834 113.624 19.144 112.968 19.048C112.866 19.0311 112.759 19.0161 112.651 19.003C110.795 18.7523 108.111 18.6961 105.847 19.8396C105.847 19.8396 103.743 20.8296 102.317 20.8296C100.89 20.8296 89.2798 20.9325 86.5624 21.7148C86.0214 21.8716 85.4697 21.9886 84.9118 22.0648C83.921 22.1929 82.9143 22.0977 81.9649 21.7859C81.9455 22.139 81.9795 22.4929 82.0657 22.8358Z" fill="black"/>
<path opacity="0.1" d="M81.131 21.3386C81.131 21.3386 81.8435 22.2593 82.487 22.2593C83.1304 22.2593 85.6352 22.1564 86.9408 21.7484C88.2463 21.3404 94.6473 21.0317 94.6473 21.0317C94.6473 21.0317 103.712 21.0653 104.017 20.7584C104.323 20.4515 109.654 18.8159 110.196 18.9188C110.31 18.9412 110.588 18.9899 110.959 19.0517L111.385 19.1209C112.123 19.1171 112.858 19.2218 113.567 19.4316C114.475 19.5382 115.273 19.5925 115.527 19.4989V19.3436C115.331 19.2297 115.127 19.1309 114.917 19.0479C113.658 18.6943 112.362 18.492 111.056 18.4453C109.428 18.3854 107.524 18.5763 105.851 19.4222C105.851 19.4222 103.747 20.4122 102.32 20.4122C100.893 20.4122 89.2833 20.5133 86.5659 21.2974C86.0247 21.4528 85.4731 21.5691 84.9153 21.6455C83.6914 21.8003 82.4486 21.6212 81.3176 21.1271C81.3104 21.1324 81.3041 21.1387 81.2989 21.1458C81.2843 21.1635 81.2687 21.1804 81.2523 21.1963L81.131 21.3386Z" fill="black"/>
<path d="M115.592 22.1565C115.592 22.1565 117.868 20.4179 114.913 19.2595C114.913 19.2595 109.753 17.6594 105.847 19.6337C105.847 19.6337 103.743 20.62 102.316 20.62C100.89 20.62 89.2796 20.7229 86.5621 21.5071C86.021 21.6626 85.4693 21.779 84.9115 21.8552C83.4658 22.0311 82.0013 21.7518 80.7207 21.0561C80.5342 20.9531 80.3663 20.9007 80.316 20.9606C80.1463 21.1665 80.2805 22.3586 81.7745 22.5963C82.9401 22.7834 85.5886 22.4297 86.702 22.2669C86.9911 22.2238 87.2783 22.1696 87.5637 22.1078C88.6622 21.8683 92.0399 21.1964 94.1008 21.5071C96.5776 21.8814 103.574 21.2002 103.574 21.2002C103.574 21.2002 107.884 20.315 109.616 19.5982C111.349 18.8814 116.237 19.499 115.592 22.1565Z" fill="#F5F5F5"/>
<path opacity="0.1" d="M96.4098 3.88905C96.5963 3.61956 98.9929 1.69383 99.9702 0.915302L98.2077 0.653298C98.1541 0.599781 98.0961 0.550947 98.0343 0.507324C96.753 1.85665 96.4098 3.88905 96.4098 3.88905Z" fill="black"/>
<path opacity="0.1" d="M104.183 14.2177L104.965 15.3761L101.977 15.275L101.91 13.98L104.183 14.2177Z" fill="black"/>
<path opacity="0.1" d="M85.9521 15.6157L85.6127 16.6712L83.7103 16.9781L84.5254 15.7168L85.9521 15.6157Z" fill="black"/>
<path opacity="0.1" d="M118.614 51.0498C118.41 51.3904 111.722 60.22 109.956 59.9748C108.19 59.7296 118.614 51.0498 118.614 51.0498Z" fill="black"/>
<path opacity="0.1" d="M96.2046 59.1196C96.2046 59.1196 94.5745 60.6879 94.8132 61.2999C95.052 61.9118 96.2046 59.1196 96.2046 59.1196Z" fill="black"/>
<path opacity="0.1" d="M113.996 69.886C113.996 69.886 115.423 76.597 114.675 76.8104C113.927 77.0237 113.996 69.886 113.996 69.886Z" fill="black"/>
<path opacity="0.1" d="M95.6621 95.948C95.4252 96.6292 93.4557 101.059 93.0137 101.297C92.5717 101.534 95.6621 95.948 95.6621 95.948Z" fill="black"/>
<path opacity="0.1" d="M72.7774 77.7556C72.8464 77.9933 74.5436 79.3913 74.1706 79.9022C73.7976 80.4131 72.7774 77.7556 72.7774 77.7556Z" fill="black"/>
<path opacity="0.1" d="M85.9523 90.1895C85.9858 90.3616 86.3253 93.9324 85.6799 94.6192C85.0346 95.306 85.9523 90.1895 85.9523 90.1895Z" fill="black"/>
<path opacity="0.1" d="M68.5547 108.739C69.0471 109.015 69.5563 109.28 70.0747 109.535C70.6343 109.808 71.1938 110.068 71.7645 110.313C71.9921 110.413 72.2196 110.51 72.4453 110.603C72.7884 110.746 73.1279 110.882 73.4636 111.013C74.4838 111.414 75.4667 111.762 76.3414 112.056C76.6809 112.17 77.0054 112.275 77.3075 112.372C78.8294 112.857 79.8403 113.121 79.8403 113.121C80.0712 113.071 80.3076 113.051 80.5434 113.063C80.6087 113.063 80.6759 113.063 80.7449 113.063C81.0607 113.086 81.3751 113.125 81.6867 113.182C83.77 113.557 86.7131 114.606 88.4868 115.293C89.4194 115.651 90.0255 115.907 90.0255 115.907L91.2117 116.266L91.4094 116.326C92.6944 116.719 94.5017 117.277 95.1526 117.509C96.2045 117.883 105.338 119.79 105.338 119.79C106.172 120.019 107.025 120.175 107.886 120.258C110.007 120.454 112.14 120.502 114.268 120.404C116.405 120.543 119.863 120.071 121.875 119.753L122.196 119.702C122.974 119.575 123.468 119.483 123.468 119.483L123.207 119.122L117.853 111.709L117.821 111.665L112.832 104.761L112.645 104.51L112.192 103.883C112.192 103.883 111.92 103.509 110.872 103.484C110.748 103.484 110.614 103.484 110.467 103.484C109.586 103.555 108.718 103.733 107.88 104.014L107.637 104.087C104.025 105.126 98.4408 104.866 98.4408 104.866C98.4408 104.866 94.9661 104.304 92.2356 103.967L92.0323 103.941C91.1401 103.815 90.2417 103.736 89.341 103.707C87.6774 103.741 84.0778 102.856 84.0778 102.856C83.3038 102.689 82.9774 102.549 82.5409 102.236C82.4831 102.195 82.4216 102.15 82.3544 102.101C82.1679 101.961 81.9534 101.789 81.6774 101.576C81.1738 101.188 80.467 100.662 79.3554 99.9249C79.2584 99.8612 79.1558 99.7976 79.0458 99.7377C78.9357 99.6778 78.7959 99.5974 78.6616 99.53C77.5851 99.0184 76.4501 98.6413 75.282 98.4071C74.3131 98.1981 73.33 98.0624 72.3408 98.001H72.1935C69.3959 97.8513 66.5386 98.3323 64.8674 99.9099C64.5752 100.187 64.3206 100.502 64.1102 100.846C64.0081 101.009 63.9171 101.179 63.8379 101.355C63.6855 101.69 63.5722 102.041 63.5003 102.403C63.4867 102.47 63.4755 102.537 63.4668 102.605C63.4668 102.625 63.4668 102.644 63.4668 102.665C63.4668 102.719 63.4556 102.773 63.4518 102.828C63.3026 105.068 65.6191 107.093 68.5547 108.739Z" fill="black"/>
<path d="M123.468 119.081C123.468 119.081 117.425 120.204 114.268 120C114.268 120 108.462 120.307 105.338 119.388C105.338 119.388 96.1989 117.479 95.1526 117.105C94.1063 116.731 90.0255 115.503 90.0255 115.503C90.0255 115.503 82.0803 112.164 79.8403 112.709C79.8403 112.709 62.2526 108.144 63.5097 101.978C64.7667 95.8115 75.8677 97.2094 79.3628 99.5244C82.858 101.839 82.347 102.081 84.0815 102.455C84.0815 102.455 87.6811 103.34 89.3448 103.307C91.0084 103.273 98.4445 104.465 98.4445 104.465C98.4445 104.465 104.284 104.738 107.882 103.614C111.48 102.489 112.194 103.477 112.194 103.477L123.468 119.081Z" fill="#FFA2A2"/>
<path opacity="0.1" d="M110.364 103.076C110.363 103.084 110.363 103.091 110.364 103.099C110.377 103.238 110.413 103.374 110.471 103.501C111.187 105.264 115.253 110.02 115.253 110.02C115.438 110.584 115.662 111.136 115.922 111.67C116.483 112.812 117.128 113.91 117.853 114.955C118.927 116.517 120.1 118.009 121.365 119.422H121.374C121.535 119.542 121.702 119.652 121.876 119.753C122.314 120.015 122.972 120.339 123.593 120.378C123.699 120.384 123.805 120.381 123.91 120.369C123.845 120.369 123.782 120.354 123.724 120.342L123.951 120.275L124.263 120.178C124.785 120.013 125.303 119.833 125.817 119.637L126.128 119.517C126.625 119.325 127.112 119.119 127.588 118.898L127.9 118.756C128.397 118.523 128.884 118.278 129.36 118.02C129.532 117.93 129.701 117.833 129.869 117.741C130.377 117.457 130.874 117.159 131.361 116.847C131.879 116.516 132.385 116.171 132.88 115.812C133.253 115.117 133.56 114.502 133.728 114.17C134.034 113.555 134.06 112.673 134.023 112.035C134.023 111.97 134.023 111.908 134.012 111.848C133.98 111.447 133.931 111.172 133.931 111.172C134.208 110.802 134.457 110.411 134.678 110.005C134.804 109.803 134.876 109.571 134.886 109.333C134.878 109.237 134.887 109.141 134.913 109.048C135.056 108.457 135.673 107.441 136.244 106.802C136.669 106.333 136.696 104.577 136.655 103.333C136.63 102.584 136.584 102.034 136.584 102.034C136.667 101.98 136.73 101.899 136.761 101.804C136.911 101.394 137.012 100.968 137.063 100.535C137.063 100.473 137.08 100.411 137.089 100.348C137.208 99.4888 137.263 98.6261 137.263 98.6261C138.643 97.6174 139.299 96.0435 139.605 94.6399L139.644 94.4527C139.812 93.5901 139.884 92.7113 139.857 91.8327C139.857 91.7485 139.857 91.6848 139.857 91.6455C139.857 91.6062 139.857 91.5988 139.857 91.5988C139.857 91.5988 139.674 87.5433 139.163 85.9601C139.143 85.8927 139.12 85.8309 139.098 85.7729C139.06 85.6735 139.011 85.5787 138.952 85.4903C138.766 85.2414 138.633 84.7717 138.523 84.2158C138.447 83.8303 138.383 83.4018 138.337 82.9751C138.294 82.6195 138.26 82.2658 138.234 81.9383C138.161 81.0624 138.139 80.3794 138.139 80.3794L138.484 78.6726C138.579 78.2066 138.652 77.7369 138.702 77.2671C138.702 77.2054 138.717 77.1436 138.725 77.08C138.812 76.2125 138.828 75.3393 138.771 74.4693C138.771 74.4057 138.771 74.3439 138.76 74.2822C138.615 72.3005 138.098 70.3641 137.238 68.5742L137.145 68.3871C137.021 68.1375 136.89 67.8924 136.753 67.6516C136.655 67.4738 136.55 67.2979 136.442 67.1238C136.155 66.6578 135.844 66.2074 135.509 65.7745C135.461 65.7109 135.411 65.6491 135.36 65.5874C134.778 64.8634 134.131 64.1943 133.428 63.5886C131.544 61.9642 129.815 61.2587 128.245 61.2044C121.378 60.9611 117.526 73.148 116.903 75.2834C116.844 75.4892 116.814 75.6015 116.814 75.6015C116.814 75.6015 114.031 78.3956 114.846 79.6214C115.004 79.8913 115.1 80.193 115.128 80.5048C115.352 82.1535 114.71 84.869 114.71 84.869C114.71 84.869 114.482 85.6176 113.818 87.4104L113.623 87.9344C113.207 89.0573 113.11 90.9419 113.348 92.6299C113.578 94.2469 114.117 95.6767 114.98 96.0435C116.747 96.7921 116.271 97.5406 115.864 98.1564C115.623 98.5977 115.421 99.0599 115.262 99.5375C115.007 100.228 114.77 100.954 114.68 101.237C114.654 101.315 114.641 101.358 114.641 101.358C114.394 101.262 114.137 101.193 113.874 101.153C113.541 101.106 113.21 101.139 113.147 101.426C113.113 101.579 112.921 101.761 112.651 101.942C111.849 102.496 110.364 103.076 110.364 103.076Z" fill="black"/>
<path d="M110.771 103.076C110.783 103.219 110.818 103.358 110.877 103.488C111.59 105.253 115.659 110.02 115.659 110.02C115.846 110.584 116.069 111.136 116.329 111.67C116.779 112.592 117.288 113.484 117.853 114.341C119.022 116.11 120.317 117.793 121.728 119.375L121.771 119.422C121.771 119.422 121.935 119.547 122.197 119.708C122.663 120.007 123.177 120.223 123.717 120.348L123.944 120.281L124.256 120.183C124.778 120.019 125.296 119.838 125.809 119.643L126.121 119.523C126.618 119.331 127.105 119.124 127.581 118.903L127.893 118.761C128.39 118.529 128.877 118.284 129.353 118.026C129.524 117.936 129.694 117.838 129.862 117.747C130.369 117.462 130.867 117.164 131.354 116.852C131.871 116.522 132.377 116.177 132.872 115.817C133.101 115.653 133.327 115.484 133.551 115.31C133.803 114.831 134.004 114.427 134.129 114.176C134.435 113.56 134.461 112.679 134.424 112.041C134.424 111.975 134.424 111.913 134.413 111.854C134.381 111.453 134.333 111.178 134.333 111.178C134.333 111.178 134.484 110.974 134.667 110.697C134.769 110.544 134.879 110.366 134.978 110.19C135.164 109.86 135.31 109.527 135.282 109.338C135.278 109.306 135.278 109.273 135.282 109.241C135.285 109.178 135.294 109.115 135.31 109.054C135.454 108.462 136.073 107.446 136.643 106.808C137.069 106.338 137.095 104.583 137.056 103.338C137.056 103.275 137.056 103.213 137.056 103.151C137.03 102.506 136.99 102.04 136.99 102.04C137.201 101.948 137.363 101.269 137.468 100.542L137.496 100.355C137.615 99.4963 137.669 98.6336 137.669 98.6336C139.049 97.6249 139.706 96.051 140.01 94.6474C140.222 93.6643 140.303 92.6575 140.252 91.653C140.252 91.6231 140.252 91.6062 140.252 91.6062C140.252 91.6062 140.092 87.5302 139.581 85.9451C139.56 85.8777 139.538 85.8159 139.516 85.7579C139.471 85.6608 139.415 85.5691 139.35 85.4847C139.066 85.0879 138.878 84.1335 138.755 83.1566L138.732 82.9695C138.578 81.6594 138.535 80.3737 138.535 80.3737L138.882 78.667C138.976 78.1991 139.049 77.7306 139.1 77.2615C139.109 77.1997 139.115 77.1361 139.122 77.0744C139.209 76.2069 139.225 75.3337 139.169 74.4637C139.169 74.4 139.169 74.3383 139.156 74.2765C139.011 72.2947 138.495 70.3581 137.634 68.5686C137.604 68.5049 137.574 68.4432 137.541 68.3814C137.301 67.8954 137.034 67.423 136.742 66.9666C136.642 66.8075 136.539 66.6503 136.431 66.495C136.261 66.248 136.084 66.0047 135.899 65.7689L135.75 65.5817C135.173 64.8605 134.532 64.1934 133.835 63.5886C131.783 61.8238 129.918 61.1426 128.239 61.2044C121.628 61.4421 117.916 73.1911 117.306 75.2834C117.247 75.4892 117.217 75.6015 117.217 75.6015C117.217 75.6015 114.432 78.3956 115.247 79.6214C115.405 79.8912 115.502 80.193 115.529 80.5047C115.755 82.1535 115.111 84.869 115.111 84.869C115.111 84.869 114.884 85.6176 114.22 87.4104C114.16 87.577 114.095 87.751 114.033 87.9344C113.617 89.0573 113.52 90.9419 113.759 92.6299C113.988 94.2487 114.526 95.6767 115.391 96.0435C117.155 96.792 116.682 97.5406 116.273 98.1563C116.031 98.5977 115.83 99.0599 115.671 99.5375C115.348 100.419 115.051 101.358 115.051 101.358C114.929 101.311 114.805 101.271 114.678 101.237C114.419 101.151 114.144 101.122 113.873 101.153C113.798 101.158 113.726 101.188 113.669 101.237C113.612 101.286 113.571 101.352 113.554 101.426C113.503 101.65 113.117 101.929 112.649 102.193C112.041 102.525 111.414 102.82 110.771 103.076Z" fill="#CED7E7"/>
<path opacity="0.1" d="M135.319 85.0805C134.674 85.0468 127.747 82.3557 126.32 83.2746C124.894 84.1935 116.062 90.1559 116.062 90.1559C116.062 90.1559 121.596 82.9003 126.417 81.1973C131.239 79.4942 135.319 85.0805 135.319 85.0805Z" fill="black"/>
<path opacity="0.1" d="M125.361 96.051C125.361 96.051 118.434 97.4471 117.383 98.4016L125.361 96.051Z" fill="black"/>
<path opacity="0.1" d="M126.695 106.445C126.796 106.548 129.306 112.202 129.105 112.202C128.903 112.202 126.762 108.833 126.762 108.833L126.695 106.445Z" fill="black"/>
<path opacity="0.1" d="M121.974 99.661C121.974 99.661 124.011 100.378 123.774 100.445C123.537 100.513 122.043 99.9679 121.974 99.661Z" fill="black"/>
<path opacity="0.1" d="M124.011 108.214C123.672 108.929 122.586 111.075 122.348 110.734C122.109 110.394 124.011 108.214 124.011 108.214Z" fill="black"/>
<path opacity="0.1" d="M98.5865 51.5495L98.8774 51.965C98.8774 51.965 101.188 50.3312 102.138 49.5134C103.087 48.6955 105.329 52.4422 107.095 53.464C108.861 54.4858 111.847 54.7591 111.847 54.7591C111.847 54.7591 114.156 52.4422 114.085 51.7647C114.014 51.0873 115.171 50.8795 115.24 50.4023C115.309 49.9251 115.715 48.5627 116.258 47.8815C116.545 47.5221 116.586 46.3974 116.56 45.4186C116.374 45.3812 116.258 45.3606 116.258 45.3606C115.968 44.832 115.602 44.3496 115.171 43.9289C114.559 43.3843 113.61 40.0457 113.61 40.0457C113.067 38.206 111.981 38.7506 111.981 38.7506C111.981 41.5447 109.128 42.5665 107.703 43.7249C106.278 44.8834 104.036 47.8815 102.27 48.4953C100.821 48.9912 99.1255 50.9095 98.5865 51.5495Z" fill="black"/>
<path d="M98.5864 51.1398L98.8774 51.5571C98.8774 51.5571 101.198 49.9271 102.147 49.1036C103.096 48.2802 105.338 52.0324 107.104 53.0543C108.87 54.0761 111.856 54.3512 111.856 54.3512C111.856 54.3512 114.165 52.0324 114.095 51.3568C114.024 50.6813 115.18 50.4716 115.249 49.9926C115.318 49.5135 115.725 48.1529 116.267 47.4717C116.555 47.1124 116.596 45.9876 116.57 45.0089L116.267 44.9527C115.978 44.4242 115.611 43.9417 115.18 43.521C114.568 42.9746 113.619 39.6378 113.619 39.6378C113.076 37.7981 111.991 38.3408 111.991 38.3408C111.991 41.1349 109.137 42.1586 107.712 43.3171C106.287 44.4755 104.046 47.4717 102.279 48.0855C100.821 48.589 99.1254 50.4997 98.5864 51.1398Z" fill="#CED7E7"/>
<path opacity="0.1" d="M98.413 51.6937C98.413 51.6937 100.414 52.7829 101.977 52.8858C102.182 52.8954 102.387 52.8835 102.589 52.8503C102.589 52.8503 100.864 51.5571 99.2616 51.2932L98.413 51.6937Z" fill="black"/>
<path opacity="0.1" d="M94.3377 57.2462C94.3377 57.2462 96.8611 56.26 97.6948 57.744C97.6668 57.0628 97.6557 56.4976 97.6557 56.4976L94.9047 55.9512C94.9047 55.9512 94.6398 56.4434 94.3302 57.1059C94.3377 57.1938 94.3377 57.2462 94.3377 57.2462Z" fill="black"/>
<path d="M102.589 52.8502C102.589 52.8502 99.5656 51.0293 98.1127 51.1828C96.5889 51.3418 93.6365 51.4541 93.6365 51.4541C93.6365 51.4541 94.6548 53.771 94.5187 54.2482C94.3825 54.7254 94.3489 57.0423 94.3489 57.0423C94.3489 57.0423 97.4039 55.8502 97.9131 58.0641C97.9131 58.0641 99.5768 55.577 100.698 54.8265C101.441 54.2873 102.082 53.6178 102.589 52.8502Z" fill="#63667E"/>
<path opacity="0.1" d="M85.5102 54.9649C86.3924 54.9649 89.5164 52.9868 90.1953 51.6936C90.8742 50.4004 91.8254 51.8283 92.7076 52.3074C93.2671 52.6143 95.4847 51.9724 96.6802 51.5064C96.074 51.0928 94.7312 49.9288 94.3376 49.6499C93.8639 49.3075 93.3864 43.7885 93.3864 43.7885C91.6892 42.9033 89.8558 50.9431 89.8558 50.9431C89.8558 50.9431 86.6628 51.8976 86.3924 52.5788C86.3402 52.7135 86.0996 52.9531 85.7377 53.2431C85.3647 54.1864 85.1596 54.9649 85.5102 54.9649Z" fill="black"/>
<path d="M85.5104 54.5551C86.3926 54.5551 89.5166 52.5788 90.1955 51.2857C90.8744 49.9925 91.8256 51.4204 92.7078 51.8976C93.2673 52.2045 95.0447 51.6113 96.2402 51.149C95.6341 50.7373 94.7314 49.5246 94.3379 49.2439C93.8641 48.9033 93.3867 43.3844 93.3867 43.3844C91.6894 42.4992 89.8561 50.5389 89.8561 50.5389C89.8561 50.5389 86.663 51.4934 86.3926 52.1746C86.3404 52.3094 86.0998 52.5489 85.738 52.839C85.365 53.7766 85.1598 54.5551 85.5104 54.5551Z" fill="#CED7E7"/>
<path d="M73.445 114.249L43.919 89.5458C43.6243 89.2961 43.2489 89.163 42.8633 89.1715L31.8482 89.4616C31.8482 89.4616 31.0853 90.023 32.2044 91.2507L60.0575 114.185C60.3585 114.432 60.732 114.573 61.1206 114.586L73.1653 114.986C73.2518 114.989 73.337 114.965 73.409 114.917C73.481 114.868 73.5362 114.799 73.567 114.718C73.5978 114.637 73.6026 114.548 73.5807 114.464C73.5589 114.38 73.5114 114.305 73.445 114.249Z" fill="#F5F5F5"/>
<path d="M59.1621 111.21C59.1621 111.21 52.7127 120.477 45.547 111.857C38.3814 103.237 40.4535 98.7084 42.6263 98.4688C44.7991 98.2293 57.0247 107.667 59.1621 111.21Z" fill="#FFA2A2"/>
</svg>
