<svg width="20" height="20" viewBox="0 0 20 20" fill="none" xmlns="http://www.w3.org/2000/svg">
<path d="M11.1719 3.64191C10.8483 3.64191 10.5859 3.37957 10.5859 3.05598V1.75781C10.5859 1.43473 10.3231 1.17188 10 1.17188C9.67691 1.17188 9.41406 1.43473 9.41406 1.75781V3.05598C9.41406 3.37957 9.15172 3.64191 8.82812 3.64191C8.50453 3.64191 8.24219 3.37957 8.24219 3.05598V1.75781C8.24219 0.788555 9.03074 0 10 0C10.9693 0 11.7578 0.788555 11.7578 1.75781V3.05598C11.7578 3.37957 11.4955 3.64191 11.1719 3.64191Z" fill="#FFB454"/>
<path d="M10.5859 1.75781V3.05598C10.5859 3.37957 10.8483 3.64191 11.1719 3.64191C11.4955 3.64191 11.7578 3.37957 11.7578 3.05598V1.75781C11.7578 0.788555 10.9693 0 10 0V1.17188C10.3231 1.17188 10.5859 1.43473 10.5859 1.75781Z" fill="#FF8E00"/>
<path d="M10 20C8.38457 20 7.07031 18.6857 7.07031 17.0703C7.07031 16.7467 7.33266 16.4844 7.65625 16.4844H12.3438C12.6673 16.4844 12.9297 16.7467 12.9297 17.0703C12.9297 18.6857 11.6155 20 10 20Z" fill="#FFB454"/>
<path d="M12.3438 16.4844H10V20C11.6154 20 12.9297 18.6857 12.9297 17.0703C12.9297 16.7467 12.6673 16.4844 12.3438 16.4844Z" fill="#FF8E00"/>
<path d="M18.2031 17.6562H1.79688C1.56212 17.6562 1.35005 17.5161 1.25794 17.3002C1.16583 17.0843 1.21149 16.8342 1.37399 16.6648C3.03212 14.9355 3.94532 12.6638 3.94532 10.268V8.39844C3.94532 5.05988 6.66145 2.34375 10 2.34375C13.3386 2.34375 16.0547 5.05988 16.0547 8.39844V10.268C16.0547 12.6638 16.9679 14.9355 18.6261 16.6648C18.7885 16.8342 18.8342 17.0843 18.7421 17.3002C18.65 17.5161 18.4379 17.6562 18.2031 17.6562Z" fill="#FFE278"/>
<path d="M18.2031 17.6562C18.4379 17.6562 18.65 17.5161 18.7421 17.3002C18.8342 17.0843 18.7885 16.8342 18.6261 16.6648C16.9679 14.9355 16.0547 12.6638 16.0547 10.268V8.39844C16.0547 5.05988 13.3386 2.34375 10 2.34375V17.6562H18.2031Z" fill="#FFB454"/>
<path d="M18.2032 8.98439C17.8796 8.98439 17.6172 8.72204 17.6172 8.39845C17.6172 6.3638 16.8249 4.45095 15.3862 3.01228C15.1574 2.78345 15.1574 2.41247 15.3862 2.18365C15.615 1.95482 15.986 1.95482 16.2149 2.18365C17.8749 3.84364 18.7891 6.05079 18.7891 8.39845C18.7891 8.72204 18.5268 8.98439 18.2032 8.98439Z" fill="#08475E"/>
<path d="M1.79688 8.98439C1.47328 8.98439 1.21094 8.72204 1.21094 8.39845C1.21094 6.05079 2.12516 3.84368 3.7852 2.18365C4.01398 1.95482 4.385 1.95482 4.61383 2.18365C4.84266 2.41247 4.84266 2.78345 4.61383 3.01228C3.17516 4.45099 2.38281 6.36384 2.38281 8.39845C2.38281 8.72204 2.12047 8.98439 1.79688 8.98439Z" fill="#0A789B"/>
</svg>
