<svg width="20" height="20" viewBox="0 0 20 20" fill="none" xmlns="http://www.w3.org/2000/svg">
<path fill-rule="evenodd" clip-rule="evenodd" d="M17.4995 3.75005C17.4985 3.41883 17.3665 3.10145 17.1323 2.86723C16.8982 2.633 16.5808 2.50096 16.2496 2.49994H14.9997C14.6685 2.50095 14.3511 2.63298 14.1169 2.86721C13.8827 3.10144 13.7507 3.41883 13.7497 3.75005V16.2499C13.7507 16.5812 13.8827 16.8985 14.1169 17.1327C14.3511 17.367 14.6685 17.499 14.9997 17.5001H16.2496C16.5808 17.499 16.8981 17.3669 17.1323 17.1327C17.3665 16.8985 17.4985 16.5811 17.4995 16.2499V3.75005ZM11.8749 7.50005C11.8748 7.16856 11.7431 6.85065 11.5087 6.61623C11.2744 6.38181 10.9565 6.25006 10.625 6.24994H9.37509C9.0436 6.25007 8.72573 6.38182 8.49135 6.61624C8.25697 6.85066 8.12527 7.16856 8.1252 7.50005V16.2499C8.12526 16.5814 8.25696 16.8993 8.49134 17.1338C8.72572 17.3682 9.0436 17.4999 9.37509 17.5001H10.625C10.9565 17.4999 11.2744 17.3682 11.5087 17.1338C11.7431 16.8993 11.8748 16.5814 11.8749 16.2499V7.50006V7.50005ZM6.25034 11.2501C6.25026 10.9186 6.11854 10.6007 5.88416 10.3663C5.64977 10.1319 5.33189 10.0001 5.0004 10.0001H3.7505C3.41903 10.0002 3.10116 10.1319 2.86678 10.3663C2.63239 10.6007 2.50069 10.9186 2.50061 11.2501V16.2499C2.50068 16.5814 2.63238 16.8993 2.86676 17.1337C3.10114 17.3682 3.41901 17.4999 3.7505 17.5H5.0004C5.3319 17.4999 5.64979 17.3682 5.88418 17.1338C6.11856 16.8993 6.25027 16.5814 6.25034 16.2499V11.2501Z" fill="url(#paint0_linear_1219_2063)"/>
<defs>
<linearGradient id="paint0_linear_1219_2063" x1="5.08692" y1="19.1537" x2="18.6444" y2="4.24" gradientUnits="userSpaceOnUse">
<stop stop-color="#3AE000"/>
<stop offset="0.444015" stop-color="#00E54C"/>
<stop offset="0.671815" stop-color="#20AA8F"/>
</linearGradient>
</defs>
</svg>
