<svg width="15" height="15" viewBox="0 0 15 15" fill="none" xmlns="http://www.w3.org/2000/svg">
<path d="M15 2.53128V5.20312C15 5.72089 14.5803 6.14062 14.0625 6.14062H11.3907C10.8729 6.14062 10.4532 5.72089 10.4532 5.20312C10.4532 4.68536 10.8729 4.26562 11.3907 4.26562H12.107C11.0718 2.78188 9.37521 1.875 7.5 1.875C5.16683 1.875 3.10992 3.2787 2.25979 5.45106C2.07105 5.93323 1.52719 6.17109 1.04508 5.98242C0.56291 5.79372 0.32502 5.24988 0.513721 4.76774C1.05744 3.3784 1.99459 2.19237 3.22386 1.33787C4.48295 0.462627 5.96159 0 7.5 0C9.03841 0 10.5171 0.462627 11.7761 1.33784C12.2764 1.6856 12.7283 2.08831 13.125 2.53726V2.53131C13.125 2.01355 13.5447 1.59381 14.0625 1.59381C14.5803 1.59381 15 2.01352 15 2.53128ZM13.9549 9.01761C13.4728 8.82888 12.9289 9.06683 12.7402 9.54896C11.8901 11.7213 9.83317 13.125 7.5 13.125C5.66464 13.125 4.00037 12.2562 2.95986 10.8281H3.60935C4.12711 10.8281 4.54685 10.4084 4.54685 9.89062C4.54685 9.37286 4.12711 8.95312 3.60935 8.95312H0.9375C0.419736 8.95312 0 9.37286 0 9.89062V12.5625C0 13.0803 0.419736 13.5 0.9375 13.5C1.45526 13.5 1.875 13.0803 1.875 12.5625V12.4628C2.27168 12.9117 2.72358 13.3144 3.22386 13.6622C4.48295 14.5374 5.96159 15 7.5 15C9.03841 15 10.5171 14.5374 11.7761 13.6622C13.0054 12.8077 13.9426 11.6216 14.4863 10.2323C14.675 9.75015 14.4371 9.20631 13.9549 9.01761Z" fill="url(#paint0_linear_1219_2066)"/>
<defs>
<linearGradient id="paint0_linear_1219_2066" x1="7.5" y1="-0.0820606" x2="7.5" y2="14.9179" gradientUnits="userSpaceOnUse">
<stop offset="0.0810811" stop-color="#C12224"/>
<stop offset="0.903475" stop-color="#F36363"/>
</linearGradient>
</defs>
</svg>
