<svg width="18" height="17" viewBox="0 0 18 17" fill="none" xmlns="http://www.w3.org/2000/svg">
<path d="M15.6845 0.5H2.31571C1.97633 0.500267 1.64432 0.599038 1.35997 0.784324C1.07563 0.96961 0.851184 1.23345 0.713869 1.54381C0.576554 1.85417 0.532277 2.19772 0.586412 2.53276C0.640546 2.8678 0.790765 3.17992 1.01884 3.43125L6.81259 9.80313V15.8125C6.81264 15.93 6.84579 16.045 6.90825 16.1445C6.97071 16.244 7.05994 16.3239 7.16571 16.375C7.25024 16.4167 7.34333 16.4381 7.43759 16.4375C7.57964 16.4374 7.71741 16.3889 7.82821 16.3L10.9532 13.8C11.0263 13.7415 11.0853 13.6673 11.1259 13.5829C11.1664 13.4985 11.1875 13.4061 11.1876 13.3125V9.80313L16.9813 3.43125C17.2094 3.17992 17.3596 2.8678 17.4138 2.53276C17.4679 2.19772 17.4236 1.85417 17.2863 1.54381C17.149 1.23345 16.9245 0.96961 16.6402 0.784324C16.3559 0.599038 16.0238 0.500267 15.6845 0.5Z" fill="#3CD4D0"/>
<path d="M17.4375 2.25312C17.4368 2.68883 17.2742 3.10873 16.9813 3.43125L11.1875 9.80313V13.3125C11.1874 13.4061 11.1663 13.4985 11.1258 13.5829C11.0852 13.6673 11.0262 13.7415 10.9531 13.8L9 15.3625V0.5H15.6844C16.1493 0.5 16.5952 0.684704 16.924 1.01348C17.2528 1.34225 17.4375 1.78817 17.4375 2.25312Z" fill="url(#paint0_linear_1149_978)"/>
<defs>
<linearGradient id="paint0_linear_1149_978" x1="17.5937" y1="7.93125" x2="8.975" y2="7.93125" gradientUnits="userSpaceOnUse">
<stop stop-color="#3CD4D0"/>
<stop offset="1" stop-color="#005A84"/>
</linearGradient>
</defs>
</svg>
