<svg width="100" height="100" viewBox="0 0 100 100" fill="none" xmlns="http://www.w3.org/2000/svg">
<g clip-path="url(#clip0_1654_1946)">
<path d="M81.4652 68.8436C80.1551 67.5449 78.0816 67.4547 76.66 68.5729L61.8596 53.8033L64.0996 51.5682L64.1033 51.5719L64.1035 51.5721C64.3875 51.8557 64.9004 52.3674 65.651 52.3674C65.7025 52.3674 66.5506 52.4381 67.2572 51.3426C67.2973 51.2805 69.3121 48.493 69.3121 48.493L75.6588 54.8262C76.1275 55.2867 76.7428 55.5176 77.3596 55.5176C77.9787 55.5176 78.5992 55.2848 79.074 54.8184L85.4408 48.4648C86.0135 47.8934 86.0145 46.9654 85.4432 46.3926C84.8713 45.8199 83.9441 45.8191 83.3711 46.3902L77.3623 52.3865L71.051 46.0887L76.3414 38.7746C78.1699 36.2424 78.1086 33.2537 76.1885 31.3377C74.2674 29.4207 71.2752 29.3598 68.7447 31.1856L61.4107 36.4625L55.1031 30.1682L71.7453 13.5606C72.0422 13.2641 72.2984 13.0078 72.5723 12.7877C75.4689 10.5106 82.4248 9.11719 92.4932 12.6828C93.9965 13.2176 94.3541 13.5742 94.885 15.068C98.4652 25.1197 97.0674 32.0547 94.7764 34.9469C94.5688 35.2127 94.327 35.4529 94.0471 35.7316L87.3705 42.3938C86.7979 42.9652 86.7967 43.8932 87.3682 44.466C87.6545 44.7527 88.0299 44.8963 88.4053 44.8963C88.7797 44.8963 89.1541 44.7535 89.44 44.4684L96.0072 37.9147L96.1129 37.8096C96.4332 37.491 96.7647 37.1615 97.0791 36.759C99.9609 33.1209 101.623 25.2537 97.6453 14.0857C96.8199 11.7633 95.8066 10.7516 93.473 9.9213C82.2932 5.96212 74.4105 7.61602 70.749 10.494C70.3395 10.8232 70.0014 11.1609 69.6744 11.4873L52.668 28.458C52.2074 28.9176 51.9553 29.5287 51.9576 30.1793C51.9602 30.827 52.2152 31.433 52.6678 31.8779L58.9998 38.1969C58.9998 38.1969 56.19 40.2166 56.1273 40.2598C55.7797 40.4988 55.1979 40.899 55.1262 41.7047C55.052 42.5418 55.6201 43.1037 55.9203 43.4004L56.1037 43.5836L53.8633 45.8188L40.1719 32.1607L40.5803 31.7529C41.4279 30.9209 41.1568 29.8977 41.0549 29.5125C41.0381 29.4486 41.0146 29.3609 41.0121 29.3414L40.5094 24.2205C40.4016 23.2109 39.9234 22.7588 39.484 22.4143C39.4316 22.3732 39.3854 22.3356 39.3398 22.2961C46.2621 15.9619 53.5869 9.83672 61.1457 4.07618C61.2229 4.017 61.291 3.96524 61.3508 3.92032C61.7045 3.65313 62.5326 3.02774 62.1623 1.9793C61.7926 0.932818 60.7178 0.969146 60.3654 0.979498C60.2691 0.982818 60.1518 0.986529 60.01 0.988287C48.3459 1.14981 37.0647 4.56055 27.3283 10.857C26.5822 10.7016 25.775 10.9094 25.2008 11.4826L24.2014 12.4801L22.6045 10.8898C20.5824 8.86426 17.2869 8.86348 15.258 10.8877L9.98301 16.1518C9.00117 17.1316 8.46113 18.4371 8.4625 19.8281C8.46387 21.2162 9.00449 22.5176 9.98203 23.4893L11.574 25.0813L10.5793 26.0738C10.1348 26.5172 9.89141 27.1068 9.89395 27.7342C9.89453 27.8955 9.91231 28.0541 9.94453 28.208C3.8418 37.607 0.434572 48.4805 0.0839856 59.7131C0.0738293 60.0574 0.0496106 60.3555 0.0283215 60.6186C-0.0259754 61.2895 -0.116796 62.4127 0.988478 62.8389C1.19121 62.917 1.38047 62.952 1.55781 62.952C2.37481 62.9518 2.94375 62.2113 3.45664 61.5438C9.15625 54.1209 15.1898 46.9422 21.4057 40.1846C21.4426 40.2281 21.4785 40.2732 21.5184 40.3246C21.866 40.7727 22.3234 41.2594 23.351 41.3594L28.476 41.8658C28.507 41.8695 28.5938 41.892 28.657 41.9084C28.8238 41.9518 29.1125 42.0268 29.4543 42.0268C29.8861 42.0268 30.4027 41.9072 30.8656 41.4531C30.8686 41.45 30.8717 41.4473 30.8746 41.4441L31.2961 41.0232L44.9813 54.6797L39.082 60.5649C38.5092 61.1363 38.508 62.0641 39.0793 62.6369C39.6508 63.2096 40.5783 63.2111 41.1512 62.6395L48.0566 55.7508C48.0689 55.7393 48.0822 55.7289 48.0943 55.7168C48.1053 55.7057 48.1148 55.6938 48.1254 55.6824L54.8857 48.9385C54.8908 48.9334 54.8965 48.9293 54.9016 48.9242C54.9061 48.9197 54.91 48.9147 54.9145 48.91L58.1762 45.6563L60.068 47.5424L62.0264 49.4981L58.7498 52.7678C58.7494 52.7682 58.7488 52.7686 58.7484 52.769C58.748 52.7693 58.7477 52.7697 58.7473 52.7701L36.6793 74.7908L34.6959 72.8135L32.8291 70.9494L37.1963 66.5912C37.7689 66.0197 37.7701 65.0918 37.1986 64.519C36.6272 63.9465 35.6996 63.9453 35.1268 64.5166L30.7555 68.8789L30.6125 68.7361C30.6125 68.7361 30.6125 68.7359 30.6123 68.7359C29.9287 68.0537 29.0189 67.6783 28.0494 67.6783C28.0475 67.6783 28.0453 67.6783 28.0432 67.6783C27.0742 67.6799 26.1664 68.0568 25.4902 68.7357L11.4365 82.76C9.65039 84.5424 8.6668 86.9193 8.6668 89.4531C8.6668 91.9869 9.65039 94.3639 11.4365 96.1463C13.2836 97.9895 15.71 98.9111 18.1361 98.9111C20.5623 98.9111 22.9887 97.9895 24.8357 96.1463L34.84 86.1629C34.8406 86.1623 34.8414 86.1617 34.842 86.1611C34.8426 86.1606 34.843 86.16 34.8436 86.1594L38.8895 82.1221C39.5754 81.4377 39.9521 80.5256 39.9506 79.5537C39.949 78.5848 39.5709 77.677 38.8898 77.0018L38.7508 76.8629L52.9834 62.6602L67.7822 77.4328C66.6658 78.8508 66.7574 80.9209 68.0633 82.233L82.1172 96.2574C83.965 98.1014 86.3924 99.0232 88.8195 99.0232C91.2469 99.0232 93.6742 98.1012 95.5223 96.2574C97.3057 94.4777 98.2877 92.1018 98.2877 89.567C98.2877 87.0324 97.3057 84.6564 95.5225 82.877L81.4652 68.8436ZM37.2588 20.2272L29.7836 12.768C37.8105 7.77305 46.8951 4.80665 56.3371 4.08536C49.7451 9.23458 43.3473 14.6508 37.2588 20.2272V20.2272ZM12.0506 21.4139C11.6268 20.9926 11.393 20.4285 11.3926 19.8252C11.392 19.2195 11.6264 18.6516 12.0527 18.2264L17.3277 12.9623C18.2133 12.0787 19.6504 12.0781 20.5344 12.9633L22.1275 14.5496L13.6482 23.0113L12.0506 21.4139ZM3.15527 57.1531C3.87559 47.7363 6.85703 38.6557 11.8611 30.6506L19.3371 38.1107C13.7627 44.1658 8.33184 50.5525 3.15527 57.1531ZM29.1605 39.0148C29.0406 38.9881 28.9047 38.9629 28.7582 38.9492L23.7775 38.457C23.685 38.3391 23.5635 38.1908 23.3934 38.0191L13.075 27.7227L26.8482 13.9783L37.165 24.2734C37.3359 24.4457 37.4916 24.5742 37.6092 24.6678L38.0971 29.6389C38.1121 29.7809 38.1367 29.9111 38.1629 30.026L29.1605 39.0148ZM33.3697 38.9529L38.0982 34.2315L51.7887 47.8885L47.0557 52.6104L33.3697 38.9529ZM70.457 33.5635C71.4777 32.827 73.0494 32.3453 74.1189 33.4123C75.183 34.474 74.7016 36.0404 73.9668 37.0582L65.4738 48.7996L65.1863 48.5125C65.1697 48.4941 65.1541 48.4752 65.1365 48.4578L62.0816 45.4123L58.6928 42.0281L70.457 33.5635ZM22.7668 94.0717C20.2137 96.6193 16.0596 96.6193 13.5064 94.0717C12.2752 92.843 11.5973 91.2029 11.5973 89.4531C11.5973 87.7033 12.2754 86.0631 13.5064 84.8346L22.4756 75.8842L31.7318 85.1256L22.7668 94.0717ZM36.8203 80.0477L33.8057 83.0559L24.5494 73.8145L27.5633 70.8068C27.7346 70.635 27.9404 70.609 28.048 70.6088H28.0492C28.1588 70.6088 28.3674 70.6352 28.543 70.8102L29.6711 71.9365C29.6871 71.9541 29.702 71.9723 29.7189 71.9891L32.74 75.001L36.8238 79.0789C36.9949 79.2486 37.0207 79.4522 37.0209 79.5582C37.0211 79.6662 36.9953 79.8731 36.8203 80.0477ZM59.7852 55.8733L74.5664 70.6234L69.8369 75.3432L55.0582 60.5904L59.7852 55.8733ZM70.1352 79.1852L70.8156 78.5063C70.8359 78.4879 70.8568 78.4707 70.8766 78.4512C70.8945 78.4332 70.9104 78.4137 70.9272 78.3949L77.6746 71.6615C77.6756 71.6606 77.6768 71.6596 77.6777 71.6586C77.6787 71.6576 77.6795 71.6566 77.6803 71.6557L78.4127 70.9248C78.6811 70.659 79.1344 70.6588 79.3988 70.9211L82.4113 73.9285L73.1508 83.1697L70.1367 80.1621C69.8686 79.8928 69.8682 79.4551 70.1352 79.1852ZM93.4531 94.183C90.8988 96.7322 86.7418 96.7326 84.1871 94.183L75.2252 85.2399L84.4854 75.999L93.4529 84.9514C94.6816 86.1772 95.358 87.8164 95.358 89.567C95.358 91.3178 94.6816 92.9572 93.4531 94.183V94.183Z" fill="black" fill-opacity="0.45"/>
</g>
<defs>
<clipPath id="clip0_1654_1946">
<rect width="100" height="100" fill="white"/>
</clipPath>
</defs>
</svg>
