<svg width="21" height="21" viewBox="0 0 21 21" fill="none" xmlns="http://www.w3.org/2000/svg">
<path d="M3.79218 8.63245L5.33353 20.3478C5.37865 20.6905 5.67074 20.9468 6.01655 20.9468H13.7636C14.1094 20.9468 14.4015 20.6905 14.4466 20.3478L15.6367 11.3025L16.09 7.85815H4.56647L3.79218 8.63245Z" fill="#FF5757"/>
<path d="M9.20123 10.6137V18.1913C9.20123 18.5719 9.5095 18.8802 9.89011 18.8802C10.2707 18.8802 10.579 18.5719 10.579 18.1913V10.6137C10.579 10.2331 10.2707 9.9248 9.89011 9.9248C9.5095 9.9248 9.20123 10.2331 9.20123 10.6137Z" fill="#F2F8FF"/>
<path d="M6.44568 10.6137V18.1913C6.44568 18.5719 6.75395 18.8802 7.13455 18.8802C7.51516 18.8802 7.82343 18.5719 7.82343 18.1913V10.6137C7.82343 10.2331 7.51516 9.9248 7.13455 9.9248C6.75395 9.9248 6.44568 10.2331 6.44568 10.6137Z" fill="#F2F8FF"/>
<path d="M11.9567 10.6137V18.1913C11.9567 18.5719 12.265 18.8802 12.6456 18.8802C13.0262 18.8802 13.3345 18.5719 13.3345 18.1913V10.6137C13.3345 10.2331 13.0262 9.9248 12.6456 9.9248C12.265 9.9248 11.9567 10.2331 11.9567 10.6137Z" fill="#F2F8FF"/>
<path d="M9.20123 5.79157L10.579 6.48044H12.3012L11.6123 4.75826L10.2345 4.41382L9.20123 5.79157Z" fill="#FF3737"/>
<path d="M15.4011 3.38049L13.6789 3.72493V4.4138L14.0233 5.79155L16.7788 5.44712L15.7455 4.06937L15.4011 3.38049Z" fill="#FF3737"/>
<path d="M9.26046 1.21604C8.99145 0.947031 8.55539 0.947031 8.28639 1.21604L0.492464 9.00961C0.223459 9.27862 0.223459 9.71468 0.492464 9.98368L1.46653 10.9581L10.2345 2.1901L9.26046 1.21604Z" fill="#FF5757"/>
<path opacity="0.12" d="M14.4466 20.3478L14.5813 19.3238C10.1608 17.7714 7.11117 13.4466 7.38362 8.54117L7.42151 7.85815H4.56647L3.79218 8.63245L5.33353 20.3478C5.37865 20.6905 5.67074 20.9468 6.01655 20.9468H13.7636C14.1094 20.9468 14.4015 20.6905 14.4466 20.3478V20.3478Z" fill="#303030"/>
<path opacity="0.12" d="M8.1779 3.02605L0.856201 10.3478L1.46654 10.9581L10.2345 2.1901L9.26047 1.21604C8.99146 0.947031 8.5554 0.947031 8.2864 1.21604L8.17825 1.32419C8.64806 1.794 8.64806 2.5559 8.1779 3.02605Z" fill="#303030"/>
<path opacity="0.12" d="M15.7455 4.06937L15.4011 3.38049L14.7749 3.50587L15.0566 4.06937L16.09 5.44712L14.0023 5.7082L14.0233 5.79155L16.7788 5.44712L15.7455 4.06937Z" fill="#303030"/>
<path opacity="0.12" d="M10.9234 5.10269L11.4745 6.48044H12.3012L11.6123 4.75826L10.2346 4.41382L9.90839 4.84884L10.9234 5.10269Z" fill="#303030"/>
<path d="M2.441 7.06111L1.71045 6.33056C1.30746 5.92791 1.30746 5.2721 1.71045 4.86911L4.14596 2.4336C4.54861 2.03061 5.20407 2.03026 5.60741 2.4336L6.33796 3.16415L5.85093 3.65118L5.12037 2.92063C4.98604 2.7863 4.76733 2.78665 4.633 2.92063L2.19748 5.35615C2.06315 5.49048 2.06315 5.70885 2.19748 5.84353L2.92803 6.57408L2.441 7.06111Z" fill="#FF5757"/>
<path d="M14.0233 0.625H14.7122V1.31387H14.0233V0.625Z" fill="#FF3737"/>
<path d="M17.4752 3.3092L17.0554 2.76293C17.974 2.05683 19.1526 1.78197 20.2907 2.0093L20.1556 2.68474C19.2139 2.49702 18.2368 2.72435 17.4752 3.3092V3.3092Z" fill="#FF3737"/>
<path d="M18.501 4.06934H19.1899V4.75821H18.501V4.06934Z" fill="#FF3737"/>
<path d="M16.0899 2.34719H15.4011C15.4011 1.39757 16.1736 0.625 17.1232 0.625V1.31387C16.5535 1.31387 16.0899 1.77749 16.0899 2.34719Z" fill="#FF3737"/>
</svg>
