<svg width="15" height="10" viewBox="0 0 15 10" fill="none" xmlns="http://www.w3.org/2000/svg">
<path d="M4.31456 0.907524C4.39693 1.25797 4.47427 1.59235 4.55262 1.92674C4.75353 2.78093 4.95443 3.6358 5.15533 4.49133C5.15962 4.5461 5.17834 4.59876 5.20957 4.64396C5.25757 4.70008 5.32504 4.73596 5.39842 4.74438C5.44563 4.73936 5.51695 4.64396 5.51796 4.58773C5.51674 4.40803 5.50399 4.22858 5.47979 4.05051C5.34585 2.91248 5.20656 1.77444 5.06191 0.636404C5.04885 0.535989 5.08301 0.505864 5.16236 0.473731C5.90093 0.161098 6.6948 0 7.49685 0C8.2989 0 9.09277 0.161098 9.83134 0.473731C9.84996 0.478214 9.86746 0.48648 9.88275 0.498013C9.89804 0.509546 9.91079 0.5241 9.92021 0.540771C9.92964 0.557441 9.93552 0.575872 9.93752 0.594915C9.93951 0.613959 9.93756 0.633208 9.93179 0.651466C9.81125 1.6121 9.69405 2.57341 9.58021 3.53538C9.5407 3.86274 9.50487 4.19042 9.47273 4.51845C9.46168 4.62689 9.47273 4.74036 9.61035 4.76145C9.74796 4.78254 9.79317 4.68011 9.81828 4.57267C9.98704 3.86843 10.1545 3.16552 10.3205 2.46396C10.433 1.98297 10.5425 1.50198 10.655 1.01999C10.6621 0.991872 10.6751 0.964761 10.6882 0.927607C11.1593 1.21611 11.5891 1.56707 11.9659 1.97092C13.0543 3.11772 13.7492 4.58116 13.9498 6.14918C13.978 6.35704 13.983 6.56791 14.0111 6.77477C14.0227 6.84537 14.0582 6.90986 14.1116 6.95752C14.3356 7.14028 14.5686 7.31299 14.7987 7.48972C15.0287 7.66645 15.0608 7.82009 14.8991 8.06912C14.6651 8.43965 14.3195 8.68567 13.9448 8.89252C13.2015 9.30322 12.3939 9.52413 11.5661 9.67777C9.98603 9.96997 8.38986 10.0252 6.78766 9.99106C5.84797 9.97877 4.91009 9.90497 3.98005 9.77015C2.96449 9.6145 1.97103 9.39259 1.05491 8.89252C0.693286 8.69169 0.358782 8.45873 0.12473 8.10728C-0.066127 7.82109 -0.0420187 7.6785 0.225182 7.47165C0.446174 7.30094 0.67219 7.13425 0.888161 6.95652C0.941668 6.91006 0.975735 6.84518 0.983591 6.77477C1.09911 4.81567 1.84747 3.13975 3.24274 1.76005C3.49718 1.52732 3.76339 1.30779 4.04032 1.10233C4.11968 1.02702 4.21109 0.975806 4.31456 0.907524Z" fill="#B08D57"/>
</svg>
