<svg width="20" height="20" viewBox="0 0 20 20" fill="none" xmlns="http://www.w3.org/2000/svg">
<path fill-rule="evenodd" clip-rule="evenodd" d="M10.7407 10.2295C13.2977 10.2295 15.3696 12.3014 15.3696 14.8584C15.3696 17.4154 13.2977 19.4873 10.7407 19.4873C8.18376 19.4873 6.11182 17.4154 6.11182 14.8584C6.11182 12.3014 8.18376 10.2295 10.7407 10.2295Z" fill="#FFED33"/>
<path fill-rule="evenodd" clip-rule="evenodd" d="M10.8368 11.6292C12.6808 11.6292 14.175 13.1234 14.175 14.9675C14.175 16.8115 12.6808 18.3057 10.8368 18.3057C8.99268 18.3057 7.49854 16.8115 7.49854 14.9675C7.49854 13.1234 8.99268 11.6292 10.8368 11.6292Z" fill="#EA9901"/>
<path fill-rule="evenodd" clip-rule="evenodd" d="M10.9198 10.2327C11.2209 10.2441 11.5155 10.2848 11.8003 10.3516L11.6457 10.9294C11.4113 10.8757 11.1688 10.8415 10.9198 10.8317V10.2327ZM10.7407 11.5186C12.5848 11.5186 14.0789 13.0127 14.0789 14.8568C14.0789 16.7008 12.5848 18.195 10.7407 18.195C8.89665 18.195 7.40251 16.7008 7.40251 14.8568C7.40251 13.0127 8.89665 11.5186 10.7407 11.5186ZM12.1453 10.446C12.4302 10.5355 12.702 10.6527 12.9591 10.7943L12.6597 11.3119C12.4465 11.1963 12.2235 11.1003 11.9891 11.0238L12.1453 10.446ZM13.2668 10.9782C13.5142 11.1393 13.7437 11.3232 13.9552 11.5283L13.5321 11.9515C13.3579 11.7839 13.1691 11.6325 12.9673 11.4974L13.2668 10.9782ZM14.2043 11.7871C14.398 12.0052 14.5705 12.2412 14.7202 12.4919L14.2026 12.7913C14.0789 12.5846 13.9373 12.391 13.7811 12.2103L14.2043 11.7871ZM14.8911 12.8076C15.0181 13.0648 15.1222 13.335 15.2004 13.6165L14.6226 13.7712C14.5575 13.5417 14.4744 13.3187 14.3719 13.1071L14.8911 12.8076ZM15.2834 13.9648C15.3371 14.2415 15.3664 14.5264 15.3696 14.8177H14.7707C14.769 14.5801 14.7463 14.3473 14.7039 14.1211L15.2834 13.9648ZM15.3582 15.1758C15.3387 15.4622 15.2931 15.7422 15.2248 16.0124L14.647 15.8577C14.7039 15.638 14.7414 15.4102 14.7593 15.1758H15.3582ZM15.1206 16.3558C15.0295 16.6227 14.9139 16.8783 14.7788 17.1208L14.2612 16.8213C14.3719 16.6244 14.4663 16.416 14.5428 16.1995L15.1206 16.3558ZM14.5916 17.4268C14.437 17.6579 14.2629 17.8744 14.0708 18.0729L13.6476 17.6497C13.8039 17.4886 13.9455 17.3128 14.0724 17.1273L14.5916 17.4268ZM13.812 18.3203C13.6069 18.5026 13.3856 18.667 13.1496 18.8102L12.8501 18.291C13.0405 18.1738 13.2196 18.042 13.3872 17.8955L13.812 18.3203ZM12.8371 18.986C12.5946 19.1097 12.3407 19.2106 12.077 19.2904L11.9224 18.7126C12.1356 18.6475 12.3407 18.5645 12.5376 18.4668L12.8371 18.986ZM11.7303 19.3799C11.4683 19.4369 11.1965 19.471 10.9198 19.4824V18.8835C11.1427 18.8737 11.3625 18.846 11.5741 18.8005L11.7303 19.3799ZM10.5617 19.4824C10.285 19.4727 10.0148 19.4369 9.75114 19.3799L9.90576 18.8021C10.119 18.846 10.3371 18.8753 10.5601 18.8851V19.4824H10.5617ZM9.40446 19.2904C9.14079 19.2106 8.88688 19.1081 8.64437 18.986L8.94385 18.4668C9.14079 18.5645 9.34587 18.6475 9.55908 18.7126L9.40446 19.2904ZM8.33187 18.8102C8.09587 18.667 7.87451 18.5026 7.66943 18.3203L8.09261 17.8971C8.26025 18.0436 8.43929 18.1755 8.62972 18.2926L8.33187 18.8102ZM7.41064 18.0729C7.21859 17.8744 7.04443 17.6579 6.88981 17.4268L7.40902 17.1273C7.53597 17.3128 7.67757 17.4886 7.83382 17.6497L7.41064 18.0729ZM6.70264 17.1208C6.56592 16.8783 6.45199 16.6227 6.36084 16.3558L6.94027 16.1995C7.01676 16.416 7.11117 16.6244 7.22184 16.8213L6.70264 17.1208ZM6.25667 16.0124C6.18669 15.7422 6.14274 15.4622 6.12321 15.1758H6.72217C6.74007 15.4085 6.77913 15.6364 6.83447 15.8577L6.25667 16.0124ZM6.11182 14.8177C6.11507 14.5264 6.14437 14.2415 6.19808 13.9648L6.77751 14.1195C6.73519 14.3457 6.7124 14.5785 6.71077 14.8161H6.11182V14.8177ZM6.28109 13.6165C6.35921 13.335 6.46338 13.0648 6.59033 12.8076L7.10954 13.1071C7.007 13.3187 6.92236 13.5417 6.85889 13.7712L6.28109 13.6165ZM6.76123 12.4919C6.91097 12.2412 7.0835 12.0036 7.27718 11.7871L7.70036 12.2103C7.54248 12.391 7.40251 12.5846 7.27881 12.7913L6.76123 12.4919ZM7.5262 11.5283C7.73779 11.3249 7.96729 11.141 8.21468 10.9782L8.51416 11.4974C8.31234 11.6309 8.12354 11.7839 7.94938 11.9515L7.5262 11.5283ZM8.52067 10.7943C8.77783 10.6527 9.05127 10.5355 9.33447 10.446L9.4891 11.0238C9.25635 11.1003 9.03174 11.1963 8.81852 11.3119L8.52067 10.7943ZM9.68115 10.3516C9.96598 10.2848 10.259 10.2441 10.5617 10.2327V10.8317C10.3127 10.8431 10.0702 10.8757 9.83578 10.9294L9.68115 10.3516Z" fill="#FAC900"/>
<path d="M10.2897 14.1341L9.35221 13.9665C9.43034 13.6686 9.57845 13.4391 9.80143 13.2796C10.0228 13.1217 10.3353 13.042 10.7406 13.042C11.2061 13.042 11.5413 13.1283 11.7497 13.3024C11.9564 13.4766 12.0605 13.6947 12.0605 13.9567C12.0605 14.1113 12.0182 14.2497 11.9336 14.375C11.849 14.5003 11.7236 14.6094 11.5544 14.7038C11.6927 14.738 11.7985 14.7786 11.8701 14.8226C11.9889 14.8958 12.0801 14.9919 12.1468 15.1107C12.2119 15.2295 12.2461 15.3727 12.2461 15.5371C12.2461 15.7454 12.1924 15.944 12.0833 16.1361C11.9743 16.3265 11.818 16.473 11.6146 16.5771C11.4111 16.6813 11.141 16.7318 10.8089 16.7318C10.485 16.7318 10.2295 16.6943 10.0423 16.6178C9.85514 16.5413 9.70052 16.4307 9.58008 16.2826C9.45964 16.1361 9.36686 15.9505 9.30176 15.7275L10.2946 15.5957C10.3337 15.7959 10.3939 15.9359 10.4753 16.0124C10.5566 16.0889 10.6608 16.1279 10.7878 16.1279C10.9196 16.1279 11.0303 16.0791 11.1198 15.9814C11.2077 15.8838 11.2516 15.7552 11.2516 15.5924C11.2516 15.4264 11.2093 15.2995 11.1247 15.2083C11.04 15.1172 10.9245 15.0716 10.7796 15.0716C10.7015 15.0716 10.5957 15.0911 10.459 15.1302L10.5111 14.4206C10.5648 14.4287 10.6071 14.4336 10.638 14.4336C10.7666 14.4336 10.874 14.3929 10.9587 14.3099C11.0449 14.2269 11.0872 14.1309 11.0872 14.0169C11.0872 13.9079 11.0547 13.8216 10.9912 13.7581C10.9261 13.693 10.8382 13.6605 10.7259 13.6605C10.6104 13.6605 10.516 13.6947 10.4427 13.7663C10.3646 13.8363 10.3158 13.96 10.2897 14.1341Z" fill="#EA9901"/>
<path d="M10.1188 14.0251L9.18132 13.8574C9.25944 13.5596 9.40755 13.3301 9.63053 13.1706C9.85189 13.0127 10.1644 12.9329 10.5697 12.9329C11.0352 12.9329 11.3704 13.0192 11.5788 13.1934C11.7855 13.3675 11.8896 13.5856 11.8896 13.8477C11.8896 14.0023 11.8473 14.1406 11.7627 14.266C11.6781 14.3913 11.5527 14.5003 11.3835 14.5947C11.5218 14.6289 11.6276 14.6696 11.6992 14.7135C11.818 14.7868 11.9092 14.8828 11.9759 15.0016C12.041 15.1204 12.0752 15.2637 12.0752 15.4281C12.0752 15.6364 12.0215 15.835 11.9124 16.027C11.8034 16.2175 11.6471 16.3639 11.4437 16.4681C11.2402 16.5723 10.9717 16.6227 10.638 16.6227C10.3141 16.6227 10.0586 16.5853 9.87142 16.5088C9.68425 16.4323 9.52962 16.3216 9.40918 16.1735C9.28874 16.027 9.19596 15.8415 9.13086 15.6185L10.1237 15.4867C10.1628 15.6869 10.223 15.8268 10.3044 15.9033C10.3857 15.9798 10.4899 16.0189 10.6169 16.0189C10.7487 16.0189 10.8594 15.9701 10.9489 15.8724C11.0368 15.7747 11.0807 15.6462 11.0807 15.4834C11.0807 15.3174 11.0384 15.1904 10.9538 15.0993C10.8691 15.0081 10.7536 14.9626 10.6071 14.9626C10.5306 14.9626 10.4232 14.9821 10.2881 15.0212L10.3402 14.3115C10.3939 14.3197 10.4362 14.3245 10.4671 14.3245C10.5957 14.3245 10.7031 14.2839 10.7878 14.2008C10.874 14.1178 10.9163 14.0218 10.9163 13.9079C10.9163 13.7988 10.8838 13.7126 10.8203 13.6491C10.7552 13.584 10.6657 13.5514 10.555 13.5514C10.4395 13.5514 10.3451 13.5856 10.2718 13.6572C10.1937 13.7272 10.1449 13.8493 10.1188 14.0251Z" fill="#FFED33"/>
<path fill-rule="evenodd" clip-rule="evenodd" d="M14.7769 2.889C17.661 2.889 19.9998 5.22786 19.9998 8.11361C19.9998 10.9993 17.661 13.3382 14.7769 13.3382C11.8911 13.3382 9.55225 10.9993 9.55225 8.11361C9.55225 5.22786 11.8911 2.889 14.7769 2.889Z" fill="#FFED33"/>
<path fill-rule="evenodd" clip-rule="evenodd" d="M14.8846 4.4694C16.9647 4.4694 18.6525 6.1556 18.6525 8.23731C18.6525 10.319 16.9647 12.0052 14.8846 12.0052C12.8029 12.0052 11.1167 10.319 11.1167 8.23731C11.1167 6.15723 12.8045 4.4694 14.8846 4.4694Z" fill="#EA9901"/>
<path fill-rule="evenodd" clip-rule="evenodd" d="M14.9787 2.89388C15.3188 2.9069 15.6509 2.95247 15.9715 3.02734L15.7974 3.68001C15.5321 3.61979 15.2586 3.58236 14.9787 3.56933V2.89388ZM14.7769 4.3457C16.8569 4.3457 18.5448 6.0319 18.5448 8.11361C18.5448 10.1953 16.8569 11.8815 14.7769 11.8815C12.6952 11.8815 11.009 10.1937 11.009 8.11361C11.009 6.0319 12.6952 4.3457 14.7769 4.3457ZM16.3621 3.13476C16.6828 3.2373 16.9904 3.36914 17.2817 3.52864L16.9432 4.11295C16.7039 3.98275 16.45 3.8737 16.1864 3.78743L16.3621 3.13476ZM17.6268 3.73535C17.9051 3.91764 18.1655 4.12435 18.4048 4.35547L17.9279 4.83236C17.731 4.64355 17.5177 4.47265 17.2899 4.32129L17.6268 3.73535ZM18.6847 4.64844C18.9028 4.8942 19.0981 5.16113 19.2674 5.44433L18.6831 5.78125C18.5431 5.5485 18.3853 5.32877 18.2078 5.12532L18.6847 4.64844ZM19.4595 5.79915C19.6027 6.08887 19.7199 6.39486 19.8094 6.71224L19.1567 6.88639C19.0835 6.62598 18.9891 6.37532 18.8735 6.13769L19.4595 5.79915ZM19.9022 7.10612C19.964 7.41699 19.9966 7.73926 19.9998 8.06803H19.3244C19.3211 7.79948 19.2967 7.53581 19.2495 7.2819L19.9022 7.10612ZM19.9868 8.47168C19.9657 8.79557 19.9136 9.11133 19.8355 9.41569L19.1828 9.24154C19.2463 8.99251 19.2886 8.73535 19.3097 8.47168H19.9868ZM19.7199 9.80469C19.6174 10.1058 19.4871 10.3955 19.3325 10.6673L18.7482 10.3304C18.8735 10.1074 18.9793 9.87305 19.0656 9.6289L19.7199 9.80469ZM19.1209 11.0124C18.9468 11.2728 18.7498 11.5169 18.5334 11.7415L18.0565 11.2646C18.2323 11.0824 18.3918 10.8838 18.5366 10.6738L19.1209 11.0124ZM18.242 12.0215C18.0109 12.2266 17.7603 12.4121 17.495 12.5749L17.1564 11.9906C17.3713 11.8587 17.5747 11.709 17.7635 11.5446L18.242 12.0215ZM17.1418 12.7718C16.8683 12.9102 16.5819 13.0257 16.284 13.1152L16.1099 12.4626C16.3507 12.3893 16.5819 12.2965 16.8049 12.1859L17.1418 12.7718ZM15.8918 13.2178C15.5955 13.2829 15.2896 13.3219 14.9771 13.3333V12.6579C15.2293 12.6465 15.4767 12.6156 15.716 12.5651L15.8918 13.2178ZM14.5734 13.3333C14.2609 13.3219 13.9549 13.2829 13.6587 13.2178L13.8345 12.5651C14.0737 12.6156 14.3211 12.6465 14.5734 12.6579V13.3333ZM13.2681 13.1169C12.9702 13.0273 12.6838 12.9118 12.4103 12.7734L12.7489 12.1875C12.9702 12.2982 13.203 12.391 13.4438 12.4642L13.2681 13.1169ZM12.0571 12.5749C11.7918 12.4121 11.5412 12.2282 11.3101 12.0215L11.7886 11.543C11.9774 11.7074 12.1808 11.8571 12.3957 11.9889L12.0571 12.5749ZM11.0187 11.7415C10.8022 11.5169 10.6053 11.2728 10.4312 11.0124L11.0171 10.6738C11.1603 10.8838 11.3215 11.0807 11.4972 11.2646L11.0187 11.7415ZM10.2179 10.6673C10.0649 10.3939 9.93473 10.1042 9.83219 9.80469L10.4865 9.6289C10.5728 9.87305 10.6785 10.1074 10.8039 10.3304L10.2179 10.6673ZM9.71663 9.41732C9.63851 9.11296 9.58643 8.7972 9.56527 8.47331H10.2424C10.2635 8.73698 10.3058 8.99414 10.3693 9.24316L9.71663 9.41732ZM9.55225 8.06803C9.5555 7.73926 9.58805 7.41699 9.6499 7.10612L10.3042 7.2819C10.257 7.53743 10.231 7.79948 10.2293 8.06803H9.55225ZM9.74268 6.71224C9.83057 6.39486 9.94775 6.08887 10.0926 5.79915L10.6785 6.13769C10.563 6.37695 10.4686 6.6276 10.3953 6.88639L9.74268 6.71224ZM10.2847 5.44433C10.4539 5.16113 10.6493 4.8942 10.8673 4.64844L11.3459 5.12695C11.1685 5.3304 11.009 5.55013 10.869 5.78288L10.2847 5.44433ZM11.1473 4.35547C11.3849 4.12435 11.6453 3.91764 11.9237 3.73535L12.2622 4.32129C12.0343 4.47265 11.8211 4.64355 11.6242 4.83236L11.1473 4.35547ZM12.272 3.52864C12.5633 3.36914 12.8693 3.2373 13.1916 3.13476L13.3657 3.78743C13.1021 3.8737 12.8498 3.98275 12.6089 4.11295L12.272 3.52864ZM13.5806 3.02734C13.9012 2.95247 14.2332 2.9069 14.5734 2.89388V3.56933C14.2935 3.58236 14.02 3.61816 13.7547 3.68001L13.5806 3.02734Z" fill="#FAC900"/>
<path fill-rule="evenodd" clip-rule="evenodd" d="M14.9792 2.89388C15.3193 2.9069 15.6514 2.95247 15.972 3.02734L15.7979 3.68001C15.5326 3.61979 15.2591 3.58235 14.9792 3.56933V2.89388ZM14.7773 4.3457C16.8574 4.3457 18.5452 6.0319 18.5452 8.1136C18.5452 10.1953 16.8574 11.8815 14.7773 11.8815C12.6956 11.8815 11.0094 10.1937 11.0094 8.1136C11.0094 6.0319 12.6956 4.3457 14.7773 4.3457ZM16.3626 3.13476C16.6833 3.2373 16.9909 3.36914 17.2822 3.52864L16.9437 4.11295C16.7044 3.98274 16.4505 3.87369 16.1868 3.78743L16.3626 3.13476ZM17.6273 3.73535C17.9056 3.91764 18.166 4.12434 18.4053 4.35546L17.9284 4.83235C17.7314 4.64355 17.5182 4.47265 17.2904 4.32128L17.6273 3.73535ZM18.6852 4.64843C18.9033 4.8942 19.0986 5.16113 19.2679 5.44433L18.6836 5.78124C18.5436 5.5485 18.3857 5.32877 18.2083 5.12532L18.6852 4.64843ZM19.46 5.79915C19.6032 6.08886 19.7204 6.39485 19.8099 6.71223L19.1572 6.88639C19.084 6.62597 18.9896 6.37532 18.874 6.13769L19.46 5.79915ZM19.9027 7.10611C19.9645 7.41699 19.9971 7.73925 20.0003 8.06803H19.3249C19.3216 7.79947 19.2972 7.5358 19.25 7.2819L19.9027 7.10611ZM19.9873 8.47167C19.9661 8.79557 19.9141 9.11132 19.8359 9.41569L19.1833 9.24153C19.2467 8.99251 19.2891 8.73535 19.3102 8.47167H19.9873ZM19.7204 9.80468C19.6178 10.1058 19.4876 10.3955 19.333 10.6673L18.7487 10.3304C18.874 10.1074 18.9798 9.87304 19.0661 9.6289L19.7204 9.80468ZM19.1214 11.0124C18.9473 11.2728 18.7503 11.5169 18.5339 11.7415L18.057 11.2646C18.2327 11.0824 18.3923 10.8838 18.5371 10.6738L19.1214 11.0124ZM18.2425 12.0215C18.0114 12.2266 17.7607 12.4121 17.4954 12.5749L17.1569 11.9906C17.3717 11.8587 17.5752 11.709 17.764 11.5446L18.2425 12.0215ZM17.1423 12.7718C16.8688 12.9102 16.5824 13.0257 16.2845 13.1152L16.1104 12.4626C16.3512 12.3893 16.5824 12.2965 16.8053 12.1859L17.1423 12.7718ZM15.8923 13.2178C15.596 13.2829 15.29 13.3219 14.9775 13.3333V12.6579C15.2298 12.6465 15.4772 12.6156 15.7165 12.5651L15.8923 13.2178ZM14.5739 13.3333C14.2614 13.3219 13.9554 13.2829 13.6592 13.2178L13.835 12.5651C14.0742 12.6156 14.3216 12.6465 14.5739 12.6579V13.3333ZM13.2686 13.1169C12.9707 13.0273 12.6842 12.9118 12.4108 12.7734L12.7493 12.1875C12.9707 12.2982 13.2035 12.3909 13.4443 12.4642L13.2686 13.1169ZM12.0576 12.5749C11.7923 12.4121 11.5417 12.2282 11.3105 12.0215L11.7891 11.543C11.9779 11.7074 12.1813 11.8571 12.3962 11.9889L12.0576 12.5749ZM11.0192 11.7415C10.8027 11.5169 10.6058 11.2728 10.4316 11.0124L11.0176 10.6738C11.1608 10.8838 11.3219 11.0807 11.4977 11.2646L11.0192 11.7415ZM10.2184 10.6673C10.0654 10.3939 9.93522 10.1042 9.83268 9.80468L10.487 9.6289C10.5732 9.87304 10.679 10.1074 10.8044 10.3304L10.2184 10.6673ZM9.71712 9.41731C9.639 9.11295 9.58691 8.7972 9.56576 8.4733H10.2428C10.264 8.73697 10.3063 8.99414 10.3698 9.24316L9.71712 9.41731ZM9.55273 8.06803C9.55599 7.73925 9.58854 7.41699 9.65039 7.10611L10.3047 7.2819C10.2575 7.53743 10.2314 7.79947 10.2298 8.06803H9.55273ZM9.74316 6.71223C9.83106 6.39485 9.94824 6.08886 10.0931 5.79915L10.679 6.13769C10.5635 6.37695 10.4691 6.6276 10.3958 6.88639L9.74316 6.71223ZM10.2852 5.44433C10.4544 5.16113 10.6497 4.8942 10.8678 4.64843L11.3464 5.12695C11.1689 5.3304 11.0094 5.55012 10.8695 5.78287L10.2852 5.44433ZM11.1478 4.35546C11.3854 4.12434 11.6458 3.91764 11.9242 3.73535L12.2627 4.32128C12.0348 4.47265 11.8216 4.64355 11.6247 4.83235L11.1478 4.35546ZM12.2725 3.52864C12.5638 3.36914 12.8698 3.2373 13.1921 3.13476L13.3662 3.78743C13.1025 3.87369 12.8503 3.98274 12.6094 4.11295L12.2725 3.52864ZM13.5811 3.02734C13.9017 2.95247 14.2337 2.9069 14.5739 2.89388V3.56933C14.2939 3.58235 14.0205 3.61816 13.7552 3.68001L13.5811 3.02734Z" fill="#FAC900"/>
<path d="M16.4567 10.1628H13.0957C13.1348 9.83073 13.252 9.51986 13.4473 9.22689C13.6426 8.93392 14.0088 8.58887 14.5443 8.19173C14.873 7.94759 15.083 7.76367 15.1758 7.63672C15.2669 7.50977 15.3141 7.38932 15.3141 7.27702C15.3141 7.15495 15.2686 7.04915 15.1774 6.96126C15.0863 6.87337 14.9723 6.83106 14.834 6.83106C14.6908 6.83106 14.5736 6.87663 14.484 6.96615C14.3929 7.05729 14.3327 7.21517 14.3018 7.44466L13.182 7.35352C13.2259 7.03776 13.3073 6.79199 13.4245 6.61458C13.5417 6.43718 13.7061 6.30208 13.9193 6.20768C14.1325 6.11328 14.4287 6.06608 14.8063 6.06608C15.2002 6.06608 15.5062 6.11165 15.7259 6.20117C15.944 6.29069 16.1165 6.42741 16.2419 6.61458C16.3672 6.80176 16.4307 7.01009 16.4307 7.23958C16.4307 7.48373 16.359 7.7181 16.2158 7.94271C16.0726 8.16569 15.8105 8.41146 15.4313 8.67839C15.2067 8.83464 15.0553 8.94369 14.9788 9.00554C14.9023 9.06901 14.8145 9.14876 14.7103 9.24968H16.46V10.1628H16.4567Z" fill="#EA9901"/>
<path d="M16.2632 10.0374H12.9038C12.9429 9.7054 13.0601 9.39453 13.2537 9.10156C13.4491 8.80859 13.8153 8.46354 14.3507 8.06641C14.6795 7.82226 14.8895 7.63835 14.9823 7.51139C15.0734 7.38444 15.1206 7.264 15.1206 7.15169C15.1206 7.02962 15.075 6.92383 14.9839 6.83594C14.8927 6.74805 14.7788 6.70573 14.6405 6.70573C14.4972 6.70573 14.38 6.7513 14.2889 6.84082C14.1978 6.93196 14.1375 7.08984 14.1066 7.31933L12.9868 7.22819C13.0308 6.91243 13.1121 6.66667 13.2293 6.48926C13.3465 6.31185 13.5109 6.17676 13.7241 6.08236C13.9373 5.98795 14.2336 5.94075 14.6112 5.94075C15.005 5.94075 15.311 5.98633 15.5308 6.07585C15.7489 6.16536 15.9214 6.30208 16.0467 6.48926C16.172 6.67643 16.2355 6.88476 16.2355 7.11426C16.2355 7.3584 16.1639 7.59277 16.019 7.81738C15.8758 8.04036 15.6138 8.28613 15.2345 8.55306C15.0099 8.70931 14.8586 8.81836 14.7821 8.88021C14.7072 8.94368 14.6177 9.02344 14.5135 9.12435H16.2632V10.0374Z" fill="#FFED33"/>
<path fill-rule="evenodd" clip-rule="evenodd" d="M6.69434 0C10.3923 0 13.3887 2.99805 13.3887 6.69434C13.3887 10.3923 10.3906 13.3887 6.69434 13.3887C2.99805 13.3887 0 10.3923 0 6.69434C0 2.99805 2.99805 0 6.69434 0Z" fill="#FFED33"/>
<path fill-rule="evenodd" clip-rule="evenodd" d="M6.69434 0C10.3923 0 13.3887 2.99805 13.3887 6.69434C13.3887 10.3923 10.3906 13.3887 6.69434 13.3887C2.99805 13.3887 0 10.3923 0 6.69434C0 2.99805 2.99805 0 6.69434 0Z" fill="#FFED33"/>
<path fill-rule="evenodd" clip-rule="evenodd" d="M6.83447 2.02474C9.50049 2.02474 11.6636 4.1862 11.6636 6.85384C11.6636 9.52148 9.50049 11.6813 6.83447 11.6813C4.16846 11.6813 2.00537 9.51986 2.00537 6.85221C2.00537 4.18457 4.16683 2.02474 6.83447 2.02474Z" fill="#EA9901"/>
<path fill-rule="evenodd" clip-rule="evenodd" d="M6.83398 2.02473C9.5 2.02473 11.6631 4.18619 11.6631 6.85384C11.6631 9.52148 9.5 11.6813 6.83398 11.6813C4.16797 11.6813 2.00488 9.51985 2.00488 6.85221C2.00488 4.18457 4.16634 2.02473 6.83398 2.02473Z" fill="#EA9901"/>
<path fill-rule="evenodd" clip-rule="evenodd" d="M6.95313 0.00488281C7.38932 0.0211589 7.81576 0.0797526 8.22591 0.175781L8.0013 1.01237C7.66276 0.934245 7.3112 0.887044 6.95313 0.870768V0.00488281ZM6.69434 1.86686C9.36035 1.86686 11.5234 4.02832 11.5234 6.69596C11.5234 9.36198 9.36198 11.5251 6.69434 11.5251C4.02832 11.5251 1.86523 9.36361 1.86523 6.69596C1.86686 4.02832 4.02832 1.86686 6.69434 1.86686ZM8.72559 0.314128C9.13737 0.444336 9.53125 0.613607 9.90397 0.818685L9.47103 1.56738C9.16341 1.40137 8.83952 1.26139 8.50098 1.15072L8.72559 0.314128ZM10.3483 1.08561C10.7064 1.31836 11.0384 1.58529 11.3444 1.87988L10.7324 2.49186C10.4801 2.24935 10.2067 2.02962 9.91536 1.83594L10.3483 1.08561ZM11.7041 2.2526C11.9841 2.56836 12.2331 2.90853 12.4512 3.27311L11.7008 3.70605C11.5218 3.4082 11.3184 3.12663 11.0905 2.86621L11.7041 2.2526ZM12.6969 3.72884C12.8809 4.09993 13.0322 4.49219 13.1445 4.89909L12.3079 5.1237C12.2152 4.79004 12.0931 4.4694 11.945 4.16341L12.6969 3.72884ZM13.265 5.40365C13.3431 5.80241 13.3854 6.21582 13.3887 6.63737H12.5228C12.5195 6.29394 12.487 5.9554 12.4251 5.62826L13.265 5.40365ZM13.374 7.15495C13.3464 7.56999 13.2796 7.97526 13.1803 8.36589L12.3438 8.14128C12.4251 7.82227 12.4805 7.49349 12.5065 7.15495H13.374ZM13.0306 8.8623C12.8988 9.24805 12.7327 9.61914 12.5358 9.96908L11.7871 9.53613C11.9466 9.2513 12.0833 8.9502 12.194 8.6377L13.0306 8.8623ZM12.264 10.4102C12.041 10.7438 11.7887 11.0563 11.5104 11.3444L10.8984 10.7324C11.123 10.498 11.3298 10.2458 11.5137 9.97559L12.264 10.4102ZM11.1361 11.7041C10.8398 11.9678 10.5192 12.2054 10.179 12.4121L9.74609 11.6618C10.0212 11.4925 10.2816 11.3005 10.5225 11.0905L11.1361 11.7041ZM9.72656 12.6644C9.37663 12.8418 9.00879 12.9899 8.6263 13.1055L8.40169 12.2689C8.70931 12.1745 9.00716 12.0557 9.29199 11.9124L9.72656 12.6644ZM8.125 13.2357C7.74577 13.3187 7.35352 13.3691 6.95313 13.3838V12.5179C7.27702 12.5033 7.59277 12.4642 7.90039 12.3991L8.125 13.2357ZM6.43555 13.3838C6.03516 13.3691 5.6429 13.3187 5.26367 13.2357L5.48828 12.3991C5.7959 12.4642 6.11165 12.5049 6.43555 12.5179V13.3838ZM4.76237 13.1055C4.37988 12.9899 4.01367 12.8418 3.66374 12.6644L4.09668 11.9141C4.38151 12.0557 4.67773 12.1761 4.98698 12.2705L4.76237 13.1055ZM3.21126 12.4121C2.87109 12.2038 2.55046 11.9661 2.25423 11.7041L2.86784 11.0905C3.11035 11.3021 3.37077 11.4925 3.64583 11.6618L3.21126 12.4121ZM1.87826 11.3444C1.59993 11.0563 1.34766 10.7438 1.12467 10.4102L1.87663 9.97721C2.06055 10.2458 2.26562 10.4997 2.49023 10.734L1.87826 11.3444ZM0.854492 9.96908C0.657552 9.61914 0.491536 9.24805 0.359701 8.8623L1.19792 8.6377C1.30859 8.9502 1.44531 9.2513 1.60482 9.53613L0.854492 9.96908ZM0.209961 8.36426C0.109049 7.97363 0.0439453 7.56836 0.016276 7.15332H0.883789C0.909831 7.49023 0.965169 7.82064 1.04655 8.13965L0.209961 8.36426ZM0 6.63574C0.00325521 6.21419 0.0455729 5.80241 0.123698 5.40202L0.961914 5.62663C0.901693 5.95378 0.867513 6.29069 0.864258 6.63574H0ZM0.244141 4.89909C0.356445 4.49219 0.507812 4.10156 0.691732 3.72884L1.44206 4.16178C1.29395 4.46777 1.17188 4.78841 1.0791 5.12207L0.244141 4.89909ZM0.939128 3.27311C1.1556 2.90853 1.40625 2.56836 1.6862 2.2526L2.2998 2.86621C2.07194 3.12663 1.86849 3.4082 1.68945 3.70605L0.939128 3.27311ZM2.04427 1.87826C2.35026 1.58366 2.68392 1.31673 3.04036 1.08398L3.47331 1.83431C3.18197 2.02799 2.9069 2.24772 2.65625 2.49023L2.04427 1.87826ZM3.4847 0.818685C3.85742 0.615234 4.2513 0.445964 4.66309 0.314128L4.8877 1.15072C4.55078 1.26139 4.22526 1.39974 3.91764 1.56738L3.4847 0.818685ZM5.16276 0.175781C5.57292 0.0797526 5.99935 0.0211589 6.43555 0.00488281V0.870768C6.07585 0.887044 5.72591 0.934245 5.38737 1.01237L5.16276 0.175781Z" fill="#FAC900"/>
<path fill-rule="evenodd" clip-rule="evenodd" d="M6.95313 0.00488281C7.38932 0.0211589 7.81576 0.0797526 8.22591 0.175781L8.0013 1.01237C7.66276 0.934245 7.3112 0.887044 6.95313 0.870768V0.00488281ZM6.69434 1.86686C9.36035 1.86686 11.5234 4.02832 11.5234 6.69596C11.5234 9.36198 9.36198 11.5251 6.69434 11.5251C4.02832 11.5251 1.86523 9.36361 1.86523 6.69596C1.86686 4.02832 4.02832 1.86686 6.69434 1.86686ZM8.72559 0.314128C9.13737 0.444336 9.53125 0.613607 9.90397 0.818685L9.47103 1.56738C9.16341 1.40137 8.83952 1.26139 8.50098 1.15072L8.72559 0.314128ZM10.3483 1.08561C10.7064 1.31836 11.0384 1.58529 11.3444 1.87988L10.7324 2.49186C10.4801 2.24935 10.2067 2.02962 9.91536 1.83594L10.3483 1.08561ZM11.7041 2.2526C11.9841 2.56836 12.2331 2.90853 12.4512 3.27311L11.7008 3.70605C11.5218 3.4082 11.3184 3.12663 11.0905 2.86621L11.7041 2.2526ZM12.6969 3.72884C12.8809 4.09993 13.0322 4.49219 13.1445 4.89909L12.3079 5.1237C12.2152 4.79004 12.0931 4.4694 11.945 4.16341L12.6969 3.72884ZM13.265 5.40365C13.3431 5.80241 13.3854 6.21582 13.3887 6.63737H12.5228C12.5195 6.29394 12.487 5.9554 12.4251 5.62826L13.265 5.40365ZM13.374 7.15495C13.3464 7.56999 13.2796 7.97526 13.1803 8.36589L12.3438 8.14128C12.4251 7.82227 12.4805 7.49349 12.5065 7.15495H13.374ZM13.0306 8.8623C12.8988 9.24805 12.7327 9.61914 12.5358 9.96908L11.7871 9.53613C11.9466 9.2513 12.0833 8.9502 12.194 8.6377L13.0306 8.8623ZM12.264 10.4102C12.041 10.7438 11.7887 11.0563 11.5104 11.3444L10.8984 10.7324C11.123 10.498 11.3298 10.2458 11.5137 9.97559L12.264 10.4102ZM11.1361 11.7041C10.8398 11.9678 10.5192 12.2054 10.179 12.4121L9.74609 11.6618C10.0212 11.4925 10.2816 11.3005 10.5225 11.0905L11.1361 11.7041ZM9.72656 12.6644C9.37663 12.8418 9.00879 12.9899 8.6263 13.1055L8.40169 12.2689C8.70931 12.1745 9.00716 12.0557 9.29199 11.9124L9.72656 12.6644ZM8.125 13.2357C7.74577 13.3187 7.35352 13.3691 6.95313 13.3838V12.5179C7.27702 12.5033 7.59277 12.4642 7.90039 12.3991L8.125 13.2357ZM6.43555 13.3838C6.03516 13.3691 5.6429 13.3187 5.26367 13.2357L5.48828 12.3991C5.7959 12.4642 6.11165 12.5049 6.43555 12.5179V13.3838ZM4.76237 13.1055C4.37988 12.9899 4.01367 12.8418 3.66374 12.6644L4.09668 11.9141C4.38151 12.0557 4.67773 12.1761 4.98698 12.2705L4.76237 13.1055ZM3.21126 12.4121C2.87109 12.2038 2.55046 11.9661 2.25423 11.7041L2.86784 11.0905C3.11035 11.3021 3.37077 11.4925 3.64583 11.6618L3.21126 12.4121ZM1.87826 11.3444C1.59993 11.0563 1.34766 10.7438 1.12467 10.4102L1.87663 9.97721C2.06055 10.2458 2.26562 10.4997 2.49023 10.734L1.87826 11.3444ZM0.854492 9.96908C0.657552 9.61914 0.491536 9.24805 0.359701 8.8623L1.19792 8.6377C1.30859 8.9502 1.44531 9.2513 1.60482 9.53613L0.854492 9.96908ZM0.209961 8.36426C0.109049 7.97363 0.0439453 7.56836 0.016276 7.15332H0.883789C0.909831 7.49023 0.965169 7.82064 1.04655 8.13965L0.209961 8.36426ZM0 6.63574C0.00325521 6.21419 0.0455729 5.80241 0.123698 5.40202L0.961914 5.62663C0.901693 5.95378 0.867513 6.29069 0.864258 6.63574H0ZM0.244141 4.89909C0.356445 4.49219 0.507812 4.10156 0.691732 3.72884L1.44206 4.16178C1.29395 4.46777 1.17188 4.78841 1.0791 5.12207L0.244141 4.89909ZM0.939128 3.27311C1.1556 2.90853 1.40625 2.56836 1.6862 2.2526L2.2998 2.86621C2.07194 3.12663 1.86849 3.4082 1.68945 3.70605L0.939128 3.27311ZM2.04427 1.87826C2.35026 1.58366 2.68392 1.31673 3.04036 1.08398L3.47331 1.83431C3.18197 2.02799 2.9069 2.24772 2.65625 2.49023L2.04427 1.87826ZM3.4847 0.818685C3.85742 0.615234 4.2513 0.445964 4.66309 0.314128L4.8877 1.15072C4.55078 1.26139 4.22526 1.39974 3.91764 1.56738L3.4847 0.818685ZM5.16276 0.175781C5.57292 0.0797526 5.99935 0.0211589 6.43555 0.00488281V0.870768C6.07585 0.887044 5.72591 0.934245 5.38737 1.01237L5.16276 0.175781Z" fill="#FAC900"/>
<path d="M7.90218 4.06901V9.31966H6.45199V5.88542C6.21761 6.06283 5.98975 6.20606 5.77002 6.31511C5.55029 6.42415 5.27523 6.52995 4.94482 6.63086V5.46224C5.43311 5.30274 5.81234 5.11393 6.08252 4.89258C6.3527 4.6696 6.56429 4.39616 6.71729 4.07064H7.90218V4.06901Z" fill="#EA9901"/>
<path d="M7.65609 3.91113V9.16178H6.20589V5.72591C5.97152 5.90332 5.74365 6.04655 5.52393 6.1556C5.3042 6.26465 5.02913 6.37044 4.69873 6.47135V5.30273C5.18701 5.14323 5.56624 4.95443 5.83643 4.73307C6.10661 4.51009 6.3182 4.23665 6.47119 3.91113H7.65609Z" fill="#FFED33"/>
<path fill-rule="evenodd" clip-rule="evenodd" d="M12.7718 3.73047C13.3024 4.67285 13.6035 5.76009 13.6035 6.91894C13.6035 8.71745 12.8743 10.3467 11.6943 11.5267C10.516 12.7067 8.88672 13.4359 7.08659 13.4359C6.94336 13.4359 6.80013 13.431 6.66016 13.4212L6.66667 13.3903H6.69434C10.3923 13.3903 13.3887 10.3923 13.3887 6.69596C13.3887 5.63965 13.1445 4.6403 12.7083 3.75163C12.7295 3.74349 12.7507 3.73698 12.7718 3.73047Z" fill="#D49000"/>
<path fill-rule="evenodd" clip-rule="evenodd" d="M12.7718 3.73047C13.3024 4.67285 13.6035 5.76009 13.6035 6.91894C13.6035 8.71745 12.8743 10.3467 11.6943 11.5267C10.516 12.7067 8.88672 13.4359 7.08659 13.4359C6.94336 13.4359 6.80013 13.431 6.66016 13.4212L6.66667 13.3903H6.69434C10.3923 13.3903 13.3887 10.3923 13.3887 6.69596C13.3887 5.63965 13.1445 4.6403 12.7083 3.75163C12.7295 3.74349 12.7507 3.73698 12.7718 3.73047Z" fill="#D49000"/>
</svg>
