<svg width="100" height="100" viewBox="0 0 100 100" fill="none" xmlns="http://www.w3.org/2000/svg">
<circle cx="50" cy="50" r="50" fill="#94D096"/>
<path d="M49.4802 80.4399C65.397 80.4399 78.3002 67.5009 78.3002 51.5399C78.3002 35.5789 65.397 22.6399 49.4802 22.6399C33.5633 22.6399 20.6602 35.5789 20.6602 51.5399C20.6602 67.5009 33.5633 80.4399 49.4802 80.4399Z" fill="#4CAF50"/>
<path d="M49.0782 22.6599C48.9082 33.0499 45.8182 55.9999 22.5282 61.7799C21.2907 58.5115 20.6603 55.0447 20.6682 51.5499C20.6634 50.262 20.7503 48.9755 20.9282 47.6999C21.7108 41.7865 24.3072 36.2611 28.3599 31.8842C32.4126 27.5074 37.7223 24.4944 43.5582 23.2599C45.3737 22.8771 47.2228 22.6761 49.0782 22.6599Z" fill="#FBE481"/>
<path opacity="0.5" d="M77.7892 51.2C77.7998 58.8499 74.7739 66.1912 69.3758 71.6118C63.9778 77.0323 56.6491 80.0888 48.9992 80.11C45.477 80.1194 41.9839 79.4716 38.6992 78.2C62.7692 69.31 68.3192 48.4 67.0992 28.74C70.4425 31.4502 73.1376 34.8736 74.9872 38.7596C76.8368 42.6457 77.7942 46.8962 77.7892 51.2Z" fill="#FDFF89"/>
<path d="M31.3597 46.1H31.2497C31.2128 46.0856 31.1792 46.0641 31.1507 46.0367C31.1222 46.0093 31.0994 45.9766 31.0836 45.9403C31.0678 45.9041 31.0593 45.8651 31.0586 45.8255C31.058 45.786 31.0651 45.7467 31.0797 45.71L32.7097 41.84C32.7406 41.7674 32.7988 41.7099 32.8718 41.6799C32.9448 41.65 33.0267 41.65 33.0997 41.68C33.1706 41.7128 33.2265 41.7713 33.2562 41.8436C33.2858 41.9159 33.2871 41.9968 33.2597 42.07L31.6297 45.94C31.6022 45.9876 31.5629 46.0273 31.5156 46.0553C31.4683 46.0834 31.4146 46.0987 31.3597 46.1Z" fill="#FDFF89"/>
<path d="M33.5315 44.2299H33.4215C33.3847 44.2156 33.3511 44.1941 33.3226 44.1667C33.2941 44.1393 33.2713 44.1065 33.2555 44.0703C33.2397 44.0341 33.2312 43.995 33.2305 43.9555C33.2298 43.916 33.237 43.8767 33.2515 43.8399L34.1215 41.7699C34.1357 41.7331 34.1573 41.6996 34.1849 41.6714C34.2125 41.6432 34.2456 41.6209 34.2821 41.6059C34.3186 41.591 34.3578 41.5836 34.3972 41.5843C34.4367 41.585 34.4756 41.5937 34.5115 41.6099C34.5841 41.6409 34.6416 41.6991 34.6716 41.7721C34.7015 41.8451 34.7015 41.927 34.6715 41.9999L33.8115 43.9999C33.7936 44.0621 33.7572 44.1173 33.7072 44.1584C33.6573 44.1995 33.596 44.2244 33.5315 44.2299Z" fill="#FDFF89"/>
<path d="M49.4789 80.5199C43.739 80.5397 38.1224 78.8557 33.3402 75.6812C28.5581 72.5067 24.8255 67.9844 22.6152 62.6871C20.4049 57.3899 19.8164 51.5558 20.924 45.9238C22.0317 40.2918 24.7857 35.1151 28.8374 31.0494C32.8891 26.9836 38.0563 24.2117 43.6844 23.0846C49.3126 21.9575 55.1486 22.5259 60.4535 24.7179C65.7584 26.9099 70.2935 30.6268 73.4845 35.398C76.6755 40.1691 78.3789 45.78 78.3789 51.5199C78.379 59.1938 75.3373 66.555 69.9204 71.9907C64.5035 77.4264 57.1529 80.4934 49.4789 80.5199ZM49.4789 24.8799C44.2003 24.864 39.0357 26.415 34.6391 29.3363C30.2425 32.2577 26.8117 36.418 24.7811 41.2904C22.7506 46.1629 22.2116 51.5284 23.2324 56.7074C24.2532 61.8864 26.788 66.646 30.5156 70.3835C34.2433 74.1209 38.9962 76.6682 44.1725 77.7026C49.3488 78.7371 54.7157 78.2122 59.5935 76.1944C64.4713 74.1767 68.6406 70.7568 71.5735 66.3679C74.5064 61.979 76.0709 56.8185 76.0689 51.5399C76.0689 44.4813 73.2697 37.7108 68.2852 32.7131C63.3006 27.7154 56.5375 24.8984 49.4789 24.8799Z" fill="#FDFF89"/>
<path d="M20.6599 52.12C20.5842 52.12 20.5093 52.105 20.4395 52.0757C20.3697 52.0464 20.3064 52.0036 20.2533 51.9496C20.2002 51.8956 20.1585 51.8315 20.1304 51.7612C20.1024 51.6909 20.0886 51.6157 20.0899 51.54C20.0901 49.5487 20.2877 47.5623 20.6799 45.61C20.6942 45.5354 20.7233 45.4644 20.7654 45.4012C20.8075 45.338 20.8618 45.2838 20.9252 45.2419C20.9886 45.2 21.0596 45.1711 21.1343 45.1571C21.209 45.143 21.2857 45.144 21.3599 45.16C21.4345 45.1743 21.5056 45.2034 21.5688 45.2455C21.632 45.2876 21.6862 45.3419 21.7281 45.4053C21.77 45.4686 21.7988 45.5397 21.8129 45.6144C21.827 45.6891 21.8259 45.7658 21.8099 45.84C21.4293 47.7161 21.2384 49.6257 21.2399 51.54C21.2399 51.6162 21.2249 51.6916 21.1958 51.762C21.1666 51.8324 21.1239 51.8963 21.0701 51.9502C21.0162 52.004 20.9523 52.0467 20.8819 52.0759C20.8115 52.105 20.7361 52.12 20.6599 52.12Z" fill="#FDFF89"/>
<path d="M49.48 80.9999C42.5264 81.0166 35.7931 78.5623 30.4814 74.0748C25.1697 69.5873 21.625 63.3586 20.48 56.4999C20.4717 56.4237 20.4786 56.3466 20.5003 56.273C20.522 56.1994 20.5581 56.1309 20.6064 56.0714C20.6548 56.0119 20.7145 55.9626 20.782 55.9263C20.8496 55.89 20.9236 55.8674 21 55.8599C21.0743 55.8456 21.1509 55.8466 21.2249 55.8627C21.2989 55.8788 21.3688 55.9098 21.4305 55.9537C21.4922 55.9976 21.5444 56.0536 21.5838 56.1183C21.6232 56.183 21.6492 56.255 21.66 56.3299C22.8234 63.0475 26.372 69.1196 31.6537 73.4306C36.9353 77.7415 43.5953 80.0016 50.4098 79.7957C57.2243 79.5897 63.7356 76.9316 68.7473 72.3096C73.759 67.6876 76.9345 61.4123 77.6902 54.6367C78.4459 47.8611 76.7312 41.0404 72.861 35.4277C68.9908 29.8151 63.2252 25.7876 56.6235 24.0853C50.0218 22.383 43.0276 23.1202 36.9259 26.1615C30.8242 29.2027 26.025 34.3438 23.41 40.6399C23.3445 40.771 23.2319 40.8725 23.0947 40.924C22.9575 40.9755 22.8059 40.9731 22.6704 40.9174C22.5349 40.8616 22.4255 40.7567 22.3642 40.6236C22.3029 40.4905 22.2942 40.3391 22.34 40.1999C24.3984 35.2926 27.7494 31.0354 32.036 27.8819C36.3226 24.7284 41.3843 22.7966 46.6819 22.2923C51.9796 21.788 57.3148 22.7301 62.1194 25.0182C66.924 27.3063 71.018 30.8547 73.9654 35.2856C76.9128 39.7164 78.6032 44.8638 78.8565 50.1793C79.1099 55.4949 77.9167 60.7797 75.4041 65.4707C72.8914 70.1618 69.1535 74.0835 64.5882 76.8182C60.023 79.5529 54.8016 80.9981 49.48 80.9999Z" fill="#FDFF89"/>
<path d="M20.6 54.5401C20.9314 54.5401 21.2 54.2715 21.2 53.9401C21.2 53.6087 20.9314 53.3401 20.6 53.3401C20.2686 53.3401 20 53.6087 20 53.9401C20 54.2715 20.2686 54.5401 20.6 54.5401Z" fill="#FDFF89"/>
<path d="M49.4817 74.94C44.8507 74.9539 40.3197 73.5933 36.4624 71.0305C32.6051 68.4677 29.5949 64.818 27.8131 60.5434C26.0313 56.2689 25.5579 51.5617 26.4529 47.018C27.3478 42.4742 29.5709 38.2982 32.8407 35.0187C36.1104 31.7391 40.2798 29.5035 44.8208 28.5949C49.3619 27.6863 54.0704 28.1456 58.3503 29.9146C62.6301 31.6837 66.2889 34.6828 68.8632 38.5325C71.4375 42.3821 72.8117 46.909 72.8117 51.54C72.8118 57.734 70.356 63.6753 65.9828 68.0616C61.6096 72.448 55.6757 74.9215 49.4817 74.94ZM49.4817 30.46C45.3063 30.4422 41.2196 31.6642 37.7393 33.9712C34.259 36.2782 31.5419 39.5663 29.9321 43.419C28.3223 47.2717 27.8924 51.5155 28.6968 55.6127C29.5012 59.71 31.5036 63.4762 34.4505 66.4344C37.3974 69.3925 41.156 71.4093 45.2502 72.2292C49.3444 73.0492 53.5898 72.6354 57.4485 71.0403C61.3073 69.4452 64.6057 66.7405 66.9259 63.269C69.2461 59.7976 70.4837 55.7155 70.4817 51.54C70.4818 45.9631 68.2718 40.6134 64.3358 36.6624C60.3999 32.7115 55.0586 30.4812 49.4817 30.46Z" fill="#FDFF89"/>
<path d="M33.369 68.3799C33.3081 68.3812 33.2476 68.3703 33.1909 68.348C33.1343 68.3257 33.0826 68.2924 33.039 68.2499C30.244 65.48 28.189 62.0527 27.0623 58.2824C25.9357 54.5121 25.7734 50.5192 26.5905 46.6699C27.4075 42.8206 29.1777 39.2379 31.7387 36.2503C34.2998 33.2627 37.5698 30.9657 41.249 29.5699C41.3606 29.5374 41.4804 29.5482 41.5843 29.6004C41.6882 29.6526 41.7685 29.7421 41.809 29.8511C41.8496 29.9601 41.8473 30.0803 41.8028 30.1877C41.7583 30.2951 41.6747 30.3817 41.569 30.4299C38.0319 31.7697 34.8881 33.9766 32.426 36.8479C29.964 39.7192 28.2627 43.1629 27.4783 46.863C26.6939 50.5631 26.8515 54.4009 27.9367 58.0242C29.0218 61.6475 30.9998 64.9402 33.689 67.5999C33.7751 67.6862 33.8234 67.8031 33.8234 67.9249C33.8234 68.0468 33.7751 68.1637 33.689 68.2499C33.6468 68.2916 33.5969 68.3246 33.5419 68.3469C33.487 68.3692 33.4282 68.3804 33.369 68.3799Z" fill="#FDFF89"/>
<path d="M49.4803 75.0001C45.2232 75.0079 41.0453 73.8493 37.4003 71.6501C37.2956 71.5877 37.2199 71.4863 37.1899 71.3682C37.1599 71.2501 37.178 71.1249 37.2403 71.0201C37.3046 70.9147 37.4077 70.8389 37.5275 70.8089C37.6472 70.779 37.7739 70.7974 37.8803 70.8601C40.8573 72.6426 44.2058 73.7133 47.6646 73.9889C51.1235 74.2645 54.5993 73.7374 57.821 72.4488C61.0427 71.1602 63.9232 69.1449 66.238 66.56C68.5527 63.9751 70.2392 60.8905 71.1658 57.5467C72.0924 54.2029 72.2341 50.6902 71.58 47.2826C70.9259 43.875 69.4935 40.6645 67.3945 37.9015C65.2956 35.1385 62.5869 32.8976 59.4795 31.3536C56.3721 29.8096 52.9501 29.0041 49.4803 29.0001C48.2778 29.0014 47.0773 29.0984 45.8903 29.2901C45.8305 29.3001 45.7693 29.2982 45.7103 29.2845C45.6513 29.2708 45.5955 29.2455 45.5463 29.2102C45.497 29.1749 45.4552 29.1302 45.4233 29.0787C45.3914 29.0272 45.37 28.9699 45.3603 28.9101C45.3503 28.8503 45.3522 28.7892 45.3659 28.7301C45.3796 28.6711 45.4048 28.6154 45.4401 28.5661C45.4754 28.5169 45.5201 28.4751 45.5716 28.4431C45.6231 28.4112 45.6804 28.3898 45.7403 28.3801C46.9777 28.1884 48.228 28.0914 49.4803 28.0901C55.6197 28.2168 61.4649 30.7447 65.762 35.1315C70.0591 39.5182 72.4658 45.4144 72.4658 51.5551C72.4658 57.6958 70.0591 63.592 65.762 67.9787C61.4649 72.3655 55.6197 74.8933 49.4803 75.0201V75.0001Z" fill="#FDFF89"/>
<path d="M43.6391 29.8599C43.9704 29.8599 44.2391 29.5913 44.2391 29.2599C44.2391 28.9285 43.9704 28.6599 43.6391 28.6599C43.3077 28.6599 43.0391 28.9285 43.0391 29.2599C43.0391 29.5913 43.3077 29.8599 43.6391 29.8599Z" fill="#FDFF89"/>
<path d="M35.35 70.42C35.6814 70.42 35.95 70.1513 35.95 69.82C35.95 69.4886 35.6814 69.22 35.35 69.22C35.0186 69.22 34.75 69.4886 34.75 69.82C34.75 70.1513 35.0186 70.42 35.35 70.42Z" fill="#FDFF89"/>
<path d="M49.4817 74.94C44.8507 74.9539 40.3197 73.5933 36.4624 71.0305C32.6051 68.4677 29.5949 64.818 27.8131 60.5434C26.0313 56.2689 25.5579 51.5617 26.4529 47.018C27.3478 42.4742 29.5709 38.2982 32.8407 35.0187C36.1104 31.7391 40.2798 29.5035 44.8208 28.5949C49.3619 27.6863 54.0704 28.1456 58.3503 29.9146C62.6301 31.6837 66.2889 34.6828 68.8632 38.5325C71.4375 42.3821 72.8117 46.909 72.8117 51.54C72.8118 57.734 70.356 63.6753 65.9828 68.0616C61.6096 72.448 55.6757 74.9215 49.4817 74.94ZM49.4817 30.46C45.3063 30.4422 41.2196 31.6642 37.7393 33.9712C34.259 36.2782 31.5419 39.5663 29.9321 43.419C28.3223 47.2717 27.8924 51.5155 28.6968 55.6127C29.5012 59.71 31.5036 63.4762 34.4505 66.4344C37.3974 69.3925 41.156 71.4093 45.2502 72.2292C49.3444 73.0492 53.5898 72.6354 57.4485 71.0403C61.3073 69.4452 64.6057 66.7405 66.9259 63.269C69.2461 59.7976 70.4837 55.7155 70.4817 51.54C70.4818 45.9631 68.2718 40.6134 64.3358 36.6624C60.3999 32.7115 55.0586 30.4812 49.4817 30.46Z" fill="#FDFF89"/>
<path d="M33.369 68.3799C33.3081 68.3812 33.2476 68.3703 33.1909 68.348C33.1343 68.3257 33.0826 68.2924 33.039 68.2499C30.244 65.48 28.189 62.0527 27.0623 58.2824C25.9357 54.5121 25.7734 50.5192 26.5905 46.6699C27.4075 42.8206 29.1777 39.2379 31.7387 36.2503C34.2998 33.2627 37.5698 30.9657 41.249 29.5699C41.3606 29.5374 41.4804 29.5482 41.5843 29.6004C41.6882 29.6526 41.7685 29.7421 41.809 29.8511C41.8496 29.9601 41.8473 30.0803 41.8028 30.1877C41.7583 30.2951 41.6747 30.3817 41.569 30.4299C38.0319 31.7697 34.8881 33.9766 32.426 36.8479C29.964 39.7192 28.2627 43.1629 27.4783 46.863C26.6939 50.5631 26.8515 54.4009 27.9367 58.0242C29.0218 61.6475 30.9998 64.9402 33.689 67.5999C33.7751 67.6862 33.8234 67.8031 33.8234 67.9249C33.8234 68.0468 33.7751 68.1637 33.689 68.2499C33.6468 68.2916 33.5969 68.3246 33.5419 68.3469C33.487 68.3692 33.4282 68.3804 33.369 68.3799Z" fill="#FDFF89"/>
<path d="M49.4803 75.0001C45.2232 75.0079 41.0453 73.8493 37.4003 71.6501C37.2956 71.5877 37.2199 71.4863 37.1899 71.3682C37.1599 71.2501 37.178 71.1249 37.2403 71.0201C37.3046 70.9147 37.4077 70.8389 37.5275 70.8089C37.6472 70.779 37.7739 70.7974 37.8803 70.8601C40.8573 72.6426 44.2058 73.7133 47.6646 73.9889C51.1235 74.2645 54.5993 73.7374 57.821 72.4488C61.0427 71.1602 63.9232 69.1449 66.238 66.56C68.5527 63.9751 70.2392 60.8905 71.1658 57.5467C72.0924 54.2029 72.2341 50.6902 71.58 47.2826C70.9259 43.875 69.4935 40.6645 67.3945 37.9015C65.2956 35.1385 62.5869 32.8976 59.4795 31.3536C56.3721 29.8096 52.9501 29.0041 49.4803 29.0001C48.2778 29.0014 47.0773 29.0984 45.8903 29.2901C45.8305 29.3001 45.7693 29.2982 45.7103 29.2845C45.6513 29.2708 45.5955 29.2455 45.5463 29.2102C45.497 29.1749 45.4552 29.1302 45.4233 29.0787C45.3914 29.0272 45.37 28.9699 45.3603 28.9101C45.3503 28.8503 45.3522 28.7892 45.3659 28.7301C45.3796 28.6711 45.4048 28.6154 45.4401 28.5661C45.4754 28.5169 45.5201 28.4751 45.5716 28.4431C45.6231 28.4112 45.6804 28.3898 45.7403 28.3801C46.9777 28.1884 48.228 28.0914 49.4803 28.0901C55.6197 28.2168 61.4649 30.7447 65.762 35.1315C70.0591 39.5182 72.4658 45.4144 72.4658 51.5551C72.4658 57.6958 70.0591 63.592 65.762 67.9787C61.4649 72.3655 55.6197 74.8933 49.4803 75.0201V75.0001Z" fill="#FDFF89"/>
<path d="M43.6391 29.8599C43.9704 29.8599 44.2391 29.5913 44.2391 29.2599C44.2391 28.9285 43.9704 28.6599 43.6391 28.6599C43.3077 28.6599 43.0391 28.9285 43.0391 29.2599C43.0391 29.5913 43.3077 29.8599 43.6391 29.8599Z" fill="#FDFF89"/>
<path d="M35.35 70.42C35.6814 70.42 35.95 70.1513 35.95 69.82C35.95 69.4886 35.6814 69.22 35.35 69.22C35.0186 69.22 34.75 69.4886 34.75 69.82C34.75 70.1513 35.0186 70.42 35.35 70.42Z" fill="#FDFF89"/>
<path d="M21.9398 43.5201C22.2712 43.5201 22.5398 43.2514 22.5398 42.9201C22.5398 42.5887 22.2712 42.3201 21.9398 42.3201C21.6085 42.3201 21.3398 42.5887 21.3398 42.9201C21.3398 43.2514 21.6085 43.5201 21.9398 43.5201Z" fill="#FDFF89"/>
<path d="M36.1963 31.1016C36.681 30.6912 36.8715 30.1194 36.6217 29.8243C36.3719 29.5292 35.7764 29.6227 35.2917 30.0331C34.8069 30.4435 34.6165 31.0153 34.8662 31.3104C35.116 31.6055 35.7115 31.512 36.1963 31.1016Z" fill="white"/>
<path d="M28.5303 38.26C28.4248 38.2622 28.3208 38.2344 28.2303 38.18C28.1008 38.0976 28.0085 37.9679 27.973 37.8186C27.9375 37.6692 27.9617 37.5119 28.0403 37.38C29.4804 35.2315 31.2407 33.316 33.2603 31.7C33.3179 31.6421 33.3871 31.597 33.4634 31.5677C33.5397 31.5384 33.6212 31.5255 33.7028 31.5299C33.7844 31.5343 33.8641 31.5559 33.9368 31.5933C34.0094 31.6306 34.0734 31.6829 34.1244 31.7467C34.1755 31.8105 34.2124 31.8844 34.233 31.9635C34.2535 32.0426 34.257 32.1251 34.2434 32.2056C34.2298 32.2862 34.1993 32.363 34.154 32.4309C34.1087 32.4989 34.0495 32.5565 33.9803 32.6C32.053 34.1338 30.3734 35.9551 29.0003 38C28.9494 38.0786 28.8798 38.1435 28.7979 38.1888C28.7159 38.2342 28.624 38.2586 28.5303 38.26Z" fill="white"/>
<path opacity="0.4" d="M57.9983 64.3701C58.2799 64.3701 58.5083 64.1418 58.5083 63.8601C58.5083 63.5784 58.2799 63.3501 57.9983 63.3501C57.7166 63.3501 57.4883 63.5784 57.4883 63.8601C57.4883 64.1418 57.7166 64.3701 57.9983 64.3701Z" fill="#FDFF89"/>
<path d="M58.3091 71.6699C59.2866 71.6699 60.0791 70.8774 60.0791 69.8999C60.0791 68.9223 59.2866 68.1299 58.3091 68.1299C57.3315 68.1299 56.5391 68.9223 56.5391 69.8999C56.5391 70.8774 57.3315 71.6699 58.3091 71.6699Z" fill="#FDFF89"/>
<path d="M59.4884 66.72C59.8143 66.72 60.0784 66.4559 60.0784 66.13C60.0784 65.8042 59.8143 65.54 59.4884 65.54C59.1626 65.54 58.8984 65.8042 58.8984 66.13C58.8984 66.4559 59.1626 66.72 59.4884 66.72Z" fill="#FDFF89"/>
<path d="M54.2111 71.2801C54.5369 71.2801 54.8011 71.0159 54.8011 70.6901C54.8011 70.3642 54.5369 70.1001 54.2111 70.1001C53.8852 70.1001 53.6211 70.3642 53.6211 70.6901C53.6211 71.0159 53.8852 71.2801 54.2111 71.2801Z" fill="#FDFF89"/>
<path d="M62.7105 68.75C63.1136 68.75 63.4405 68.4232 63.4405 68.02C63.4405 67.6169 63.1136 67.29 62.7105 67.29C62.3073 67.29 61.9805 67.6169 61.9805 68.02C61.9805 68.4232 62.3073 68.75 62.7105 68.75Z" fill="#FDFF89"/>
<path opacity="0.4" d="M54.6897 68.98C54.9714 68.98 55.1997 68.7516 55.1997 68.47C55.1997 68.1883 54.9714 67.96 54.6897 67.96C54.408 67.96 54.1797 68.1883 54.1797 68.47C54.1797 68.7516 54.408 68.98 54.6897 68.98Z" fill="#FDFF89"/>
<path opacity="0.4" d="M56.2292 67.5098C56.5219 67.5098 56.7592 67.2727 56.7592 66.9799C56.7592 66.6872 56.5219 66.45 56.2292 66.45C55.9365 66.45 55.6992 66.6872 55.6992 66.9799C55.6992 67.2727 55.9365 67.5098 56.2292 67.5098Z" fill="#FDFF89"/>
<path opacity="0.4" d="M56.1805 64.9801C56.2909 64.9801 56.3805 64.8905 56.3805 64.7801C56.3805 64.6696 56.2909 64.5801 56.1805 64.5801C56.07 64.5801 55.9805 64.6696 55.9805 64.7801C55.9805 64.8905 56.07 64.9801 56.1805 64.9801Z" fill="#FDFF89"/>
<path d="M56.8898 78.2899C57.4697 78.2899 57.9398 77.8198 57.9398 77.2399C57.9398 76.66 57.4697 76.1899 56.8898 76.1899C56.3099 76.1899 55.8398 76.66 55.8398 77.2399C55.8398 77.8198 56.3099 78.2899 56.8898 78.2899Z" fill="#FDFF89"/>
<path d="M57.6117 75.7901C57.805 75.7901 57.9617 75.6334 57.9617 75.4401C57.9617 75.2468 57.805 75.0901 57.6117 75.0901C57.4184 75.0901 57.2617 75.2468 57.2617 75.4401C57.2617 75.6334 57.4184 75.7901 57.6117 75.7901Z" fill="#FDFF89"/>
<path d="M54.4711 78.5C54.6644 78.5 54.8211 78.3435 54.8211 78.1502C54.8211 77.9569 54.6644 77.8 54.4711 77.8C54.2778 77.8 54.1211 77.9569 54.1211 78.1502C54.1211 78.3435 54.2778 78.5 54.4711 78.5Z" fill="#FDFF89"/>
<path d="M59.5316 76.9899C59.769 76.9899 59.9616 76.7974 59.9616 76.5599C59.9616 76.3224 59.769 76.1299 59.5316 76.1299C59.2941 76.1299 59.1016 76.3224 59.1016 76.5599C59.1016 76.7974 59.2941 76.9899 59.5316 76.9899Z" fill="#FDFF89"/>
<path opacity="0.4" d="M54.7492 77.13C54.9149 77.13 55.0492 76.9957 55.0492 76.83C55.0492 76.6643 54.9149 76.53 54.7492 76.53C54.5835 76.53 54.4492 76.6643 54.4492 76.83C54.4492 76.9957 54.5835 77.13 54.7492 77.13Z" fill="#FDFF89"/>
<path opacity="0.4" d="M55.6716 76.2599C55.8483 76.2599 55.9916 76.1166 55.9916 75.9399C55.9916 75.7631 55.8483 75.6199 55.6716 75.6199C55.4948 75.6199 55.3516 75.7631 55.3516 75.9399C55.3516 76.1166 55.4948 76.2599 55.6716 76.2599Z" fill="#FDFF89"/>
<path opacity="0.4" d="M55.6395 74.76C55.7058 74.76 55.7595 74.7063 55.7595 74.64C55.7595 74.5737 55.7058 74.52 55.6395 74.52C55.5733 74.52 55.5195 74.5737 55.5195 74.64C55.5195 74.7063 55.5733 74.76 55.6395 74.76Z" fill="#FDFF89"/>
<path d="M50.5719 73.25C50.9309 73.25 51.2219 72.9588 51.2219 72.5998C51.2219 72.2409 50.9309 71.95 50.5719 71.95C50.2129 71.95 49.9219 72.2409 49.9219 72.5998C49.9219 72.9588 50.2129 73.25 50.5719 73.25Z" fill="#FDFF89"/>
<path d="M39.7166 39.0031C40.7585 37.5041 40.7809 35.7172 39.7665 35.0121C38.752 34.3069 37.0849 34.9505 36.043 36.4495C35.001 37.9485 34.9786 39.7353 35.9931 40.4405C37.0075 41.1456 38.6746 40.5021 39.7166 39.0031Z" fill="#FFEFAE"/>
<path d="M56.5008 53.9999C56.1836 53.2954 55.7357 52.6574 55.1808 52.1199C54.6369 51.6064 54.0285 51.1661 53.3708 50.8099C52.7449 50.4926 52.0965 50.2218 51.4308 49.9999C50.5508 49.6599 49.7208 49.3199 48.9508 48.9999C48.2552 48.714 47.6154 48.3078 47.0608 47.7999C46.8178 47.5692 46.627 47.2893 46.5011 46.9788C46.3752 46.6684 46.3171 46.3346 46.3308 45.9999C46.3165 45.5124 46.4303 45.0297 46.6608 44.5999C46.892 44.2028 47.2416 43.8881 47.6608 43.6999C48.2358 43.4701 48.8519 43.3612 49.4708 43.3799C50.1234 43.3633 50.7677 43.5295 51.3308 43.8599C51.8623 44.1822 52.3273 44.6031 52.7008 45.0999C53.0819 45.6335 53.4165 46.1989 53.7008 46.7899L56.7208 44.9999C56.3341 44.1832 55.8286 43.4284 55.2208 42.7599C54.5448 42.0249 53.7333 41.4273 52.8308 40.9999C52.252 40.717 51.6358 40.5183 51.0008 40.4099V36.8699H48.0008L48.0708 40.3799C47.2954 40.4871 46.5404 40.7096 45.8308 41.0399C44.8498 41.4841 43.9993 42.1728 43.3608 43.0399C42.769 43.8529 42.4535 44.8343 42.4608 45.8399C42.4328 46.7692 42.6283 47.6917 43.0308 48.5299C43.3908 49.2397 43.883 49.8744 44.4808 50.3999C45.0462 50.9027 45.6749 51.3297 46.3508 51.6699C46.9386 51.9617 47.5429 52.2188 48.1608 52.4399C49.0008 52.7599 49.7908 53.0899 50.5408 53.4399C51.226 53.7555 51.8439 54.2003 52.3608 54.7499C52.8452 55.3008 53.0994 56.0168 53.0708 56.7499C53.0864 57.3145 52.9628 57.8743 52.7108 58.3799C52.4631 58.8244 52.0768 59.1756 51.6108 59.3799C51.0181 59.6355 50.3757 59.7551 49.7308 59.7299C48.9373 59.7457 48.1529 59.5599 47.4508 59.1899C46.7508 58.8024 46.1354 58.2788 45.6408 57.6499C45.0452 56.8902 44.5385 56.0648 44.1308 55.1899L41.3008 57.0999C41.7561 58.2067 42.4064 59.2228 43.2208 60.0999C44.0323 60.9749 45.0029 61.6876 46.0808 62.1999C46.7184 62.4928 47.3904 62.7044 48.0808 62.8299L48.0008 66.2199H51.0008L50.9408 62.9199C51.8635 62.8428 52.7663 62.6095 53.6108 62.2299C54.65 61.7518 55.5237 60.9756 56.1208 59.9999C56.723 58.9807 57.0278 57.8133 57.0008 56.6299C57.0257 55.7274 56.8551 54.8302 56.5008 53.9999Z" fill="white"/>
<path d="M66.4098 45.47C73.3521 45.47 78.9798 39.8243 78.9798 32.86C78.9798 25.8957 73.3521 20.25 66.4098 20.25C59.4676 20.25 53.8398 25.8957 53.8398 32.86C53.8398 39.8243 59.4676 45.47 66.4098 45.47Z" fill="#4CAF50"/>
<path d="M66.2398 20.26C66.1598 24.79 64.8098 34.8 54.6498 37.32C54.1135 35.8942 53.8391 34.3833 53.8398 32.86C53.8525 32.2969 53.906 31.7354 53.9998 31.18C54.3367 28.6055 55.4626 26.1985 57.2228 24.2897C58.9829 22.3809 61.291 21.064 63.8298 20.52C64.6223 20.3518 65.4298 20.2647 66.2398 20.26Z" fill="#FBE481"/>
<path opacity="0.5" d="M78.7609 32.7099C78.7636 34.3633 78.4405 36.0009 77.8102 37.5294C77.18 39.0579 76.2548 40.4473 75.0876 41.6182C73.9203 42.7892 72.5339 43.7188 71.0074 44.3539C69.4809 44.989 67.8443 45.3173 66.1909 45.3199C64.659 45.3237 63.1398 45.0423 61.7109 44.4899C72.2109 40.6099 74.6309 31.4899 74.1009 22.9099C75.5577 24.094 76.7319 25.5881 77.538 27.2835C78.3442 28.9788 78.762 30.8327 78.7609 32.7099Z" fill="#FDFF89"/>
<path d="M60.621 23.9341C60.8317 23.7556 60.9158 23.5085 60.8087 23.382C60.7017 23.2556 60.444 23.2977 60.2333 23.4761C60.0225 23.6545 59.9384 23.9017 60.0455 24.0282C60.1526 24.1546 60.4102 24.1125 60.621 23.9341Z" fill="white"/>
<path d="M58.4992 30.48C58.469 30.4649 58.4453 30.4394 58.4324 30.4081C58.4196 30.3769 58.4184 30.3421 58.4292 30.31L59.1392 28.62C59.1458 28.6043 59.1554 28.59 59.1675 28.5779C59.1796 28.5659 59.194 28.5563 59.2097 28.5498C59.2255 28.5433 59.2424 28.54 59.2595 28.54C59.2766 28.5401 59.2935 28.5435 59.3092 28.55C59.3395 28.5652 59.3632 28.5907 59.3761 28.6219C59.3889 28.6532 59.39 28.688 59.3792 28.72L58.6592 30.41C58.6552 30.4264 58.6474 30.4417 58.6366 30.4546C58.6257 30.4675 58.612 30.4778 58.5965 30.4845C58.581 30.4913 58.5642 30.4944 58.5473 30.4936C58.5305 30.4929 58.514 30.4882 58.4992 30.48Z" fill="#FDFF89"/>
<path d="M59.4501 29.67H59.4001C59.3834 29.6647 59.368 29.6558 59.3551 29.644C59.3423 29.6321 59.3321 29.6175 59.3254 29.6013C59.3188 29.5851 59.3157 29.5677 59.3165 29.5502C59.3173 29.5327 59.322 29.5156 59.3301 29.5L59.7101 28.6C59.7233 28.5682 59.7487 28.5429 59.7806 28.5298C59.8125 28.5167 59.8483 28.5168 59.8801 28.53C59.9119 28.5433 59.9372 28.5686 59.9503 28.6005C59.9634 28.6324 59.9633 28.6682 59.9501 28.7L59.5701 29.6C59.5579 29.6211 59.5404 29.6387 59.5194 29.651C59.4983 29.6632 59.4744 29.6698 59.4501 29.67Z" fill="#FDFF89"/>
<path d="M66.4088 45.4999C63.9067 45.5098 61.458 44.7769 59.3728 43.394C57.2876 42.0111 55.6597 40.0405 54.6953 37.7317C53.731 35.423 53.4735 32.8799 53.9556 30.4247C54.4376 27.9695 55.6375 25.7126 57.4032 23.9399C59.169 22.1671 61.4211 20.9583 63.8744 20.4665C66.3276 19.9748 68.8717 20.2221 71.1843 21.1773C73.4968 22.1325 75.4739 23.7526 76.865 25.8323C78.2561 27.912 78.9987 30.3578 78.9988 32.8599C78.9988 36.2036 77.6739 39.411 75.3143 41.7801C72.9546 44.1491 69.7524 45.4867 66.4088 45.4999ZM66.4088 21.2299C64.1069 21.222 61.8544 21.8973 59.9366 23.1704C58.0188 24.4435 56.5219 26.2571 55.6356 28.3815C54.7492 30.5059 54.5131 32.8455 54.9574 35.1042C55.4016 37.3628 56.5061 39.4388 58.1309 41.0693C59.7558 42.6998 61.828 43.8114 64.0851 44.2634C66.3422 44.7154 68.6826 44.4874 70.8101 43.6084C72.9375 42.7293 74.7562 41.2387 76.0359 39.3253C77.3156 37.4119 77.9987 35.1618 77.9988 32.8599C78.0014 29.7815 76.7825 26.8279 74.6095 24.6474C72.4365 22.4669 69.4871 21.2378 66.4088 21.2299Z" fill="#FDFF89"/>
<path d="M53.84 33.11C53.7736 33.11 53.7101 33.0837 53.6632 33.0368C53.6163 32.9899 53.59 32.9263 53.59 32.86C53.5863 31.99 53.6735 31.122 53.85 30.27C53.8547 30.2373 53.8661 30.2059 53.8835 30.1777C53.901 30.1496 53.924 30.1254 53.9512 30.1066C53.9785 30.0879 54.0093 30.0749 54.0418 30.0686C54.0742 30.0623 54.1077 30.0628 54.14 30.07C54.1731 30.076 54.2047 30.0885 54.2329 30.107C54.261 30.1254 54.2852 30.1494 54.3039 30.1774C54.3225 30.2054 54.3354 30.2369 54.3416 30.27C54.3478 30.3031 54.3472 30.3371 54.34 30.37C54.1712 31.1892 54.0874 32.0236 54.09 32.86C54.09 32.9263 54.0636 32.9899 54.0167 33.0368C53.9698 33.0837 53.9063 33.11 53.84 33.11Z" fill="#FDFF89"/>
<path d="M66.4115 45.72C63.375 45.7244 60.436 44.6484 58.1202 42.6843C55.8044 40.7203 54.2629 37.9964 53.7715 35C53.7617 34.966 53.7592 34.9304 53.7642 34.8954C53.7692 34.8605 53.7816 34.8269 53.8005 34.7971C53.8194 34.7672 53.8444 34.7417 53.8738 34.7222C53.9033 34.7028 53.9366 34.6897 53.9714 34.6841C54.0063 34.6784 54.042 34.6801 54.0761 34.6892C54.1102 34.6983 54.1421 34.7146 54.1695 34.7368C54.1969 34.7591 54.2192 34.787 54.2351 34.8185C54.251 34.8501 54.26 34.8847 54.2615 34.92C54.7742 37.8562 56.3299 40.5085 58.6424 42.3891C60.9549 44.2697 63.8687 45.2521 66.8478 45.1555C69.8269 45.059 72.671 43.89 74.8568 41.8636C77.0427 39.8372 78.4234 37.0897 78.7449 34.1264C79.0664 31.1631 78.3072 28.1834 76.6068 25.7353C74.9064 23.2873 72.3793 21.5355 69.4903 20.8022C66.6012 20.0689 63.5445 20.4035 60.8825 21.7443C58.2205 23.0851 56.1321 25.3421 55.0015 28.1C54.9749 28.1612 54.9259 28.2099 54.8645 28.2359C54.803 28.262 54.7339 28.2634 54.6715 28.24C54.6103 28.2134 54.5616 28.1644 54.5355 28.103C54.5095 28.0415 54.508 27.9724 54.5315 27.91C55.4298 25.7701 56.8914 23.9136 58.7607 22.5381C60.63 21.1626 62.8372 20.3195 65.1475 20.0984C67.4578 19.8774 69.7848 20.2866 71.881 21.2826C73.9773 22.2786 75.7644 23.8242 77.0523 25.7549C78.3401 27.6856 79.0806 29.9293 79.195 32.2474C79.3093 34.5654 78.7933 36.8711 77.7017 38.9192C76.6101 40.9673 74.9838 42.6813 72.9958 43.8788C71.0078 45.0763 68.7323 45.7126 66.4115 45.72Z" fill="#FDFF89"/>
<path d="M53.8108 34.1599C53.9544 34.1599 54.0708 34.0435 54.0708 33.8999C54.0708 33.7563 53.9544 33.6399 53.8108 33.6399C53.6672 33.6399 53.5508 33.7563 53.5508 33.8999C53.5508 34.0435 53.6672 34.1599 53.8108 34.1599Z" fill="#FDFF89"/>
<path d="M66.4119 43.0601C64.3908 43.066 62.4135 42.472 60.7303 41.3533C59.0471 40.2346 57.7338 38.6415 56.9567 36.7758C56.1797 34.9101 55.9738 32.8558 56.3651 30.873C56.7565 28.8902 57.7275 27.0682 59.1552 25.6377C60.5829 24.2072 62.4031 23.2326 64.3851 22.8373C66.3671 22.442 68.4218 22.6439 70.289 23.4173C72.1563 24.1907 73.7519 25.5009 74.8739 27.1819C75.996 28.8629 76.5938 30.839 76.5919 32.8601C76.5919 35.5618 75.52 38.1532 73.6114 40.0655C71.7029 41.9778 69.1136 43.0548 66.4119 43.0601ZM66.4119 23.6601C64.591 23.6542 62.8094 24.1887 61.2925 25.196C59.7756 26.2033 58.5918 27.638 57.8908 29.3186C57.1899 30.9991 57.0034 32.8499 57.355 34.6365C57.7066 36.4231 58.5804 38.0652 59.8659 39.3548C61.1513 40.6444 62.7905 41.5236 64.576 41.8811C66.3614 42.2385 68.2128 42.0581 69.8956 41.3626C71.5784 40.6672 73.017 39.488 74.0293 37.9744C75.0415 36.4609 75.5819 34.681 75.5819 32.8601C75.5845 30.4245 74.6202 28.0874 72.9008 26.3624C71.1814 24.6373 68.8475 23.6654 66.4119 23.6601Z" fill="#FDFF89"/>
<path d="M59.3785 40.21C59.3258 40.2093 59.2754 40.1877 59.2385 40.15C58.2794 39.1951 57.5201 38.0586 57.005 36.8069C56.4899 35.5552 56.2294 34.2135 56.2385 32.86C56.2432 30.7797 56.8784 28.7497 58.0602 27.0376C59.242 25.3256 60.915 24.012 62.8585 23.27C62.8834 23.2605 62.91 23.2561 62.9367 23.2569C62.9634 23.2578 62.9896 23.2641 63.0138 23.2752C63.038 23.2864 63.0598 23.3023 63.0778 23.3221C63.0957 23.3418 63.1096 23.3649 63.1185 23.39C63.1351 23.4405 63.132 23.4954 63.1097 23.5437C63.0874 23.5919 63.0477 23.6299 62.9985 23.65C61.4562 24.2345 60.0854 25.1969 59.0117 26.449C57.9381 27.701 57.1961 29.2026 56.8537 30.816C56.5113 32.4294 56.5795 34.103 57.0521 35.6832C57.5247 37.2633 58.3865 38.6996 59.5585 39.86C59.5958 39.8991 59.6166 39.951 59.6166 40.005C59.6166 40.059 59.5958 40.111 59.5585 40.15C59.5358 40.1742 59.5075 40.1923 59.4761 40.2027C59.4447 40.2132 59.4111 40.2157 59.3785 40.21Z" fill="#FDFF89"/>
<path d="M66.4092 43.1C64.5513 43.0995 62.729 42.5912 61.1392 41.63C61.1161 41.6176 61.0958 41.6005 61.0796 41.58C61.0635 41.5594 61.0517 41.5356 61.0451 41.5103C61.0386 41.4849 61.0373 41.4585 61.0414 41.4326C61.0456 41.4067 61.055 41.382 61.0692 41.36C61.0825 41.3366 61.1005 41.3161 61.122 41.2999C61.1435 41.2836 61.1681 41.2718 61.1942 41.2653C61.2204 41.2587 61.2476 41.2576 61.2742 41.2618C61.3008 41.266 61.3263 41.2756 61.3492 41.29C62.6487 42.0588 64.1078 42.518 65.6135 42.6318C67.1191 42.7457 68.6307 42.5112 70.031 41.9465C71.4314 41.3817 72.6828 40.502 73.6883 39.3756C74.6937 38.2491 75.4261 36.9061 75.8288 35.4509C76.2314 33.9956 76.2933 32.4672 76.0098 30.9841C75.7263 29.501 75.1049 28.1032 74.194 26.8991C73.283 25.6949 72.1068 24.7168 70.7568 24.0406C69.4067 23.3644 67.9191 23.0083 66.4092 23C65.8835 22.9994 65.3586 23.0395 64.8392 23.12C64.7927 23.1328 64.7432 23.1276 64.7005 23.1053C64.6578 23.0831 64.6251 23.0454 64.6092 23C64.6049 22.9737 64.606 22.9468 64.6122 22.9209C64.6185 22.895 64.6299 22.8706 64.6458 22.8492C64.6616 22.8278 64.6816 22.8097 64.7045 22.7961C64.7274 22.7825 64.7528 22.7736 64.7792 22.77C65.3179 22.6812 65.8631 22.6377 66.4092 22.64C69.125 22.64 71.7296 23.7188 73.6499 25.6392C75.5703 27.5596 76.6492 30.1642 76.6492 32.88C76.6492 35.5958 75.5703 38.2004 73.6499 40.1207C71.7296 42.0411 69.125 43.12 66.4092 43.12V43.1Z" fill="#FDFF89"/>
<path d="M63.8616 23.3899C64.0052 23.3899 64.1216 23.2735 64.1216 23.1299C64.1216 22.9863 64.0052 22.8699 63.8616 22.8699C63.718 22.8699 63.6016 22.9863 63.6016 23.1299C63.6016 23.2735 63.718 23.3899 63.8616 23.3899Z" fill="#FDFF89"/>
<path d="M60.2405 41.0901C60.3841 41.0901 60.5005 40.9737 60.5005 40.8301C60.5005 40.6865 60.3841 40.5701 60.2405 40.5701C60.0969 40.5701 59.9805 40.6865 59.9805 40.8301C59.9805 40.9737 60.0969 41.0901 60.2405 41.0901Z" fill="#FDFF89"/>
<path d="M66.4119 43.0601C64.3908 43.066 62.4135 42.472 60.7303 41.3533C59.0471 40.2346 57.7338 38.6415 56.9567 36.7758C56.1797 34.9101 55.9738 32.8558 56.3651 30.873C56.7565 28.8902 57.7275 27.0682 59.1552 25.6377C60.5829 24.2072 62.4031 23.2326 64.3851 22.8373C66.3671 22.442 68.4218 22.6439 70.289 23.4173C72.1563 24.1907 73.7519 25.5009 74.8739 27.1819C75.996 28.8629 76.5938 30.839 76.5919 32.8601C76.5919 35.5618 75.52 38.1532 73.6114 40.0655C71.7029 41.9778 69.1136 43.0548 66.4119 43.0601ZM66.4119 23.6601C64.591 23.6542 62.8094 24.1887 61.2925 25.196C59.7756 26.2033 58.5918 27.638 57.8908 29.3186C57.1899 30.9991 57.0034 32.8499 57.355 34.6365C57.7066 36.4231 58.5804 38.0652 59.8659 39.3548C61.1513 40.6444 62.7905 41.5236 64.576 41.8811C66.3614 42.2385 68.2128 42.0581 69.8956 41.3626C71.5784 40.6672 73.017 39.488 74.0293 37.9744C75.0415 36.4609 75.5819 34.681 75.5819 32.8601C75.5845 30.4245 74.6202 28.0874 72.9008 26.3624C71.1814 24.6373 68.8475 23.6654 66.4119 23.6601Z" fill="#FDFF89"/>
<path d="M59.3785 40.21C59.3258 40.2093 59.2754 40.1877 59.2385 40.15C58.2794 39.1951 57.5201 38.0586 57.005 36.8069C56.4899 35.5552 56.2294 34.2135 56.2385 32.86C56.2432 30.7797 56.8784 28.7497 58.0602 27.0376C59.242 25.3256 60.915 24.012 62.8585 23.27C62.8834 23.2605 62.91 23.2561 62.9367 23.2569C62.9634 23.2578 62.9896 23.2641 63.0138 23.2752C63.038 23.2864 63.0598 23.3023 63.0778 23.3221C63.0957 23.3418 63.1096 23.3649 63.1185 23.39C63.1351 23.4405 63.132 23.4954 63.1097 23.5437C63.0874 23.5919 63.0477 23.6299 62.9985 23.65C61.4562 24.2345 60.0854 25.1969 59.0117 26.449C57.9381 27.701 57.1961 29.2026 56.8537 30.816C56.5113 32.4294 56.5795 34.103 57.0521 35.6832C57.5247 37.2633 58.3865 38.6996 59.5585 39.86C59.5958 39.8991 59.6166 39.951 59.6166 40.005C59.6166 40.059 59.5958 40.111 59.5585 40.15C59.5358 40.1742 59.5075 40.1923 59.4761 40.2027C59.4447 40.2132 59.4111 40.2157 59.3785 40.21Z" fill="#FDFF89"/>
<path d="M66.4092 43.1C64.5513 43.0995 62.729 42.5912 61.1392 41.63C61.1161 41.6176 61.0958 41.6005 61.0796 41.58C61.0635 41.5594 61.0517 41.5356 61.0451 41.5103C61.0386 41.4849 61.0373 41.4585 61.0414 41.4326C61.0456 41.4067 61.055 41.382 61.0692 41.36C61.0825 41.3366 61.1005 41.3161 61.122 41.2999C61.1435 41.2836 61.1681 41.2718 61.1942 41.2653C61.2204 41.2587 61.2476 41.2576 61.2742 41.2618C61.3008 41.266 61.3263 41.2756 61.3492 41.29C62.6487 42.0588 64.1078 42.518 65.6135 42.6318C67.1191 42.7457 68.6307 42.5112 70.031 41.9465C71.4314 41.3817 72.6828 40.502 73.6883 39.3756C74.6937 38.2491 75.4261 36.9061 75.8288 35.4509C76.2314 33.9956 76.2933 32.4672 76.0098 30.9841C75.7263 29.501 75.1049 28.1032 74.194 26.8991C73.283 25.6949 72.1068 24.7168 70.7568 24.0406C69.4067 23.3644 67.9191 23.0083 66.4092 23C65.8835 22.9994 65.3586 23.0395 64.8392 23.12C64.7927 23.1328 64.7432 23.1276 64.7005 23.1053C64.6578 23.0831 64.6251 23.0454 64.6092 23C64.6049 22.9737 64.606 22.9468 64.6122 22.9209C64.6185 22.895 64.6299 22.8706 64.6458 22.8492C64.6616 22.8278 64.6816 22.8097 64.7045 22.7961C64.7274 22.7825 64.7528 22.7736 64.7792 22.77C65.3179 22.6812 65.8631 22.6377 66.4092 22.64C69.125 22.64 71.7296 23.7188 73.6499 25.6392C75.5703 27.5596 76.6492 30.1642 76.6492 32.88C76.6492 35.5958 75.5703 38.2004 73.6499 40.1207C71.7296 42.0411 69.125 43.12 66.4092 43.12V43.1Z" fill="#FDFF89"/>
<path d="M63.8616 23.3899C64.0052 23.3899 64.1216 23.2735 64.1216 23.1299C64.1216 22.9863 64.0052 22.8699 63.8616 22.8699C63.718 22.8699 63.6016 22.9863 63.6016 23.1299C63.6016 23.2735 63.718 23.3899 63.8616 23.3899Z" fill="#FDFF89"/>
<path d="M60.2405 41.0901C60.3841 41.0901 60.5005 40.9737 60.5005 40.8301C60.5005 40.6865 60.3841 40.5701 60.2405 40.5701C60.0969 40.5701 59.9805 40.6865 59.9805 40.8301C59.9805 40.9737 60.0969 41.0901 60.2405 41.0901Z" fill="#FDFF89"/>
<path d="M54.4006 29.3501C54.5442 29.3501 54.6606 29.2337 54.6606 29.0901C54.6606 28.9465 54.5442 28.8301 54.4006 28.8301C54.257 28.8301 54.1406 28.9465 54.1406 29.0901C54.1406 29.2337 54.257 29.3501 54.4006 29.3501Z" fill="#FDFF89"/>
<path d="M57.2699 27.0601C57.2271 27.0693 57.1828 27.0693 57.1399 27.0601C57.1113 27.0427 57.0864 27.0198 57.0668 26.9926C57.0472 26.9655 57.0333 26.9346 57.0258 26.902C57.0184 26.8694 57.0175 26.8355 57.0234 26.8026C57.0292 26.7696 57.0417 26.7381 57.0599 26.7101C57.6814 25.7604 58.4473 24.9136 59.3299 24.2001C59.3783 24.1536 59.4428 24.1277 59.5099 24.1277C59.577 24.1277 59.6415 24.1536 59.6899 24.2001C59.7357 24.2468 59.7614 24.3096 59.7614 24.3751C59.7614 24.4405 59.7357 24.5033 59.6899 24.5501C58.8276 25.241 58.0844 26.0687 57.4899 27.0001C57.4598 27.0255 57.4246 27.0441 57.3866 27.0544C57.3485 27.0648 57.3087 27.0667 57.2699 27.0601Z" fill="white"/>
<path opacity="0.4" d="M70.1302 38.45C70.2517 38.45 70.3502 38.3515 70.3502 38.23C70.3502 38.1085 70.2517 38.01 70.1302 38.01C70.0087 38.01 69.9102 38.1085 69.9102 38.23C69.9102 38.3515 70.0087 38.45 70.1302 38.45Z" fill="#FDFF89"/>
<path d="M70.2583 41.6401C70.6835 41.6401 71.0283 41.2954 71.0283 40.8701C71.0283 40.4448 70.6835 40.1001 70.2583 40.1001C69.833 40.1001 69.4883 40.4448 69.4883 40.8701C69.4883 41.2954 69.833 41.6401 70.2583 41.6401Z" fill="#FDFF89"/>
<path d="M70.7795 39.48C70.9231 39.48 71.0395 39.3636 71.0395 39.22C71.0395 39.0764 70.9231 38.96 70.7795 38.96C70.6359 38.96 70.5195 39.0764 70.5195 39.22C70.5195 39.3636 70.6359 39.48 70.7795 39.48Z" fill="#FDFF89"/>
<path d="M68.4786 41.4699C68.6222 41.4699 68.7388 41.3535 68.7388 41.2099C68.7388 41.0664 68.6222 40.95 68.4786 40.95C68.3351 40.95 68.2188 41.0664 68.2188 41.2099C68.2188 41.3535 68.3351 41.4699 68.4786 41.4699Z" fill="#FDFF89"/>
<path d="M72.1794 40.37C72.3561 40.37 72.4994 40.2267 72.4994 40.05C72.4994 39.8732 72.3561 39.73 72.1794 39.73C72.0026 39.73 71.8594 39.8732 71.8594 40.05C71.8594 40.2267 72.0026 40.37 72.1794 40.37Z" fill="#FDFF89"/>
<path opacity="0.4" d="M68.6809 40.46C68.8024 40.46 68.9009 40.3615 68.9009 40.24C68.9009 40.1185 68.8024 40.02 68.6809 40.02C68.5594 40.02 68.4609 40.1185 68.4609 40.24C68.4609 40.3615 68.5594 40.46 68.6809 40.46Z" fill="#FDFF89"/>
<path opacity="0.4" d="M69.3589 39.8199C69.4859 39.8199 69.5889 39.7169 69.5889 39.5899C69.5889 39.4628 69.4859 39.3599 69.3589 39.3599C69.2319 39.3599 69.1289 39.4628 69.1289 39.5899C69.1289 39.7169 69.2319 39.8199 69.3589 39.8199Z" fill="#FDFF89"/>
<path opacity="0.4" d="M69.3283 38.73C69.378 38.73 69.4183 38.6898 69.4183 38.64C69.4183 38.5903 69.378 38.55 69.3283 38.55C69.2786 38.55 69.2383 38.5903 69.2383 38.64C69.2383 38.6898 69.2786 38.73 69.3283 38.73Z" fill="#FDFF89"/>
<path d="M69.6397 44.5299C69.8937 44.5299 70.0997 44.3239 70.0997 44.0699C70.0997 43.8158 69.8937 43.6099 69.6397 43.6099C69.3856 43.6099 69.1797 43.8158 69.1797 44.0699C69.1797 44.3239 69.3856 44.5299 69.6397 44.5299Z" fill="#FDFF89"/>
<path d="M69.9586 43.4399C70.0414 43.4399 70.1086 43.3727 70.1086 43.2899C70.1086 43.2071 70.0414 43.1399 69.9586 43.1399C69.8757 43.1399 69.8086 43.2071 69.8086 43.2899C69.8086 43.3727 69.8757 43.4399 69.9586 43.4399Z" fill="#FDFF89"/>
<path d="M68.5914 44.6201C68.6743 44.6201 68.7414 44.5529 68.7414 44.4701C68.7414 44.3872 68.6743 44.3201 68.5914 44.3201C68.5086 44.3201 68.4414 44.3872 68.4414 44.4701C68.4414 44.5529 68.5086 44.6201 68.5914 44.6201Z" fill="#FDFF89"/>
<path d="M70.7916 43.9601C70.8965 43.9601 70.9816 43.875 70.9816 43.7701C70.9816 43.6651 70.8965 43.5801 70.7916 43.5801C70.6866 43.5801 70.6016 43.6651 70.6016 43.7701C70.6016 43.875 70.6866 43.9601 70.7916 43.9601Z" fill="#FDFF89"/>
<path opacity="0.4" d="M68.7081 44.02C68.7799 44.02 68.8381 43.9618 68.8381 43.89C68.8381 43.8182 68.7799 43.76 68.7081 43.76C68.6363 43.76 68.5781 43.8182 68.5781 43.89C68.5781 43.9618 68.6363 44.02 68.7081 44.02Z" fill="#FDFF89"/>
<path opacity="0.4" d="M69.1087 43.6399C69.1861 43.6399 69.2486 43.5772 69.2486 43.4999C69.2486 43.4225 69.1861 43.3599 69.1087 43.3599C69.0314 43.3599 68.9688 43.4225 68.9688 43.4999C68.9688 43.5772 69.0314 43.6399 69.1087 43.6399Z" fill="#FDFF89"/>
<path opacity="0.4" d="M69.1008 42.9799C69.1284 42.9799 69.1508 42.9575 69.1508 42.9299C69.1508 42.9023 69.1284 42.8799 69.1008 42.8799C69.0732 42.8799 69.0508 42.9023 69.0508 42.9299C69.0508 42.9575 69.0732 42.9799 69.1008 42.9799Z" fill="#FDFF89"/>
<path d="M66.8894 42.32C67.044 42.32 67.1694 42.1947 67.1694 42.04C67.1694 41.8854 67.044 41.76 66.8894 41.76C66.7347 41.76 66.6094 41.8854 66.6094 42.04C66.6094 42.1947 66.7347 42.32 66.8894 42.32Z" fill="#FDFF89"/>
<path d="M62.1756 27.4154C62.6339 26.7587 62.6456 25.9752 62.2018 25.6655C61.7579 25.3557 61.0266 25.637 60.5683 26.2937C60.11 26.9504 60.0983 27.7339 60.5421 28.0436C60.986 28.3534 61.7173 28.0721 62.1756 27.4154Z" fill="#FFEFAE"/>
<path d="M69.47 34C69.3357 33.6919 69.142 33.4132 68.9 33.18C68.6637 32.955 68.3979 32.7633 68.11 32.61C67.8376 32.4573 67.5534 32.3268 67.26 32.22C66.88 32.07 66.52 31.93 66.18 31.78C65.8757 31.6553 65.5949 31.4794 65.35 31.26C65.2462 31.1613 65.1648 31.0415 65.1113 30.9086C65.0578 30.7758 65.0335 30.633 65.04 30.49C65.0355 30.275 65.0835 30.0621 65.18 29.87C65.2869 29.6973 65.4439 29.5613 65.63 29.48C65.8812 29.3804 66.1499 29.3328 66.42 29.34C66.7046 29.3306 66.9858 29.4035 67.23 29.55C67.4616 29.6914 67.665 29.8745 67.83 30.09C68.0029 30.3239 68.1567 30.5714 68.29 30.83L69.57 30C69.4045 29.636 69.1854 29.2989 68.92 29C68.6241 28.6767 68.2673 28.415 67.87 28.23C67.6094 28.1135 67.3331 28.036 67.05 28V26.46H65.78V27.99C65.4345 28.0326 65.0974 28.127 64.78 28.27C64.3488 28.4678 63.9766 28.7745 63.7 29.16C63.4398 29.5129 63.3027 29.9415 63.31 30.38C63.2962 30.7846 63.382 31.1863 63.56 31.55C63.7156 31.8611 63.9295 32.1394 64.19 32.37C64.4365 32.5904 64.7125 32.7755 65.01 32.92C65.2661 33.0494 65.5299 33.1629 65.8 33.26C66.16 33.4 66.51 33.54 66.8 33.7C67.101 33.8365 67.3726 34.0301 67.6 34.27C67.8115 34.5092 67.9226 34.8209 67.91 35.14C67.9197 35.3866 67.8645 35.6314 67.75 35.85C67.6453 36.0498 67.4762 36.2084 67.27 36.3C67.0108 36.4088 66.731 36.46 66.45 36.45C66.1029 36.4559 65.7596 36.377 65.45 36.22C65.1439 36.0483 64.8753 35.8171 64.66 35.54C64.3971 35.2116 64.1755 34.8522 64 34.47L62.75 35.28C62.9433 35.7695 63.2285 36.2175 63.59 36.6C63.9435 36.9843 64.3679 37.2967 64.84 37.52C65.1194 37.6503 65.4156 37.7411 65.72 37.79V39.26H67.01V37.82C67.4145 37.7891 67.8105 37.6876 68.18 37.52C68.6362 37.3008 69.0185 36.9532 69.28 36.52C69.5387 36.0739 69.6701 35.5655 69.66 35.05C69.6694 34.6906 69.6047 34.3332 69.47 34Z" fill="white"/>
</svg>
