<svg width="20" height="16" viewBox="0 0 20 16" fill="none" xmlns="http://www.w3.org/2000/svg">
<path d="M1.7733 11.1108C1.39311 8.63957 1.01292 6.16838 0.632733 3.69713C0.548421 3.14932 1.17173 2.77569 1.61511 3.10826C2.79961 3.99663 3.98405 4.88494 5.16855 5.77332C5.55855 6.06582 6.11417 5.97063 6.38455 5.56501L9.34286 1.12751C9.65548 0.658568 10.3445 0.658568 10.6571 1.12751L13.6154 5.56501C13.8858 5.97063 14.4414 6.06576 14.8314 5.77332C16.0159 4.88494 17.2004 3.99663 18.3849 3.10826C18.8282 2.77569 19.4515 3.14932 19.3673 3.69713C18.9871 6.16838 18.6069 8.63957 18.2267 11.1108H1.7733Z" fill="#FFB743"/>
<path d="M17.369 15.2241H2.63125C2.1575 15.2241 1.77344 14.8401 1.77344 14.3663V12.4819H18.2269V14.3663C18.2268 14.8401 17.8428 15.2241 17.369 15.2241Z" fill="#FFB743"/>
</svg>
