<svg width="34" height="20" viewBox="0 0 34 20" fill="none" xmlns="http://www.w3.org/2000/svg">
<circle cx="27.5" cy="13.5" r="6.5" fill="#94D096"/>
<path d="M24.5533 15V11.0156H25.7867C25.9254 11.0156 26.0563 11.042 26.1793 11.0947C26.3023 11.1475 26.4098 11.2207 26.5016 11.3145C26.5934 11.4062 26.6656 11.5137 26.7184 11.6367C26.7711 11.7578 26.7975 11.8887 26.7975 12.0293C26.7975 12.2988 26.7037 12.5312 26.5162 12.7266L26.5016 12.7412C26.6285 12.8018 26.7418 12.8809 26.8414 12.9785C26.9488 13.0879 27.0338 13.2139 27.0963 13.3564C27.1588 13.499 27.19 13.6523 27.19 13.8164C27.19 13.9785 27.1588 14.1309 27.0963 14.2734C27.0338 14.416 26.9488 14.542 26.8414 14.6514C26.734 14.7588 26.608 14.8438 26.4635 14.9062C26.3209 14.9688 26.1686 15 26.0064 15H24.5533ZM24.9605 11.4229V14.5928H26.0064C26.2193 14.5928 26.402 14.5166 26.5543 14.3643C26.7066 14.2119 26.7828 14.0293 26.7828 13.8164C26.7828 13.6016 26.7066 13.4189 26.5543 13.2686C26.402 13.1162 26.2193 13.04 26.0064 13.04H25.8219V12.9434C25.8219 12.7754 25.8971 12.6523 26.0475 12.5742C26.1139 12.541 26.1725 12.498 26.2232 12.4453C26.3346 12.3301 26.3902 12.1914 26.3902 12.0293C26.3902 11.8633 26.3316 11.7207 26.2145 11.6016C26.0953 11.4824 25.9527 11.4229 25.7867 11.4229H24.9605ZM27.5756 16.04V12.123H27.5814C27.6928 12.123 27.7875 12.1631 27.8656 12.2432C27.9438 12.3213 27.9828 12.415 27.9828 12.5244V12.5479C28.0043 12.5225 28.0268 12.498 28.0502 12.4746C28.1908 12.3359 28.3539 12.2266 28.5395 12.1465C28.725 12.0664 28.9232 12.0264 29.1342 12.0264C29.3471 12.0264 29.5463 12.0664 29.7318 12.1465C29.9174 12.2266 30.0805 12.3359 30.2211 12.4746C30.3598 12.6152 30.4691 12.7783 30.5492 12.9639C30.6293 13.1494 30.6693 13.3486 30.6693 13.5615C30.6693 13.7725 30.6293 13.9707 30.5492 14.1562C30.4691 14.3418 30.3598 14.5049 30.2211 14.6455C30.0805 14.7861 29.9174 14.8965 29.7318 14.9766C29.5463 15.0547 29.3471 15.0938 29.1342 15.0938C28.9232 15.0938 28.725 15.0547 28.5395 14.9766C28.3539 14.8965 28.1908 14.7861 28.0502 14.6455C28.0268 14.6221 28.0043 14.5986 27.9828 14.5752V15.6387C27.9828 15.75 27.9438 15.8447 27.8656 15.9229C27.7875 16.001 27.6928 16.04 27.5814 16.04H27.5756ZM29.1342 14.6865C29.2904 14.6865 29.4369 14.6572 29.5736 14.5986C29.7104 14.54 29.8305 14.46 29.934 14.3584C30.0355 14.2549 30.1156 14.1348 30.1742 13.998C30.2328 13.8613 30.2621 13.7158 30.2621 13.5615C30.2621 13.4053 30.2328 13.2588 30.1742 13.1221C30.1156 12.9854 30.0355 12.8662 29.934 12.7646C29.8305 12.6611 29.7104 12.5801 29.5736 12.5215C29.4369 12.4629 29.2904 12.4336 29.1342 12.4336C28.9799 12.4336 28.8344 12.4629 28.6977 12.5215C28.5609 12.5801 28.4408 12.6611 28.3373 12.7646C28.2357 12.8662 28.1557 12.9854 28.0971 13.1221C28.0385 13.2588 28.0092 13.4053 28.0092 13.5615C28.0092 13.7158 28.0385 13.8613 28.0971 13.998C28.1557 14.1348 28.2357 14.2549 28.3373 14.3584C28.4408 14.46 28.5609 14.54 28.6977 14.5986C28.8344 14.6572 28.9799 14.6865 29.1342 14.6865Z" fill="#FAFAFA"/>
<circle cx="6.5" cy="13.5" r="6.5" fill="#94D096"/>
<path d="M3.55332 15V11.0156H4.78672C4.92539 11.0156 5.05625 11.042 5.1793 11.0947C5.30234 11.1475 5.40977 11.2207 5.50156 11.3145C5.59336 11.4062 5.66563 11.5137 5.71836 11.6367C5.77109 11.7578 5.79746 11.8887 5.79746 12.0293C5.79746 12.2988 5.70371 12.5312 5.51621 12.7266L5.50156 12.7412C5.62852 12.8018 5.7418 12.8809 5.84141 12.9785C5.94883 13.0879 6.03379 13.2139 6.09629 13.3564C6.15879 13.499 6.19004 13.6523 6.19004 13.8164C6.19004 13.9785 6.15879 14.1309 6.09629 14.2734C6.03379 14.416 5.94883 14.542 5.84141 14.6514C5.73398 14.7588 5.60801 14.8438 5.46348 14.9062C5.3209 14.9688 5.16855 15 5.00645 15H3.55332ZM3.96055 11.4229V14.5928H5.00645C5.21934 14.5928 5.40195 14.5166 5.5543 14.3643C5.70664 14.2119 5.78281 14.0293 5.78281 13.8164C5.78281 13.6016 5.70664 13.4189 5.5543 13.2686C5.40195 13.1162 5.21934 13.04 5.00645 13.04H4.82188V12.9434C4.82188 12.7754 4.89707 12.6523 5.04746 12.5742C5.11387 12.541 5.17246 12.498 5.22324 12.4453C5.33457 12.3301 5.39023 12.1914 5.39023 12.0293C5.39023 11.8633 5.33164 11.7207 5.21445 11.6016C5.09531 11.4824 4.95273 11.4229 4.78672 11.4229H3.96055ZM6.57559 16.04V12.123H6.58145C6.69277 12.123 6.7875 12.1631 6.86563 12.2432C6.94375 12.3213 6.98281 12.415 6.98281 12.5244V12.5479C7.0043 12.5225 7.02676 12.498 7.0502 12.4746C7.19082 12.3359 7.35391 12.2266 7.53945 12.1465C7.725 12.0664 7.92324 12.0264 8.13418 12.0264C8.34707 12.0264 8.54629 12.0664 8.73184 12.1465C8.91738 12.2266 9.08047 12.3359 9.22109 12.4746C9.35977 12.6152 9.46914 12.7783 9.54922 12.9639C9.6293 13.1494 9.66934 13.3486 9.66934 13.5615C9.66934 13.7725 9.6293 13.9707 9.54922 14.1562C9.46914 14.3418 9.35977 14.5049 9.22109 14.6455C9.08047 14.7861 8.91738 14.8965 8.73184 14.9766C8.54629 15.0547 8.34707 15.0938 8.13418 15.0938C7.92324 15.0938 7.725 15.0547 7.53945 14.9766C7.35391 14.8965 7.19082 14.7861 7.0502 14.6455C7.02676 14.6221 7.0043 14.5986 6.98281 14.5752V15.6387C6.98281 15.75 6.94375 15.8447 6.86563 15.9229C6.7875 16.001 6.69277 16.04 6.58145 16.04H6.57559ZM8.13418 14.6865C8.29043 14.6865 8.43691 14.6572 8.57363 14.5986C8.71035 14.54 8.83047 14.46 8.93398 14.3584C9.03555 14.2549 9.11563 14.1348 9.17422 13.998C9.23281 13.8613 9.26211 13.7158 9.26211 13.5615C9.26211 13.4053 9.23281 13.2588 9.17422 13.1221C9.11563 12.9854 9.03555 12.8662 8.93398 12.7646C8.83047 12.6611 8.71035 12.5801 8.57363 12.5215C8.43691 12.4629 8.29043 12.4336 8.13418 12.4336C7.97988 12.4336 7.83438 12.4629 7.69766 12.5215C7.56094 12.5801 7.44082 12.6611 7.3373 12.7646C7.23574 12.8662 7.15566 12.9854 7.09707 13.1221C7.03848 13.2588 7.00918 13.4053 7.00918 13.5615C7.00918 13.7158 7.03848 13.8613 7.09707 13.998C7.15566 14.1348 7.23574 14.2549 7.3373 14.3584C7.44082 14.46 7.56094 14.54 7.69766 14.5986C7.83438 14.6572 7.97988 14.6865 8.13418 14.6865Z" fill="#FAFAFA"/>
<circle cx="17" cy="9" r="9" fill="#4CAF50"/>
<path d="M13.0211 11V5.6875H14.6656C14.8505 5.6875 15.025 5.72266 15.1891 5.79297C15.3531 5.86328 15.4964 5.96094 15.6188 6.08594C15.7411 6.20833 15.8375 6.35156 15.9078 6.51562C15.9781 6.67708 16.0133 6.85156 16.0133 7.03906C16.0133 7.39844 15.8883 7.70833 15.6383 7.96875L15.6188 7.98828C15.788 8.06901 15.9391 8.17448 16.0719 8.30469C16.2151 8.45052 16.3284 8.61849 16.4117 8.80859C16.4951 8.9987 16.5367 9.20312 16.5367 9.42188C16.5367 9.63802 16.4951 9.84115 16.4117 10.0312C16.3284 10.2214 16.2151 10.3893 16.0719 10.5352C15.9286 10.6784 15.7607 10.7917 15.568 10.875C15.3779 10.9583 15.1747 11 14.9586 11H13.0211ZM13.5641 6.23047V10.457H14.9586C15.2424 10.457 15.4859 10.3555 15.6891 10.1523C15.8922 9.94922 15.9938 9.70573 15.9938 9.42188C15.9938 9.13542 15.8922 8.89193 15.6891 8.69141C15.4859 8.48828 15.2424 8.38672 14.9586 8.38672H14.7125V8.25781C14.7125 8.03385 14.8128 7.86979 15.0133 7.76562C15.1018 7.72135 15.1799 7.66406 15.2477 7.59375C15.3961 7.4401 15.4703 7.25521 15.4703 7.03906C15.4703 6.81771 15.3922 6.6276 15.2359 6.46875C15.0771 6.3099 14.887 6.23047 14.6656 6.23047H13.5641ZM17.1508 12.3867V7.16406H17.1586C17.307 7.16406 17.4333 7.21745 17.5375 7.32422C17.6417 7.42839 17.6937 7.55339 17.6937 7.69922V7.73047C17.7224 7.69661 17.7523 7.66406 17.7836 7.63281C17.9711 7.44792 18.1885 7.30208 18.4359 7.19531C18.6833 7.08854 18.9477 7.03516 19.2289 7.03516C19.5128 7.03516 19.7784 7.08854 20.0258 7.19531C20.2732 7.30208 20.4906 7.44792 20.6781 7.63281C20.863 7.82031 21.0089 8.03776 21.1156 8.28516C21.2224 8.53255 21.2758 8.79818 21.2758 9.08203C21.2758 9.36328 21.2224 9.6276 21.1156 9.875C21.0089 10.1224 20.863 10.3398 20.6781 10.5273C20.4906 10.7148 20.2732 10.862 20.0258 10.9688C19.7784 11.0729 19.5128 11.125 19.2289 11.125C18.9477 11.125 18.6833 11.0729 18.4359 10.9688C18.1885 10.862 17.9711 10.7148 17.7836 10.5273C17.7523 10.4961 17.7224 10.4648 17.6937 10.4336V11.8516C17.6937 12 17.6417 12.1263 17.5375 12.2305C17.4333 12.3346 17.307 12.3867 17.1586 12.3867H17.1508ZM19.2289 10.582C19.4372 10.582 19.6326 10.543 19.8148 10.4648C19.9971 10.3867 20.1573 10.2799 20.2953 10.1445C20.4307 10.0065 20.5375 9.84635 20.6156 9.66406C20.6937 9.48177 20.7328 9.28776 20.7328 9.08203C20.7328 8.8737 20.6937 8.67839 20.6156 8.49609C20.5375 8.3138 20.4307 8.15495 20.2953 8.01953C20.1573 7.88151 19.9971 7.77344 19.8148 7.69531C19.6326 7.61719 19.4372 7.57812 19.2289 7.57812C19.0232 7.57812 18.8292 7.61719 18.6469 7.69531C18.4646 7.77344 18.3044 7.88151 18.1664 8.01953C18.031 8.15495 17.9242 8.3138 17.8461 8.49609C17.768 8.67839 17.7289 8.8737 17.7289 9.08203C17.7289 9.28776 17.768 9.48177 17.8461 9.66406C17.9242 9.84635 18.031 10.0065 18.1664 10.1445C18.3044 10.2799 18.4646 10.3867 18.6469 10.4648C18.8292 10.543 19.0232 10.582 19.2289 10.582Z" fill="#FAFAFA"/>
</svg>
