<svg width="42" height="42" viewBox="0 0 42 42" fill="none" xmlns="http://www.w3.org/2000/svg">
<circle cx="21" cy="21" r="21" fill="#F5F5F5"/>
<path d="M28.5 13.5H13.5V28.5H28.5V13.5Z" fill="#ECEFF1"/>
<path d="M21 22.5775L28.5 28.5V16.8075L21 22.5775Z" fill="#CFD8DC"/>
<path d="M29.125 13.5H28.5L21 19.4225L13.5 13.5H12.875C11.84 13.5 11 14.34 11 15.375V26.625C11 27.66 11.84 28.5 12.875 28.5H13.5V16.8075L21 22.5763L28.5 16.8063V28.5H29.125C30.16 28.5 31 27.66 31 26.625V15.375C31 14.34 30.16 13.5 29.125 13.5Z" fill="#F44336"/>
</svg>
