<svg width="70" height="63" viewBox="0 0 70 63" fill="none" xmlns="http://www.w3.org/2000/svg">
<path d="M15.7222 62.1601C15.458 62.1601 15.1915 62.1091 14.9379 62.0039C14.1714 61.6865 13.6719 60.9386 13.6719 60.1093V46.1911C5.9675 45.1833 0 38.5764 0 30.6016V15.5625C0 6.89303 7.05318 -0.160156 15.7227 -0.160156H54.2773C62.9468 -0.160156 70 6.89303 70 15.5625V30.6016C70 39.271 62.9468 46.3242 54.2773 46.3242H32.4078L17.1727 61.5593C16.7804 61.9516 16.2559 62.1601 15.7222 62.1601Z" fill="#FFE645"/>
<path d="M54.2773 -0.160156H34.8613V46.3242H54.2773C62.9468 46.3242 70 39.271 70 30.6016V15.5625C70 6.89303 62.9468 -0.160156 54.2773 -0.160156Z" fill="#FFCF2C"/>
<path d="M14.9983 14.9021C14.9983 14.0271 15.9279 13.5896 16.8577 13.5896H26.3457C27.248 13.5896 27.6308 14.5466 27.6308 15.4216C27.6308 16.4333 27.166 17.3083 26.3457 17.3083H19.2638V21.9293H23.3926C24.2129 21.9293 24.6777 22.7223 24.6777 23.5973C24.6777 24.3356 24.2948 25.2106 23.3926 25.2106H19.2638V32.2652C19.2638 33.1402 18.1973 33.5777 17.131 33.5777C16.0644 33.5777 14.9982 33.1402 14.9982 32.2652V14.9021H14.9983Z" fill="#1A82C7"/>
<path d="M26.918 31.8276C26.918 31.7456 26.9454 31.6362 26.9727 31.5268L32.0585 14.8474C32.3594 13.8904 33.5898 13.4255 34.8475 13.4255C36.1052 13.4255 37.3357 13.8904 37.6366 14.8474L42.7496 31.5268C42.7768 31.6362 42.8043 31.7456 42.8043 31.8276C42.8043 32.8393 41.2457 33.5776 40.0699 33.5776C39.3863 33.5776 38.8394 33.3589 38.6755 32.7846L37.7457 29.3667H31.9763L31.0467 32.7846C30.8825 33.3589 30.3357 33.5776 29.6521 33.5776C28.4766 33.5776 26.918 32.8393 26.918 31.8276ZM36.8437 26.0854L34.8615 18.8079L32.8517 26.0854H36.8437Z" fill="#1A82C7"/>
<path d="M51.0099 35.2456V33.6596C47.8928 33.2768 45.6234 31.4448 45.6234 27.2885V20.0426C45.6234 15.3121 48.5489 13.5896 52.3224 13.5896C56.0958 13.5896 59.0488 15.3123 59.0488 20.0426V27.2885C59.0488 31.4448 56.752 33.2767 53.6347 33.6596V35.2456C53.6347 36.1206 52.9786 36.5581 52.3222 36.5581C51.6661 36.5582 51.0099 36.1206 51.0099 35.2456ZM54.7832 20.0427C54.7832 18.1833 53.8536 17.3085 52.3222 17.3085C50.7911 17.3085 49.8888 18.1835 49.8888 20.0427V27.2887C49.8888 28.5465 50.2714 29.3395 51.0097 29.7496V28.5465C51.0097 27.6442 51.6661 27.2613 52.3222 27.2613C52.9786 27.2613 53.6347 27.6442 53.6347 28.5465V29.7496C54.3458 29.3395 54.7832 28.5465 54.7832 27.2887V20.0427Z" fill="#125994"/>
<path d="M37.6367 14.8475C37.3369 13.894 36.1142 13.4293 34.8613 13.4259V18.8081L36.8436 26.0856H34.8613V29.3669H37.746L38.6758 32.7849C38.8397 33.3591 39.3866 33.5778 40.0702 33.5778C41.246 33.5778 42.8046 32.8396 42.8046 31.8278C42.8046 31.7458 42.7771 31.6364 42.7499 31.5271L37.6367 14.8475Z" fill="#125994"/>
</svg>
