<svg width="52" height="70" viewBox="0 0 52 70" fill="none" xmlns="http://www.w3.org/2000/svg">
<path d="M41.8722 34.0957C41.8722 31.4196 43.8976 29.251 46.3954 29.251H46.496C48.9897 29.251 51.0133 31.4108 51.0191 34.0823C51.0402 42.8223 51.0267 43.68 51.0145 56.7339C51.0074 64.0636 45.4587 70 38.6166 70H23.9268C19.4317 70 15.2874 67.3922 13.0971 63.1866L0 38.0237L1.36818 36.8888C4.2016 34.2846 8.46343 34.605 10.9285 37.6056L14.5939 42.068L14.615 11.3699C14.6167 8.69492 16.6421 6.52747 19.1388 6.52747H19.1399C21.6383 6.52747 23.6637 8.69785 23.6637 11.374V29.9526C23.7233 27.3332 25.7247 25.233 28.184 25.233H28.2898C30.7882 25.233 32.8136 27.4022 32.8136 30.0783V31.6383C32.8136 28.9615 34.8383 26.7929 37.3385 26.7929H37.349C39.8468 26.7929 41.8722 28.9615 41.8722 31.6383V34.0957Z" fill="#F7CAA5"/>
<path d="M19.1235 0C13.2204 0.00643163 8.43707 4.79039 8.43005 10.6934C8.43005 11.3547 8.96622 11.8909 9.6275 11.8909C10.2888 11.8909 10.825 11.3547 10.825 10.6934C10.825 6.11004 14.5407 2.3949 19.1235 2.3949C23.7063 2.3949 27.422 6.11004 27.422 10.6934C27.422 11.3547 27.9582 11.8909 28.6195 11.8909C29.2808 11.8909 29.817 11.3547 29.817 10.6934C29.8099 4.79039 25.0266 0.00643163 19.1235 0Z" fill="#FEDB41"/>
</svg>
