<svg width="25" height="25" viewBox="0 0 25 25" fill="none" xmlns="http://www.w3.org/2000/svg">
<g clip-path="url(#clip0_1233_934)">
<path d="M20.0254 6.95791C19.3326 4.78735 16.9454 1.46484 12.5058 1.46484C8.05331 1.46484 5.67421 4.8022 4.98608 6.95791C4.86298 7.34326 4.45078 7.55566 4.06557 7.43296C3.68022 7.30991 3.46757 6.8978 3.59052 6.51245C4.41913 3.91714 7.25771 0 12.5058 0C17.7829 0 20.6035 3.95151 21.4209 6.51245C21.5439 6.89785 21.3312 7.30991 20.9459 7.43296C20.5479 7.55977 20.1445 7.33071 20.0254 6.95791Z" fill="#424242"/>
<path d="M20.0255 6.95791C19.3327 4.78735 16.9455 1.46484 12.5059 1.46484V0C17.783 0 20.6036 3.95151 21.421 6.51245C21.544 6.89785 21.3313 7.30991 20.946 7.43296C20.548 7.55977 20.1446 7.33071 20.0255 6.95791Z" fill="#212121"/>
<path d="M8.11611 13.2242H5.4502C4.18179 13.2242 3.1499 12.1922 3.1499 10.9239V7.78804C3.1499 6.51958 4.18184 5.48769 5.4502 5.48769H8.11611C8.38901 5.48769 8.63926 5.6394 8.76548 5.88135C8.8917 6.12329 8.87295 6.41538 8.7168 6.63921C8.15879 7.43896 7.86387 8.37842 7.86387 9.35596C7.86387 10.3335 8.15879 11.2729 8.7168 12.0727C8.87295 12.2965 8.8917 12.5886 8.76548 12.8306C8.63926 13.0726 8.38901 13.2242 8.11611 13.2242Z" fill="#616161"/>
<path d="M19.5614 13.2242H16.8955C16.6226 13.2242 16.3723 13.0725 16.2461 12.8305C16.1199 12.5886 16.1387 12.2965 16.2948 12.0727C16.8528 11.2729 17.1478 10.3334 17.1478 9.35591C17.1478 8.37837 16.8528 7.43892 16.2948 6.63916C16.1387 6.41533 16.1199 6.12329 16.2461 5.8813C16.3723 5.63936 16.6226 5.48765 16.8955 5.48765H19.5614C20.8298 5.48765 21.8617 6.51958 21.8617 7.78799V10.9238C21.8618 12.1922 20.8298 13.2242 19.5614 13.2242V13.2242Z" fill="#424242"/>
<path d="M16.6422 13.495C18.928 11.2092 18.928 7.5033 16.6422 5.21756C14.3565 2.93181 10.6505 2.93181 8.36479 5.21756C6.07904 7.50331 6.07904 11.2092 8.36479 13.495C10.6505 15.7807 14.3565 15.7807 16.6422 13.495Z" fill="#FFDCD7"/>
<path d="M12.5059 3.50205C15.7337 3.50205 18.3598 6.12808 18.3598 9.35596C18.3598 12.5838 15.7337 15.2099 12.5059 15.2099V3.50205Z" fill="#FFB9BC"/>
<path d="M4.57768 25C3.49159 25 2.6766 24.0022 2.89736 22.9357C2.89794 22.9329 2.89858 22.93 2.89921 22.9271C3.78823 18.9024 7.43232 15.2099 12.5052 15.2099C17.7902 15.2099 21.2705 19.1248 22.1014 22.9312C22.1019 22.9336 22.1024 22.9359 22.1029 22.9383C22.3218 23.997 21.5139 24.9894 20.4328 24.9894C17.1154 25 8.00668 25 4.57768 25V25Z" fill="#FFEB9D"/>
<path d="M18.1317 12.4402H14.0737C13.6692 12.4402 13.3413 12.1123 13.3413 11.7078C13.3413 11.3033 13.6692 10.9754 14.0737 10.9754H18.1317C18.5362 10.9754 18.8642 11.3033 18.8642 11.7078C18.8642 12.1123 18.5362 12.4402 18.1317 12.4402Z" fill="#212121"/>
<path d="M22.1015 22.9312C21.2706 19.1249 17.7905 15.2102 12.5059 15.2099V24.9987C15.6402 24.9974 18.7668 24.9947 20.4329 24.9894C21.5139 24.9894 22.3219 23.9971 22.103 22.9383C22.1024 22.936 22.102 22.9336 22.1015 22.9312V22.9312Z" fill="#F7D85E"/>
</g>
<defs>
<clipPath id="clip0_1233_934">
<rect width="25" height="25" fill="white"/>
</clipPath>
</defs>
</svg>
