<svg width="100" height="71" viewBox="0 0 100 71" fill="none" xmlns="http://www.w3.org/2000/svg">
<g clip-path="url(#clip0_1446_1366)">
<path d="M51.0721 70.3229C54.0798 70.3229 56.518 67.8847 56.518 64.877C56.518 61.8694 54.0798 59.4312 51.0721 59.4312C48.0644 59.4312 45.6262 61.8694 45.6262 64.877C45.6262 67.8847 48.0644 70.3229 51.0721 70.3229Z" fill="#F5F5F5"/>
<path d="M83.606 70.017C86.6527 69.102 89.8917 68.1479 92.308 65.9727C94.4671 64.029 95.9248 61.0608 95.0303 58.1458C94.1376 55.2368 91.4639 53.2971 88.7034 52.3323C87.1377 51.7851 85.4997 51.4816 83.8623 51.2431C82.0824 50.9839 80.2945 50.7715 78.5076 50.5671C71.2719 49.7395 64.009 49.2339 56.7189 49.0504C53.1217 48.9598 49.5251 48.962 45.9274 49.0142C42.7145 49.0609 39.3306 49.0597 36.3499 47.6941C34.032 46.6322 31.9283 44.7002 31.2825 42.1614C30.537 39.2307 31.9121 36.2463 33.8847 34.1238C34.9244 33.005 36.1397 32.0633 37.3933 31.1975C38.7532 30.2582 40.1606 29.3854 41.5985 28.5707C44.4305 26.9668 47.3913 25.6019 50.4501 24.49C51.959 23.9413 53.4903 23.468 55.035 23.0313C56.3392 22.6625 57.6476 22.2933 58.9082 21.7909C61.345 20.8196 63.6628 19.1745 64.2824 16.4774C64.8696 13.9212 63.8795 11.1463 62.1437 9.24734C60.1355 7.0504 57.1075 6.08733 54.2045 5.93151C50.9455 5.75657 47.7615 6.57223 44.6983 7.6074C41.4311 8.7115 38.2344 9.98101 34.8983 10.8753C31.59 11.7613 28.2177 12.3881 24.8121 12.7502C23.1449 12.9277 21.4273 13.1282 19.7502 12.9923C18.3446 12.8784 16.9463 12.465 15.9104 11.4675C15.0222 10.6121 14.4931 9.43661 14.675 8.19609C14.708 7.97078 15.0503 8.06657 15.0174 8.29051C14.796 9.80057 15.8225 11.1921 17.0874 11.9048C18.5493 12.7286 20.3281 12.7297 21.9557 12.6355C25.4848 12.4224 28.9899 11.9157 32.4348 11.1207C35.8199 10.3475 39.084 9.24228 42.3444 8.06162C45.441 6.9403 48.6068 5.84588 51.915 5.60301C54.7855 5.39227 57.805 5.81045 60.3057 7.31054C62.5034 8.62892 64.1196 10.8275 64.6345 13.3505C65.1377 15.8159 64.4408 18.2974 62.5746 20.0178C60.6423 21.7991 57.9928 22.5607 55.5237 23.2621C52.3921 24.1517 49.3276 25.1916 46.3613 26.5418C43.3547 27.9066 40.4711 29.5277 37.7426 31.3873C35.1089 33.187 32.5098 35.4516 31.6768 38.6624C31.2888 40.158 31.3604 41.7443 32.0097 43.157C32.5869 44.4131 33.5377 45.4697 34.6452 46.2846C37.2877 48.2291 40.6182 48.6283 43.8102 48.668C47.3951 48.7127 50.9802 48.5917 54.5664 48.6505C61.8748 48.7705 69.1683 49.2153 76.4468 49.9851C78.2706 50.1781 80.0921 50.3915 81.9113 50.6252C83.5477 50.8355 85.1895 51.0444 86.7983 51.4178C89.6588 52.0817 92.4423 53.3584 94.2203 55.7837C95.0094 56.835 95.4982 58.0808 95.6347 59.3882C95.7591 60.7525 95.4251 62.1193 94.8083 63.333C93.443 66.0193 90.8856 67.7279 88.1698 68.8505C86.7152 69.4517 85.2064 69.9072 83.7005 70.3595C83.4811 70.4253 83.3873 70.0827 83.606 70.017L83.606 70.017Z" fill="#F2F2F2"/>
<path d="M14.9043 11.0694C16.4735 11.0694 17.7456 9.79727 17.7456 8.22805C17.7456 6.65882 16.4735 5.38672 14.9043 5.38672C13.3351 5.38672 12.063 6.65882 12.063 8.22805C12.063 9.79727 13.3351 11.0694 14.9043 11.0694Z" fill="#F2F2F2"/>
<path d="M34.616 16.456C36.1852 16.456 37.4573 15.1839 37.4573 13.6146C37.4573 12.0454 36.1852 10.7733 34.616 10.7733C33.0468 10.7733 31.7747 12.0454 31.7747 13.6146C31.7747 15.1839 33.0468 16.456 34.616 16.456Z" fill="#F2F2F2"/>
<path d="M51.3089 5.68266C52.8781 5.68266 54.1502 4.41055 54.1502 2.84133C54.1502 1.27211 52.8781 0 51.3089 0C49.7396 0 48.4675 1.27211 48.4675 2.84133C48.4675 4.41055 49.7396 5.68266 51.3089 5.68266Z" fill="#F2F2F2"/>
<path d="M61.7271 17.7583C63.2963 17.7583 64.5684 16.4862 64.5684 14.917C64.5684 13.3478 63.2963 12.0757 61.7271 12.0757C60.1578 12.0757 58.8857 13.3478 58.8857 14.917C58.8857 16.4862 60.1578 17.7583 61.7271 17.7583Z" fill="#F2F2F2"/>
<path d="M47.6387 31.7282C49.2079 31.7282 50.48 30.4561 50.48 28.8869C50.48 27.3176 49.2079 26.0455 47.6387 26.0455C46.0695 26.0455 44.7974 27.3176 44.7974 28.8869C44.7974 30.4561 46.0695 31.7282 47.6387 31.7282Z" fill="#F2F2F2"/>
<path d="M29.762 38.4764C31.3312 38.4764 32.6033 37.2043 32.6033 35.635C32.6033 34.0658 31.3312 32.7937 29.762 32.7937C28.1928 32.7937 26.9207 34.0658 26.9207 35.635C26.9207 37.2043 28.1928 38.4764 29.762 38.4764Z" fill="#F2F2F2"/>
<path d="M48.7044 49.0129C50.2736 49.0129 51.5457 47.7408 51.5457 46.1715C51.5457 44.6023 50.2736 43.3302 48.7044 43.3302C47.1351 43.3302 45.863 44.6023 45.863 46.1715C45.863 47.7408 47.1351 49.0129 48.7044 49.0129Z" fill="#F2F2F2"/>
<path d="M69.0672 54.9323C70.6364 54.9323 71.9085 53.6602 71.9085 52.091C71.9085 50.5217 70.6364 49.2496 69.0672 49.2496C67.4979 49.2496 66.2258 50.5217 66.2258 52.091C66.2258 53.6602 67.4979 54.9323 69.0672 54.9323Z" fill="#F2F2F2"/>
<path d="M92.8633 53.63C94.4325 53.63 95.7046 52.3579 95.7046 50.7887C95.7046 49.2195 94.4325 47.9474 92.8633 47.9474C91.2941 47.9474 90.022 49.2195 90.022 50.7887C90.022 52.3579 91.2941 53.63 92.8633 53.63Z" fill="#F2F2F2"/>
<path d="M50.4888 8.05083C41.9776 8.11095 35.0087 15.0275 34.8878 23.538C34.8867 23.6166 34.8862 24.1691 34.8862 24.8917C34.8863 25.9512 35.3072 26.9673 36.0564 27.7165C36.8055 28.4657 37.8216 28.8867 38.8811 28.8868H38.8811C39.4064 28.8867 39.9264 28.7831 40.4116 28.5819C40.8967 28.3808 41.3375 28.086 41.7087 27.7144C42.0799 27.3428 42.3742 26.9017 42.5748 26.4163C42.7755 25.9309 42.8785 25.4108 42.8781 24.8856C42.8777 24.394 42.8774 24.0538 42.8774 24.0329C42.8771 22.7176 43.2193 21.4249 43.8701 20.2819C44.521 19.139 45.4582 18.1851 46.5895 17.5142C47.7208 16.8433 49.0073 16.4784 50.3224 16.4555C51.6375 16.4326 52.9359 16.7525 54.0899 17.3836C55.2439 18.0147 56.2137 18.9353 56.904 20.0549C57.5943 21.1745 57.9812 22.4546 58.0267 23.7691C58.0722 25.0836 57.7748 26.3873 57.1636 27.552C56.5525 28.7166 55.6487 29.7022 54.5411 30.4116L54.5425 30.4133C54.5425 30.4133 48.8565 34.0738 47.123 39.0954L47.1244 39.0957C46.8196 40.1244 46.6652 41.1918 46.6659 42.2647C46.6659 42.7058 46.6918 46.5648 46.7419 49.6969C46.7595 50.7776 47.2011 51.8081 47.9717 52.5661C48.7422 53.324 49.7798 53.7487 50.8607 53.7485H50.8607C51.4038 53.7484 51.9415 53.641 52.443 53.4324C52.9444 53.2238 53.3996 52.9181 53.7824 52.5328C54.1653 52.1476 54.4682 51.6905 54.6737 51.1878C54.8792 50.6851 54.9832 50.1467 54.9799 49.6036C54.9625 46.7351 54.9531 43.3951 54.9531 43.1527C54.9531 40.0693 57.9276 36.9971 60.371 34.9936C63.1846 32.6866 65.2093 29.5427 66.0225 25.9962C66.2024 25.266 66.3017 24.5183 66.3184 23.7665C66.3184 21.6931 65.9081 19.6402 65.1112 17.726C64.3143 15.8119 63.1464 14.0743 61.675 12.6135C60.2036 11.1527 58.4577 9.99743 56.5378 9.21436C54.618 8.43129 52.5621 8.03585 50.4888 8.05083Z" fill="#F5F5F5"/>
<path d="M99.859 70.4722H0.140922C0.103607 70.4721 0.0678579 70.4572 0.0415103 70.4308C0.0151627 70.4044 0.000366211 70.3686 0.000366211 70.3313C0.000366211 70.294 0.0151627 70.2582 0.0415103 70.2317C0.0678579 70.2053 0.103607 70.1904 0.140922 70.1903H99.859C99.8964 70.1903 99.9322 70.2052 99.9587 70.2316C99.9851 70.258 100 70.2939 100 70.3313C100 70.3687 99.9851 70.4045 99.9587 70.431C99.9322 70.4574 99.8964 70.4722 99.859 70.4722Z" fill="#3F3D56"/>
<path d="M74.4013 32.3196C76.3628 32.3196 77.9529 30.7295 77.9529 28.768C77.9529 26.8064 76.3628 25.2163 74.4013 25.2163C72.4397 25.2163 70.8496 26.8064 70.8496 28.768C70.8496 30.7295 72.4397 32.3196 74.4013 32.3196Z" fill="#2F2E41"/>
<path d="M67.8382 68.9175H66.3869L65.6963 63.3191H67.8385L67.8382 68.9175Z" fill="#A0616A"/>
<path d="M65.3501 68.5027H68.1492V70.2651H63.5876C63.5876 70.0337 63.6332 69.8045 63.7218 69.5907C63.8104 69.3768 63.9402 69.1826 64.1038 69.0189C64.2675 68.8552 64.4618 68.7254 64.6756 68.6368C64.8895 68.5483 65.1186 68.5027 65.3501 68.5027Z" fill="#2F2E41"/>
<path d="M79.085 68.9175H77.6337L76.9431 63.3191H79.0854L79.085 68.9175Z" fill="#A0616A"/>
<path d="M76.5969 68.5027H79.3961V70.2651H74.8345C74.8345 70.0337 74.8801 69.8045 74.9686 69.5907C75.0572 69.3768 75.187 69.1826 75.3507 69.0189C75.5143 68.8552 75.7086 68.7254 75.9225 68.6368C76.1363 68.5483 76.3655 68.5027 76.5969 68.5027Z" fill="#2F2E41"/>
<path d="M73.8614 32.3404C75.4673 32.3404 76.7691 31.0386 76.7691 29.4327C76.7691 27.8267 75.4673 26.5249 73.8614 26.5249C72.2555 26.5249 70.9536 27.8267 70.9536 29.4327C70.9536 31.0386 72.2555 32.3404 73.8614 32.3404Z" fill="#A0616A"/>
<path d="M75.5946 41.7208L76.8956 38.7315C77.2116 38.0303 77.3022 37.2482 77.1548 36.4933C77.0075 35.7384 76.6294 35.0478 76.0729 34.5169C75.9586 34.4039 75.8372 34.2983 75.7094 34.2008C75.0674 33.6986 74.2763 33.4249 73.4612 33.423C72.9132 33.4251 72.3721 33.5454 71.8748 33.7758C71.8322 33.7947 71.7908 33.8148 71.7481 33.835C71.6664 33.874 71.586 33.9167 71.5078 33.9605C70.9981 34.2531 70.5644 34.6614 70.2415 35.1525C69.9186 35.6436 69.7157 36.2037 69.6491 36.7876L69.0749 41.5989C68.9305 41.9766 63.7782 55.6149 65.5801 66.0272C65.5993 66.1384 65.6535 66.2406 65.7349 66.3187C65.8162 66.3969 65.9205 66.447 66.0323 66.4617L67.8591 66.7103C67.9925 66.7286 68.1278 66.6956 68.2379 66.6181C68.3479 66.5405 68.4245 66.4241 68.4522 66.2924L71.5173 51.6821C71.5364 51.5913 71.5854 51.5095 71.6564 51.4499C71.7274 51.3902 71.8164 51.3561 71.9091 51.3529C72.0018 51.3498 72.0929 51.3778 72.1678 51.4326C72.2427 51.4873 72.2971 51.5656 72.3223 51.6548L76.653 67.0193C76.6838 67.1309 76.7504 67.2294 76.8426 67.2995C76.9348 67.3697 77.0474 67.4076 77.1632 67.4076C77.1978 67.4074 77.2322 67.4042 77.2662 67.3982L79.4978 66.9684C79.6276 66.9442 79.7436 66.8723 79.8231 66.767C79.9026 66.6616 79.9399 66.5304 79.9276 66.399C79.5997 62.7419 77.857 44.4237 75.5946 41.7208Z" fill="#2F2E41"/>
<path d="M62.5613 31.8525C62.5411 32.0254 62.559 32.2005 62.6139 32.3657C62.6687 32.5309 62.7591 32.682 62.8787 32.8085C62.9983 32.9349 63.1442 33.0336 63.306 33.0976C63.4679 33.1616 63.6418 33.1893 63.8155 33.1788L65.4408 37.0848L66.6703 35.2622L64.9384 31.8325C64.9014 31.5418 64.7591 31.2748 64.5384 31.0821C64.3177 30.8893 64.034 30.7842 63.7409 30.7867C63.4479 30.7891 63.166 30.899 62.9486 31.0954C62.7312 31.2919 62.5933 31.5612 62.5612 31.8525L62.5613 31.8525Z" fill="#A0616A"/>
<path d="M73.7002 45.6537C73.873 45.6331 74.0392 45.5748 74.187 45.483C74.3349 45.3911 74.4608 45.268 74.5559 45.1223C74.651 44.9765 74.713 44.8117 74.7375 44.6394C74.762 44.4671 74.7485 44.2915 74.6978 44.125L78.1175 41.6343L76.0587 40.8633L73.1269 43.3467C72.8529 43.4504 72.6263 43.651 72.4903 43.9105C72.3543 44.1701 72.3182 44.4705 72.3888 44.7549C72.4595 45.0392 72.632 45.2878 72.8737 45.4535C73.1154 45.6191 73.4095 45.6904 73.7002 45.6537Z" fill="#A0616A"/>
<path d="M68.1255 39.6888C67.9944 39.6886 67.8636 39.6758 67.735 39.6503C67.424 39.5911 67.1322 39.4563 66.8856 39.2577C66.6389 39.0592 66.4449 38.803 66.3206 38.5118L64.0434 35.7352C63.9953 35.6765 63.9602 35.6082 63.9407 35.5349C63.9211 35.4615 63.9174 35.3848 63.9298 35.31C63.9423 35.2351 63.9706 35.1637 64.0129 35.1006C64.0552 35.0376 64.1104 34.9843 64.175 34.9443L65.795 33.9415C65.8548 33.9045 65.9214 33.8796 65.9909 33.8685C66.0603 33.8573 66.1313 33.86 66.1997 33.8764C66.2681 33.8928 66.3326 33.9226 66.3894 33.964C66.4463 34.0055 66.4943 34.0578 66.5309 34.1179L68.1358 36.762L71.2093 34.4905C71.454 34.3622 71.7368 34.3262 72.0058 34.3892C72.2749 34.4521 72.5123 34.6097 72.6748 34.8332C72.8372 35.0567 72.9138 35.3312 72.8906 35.6066C72.8674 35.8819 72.7459 36.1397 72.5483 36.3328L69.4806 39.1312C69.1201 39.4885 68.6331 39.6889 68.1255 39.6888Z" fill="#2F2E41"/>
<path d="M76.4306 43.8646C76.4265 43.8646 76.4223 43.8646 76.4181 43.8645C76.3434 43.8627 76.2699 43.8452 76.2024 43.8132C76.1349 43.7811 76.0748 43.7353 76.0261 43.6786L74.5858 41.9983C74.5367 41.941 74.5004 41.874 74.4791 41.8017C74.4579 41.7294 74.4522 41.6534 74.4625 41.5787C74.4728 41.5041 74.4988 41.4324 74.5389 41.3686C74.5789 41.3047 74.632 41.2501 74.6948 41.2083L77.3918 39.4102L74.9485 36.4727C74.8063 36.2358 74.7542 35.9556 74.8016 35.6834C74.849 35.4111 74.9927 35.1651 75.2066 34.9901C75.4204 34.8151 75.6901 34.7229 75.9663 34.7303C76.2425 34.7377 76.5068 34.8442 76.711 35.0304L79.6806 37.9325C79.9143 38.146 80.0927 38.413 80.2005 38.7106C80.3083 39.0083 80.3423 39.3276 80.2995 39.6413C80.2567 39.9549 80.1384 40.2535 79.9548 40.5114C79.7712 40.7693 79.5278 40.9788 79.2454 41.1219L76.8183 43.6973C76.7685 43.7501 76.7084 43.7922 76.6417 43.8209C76.5751 43.8497 76.5032 43.8646 76.4306 43.8646Z" fill="#2F2E41"/>
<path d="M73.1221 37.673C73.099 37.673 73.0759 37.6715 73.053 37.6686C72.9527 37.6564 72.858 37.6157 72.7801 37.5513C72.7023 37.4869 72.6445 37.4015 72.6137 37.3053L71.5314 33.987C71.5042 33.9031 71.5084 33.8122 71.5431 33.7311C71.5778 33.6501 71.6407 33.5843 71.7201 33.546L71.7552 33.5294C71.787 33.5143 71.8186 33.4993 71.8508 33.485C72.3555 33.2509 72.9049 33.1288 73.4612 33.1271C74.1834 33.1284 74.8896 33.3406 75.4929 33.7376C75.5738 33.7914 75.6303 33.8749 75.6503 33.97C75.6702 34.065 75.6521 34.1642 75.5996 34.246L73.5693 37.4268C73.5217 37.5023 73.4557 37.5646 73.3775 37.6076C73.2993 37.6507 73.2114 37.6732 73.1221 37.673Z" fill="#E6E6E6"/>
<path d="M77.2015 27.1824C77.8433 27.1824 78.3637 26.6621 78.3637 26.0202C78.3637 25.3784 77.8433 24.858 77.2015 24.858C76.5596 24.858 76.0393 25.3784 76.0393 26.0202C76.0393 26.6621 76.5596 27.1824 77.2015 27.1824Z" fill="#2F2E41"/>
<path d="M73.2173 24.7428C72.4009 24.7428 71.618 25.0671 71.0407 25.6444C70.4635 26.2216 70.1392 27.0045 70.1392 27.8209V29.1232H71.7409L72.5069 27.8209L72.7368 29.1232H77.5976L76.2954 27.8209C76.2954 27.0045 75.9711 26.2216 75.3938 25.6444C74.8166 25.0671 74.0336 24.7428 73.2173 24.7428Z" fill="#2F2E41"/>
<path d="M77.7988 25.2242C77.9274 24.8223 78.1934 24.4786 78.5503 24.2535C78.9071 24.0284 79.3319 23.9363 79.75 23.9934C80.4906 24.1173 81.0762 24.7126 81.4251 25.3775C81.774 26.0425 81.9351 26.7867 82.1697 27.5C82.4043 28.2133 82.7369 28.9306 83.3291 29.3923C83.9212 29.8541 84.8299 29.9793 85.4115 29.5043C85.3451 29.9994 85.1247 30.461 84.7815 30.8239C84.4383 31.1869 83.9897 31.4327 83.4991 31.5267C83.0086 31.6207 82.5009 31.5581 82.0478 31.3477C81.5948 31.1374 81.2194 30.7899 80.9746 30.3545C80.6678 29.8085 80.5885 29.1686 80.4975 28.549C80.4065 27.9293 80.2883 27.2881 79.9219 26.7802C79.5555 26.2722 78.8697 25.9405 78.2877 26.1718L77.7988 25.2242Z" fill="#2F2E41"/>
<path d="M40.0091 26.9971C38.9496 26.997 37.9335 26.576 37.1844 25.8268C36.4352 25.0776 36.0143 24.0615 36.0142 23.002C36.0142 22.2794 36.0147 21.7269 36.0158 21.6483C36.0494 19.1732 36.6728 16.7418 37.8341 14.5558C35.9261 17.1678 34.877 20.3082 34.8319 23.5425C34.8308 23.6211 34.8303 24.1736 34.8303 24.8962C34.8304 25.9557 35.2513 26.9718 36.0005 27.7211C36.7496 28.4703 37.7657 28.8912 38.8253 28.8913C39.6959 28.891 40.5426 28.6065 41.2368 28.0811C41.931 27.5556 42.4347 26.8179 42.6714 25.9801C41.9399 26.6361 40.9917 26.9983 40.0091 26.9971Z" fill="#3F3D56"/>
<path d="M50.7594 16.469C51.9843 16.5275 53.1767 16.8824 54.2342 17.5032C55.2917 18.124 56.1827 18.9922 56.8308 20.0333C57.4788 21.0743 57.8645 22.2571 57.9547 23.48C58.045 24.703 57.8371 25.9296 57.3489 27.0545C58.055 26.2251 58.5741 25.2532 58.8706 24.2051C59.1671 23.157 59.2342 22.0572 59.0671 20.9808C58.9001 19.9044 58.5029 18.8767 57.9027 17.9677C57.3025 17.0587 56.5133 16.2899 55.589 15.7135C54.6647 15.1372 53.627 14.7669 52.5466 14.6279C51.4663 14.489 50.3686 14.5846 49.3286 14.9083C48.2885 15.2321 47.3305 15.7762 46.5198 16.5038C45.7091 17.2313 45.0648 18.1251 44.6309 19.1242C45.3809 18.2419 46.3235 17.5436 47.3861 17.0832C48.4487 16.6229 49.6028 16.4127 50.7594 16.469Z" fill="#3F3D56"/>
<path d="M51.9886 51.8587C50.9077 51.859 49.8701 51.4343 49.0996 50.6764C48.329 49.9184 47.8874 48.8879 47.8698 47.8072C47.8197 44.6751 47.7938 40.8161 47.7938 40.375C47.7931 39.3021 47.9475 38.2347 48.2523 37.206L48.2509 37.2057C48.4309 36.6893 48.6483 36.1868 48.9013 35.702C48.1245 36.7372 47.5063 37.8824 47.067 39.0999L47.0684 39.1002C46.7636 40.129 46.6092 41.1963 46.6099 42.2693C46.6099 42.7103 46.6358 46.5693 46.6859 49.7014C46.7035 50.7821 47.1452 51.8126 47.9157 52.5706C48.6862 53.3285 49.7238 53.7532 50.8047 53.753C51.6959 53.7528 52.563 53.4637 53.2759 52.929C53.9889 52.3944 54.5093 51.643 54.7591 50.7875C54.0018 51.478 53.0134 51.8602 51.9886 51.8587Z" fill="#3F3D56"/>
<path d="M14.9811 68.9715L16.4324 68.9714L17.123 63.373L14.9807 63.3732L14.9811 68.9715Z" fill="#FFB8B8"/>
<path d="M19.2316 70.319L14.67 70.3192L14.6699 68.5567L17.4691 68.5566C17.9365 68.5566 18.3848 68.7423 18.7153 69.0728C19.0458 69.4033 19.2315 69.8515 19.2316 70.319L19.2316 70.319Z" fill="#2F2E41"/>
<path d="M9.77196 68.9715L11.2233 68.9714L11.9138 63.373L9.77161 63.3732L9.77196 68.9715Z" fill="#FFB8B8"/>
<path d="M14.0225 70.319L9.46086 70.3192L9.46078 68.5567L12.2599 68.5566C12.7274 68.5566 13.1757 68.7423 13.5062 69.0728C13.8367 69.4033 14.0224 69.8515 14.0225 70.319L14.0225 70.319Z" fill="#2F2E41"/>
<path d="M11.0402 67.2497L9.62251 67.1752C9.54941 67.1713 9.47779 67.153 9.41182 67.1213C9.34584 67.0896 9.28682 67.0451 9.23816 66.9904C9.18951 66.9357 9.15219 66.8719 9.12837 66.8026C9.10455 66.7334 9.09471 66.6602 9.09941 66.5871L10.7939 47.8265L18.597 49.9322L19.3488 49.7271L16.9978 66.3352C16.9778 66.4601 16.9157 66.5745 16.8219 66.6594C16.7281 66.7443 16.6081 66.7947 16.4818 66.8022L14.9536 66.8734C14.8771 66.8776 14.8007 66.866 14.729 66.8392C14.6573 66.8123 14.592 66.7709 14.5371 66.7176C14.4822 66.6642 14.439 66.6001 14.4102 66.5292C14.3814 66.4583 14.3676 66.3822 14.3697 66.3057L14.6466 56.3377C14.6479 56.2917 14.6319 56.2467 14.6017 56.2119C14.5716 56.177 14.5294 56.1547 14.4836 56.1493C14.4378 56.144 14.3917 56.156 14.3543 56.183C14.3169 56.21 14.291 56.25 14.2816 56.2951L11.6111 66.8095C11.5859 66.9343 11.5182 67.0464 11.4196 67.1268C11.3209 67.2073 11.1975 67.251 11.0702 67.2506C11.0603 67.2506 11.0503 67.2503 11.0402 67.2497Z" fill="#2F2E41"/>
<path d="M15.2416 32.4764C16.8475 32.4764 18.1494 31.1745 18.1494 29.5686C18.1494 27.9627 16.8475 26.6609 15.2416 26.6609C13.6357 26.6609 12.3339 27.9627 12.3339 29.5686C12.3339 31.1745 13.6357 32.4764 15.2416 32.4764Z" fill="#FFB8B8"/>
<path d="M10.4004 38.1114L10.7201 45.0096L10.8357 47.5193C10.8403 47.6285 10.8774 47.7339 10.9422 47.822C11.007 47.9101 11.0967 47.9768 11.1996 48.0136L18.6979 50.7298C18.7585 50.7524 18.8226 50.7636 18.8873 50.7631C18.9611 50.7634 19.0343 50.7489 19.1024 50.7203C19.1705 50.6918 19.2322 50.6498 19.2837 50.5969C19.3352 50.544 19.3756 50.4812 19.4023 50.4124C19.4291 50.3435 19.4417 50.27 19.4394 50.1962L19.132 37.7929C19.1118 36.7753 18.7372 35.7966 18.0728 35.0256C17.4083 34.2546 16.4957 33.7395 15.4923 33.5692C15.4197 33.5581 15.3459 33.547 15.2722 33.5372C14.6499 33.46 14.0183 33.52 13.4218 33.7131C12.8253 33.9062 12.2783 34.2277 11.8194 34.6549C11.3441 35.092 10.9707 35.6281 10.7255 36.2254C10.4803 36.8227 10.3693 37.4665 10.4004 38.1114L10.4004 38.1114Z" fill="#CCCCCC"/>
<path d="M22.2798 49.3533C22.1024 49.2983 21.9404 49.2026 21.8066 49.0738C21.6729 48.945 21.571 48.7867 21.5093 48.6116C21.4475 48.4365 21.4276 48.2494 21.451 48.0652C21.4744 47.8809 21.5406 47.7048 21.6442 47.5507L19.1014 44.1695L21.2957 44.0337L23.3739 47.2653C23.5964 47.4374 23.7512 47.6822 23.8112 47.957C23.8712 48.2317 23.8326 48.5188 23.702 48.7679C23.5715 49.017 23.3574 49.2122 23.0974 49.3193C22.8373 49.4263 22.5479 49.4384 22.2798 49.3533H22.2798Z" fill="#FFB8B8"/>
<path d="M20.492 46.9388C20.4246 46.9115 20.3633 46.8711 20.3117 46.8199C20.2601 46.7687 20.2191 46.7078 20.1911 46.6407L16.3603 37.5136C16.2851 37.3349 16.2459 37.1431 16.2449 36.9492C16.2439 36.7554 16.2811 36.5632 16.3543 36.3837C16.4276 36.2043 16.5356 36.041 16.672 35.9032C16.8084 35.7655 16.9706 35.656 17.1494 35.5809C17.3281 35.5059 17.5199 35.4668 17.7138 35.466C17.9076 35.4651 18.0998 35.5024 18.2792 35.5758C18.4586 35.6493 18.6218 35.7573 18.7595 35.8938C18.8971 36.0304 19.0065 36.1927 19.0814 36.3715L22.9122 45.4987C22.9689 45.634 22.9695 45.7863 22.914 45.9221C22.8585 46.0579 22.7514 46.1661 22.6162 46.223L20.9155 46.9368C20.8486 46.9651 20.7766 46.9799 20.7039 46.9803C20.6312 46.9806 20.5592 46.9665 20.492 46.9388L20.492 46.9388Z" fill="#CCCCCC"/>
<path d="M14.3068 46.617L17.9862 39.5718C18.0572 39.4363 18.179 39.3345 18.3249 39.2887C18.4708 39.2429 18.6289 39.2569 18.7646 39.3275L24.1053 42.1168C24.2408 42.1877 24.3426 42.3095 24.3884 42.4555C24.4342 42.6014 24.4202 42.7595 24.3496 42.8952L20.6701 49.9403C20.5992 50.0758 20.4774 50.1776 20.3315 50.2234C20.1855 50.2692 20.0274 50.2553 19.8917 50.1846L14.5511 47.3954C14.4156 47.3244 14.3138 47.2026 14.268 47.0567C14.2222 46.9108 14.2361 46.7526 14.3068 46.617Z" fill="#3F3D56"/>
<path d="M16.7743 43.3982C16.7089 43.2244 16.6038 43.0683 16.4674 42.9424C16.3309 42.8164 16.1669 42.7241 15.9884 42.6728C15.81 42.6215 15.622 42.6127 15.4395 42.6469C15.257 42.6812 15.085 42.7576 14.9373 42.8702L11.4119 40.5315L11.4059 42.7299L14.7546 44.6137C14.9395 44.8257 15.193 44.9658 15.4709 45.0094C15.7487 45.0531 16.033 44.9975 16.274 44.8525C16.5149 44.7075 16.6971 44.4823 16.7886 44.2164C16.8801 43.9504 16.8751 43.6608 16.7743 43.3982Z" fill="#FFB8B8"/>
<path d="M12.317 43.8925L9.4358 41.6103C9.12411 41.5056 8.84248 41.3269 8.61507 41.0894C8.38766 40.852 8.22127 40.5629 8.13019 40.2469C8.0391 39.931 8.02604 39.5977 8.09213 39.2756C8.15821 38.9535 8.30147 38.6523 8.5096 38.3978L11.1256 34.9693C11.3074 34.7471 11.5631 34.5978 11.8459 34.5487C12.1287 34.4995 12.4198 34.5538 12.6659 34.7015C12.912 34.8493 13.0967 35.0807 13.1863 35.3534C13.2758 35.6261 13.2642 35.922 13.1536 36.1869L11.0837 39.5728L14.1256 41.0156C14.1963 41.0491 14.2591 41.0973 14.3099 41.1569C14.3606 41.2165 14.3981 41.2862 14.4199 41.3614C14.4417 41.4366 14.4473 41.5156 14.4363 41.5931C14.4254 41.6706 14.3981 41.7449 14.3562 41.8111L13.1283 43.7543C13.0868 43.8199 13.032 43.876 12.9674 43.9191C12.9028 43.9621 12.8299 43.9912 12.7534 44.0042C12.7504 44.0048 12.7473 44.0052 12.7443 44.0057C12.6691 44.0171 12.5924 44.0129 12.5189 43.9934C12.4454 43.9739 12.3767 43.9396 12.317 43.8925Z" fill="#CCCCCC"/>
<path d="M13.0444 31.5157C13.032 31.4792 13.028 31.4404 13.0329 31.4021C13.0377 31.3638 13.0513 31.3272 13.0725 31.295C13.0937 31.2628 13.122 31.2358 13.1553 31.2163C13.1885 31.1967 13.2257 31.1849 13.2642 31.182C13.343 31.1863 13.42 31.2065 13.4908 31.2414C13.5615 31.2763 13.6244 31.3251 13.6757 31.385C13.781 31.5064 13.9035 31.6115 14.0393 31.6972C14.18 31.7681 14.3708 31.758 14.4509 31.6228C14.5262 31.4959 14.4747 31.3259 14.4291 31.1785C14.3131 30.8033 14.2482 30.4143 14.2361 30.0218C14.223 29.5837 14.2848 29.1266 14.5273 28.7849C14.8403 28.3439 15.4 28.1765 15.9297 28.1886C16.4593 28.2008 16.9804 28.3643 17.5051 28.4677C17.6862 28.5033 17.8991 28.5216 18.0203 28.3812C18.1491 28.2319 18.1018 27.9903 18.047 27.7888C17.9048 27.2658 17.754 26.7251 17.4236 26.3028C17.0664 25.8639 16.5562 25.5766 15.9958 25.4989C15.4577 25.4322 14.9114 25.4942 14.402 25.6798C13.5719 25.9414 12.8416 26.4503 12.3085 27.1382C11.759 27.8698 11.5216 28.7892 11.6481 29.6954C11.7717 30.4847 12.19 31.1977 12.8185 31.6908L13.0444 31.5157Z" fill="#2F2E41"/>
<path d="M49.8723 68.9946C49.0987 68.6577 48.4139 68.1455 47.8721 67.4986C47.3303 66.8517 46.9463 66.0878 46.7503 65.2671C46.5543 64.4463 46.5518 63.5913 46.7429 62.7694C46.9339 61.9475 47.3134 61.1812 47.8513 60.5311C47.2277 60.9865 46.708 61.5693 46.3267 62.2409C45.9455 62.9125 45.7115 63.6575 45.6402 64.4264C45.5689 65.1953 45.662 65.9706 45.9132 66.7009C46.1645 67.4311 46.5681 68.0995 47.0975 68.6618C47.6268 69.2241 48.2697 69.6673 48.9834 69.9622C49.6971 70.257 50.4654 70.3967 51.2373 70.3719C52.0091 70.3471 52.7668 70.1584 53.4602 69.8184C54.1535 69.4784 54.7666 68.9948 55.2588 68.3997C54.4912 68.9608 53.5899 69.3109 52.6449 69.4153C51.6998 69.5197 50.7438 69.3746 49.8723 68.9946Z" fill="#3F3D56"/>
</g>
<defs>
<clipPath id="clip0_1446_1366">
<rect width="100" height="70.4722" fill="white"/>
</clipPath>
</defs>
</svg>
