<svg width="25" height="25" viewBox="0 0 25 25" fill="none" xmlns="http://www.w3.org/2000/svg">
<path d="M12.5 0C9.92983 0 6.99146 3.99189 6.99146 8.89829C6.99146 15.2377 12.1513 24.4695 12.3349 24.8597C12.3769 24.9491 12.4369 25 12.4999 25C12.6201 25 12.7348 24.9491 12.815 24.8597C13.1655 24.4695 21.3982 15.2377 21.3982 8.89829C21.3982 3.99189 17.4066 0 12.5 0ZM12.5 13.5593C9.92573 13.5593 7.83892 11.4726 7.83892 8.89829C7.83892 6.32402 9.92573 4.2373 12.5 4.2373C15.0742 4.2373 17.161 6.32407 17.161 8.89834C17.161 11.4726 15.0742 13.5593 12.5 13.5593Z" fill="#FF6469"/>
<path d="M12.3349 24.8598C12.1513 24.4695 6.99153 15.2377 6.99153 8.89834C6.99148 3.99189 9.92986 0 12.5 0C7.59333 0 3.60168 3.99189 3.60168 8.89829C3.60168 15.2377 11.8344 24.4695 12.1849 24.8597C12.2652 24.9491 12.3798 25 12.5 25C12.437 25 12.377 24.9491 12.3349 24.8598Z" fill="#D2555F"/>
</svg>
