<svg width="50" height="50" viewBox="0 0 50 50" fill="none" xmlns="http://www.w3.org/2000/svg">
<rect width="50" height="50" rx="12" fill="#F5F5F5"/>
<path d="M32.0941 34.6712H19.1544C18.5987 34.6712 18.1483 34.2208 18.1483 33.6652V15.0864H16.4809C15.8721 15.0864 15.3786 15.5799 15.3786 16.1887V35.8977C15.3786 36.5065 15.8721 37 16.4809 37H30.9918C31.6006 37 32.0941 36.5065 32.0941 35.8977V34.6712H32.0941Z" fill="#BE3A52"/>
<path d="M18.1483 15.0864V33.6652C18.1483 34.2208 18.5987 34.6712 19.1544 34.6712H32.0941V35.8977C32.0941 36.1124 32.0325 36.3127 31.9263 36.4821H18.2446C17.6358 36.4821 17.1423 35.9886 17.1423 35.3798V34.575L17.6454 15.6708L18.1483 15.0864Z" fill="#B00000"/>
<path d="M33.8578 32.9075H20.918C20.3624 32.9075 19.912 32.4571 19.912 31.9015V13.7637H18.2446C17.6358 13.7637 17.1423 14.2572 17.1423 14.866V34.5749C17.1423 35.1837 17.6358 35.6773 18.2446 35.6773H32.7555C33.3643 35.6773 33.8578 35.1837 33.8578 34.5749V32.9075H33.8578Z" fill="#E8E4D3"/>
<path d="M19.912 13.7637V31.9015C19.912 32.4571 20.3624 32.9075 20.918 32.9075H33.8578V34.5749C33.8578 34.6647 33.8468 34.7518 33.8266 34.8353H20.0082C19.3995 34.8353 18.9059 34.3417 18.9059 33.7329V32.8113L19.409 31.4197V14.024L19.912 13.7637Z" fill="#D7D3C5"/>
<path d="M34.4185 33.9136H20.0082C19.3995 33.9136 18.9059 33.4201 18.9059 32.8113V13.1023C18.9059 12.4935 19.3995 12 20.0082 12H31.1559L35.5208 16.4655V32.8113C35.5208 33.4201 35.0273 33.9136 34.4185 33.9136Z" fill="#EFEDEF"/>
<path d="M34.1124 14.9564V32.8112C34.1124 33.4201 33.6189 33.9136 33.0101 33.9136H34.5192C35.128 33.9136 35.6214 33.4201 35.6214 32.8112V16.4655L34.1124 14.9564Z" fill="#D7D0D6"/>
<path d="M35.6214 16.4655H32.2581C31.6494 16.4655 31.1559 15.9721 31.1559 15.3634V12L35.6214 16.4655Z" fill="#B5ADB6"/>
<path d="M32.2978 20.5379H22.2296C22.0213 20.5379 21.8524 20.3689 21.8524 20.1606C21.8524 19.9522 22.0213 19.7833 22.2296 19.7833H32.2978C32.5062 19.7833 32.6751 19.9522 32.6751 20.1606C32.6751 20.3689 32.5062 20.5379 32.2978 20.5379Z" fill="#B5ADB6"/>
<path d="M32.2978 23.334H22.2296C22.0213 23.334 21.8524 23.1651 21.8524 22.9567C21.8524 22.7484 22.0213 22.5795 22.2296 22.5795H32.2978C32.5062 22.5795 32.6751 22.7484 32.6751 22.9567C32.6751 23.1651 32.5062 23.334 32.2978 23.334Z" fill="#B5ADB6"/>
<path d="M32.2978 26.1303H22.2296C22.0213 26.1303 21.8524 25.9613 21.8524 25.753C21.8524 25.5446 22.0213 25.3757 22.2296 25.3757H32.2978C32.5062 25.3757 32.6751 25.5446 32.6751 25.753C32.6751 25.9613 32.5062 26.1303 32.2978 26.1303Z" fill="#B5ADB6"/>
</svg>
