<svg width="25" height="25" viewBox="0 0 25 25" fill="none" xmlns="http://www.w3.org/2000/svg">
<path d="M18.75 23.4375H6.25C5.8356 23.4375 5.43817 23.2729 5.14515 22.9799C4.85212 22.6868 4.6875 22.2894 4.6875 21.875V3.125C4.6875 2.7106 4.85212 2.31317 5.14515 2.02015C5.43817 1.72712 5.8356 1.5625 6.25 1.5625H13.4153C13.8297 1.5625 14.2271 1.72712 14.5201 2.02015L19.8549 7.35486C20.1479 7.64788 20.3125 8.04531 20.3125 8.45971V21.875C20.3125 22.2894 20.1479 22.6868 19.8549 22.9799C19.5618 23.2729 19.1644 23.4375 18.75 23.4375Z" fill="url(#paint0_linear_1445_1277)"/>
<path d="M15.6671 3.16712L14.6653 2.42407C14.5327 2.29344 14.3777 2.18764 14.2077 2.11169V6.65393C14.2077 7.06833 14.3723 7.46576 14.6653 7.75878C14.9584 8.05181 15.3558 8.21643 15.7702 8.21643H20.2885C20.2387 7.89059 20.0869 7.58893 19.8548 7.35483L15.6671 3.16712Z" fill="#4DB151"/>
<path d="M20.1673 7.81252C20.0913 7.64251 19.9855 7.48749 19.8548 7.35485L14.5201 2.02014C14.3875 1.88951 14.2325 1.78371 14.0625 1.70776V6.25002C14.0625 6.66442 14.2271 7.06185 14.5201 7.35488C14.8132 7.6479 15.2106 7.81252 15.625 7.81252H20.1673Z" fill="#2E6A30"/>
<path d="M18.75 23.4375H6.25C5.8356 23.4375 5.43817 23.2729 5.14515 22.9799C4.85212 22.6868 4.6875 22.2894 4.6875 21.875V3.125C4.6875 2.7106 4.85212 2.31317 5.14515 2.02015C5.43817 1.72712 5.8356 1.5625 6.25 1.5625H13.4153C13.8297 1.5625 14.2271 1.72712 14.5201 2.02015L19.8549 7.35485C19.9999 7.49994 20.115 7.67219 20.1936 7.86176C20.2721 8.05134 20.3125 8.25452 20.3125 8.45971V21.875C20.3125 22.2894 20.1479 22.6868 19.8549 22.9799C19.5618 23.2729 19.1644 23.4375 18.75 23.4375Z" fill="url(#paint1_linear_1445_1277)"/>
<path d="M15.6671 3.16712L14.6653 2.42407C14.5327 2.29344 14.3777 2.18764 14.2077 2.11169V6.65393C14.2077 7.06833 14.3723 7.46576 14.6653 7.75878C14.9584 8.05181 15.3558 8.21643 15.7702 8.21643H20.2885C20.2387 7.89059 20.0869 7.58893 19.8548 7.35483L15.6671 3.16712Z" fill="#4DB151"/>
<path d="M20.1673 7.81252C20.0913 7.64251 19.9855 7.48749 19.8548 7.35485L14.5201 2.02014C14.3875 1.88951 14.2325 1.78371 14.0625 1.70776V6.25002C14.0625 6.66442 14.2271 7.06185 14.5201 7.35488C14.8132 7.6479 15.2106 7.81252 15.625 7.81252H20.1673Z" fill="#2E6A30"/>
<defs>
<linearGradient id="paint0_linear_1445_1277" x1="3.12734" y1="2.51406" x2="21.7594" y2="27.668" gradientUnits="userSpaceOnUse">
<stop offset="0.09511" stop-color="#F5F5F5"/>
<stop offset="0.25612" stop-color="#DBEFDC"/>
<stop offset="0.5488" stop-color="#DBEFDC"/>
<stop offset="0.79175" stop-color="#B7E0B9"/>
<stop offset="0.95344" stop-color="#4CAF50"/>
</linearGradient>
<linearGradient id="paint1_linear_1445_1277" x1="3.12734" y1="2.51406" x2="21.7594" y2="27.668" gradientUnits="userSpaceOnUse">
<stop offset="0.09511" stop-color="#94D096"/>
<stop offset="0.26538" stop-color="#94D096"/>
<stop offset="0.50394" stop-color="#94D096"/>
<stop offset="0.78145" stop-color="#4CAF50"/>
<stop offset="1" stop-color="#4CAF50"/>
</linearGradient>
</defs>
</svg>
