<svg width="100" height="55" viewBox="0 0 100 55" fill="none" xmlns="http://www.w3.org/2000/svg">
<g clip-path="url(#clip0_1447_1622)">
<path d="M5.46141 49.7459C3.33048 51.563 2.88818 54.5431 2.88818 54.5431C2.88818 54.5431 5.90082 54.5773 8.03176 52.7603C10.1627 50.9432 10.605 47.9631 10.605 47.9631C10.605 47.9631 7.59235 47.9289 5.46141 49.7459Z" fill="#F2F2F2"/>
<path d="M6.44607 50.469C5.53837 53.1182 2.92873 54.6239 2.92873 54.6239C2.92873 54.6239 1.79077 51.8342 2.69847 49.1849C3.60617 46.5357 6.21581 45.03 6.21581 45.03C6.21581 45.03 7.35378 47.8197 6.44607 50.469Z" fill="#F2F2F2"/>
<path d="M28.689 11.273C28.2068 10.6483 27.5254 10.0702 27.4823 9.29927C27.4427 8.59218 27.97 7.89014 27.7476 7.21367C27.5766 6.69354 27.0126 6.3797 26.4614 6.2135C25.4062 5.89988 24.277 5.94336 23.249 6.33718L23.3048 6.29783C22.6773 6.07433 21.944 6.30506 21.4503 6.7324C20.9566 7.15973 20.6633 7.75206 20.4356 8.34565C20.208 8.93924 20.0316 9.55454 19.7153 10.111C19.3989 10.6675 18.9146 11.1736 18.2756 11.3659C18.4895 11.7926 19.1583 11.939 19.5505 11.645C19.6507 11.5636 19.7407 11.4705 19.8187 11.3677C20.0803 11.0496 20.3419 10.7315 20.6035 10.4135C20.8726 10.8922 20.4705 11.5529 20.8014 11.996C20.972 12.2246 21.2835 12.3114 21.5729 12.3736C23.8346 12.8562 26.1808 12.7692 28.4006 12.1204C28.579 12.0678 28.7758 11.9954 28.8498 11.8339C28.9353 11.6475 28.8158 11.4373 28.689 11.273Z" fill="#2F2E41"/>
<path d="M35.1019 13.7112C35.0878 13.7733 35.0786 13.8364 35.0744 13.8999L30.131 16.7518L28.9294 16.0601L27.6484 17.737L29.6566 19.1683C29.8188 19.2839 30.0142 19.3438 30.2133 19.3389C30.4125 19.3341 30.6047 19.2648 30.7611 19.1414L35.8586 15.1199C36.0887 15.205 36.3392 15.2181 36.5769 15.1574C36.8146 15.0967 37.0281 14.9651 37.1892 14.7801C37.3502 14.5951 37.4511 14.3654 37.4784 14.1216C37.5058 13.8778 37.4582 13.6315 37.3421 13.4154C37.2261 13.1993 37.0469 13.0237 36.8286 12.9118C36.6103 12.8 36.3631 12.7573 36.1199 12.7894C35.8767 12.8216 35.649 12.927 35.4672 13.0916C35.2853 13.2563 35.1579 13.4724 35.1019 13.7112Z" fill="#FFB7B7"/>
<path d="M29.9656 16.8868L28.3679 18.9575C28.3224 19.0165 28.2648 19.0649 28.199 19.0995C28.1331 19.1342 28.0605 19.1542 27.9862 19.1583C27.9119 19.1623 27.8376 19.1504 27.7684 19.1231C27.6991 19.0959 27.6365 19.054 27.5849 19.0004L25.7762 17.1222C25.4757 16.8881 25.2803 16.5442 25.233 16.1662C25.1858 15.7882 25.2904 15.4068 25.524 15.1059C25.7577 14.8049 26.1012 14.6089 26.4791 14.561C26.8571 14.5131 27.2386 14.617 27.54 14.8501L29.8085 16.1186C29.8734 16.1549 29.9298 16.2048 29.9737 16.2649C30.0176 16.325 30.0481 16.3938 30.063 16.4667C30.0779 16.5396 30.0769 16.6149 30.0601 16.6874C30.0433 16.7599 30.0111 16.8279 29.9656 16.8868H29.9656Z" fill="#F5F5F5"/>
<path d="M27.7668 52.9663L29.1777 52.9662L29.8488 47.5244L27.7666 47.5245L27.7668 52.9663Z" fill="#FFB7B7"/>
<path d="M27.407 52.5057L30.1854 52.5056H30.1855C30.6551 52.5056 31.1055 52.6922 31.4375 53.0242C31.7696 53.3563 31.9561 53.8066 31.9562 54.2762V54.3338L27.4071 54.3339L27.407 52.5057Z" fill="#2F2E41"/>
<path d="M18.1003 52.9663L19.5112 52.9662L20.1823 47.5244L18.1001 47.5245L18.1003 52.9663Z" fill="#FFB7B7"/>
<path d="M17.7405 52.5057L20.5189 52.5056H20.519C20.9886 52.5056 21.439 52.6922 21.771 53.0242C22.1031 53.3563 22.2896 53.8066 22.2897 54.2762V54.3338L17.7406 54.3339L17.7405 52.5057Z" fill="#2F2E41"/>
<path d="M26.9196 10.5037C27.0665 9.16512 26.1005 7.96089 24.7619 7.81395C23.4234 7.66701 22.2191 8.63302 22.0722 9.97158C21.9253 11.3101 22.8913 12.5144 24.2298 12.6613C25.5684 12.8083 26.7726 11.8423 26.9196 10.5037Z" fill="#FFB7B7"/>
<path d="M25.9225 13.8929L27.359 14.6046C27.359 14.6046 28.9639 17.3937 28.0433 20.0405C27.5963 21.3255 28.855 25.4218 28.855 25.4218C28.855 25.4218 30.8051 43.9766 30.8113 49.7032C28.3885 50.0757 26.0869 50.536 25.9719 49.3852C25.8568 48.2344 24.5971 34.628 24.5971 34.628C24.5971 34.628 22.8648 49.7304 21.4839 49.9606C20.1029 50.1907 17.3411 49.8455 17.3411 49.8455C17.3411 49.8455 19.5337 27.7234 21.0297 26.3424L21.2599 25.1917L21.2537 14.862L22.9773 14.0394L25.9225 13.8929Z" fill="#2F2E41"/>
<path d="M20.7839 29.5745C20.9428 29.4885 21.081 29.3686 21.1886 29.2235C21.2963 29.0783 21.3708 28.9113 21.4069 28.7342C21.443 28.5571 21.4398 28.3742 21.3976 28.1985C21.3554 28.0228 21.2752 27.8584 21.1626 27.7171L22.8332 16.5819L20.6506 16.4772L19.3484 27.5662C19.1234 27.7711 18.9814 28.0514 18.9493 28.3539C18.9172 28.6565 18.9972 28.9604 19.1741 29.2079C19.3511 29.4555 19.6127 29.6295 19.9094 29.6971C20.2061 29.7646 20.5172 29.721 20.7839 29.5745Z" fill="#FFB7B7"/>
<path d="M22.7859 19.3721L20.1756 19.2073C20.1014 19.2026 20.029 19.1819 19.9634 19.1468C19.8978 19.1116 19.8406 19.0627 19.7957 19.0034C19.7507 18.9441 19.719 18.8758 19.7028 18.8031C19.6866 18.7305 19.6863 18.6552 19.7018 18.5825L20.2457 16.0323C20.2718 15.6524 20.4474 15.2984 20.7342 15.0478C21.0209 14.7973 21.3954 14.6707 21.7753 14.6958C22.1553 14.7209 22.5098 14.8956 22.7611 15.1817C23.0123 15.4679 23.1399 15.8419 23.1158 16.222L23.3345 18.8118C23.3408 18.886 23.331 18.9606 23.3058 19.0306C23.2806 19.1006 23.2406 19.1644 23.1885 19.2176C23.1364 19.2707 23.0735 19.3121 23.004 19.3387C22.9346 19.3654 22.8601 19.3768 22.7859 19.3721L22.7859 19.3721Z" fill="#F5F5F5"/>
<path d="M94.9258 8.81311H37.2037C36.7824 8.81311 36.3783 8.9805 36.0803 9.27845C35.7824 9.5764 35.615 9.9805 35.615 10.4019V42.5635C35.615 42.9849 35.7824 43.389 36.0803 43.687C36.3783 43.9849 36.7824 44.1523 37.2037 44.1523H94.9258C95.3472 44.1523 95.7513 43.9849 96.0493 43.687C96.3472 43.389 96.5146 42.9849 96.5146 42.5635V10.4019C96.5146 9.9805 96.3472 9.5764 96.0493 9.27845C95.7513 8.9805 95.3472 8.81311 94.9258 8.81311Z" fill="#3F3D56"/>
<path d="M94.3844 11.6208H37.7449V43.5714H94.3844V11.6208Z" fill="white"/>
<path d="M66.0162 10.7495C66.337 10.7495 66.5971 10.4894 66.5971 10.1686C66.5971 9.84773 66.337 9.58765 66.0162 9.58765C65.6954 9.58765 65.4353 9.84773 65.4353 10.1686C65.4353 10.4894 65.6954 10.7495 66.0162 10.7495Z" fill="white"/>
<path d="M78.1864 43.5714H37.7449V11.6208L78.1864 43.5714Z" fill="#F2F2F2"/>
<path d="M98.1047 42.9904H92.5771V42.5921C92.5771 42.5712 92.5688 42.5511 92.554 42.5363C92.5392 42.5215 92.5191 42.5132 92.4981 42.5132H90.6029C90.5925 42.5132 90.5823 42.5152 90.5727 42.5192C90.5631 42.5232 90.5544 42.529 90.5471 42.5363C90.5397 42.5436 90.5339 42.5523 90.53 42.5619C90.526 42.5715 90.5239 42.5818 90.5239 42.5921V42.9904H89.3395V42.5921C89.3395 42.5818 89.3374 42.5715 89.3335 42.5619C89.3295 42.5523 89.3237 42.5436 89.3163 42.5363C89.309 42.529 89.3003 42.5232 89.2907 42.5192C89.2811 42.5152 89.2709 42.5132 89.2605 42.5132H87.3653C87.3549 42.5132 87.3447 42.5152 87.3351 42.5192C87.3255 42.5232 87.3168 42.529 87.3095 42.5363C87.3021 42.5436 87.2963 42.5523 87.2924 42.5619C87.2884 42.5715 87.2863 42.5818 87.2863 42.5921V42.9904H86.1019V42.5921C86.1019 42.5818 86.0998 42.5715 86.0958 42.5619C86.0919 42.5523 86.0861 42.5436 86.0787 42.5363C86.0714 42.529 86.0627 42.5232 86.0531 42.5192C86.0435 42.5152 86.0333 42.5132 86.0229 42.5132H84.1277C84.1173 42.5132 84.107 42.5152 84.0975 42.5192C84.0879 42.5232 84.0792 42.529 84.0718 42.5363C84.0645 42.5436 84.0587 42.5523 84.0547 42.5619C84.0508 42.5715 84.0487 42.5818 84.0487 42.5921V42.9904H82.8642V42.5921C82.8642 42.5818 82.8622 42.5715 82.8582 42.5619C82.8542 42.5523 82.8484 42.5436 82.8411 42.5363C82.8338 42.529 82.8251 42.5232 82.8155 42.5192C82.8059 42.5152 82.7956 42.5132 82.7853 42.5132H80.8901C80.8797 42.5132 80.8694 42.5152 80.8598 42.5192C80.8503 42.5232 80.8416 42.529 80.8342 42.5363C80.8269 42.5436 80.8211 42.5523 80.8171 42.5619C80.8131 42.5715 80.8111 42.5818 80.8111 42.5921V42.9904H79.6266V42.5921C79.6266 42.5818 79.6246 42.5715 79.6206 42.5619C79.6166 42.5523 79.6108 42.5436 79.6035 42.5363C79.5961 42.529 79.5874 42.5232 79.5779 42.5192C79.5683 42.5152 79.558 42.5132 79.5476 42.5132H77.6524C77.6421 42.5132 77.6318 42.5152 77.6222 42.5192C77.6126 42.5232 77.6039 42.529 77.5966 42.5363C77.5893 42.5436 77.5835 42.5523 77.5795 42.5619C77.5755 42.5715 77.5735 42.5818 77.5735 42.5921V42.9904H76.389V42.5921C76.389 42.5818 76.3869 42.5715 76.383 42.5619C76.379 42.5523 76.3732 42.5436 76.3658 42.5363C76.3585 42.529 76.3498 42.5232 76.3402 42.5192C76.3306 42.5152 76.3204 42.5132 76.31 42.5132H74.4148C74.4044 42.5132 74.3942 42.5152 74.3846 42.5192C74.375 42.5232 74.3663 42.529 74.359 42.5363C74.3516 42.5436 74.3458 42.5523 74.3419 42.5619C74.3379 42.5715 74.3358 42.5818 74.3358 42.5921V42.9904H73.1514V42.5921C73.1514 42.5818 73.1493 42.5715 73.1453 42.5619C73.1414 42.5523 73.1356 42.5436 73.1282 42.5363C73.1209 42.529 73.1122 42.5232 73.1026 42.5192C73.093 42.5152 73.0828 42.5132 73.0724 42.5132H58.2267C58.2163 42.5132 58.2061 42.5152 58.1965 42.5192C58.1869 42.5232 58.1782 42.529 58.1709 42.5363C58.1635 42.5436 58.1577 42.5523 58.1537 42.5619C58.1498 42.5715 58.1477 42.5818 58.1477 42.5921V42.9904H56.9632V42.5921C56.9632 42.5818 56.9612 42.5715 56.9572 42.5619C56.9533 42.5523 56.9474 42.5436 56.9401 42.5363C56.9328 42.529 56.9241 42.5232 56.9145 42.5192C56.9049 42.5152 56.8946 42.5132 56.8843 42.5132H54.9891C54.9787 42.5132 54.9684 42.5152 54.9589 42.5192C54.9493 42.5232 54.9406 42.529 54.9332 42.5363C54.9259 42.5436 54.9201 42.5523 54.9161 42.5619C54.9122 42.5715 54.9101 42.5818 54.9101 42.5921V42.9904H53.7256V42.5921C53.7256 42.5818 53.7236 42.5715 53.7196 42.5619C53.7156 42.5523 53.7098 42.5436 53.7025 42.5363C53.6952 42.529 53.6864 42.5232 53.6769 42.5192C53.6673 42.5152 53.657 42.5132 53.6467 42.5132H51.7514C51.7411 42.5132 51.7308 42.5152 51.7212 42.5192C51.7117 42.5232 51.7029 42.529 51.6956 42.5363C51.6883 42.5436 51.6825 42.5523 51.6785 42.5619C51.6745 42.5715 51.6725 42.5818 51.6725 42.5921V42.9904H50.488V42.5921C50.488 42.5818 50.4859 42.5715 50.482 42.5619C50.478 42.5523 50.4722 42.5436 50.4649 42.5363C50.4575 42.529 50.4488 42.5232 50.4392 42.5192C50.4297 42.5152 50.4194 42.5132 50.409 42.5132H48.5138C48.5035 42.5132 48.4932 42.5152 48.4836 42.5192C48.474 42.5232 48.4653 42.529 48.458 42.5363C48.4507 42.5436 48.4448 42.5523 48.4409 42.5619C48.4369 42.5715 48.4349 42.5818 48.4349 42.5921V42.9904H47.2504V42.5921C47.2504 42.5818 47.2483 42.5715 47.2444 42.5619C47.2404 42.5523 47.2346 42.5436 47.2272 42.5363C47.2199 42.529 47.2112 42.5232 47.2016 42.5192C47.192 42.5152 47.1818 42.5132 47.1714 42.5132H45.2762C45.2658 42.5132 45.2556 42.5152 45.246 42.5192C45.2364 42.5232 45.2277 42.529 45.2204 42.5363C45.213 42.5436 45.2072 42.5523 45.2032 42.5619C45.1993 42.5715 45.1972 42.5818 45.1972 42.5921V42.9904H44.0127V42.5921C44.0127 42.5818 44.0107 42.5715 44.0067 42.5619C44.0028 42.5523 43.9969 42.5436 43.9896 42.5363C43.9823 42.529 43.9736 42.5232 43.964 42.5192C43.9544 42.5152 43.9441 42.5132 43.9338 42.5132H42.0386C42.0176 42.5132 41.9975 42.5215 41.9827 42.5363C41.9679 42.5511 41.9596 42.5712 41.9596 42.5921V42.9904H40.7751V42.5921C40.7751 42.5818 40.7731 42.5715 40.7691 42.5619C40.7651 42.5523 40.7593 42.5436 40.752 42.5363C40.7447 42.529 40.736 42.5232 40.7264 42.5192C40.7168 42.5152 40.7065 42.5132 40.6962 42.5132H38.801C38.78 42.5132 38.7599 42.5215 38.7451 42.5363C38.7303 42.5511 38.722 42.5712 38.722 42.5921V42.9904H35.0895C34.8406 42.9904 34.5942 43.0394 34.3643 43.1347C34.1343 43.2299 33.9254 43.3695 33.7494 43.5455C33.5734 43.7215 33.4338 43.9304 33.3386 44.1603C33.2434 44.3903 33.1943 44.6367 33.1943 44.8856V45.7426C33.1943 46.2452 33.394 46.7273 33.7494 47.0827C34.1048 47.4381 34.5869 47.6378 35.0895 47.6378H98.1047C98.6074 47.6378 99.0894 47.4381 99.4448 47.0827C99.8003 46.7273 99.9999 46.2452 99.9999 45.7426V44.8856C99.9999 44.6367 99.9509 44.3903 99.8557 44.1603C99.7604 43.9304 99.6208 43.7215 99.4448 43.5455C99.2689 43.3695 99.0599 43.2299 98.83 43.1347C98.6001 43.0394 98.3536 42.9904 98.1047 42.9904Z" fill="#3F3D56"/>
<path d="M67.1541 39.3818C67.1352 39.4268 67.1139 39.4707 67.0904 39.5134C66.9668 39.7414 66.7922 39.9379 66.5803 40.0873C66.3292 40.264 66.0345 40.3683 65.7283 40.3889C65.422 40.4095 65.116 40.3456 64.8435 40.2042C64.5711 40.0628 64.3427 39.8493 64.1834 39.587C64.024 39.3247 63.9397 39.0236 63.9397 38.7167V38.4462H64.1692C65.0611 39.0227 66.0928 39.3461 67.1541 39.3818Z" fill="#3F3D56"/>
<path d="M70.4297 38.5254V38.7167C70.4298 39.0891 70.3059 39.451 70.0774 39.7451C69.8489 40.0392 69.529 40.2488 69.1681 40.3408C68.8072 40.4328 68.426 40.4019 68.0846 40.2531C67.7432 40.1042 67.4612 39.8458 67.283 39.5188C67.2584 39.475 67.2363 39.43 67.2166 39.3839C67.2656 39.3852 67.3139 39.3859 67.3629 39.3859C68.4449 39.3871 69.5062 39.0893 70.4297 38.5254Z" fill="#3F3D56"/>
<path d="M72.6878 18.2963C72.6374 18.2889 72.5864 18.2842 72.5354 18.2809C73.1151 19.6168 73.1553 21.1252 72.6475 22.4901C72.6985 22.484 72.7489 22.476 72.7992 22.4666C73.2908 22.3714 73.7326 22.1048 74.046 21.7143C74.3594 21.3238 74.5241 20.8348 74.5107 20.3342C74.4974 19.8337 74.3068 19.3542 73.973 18.981C73.6391 18.6078 73.1837 18.3652 72.6878 18.2963Z" fill="#3F3D56"/>
<path d="M62.1907 18.2809C62.1396 18.2842 62.0886 18.2889 62.0383 18.2963C61.5423 18.3652 61.0869 18.6078 60.7531 18.981C60.4193 19.3542 60.2287 19.8337 60.2154 20.3342C60.202 20.8348 60.3667 21.3238 60.6801 21.7143C60.9935 22.1048 61.4353 22.3714 61.9269 22.4666C61.9772 22.476 62.0275 22.484 62.0785 22.4901C61.5708 21.1252 61.611 19.6168 62.1907 18.2809Z" fill="#3F3D56"/>
<path d="M72.6877 18.2962C72.1347 16.9754 71.1105 15.9072 69.8141 15.2993C68.5176 14.6914 67.0415 14.5871 65.6724 15.0066C64.3033 15.4262 63.1391 16.3397 62.4059 17.5696C61.6727 18.7996 61.4228 20.2582 61.7049 21.662C61.987 23.0659 62.7808 24.3148 63.9321 25.1661C65.0835 26.0174 66.5102 26.4103 67.9351 26.2685C69.36 26.1268 70.6813 25.4604 71.6423 24.3989C72.6034 23.3374 73.1355 21.9566 73.1354 20.5247C73.1351 19.7595 72.9829 19.0021 72.6877 18.2962ZM72.6474 22.49C72.1564 23.8098 71.1892 24.898 69.9361 25.5405C68.683 26.183 67.2348 26.3331 65.8766 25.9615C64.5183 25.5898 63.3484 24.7231 62.5971 23.5321C61.8457 22.3411 61.5674 20.912 61.8168 19.5261C62.0663 18.1402 62.8254 16.8978 63.9449 16.0436C65.0644 15.1893 66.4631 14.785 67.8657 14.9102C69.2683 15.0354 70.5732 15.6811 71.5237 16.7202C72.4741 17.7593 73.0012 19.1165 73.0012 20.5247C73.001 21.1956 72.8812 21.8611 72.6474 22.49Z" fill="#3F3D56"/>
<path d="M70.3162 19.2158H64.4095C64.098 19.2158 63.7992 19.3396 63.5789 19.5599C63.3586 19.7801 63.2349 20.0789 63.2349 20.3905C63.2349 20.702 63.3586 21.0008 63.5789 21.221C63.7992 21.4413 64.098 21.5651 64.4095 21.5651H70.3162C70.6277 21.5651 70.9265 21.4413 71.1468 21.221C71.3671 21.0008 71.4908 20.702 71.4908 20.3905C71.4908 20.0789 71.3671 19.7801 71.1468 19.5599C70.9265 19.3396 70.6277 19.2158 70.3162 19.2158Z" fill="#3F3D56"/>
<path d="M72.6474 30.5554C72.6259 30.5158 72.6038 30.4768 72.581 30.4386C72.5803 30.4372 72.5796 30.4366 72.579 30.4352C72.0508 29.5311 71.2967 28.7799 70.3906 28.2553C69.4844 27.7307 68.4575 27.4507 67.4105 27.4428C66.3635 27.4349 65.3324 27.6994 64.4185 28.2103C63.5045 28.7212 62.7391 29.4609 62.1974 30.357C61.6557 31.253 61.3563 32.2744 61.3285 33.3211C61.3008 34.3678 61.5457 35.4037 62.0391 36.3271C62.5326 37.2506 63.2577 38.0299 64.1433 38.5885C65.0289 39.1471 66.0445 39.4658 67.0904 39.5134C67.1542 39.5168 67.2186 39.5188 67.283 39.5188C67.3099 39.5201 67.3361 39.5201 67.3629 39.5201C68.442 39.5217 69.5015 39.2321 70.4297 38.6818C71.4379 38.0851 72.2523 37.2099 72.775 36.1614C72.7756 36.16 72.7763 36.1594 72.777 36.158C72.7971 36.1177 72.8166 36.0768 72.836 36.0352C73.2397 35.1718 73.4331 34.2251 73.4003 33.2726C73.3675 32.3201 73.1095 31.3889 72.6474 30.5554H72.6474ZM72.7051 35.9983C72.6857 36.0399 72.6655 36.0808 72.6447 36.1211C72.1455 37.1137 71.3781 37.9466 70.4297 38.5254C69.5063 39.0894 68.445 39.3872 67.3629 39.3859C67.3139 39.3859 67.2656 39.3852 67.2166 39.3839C67.1958 39.3839 67.175 39.3832 67.1542 39.3819C66.1293 39.3461 65.1315 39.044 64.2588 38.5055C63.3861 37.967 62.6686 37.2106 62.177 36.3107C61.6854 35.4107 61.4365 34.3983 61.4549 33.373C61.4733 32.3477 61.7583 31.3449 62.2819 30.4631C62.8055 29.5814 63.5497 28.8512 64.4411 28.3444C65.3326 27.8375 66.3406 27.5715 67.3661 27.5725C68.3915 27.5734 69.3991 27.8414 70.2896 28.3499C71.1801 28.8585 71.9228 29.5901 72.4447 30.4728C72.4454 30.4741 72.4461 30.4748 72.4467 30.4762C72.4702 30.5144 72.493 30.5533 72.5145 30.5923C72.9752 31.4128 73.2328 32.3317 73.266 33.2721C73.2991 34.2126 73.1068 35.1473 72.7051 35.9983Z" fill="#3F3D56"/>
<path d="M72.0058 30.7339C71.8882 30.6501 71.7475 30.6049 71.603 30.6044H68.9631C68.7792 30.6044 68.6029 30.6774 68.4729 30.8075C68.3428 30.9375 68.2698 31.1138 68.2698 31.2977C68.2698 31.4816 68.3428 31.658 68.4729 31.788C68.6029 31.9181 68.7792 31.9911 68.9631 31.9911H71.603C71.6502 31.9912 71.6972 31.9865 71.7433 31.977C71.7893 31.9671 71.8342 31.9529 71.8776 31.9347C71.9904 31.8861 72.0883 31.8083 72.1612 31.7094C72.2342 31.6105 72.2795 31.494 72.2925 31.3718C72.3055 31.2496 72.2859 31.1261 72.2355 31.014C72.1851 30.9019 72.1058 30.8053 72.0058 30.7339L72.0058 30.7339Z" fill="#3F3D56"/>
<path d="M69.1389 31.6497C69.3333 31.6497 69.4909 31.4921 69.4909 31.2977C69.4909 31.1033 69.3333 30.9457 69.1389 30.9457C68.9445 30.9457 68.7869 31.1033 68.7869 31.2977C68.7869 31.4921 68.9445 31.6497 69.1389 31.6497Z" fill="#F1F1F1"/>
<path d="M70.2829 31.6497C70.4773 31.6497 70.6349 31.4921 70.6349 31.2977C70.6349 31.1033 70.4773 30.9457 70.2829 30.9457C70.0885 30.9457 69.9309 31.1033 69.9309 31.2977C69.9309 31.4921 70.0885 31.6497 70.2829 31.6497Z" fill="#F1F1F1"/>
<path d="M71.427 31.6497C71.6214 31.6497 71.779 31.4921 71.779 31.2977C71.779 31.1033 71.6214 30.9457 71.427 30.9457C71.2326 30.9457 71.075 31.1033 71.075 31.2977C71.075 31.4921 71.2326 31.6497 71.427 31.6497Z" fill="#F5F5F5"/>
<path d="M84.685 19.6958C83.7696 20.2448 82.1386 20.9328 80.4719 20.2258L79.3945 19.7688L81.5535 17.3485C79.8307 15.4489 78.8775 12.9754 78.8801 10.4109C78.8828 7.84635 79.841 5.37482 81.5677 3.47872C83.2945 1.58262 85.6658 0.398043 88.219 0.156202C90.7721 -0.0856389 93.3237 0.632616 95.3757 2.17077C97.4278 3.70893 98.833 5.95658 99.3171 8.47502C99.8012 10.9935 99.3295 13.6019 97.9939 15.7912C96.6584 17.9806 94.5549 19.5937 92.0941 20.3156C89.6332 21.0376 86.9917 20.8166 84.685 19.6958Z" fill="white"/>
<path d="M84.6908 19.8264C83.8111 20.3428 82.1355 21.0565 80.4271 20.3318L79.2019 19.8121L81.3992 17.3489C80.032 15.8111 79.1505 13.903 78.8656 11.8651C78.5807 9.82725 78.9051 7.75061 79.7981 5.89677C80.6911 4.04292 82.1127 2.49476 83.8839 1.44727C85.655 0.39978 87.6965 -0.100205 89.7513 0.0102842C91.806 0.120773 93.7821 0.836794 95.4307 2.06817C97.0794 3.29955 98.3267 4.99123 99.0158 6.93015C99.7048 8.86906 99.8048 10.9685 99.303 12.9641C98.8012 14.9597 97.7201 16.7622 96.1959 18.1446C94.6651 19.5413 92.7513 20.4479 90.7009 20.7476C88.6505 21.0473 86.5573 20.7265 84.6908 19.8264H84.6908ZM96.744 3.57173C95.8446 2.57952 94.7585 1.77422 93.5478 1.20182C92.3371 0.629414 91.0255 0.30112 89.6879 0.235684C88.3503 0.170248 87.013 0.368954 85.7522 0.820453C84.4914 1.27195 83.3319 1.9674 82.3399 2.86707C81.3479 3.76675 80.5429 4.85302 79.9708 6.06386C79.3987 7.2747 79.0708 8.58638 79.0057 9.92399C78.9406 11.2616 79.1396 12.5989 79.5914 13.8596C80.0432 15.1203 80.739 16.2796 81.6389 17.2713L81.7084 17.348L79.5874 19.7257L80.517 20.12C82.1669 20.8199 83.7996 20.0928 84.626 19.5972L84.6794 19.5651L84.7355 19.5924C86.8657 20.6275 89.2899 20.8886 91.5917 20.3311C93.8936 19.7736 95.9295 18.4321 97.3501 16.5369C98.7706 14.6418 99.4871 12.3113 99.3765 9.94545C99.2659 7.57962 98.3351 5.32608 96.744 3.57173L96.744 3.57173Z" fill="#F5F5F5"/>
<path opacity="0.1" d="M97.8963 10.3573C97.8961 7.98591 97.0081 5.70054 95.4071 3.95122C93.8061 2.2019 91.6082 1.11541 89.2461 0.90572C89.5225 0.881508 89.8021 0.868408 90.0848 0.868408C92.6004 0.869926 95.0124 1.87031 96.7907 3.64965C98.569 5.42899 99.5679 7.84165 99.5679 10.3573C99.5679 12.8729 98.569 15.2855 96.7907 17.0649C95.0124 18.8442 92.6004 19.8446 90.0848 19.8461C89.8025 19.8461 89.5234 19.8328 89.2474 19.8087C91.6092 19.5987 93.8068 18.5121 95.4076 16.7628C97.0083 15.0136 97.8961 12.7284 97.8963 10.3573Z" fill="black"/>
<path d="M90.5303 8.46497H83.75V9.09461H90.5303V8.46497Z" fill="#F5F5F5"/>
<path d="M95.5675 10.6432H83.75V11.2728H95.5675V10.6432Z" fill="#F5F5F5"/>
<path d="M95.556 12.8213H83.75V13.4509H95.556V12.8213Z" fill="#F5F5F5"/>
<path d="M43.9596 54.4539H0.115077C0.084557 54.4539 0.0552865 54.4418 0.0337053 54.4202C0.0121241 54.3986 0 54.3694 0 54.3388C0 54.3083 0.0121241 54.279 0.0337053 54.2575C0.0552865 54.2359 0.084557 54.2238 0.115077 54.2238H43.9596C43.9901 54.2238 44.0194 54.2359 44.0409 54.2575C44.0625 54.279 44.0746 54.3083 44.0746 54.3388C44.0746 54.3694 44.0625 54.3986 44.0409 54.4202C44.0194 54.4418 43.9901 54.4539 43.9596 54.4539Z" fill="#CBCBCB"/>
<path d="M27.0512 8.65268C26.9562 8.22167 26.6476 7.86457 26.2921 7.60304C25.706 7.17192 24.9873 6.95999 24.2611 7.00415C23.5349 7.04831 22.8472 7.34576 22.3176 7.84473C22.0218 8.10605 21.8085 8.44792 21.7038 8.82854C21.6539 9.01878 21.6512 9.21834 21.6961 9.40985C21.7409 9.60135 21.8318 9.77899 21.961 9.92731L22.0097 9.95783C21.9656 9.77048 22.1111 9.58328 22.2849 9.50062C22.4658 9.43426 22.6545 9.39194 22.8463 9.37475C23.1366 9.3199 23.4117 9.20338 23.653 9.03308C23.8944 8.86277 24.0963 8.64265 24.2453 8.38757C24.3557 8.70151 24.532 8.98817 24.7624 9.22828C24.9928 9.46839 25.2719 9.65639 25.5811 9.77962C25.9033 9.90564 26.7884 10.0789 27.0952 9.91893C27.4866 9.71486 27.1462 9.08369 27.0512 8.65268Z" fill="#2F2E41"/>
</g>
<defs>
<clipPath id="clip0_1447_1622">
<rect width="100" height="54.6238" fill="white"/>
</clipPath>
</defs>
</svg>
