<svg width="25" height="25" viewBox="0 0 25 25" fill="none" xmlns="http://www.w3.org/2000/svg">
<path d="M1.04167 8.33333C1.61667 8.33333 2.08333 7.86771 2.08333 7.29167V3.125C2.08333 2.55 2.55104 2.08333 3.125 2.08333H7.29167C7.86667 2.08333 8.33333 1.61771 8.33333 1.04167C8.33333 0.465625 7.86667 0 7.29167 0H3.125C1.40208 0 0 1.40208 0 3.125V7.29167C0 7.86771 0.466667 8.33333 1.04167 8.33333Z" fill="#616161"/>
<path d="M3.125 25H7.29167C7.86667 25 8.33333 24.5344 8.33333 23.9583C8.33333 23.3823 7.86667 22.9167 7.29167 22.9167H3.125C2.55104 22.9167 2.08333 22.45 2.08333 21.875V17.7083C2.08333 17.1323 1.61667 16.6667 1.04167 16.6667C0.466667 16.6667 0 17.1323 0 17.7083V21.875C0 23.5979 1.40208 25 3.125 25Z" fill="#616161"/>
<path d="M17.7083 25H21.875C23.5979 25 25 23.5979 25 21.875V17.7083C25 17.1323 24.5333 16.6667 23.9583 16.6667C23.3833 16.6667 22.9166 17.1323 22.9166 17.7083V21.875C22.9166 22.45 22.4489 22.9167 21.875 22.9167H17.7083C17.1333 22.9167 16.6666 23.3823 16.6666 23.9583C16.6666 24.5344 17.1333 25 17.7083 25Z" fill="#616161"/>
<path d="M23.9583 8.33333C24.5333 8.33333 25 7.86771 25 7.29167V3.125C25 1.40208 23.5979 0 21.875 0H17.7083C17.1333 0 16.6666 0.465625 16.6666 1.04167C16.6666 1.61771 17.1333 2.08333 17.7083 2.08333H21.875C22.4489 2.08333 22.9166 2.55 22.9166 3.125V7.29167C22.9166 7.86771 23.3833 8.33333 23.9583 8.33333Z" fill="#616161"/>
<path d="M5.20837 18.1427V15.5385C5.20837 14.9625 5.67504 14.4969 6.25004 14.4969H18.75C19.325 14.4969 19.7917 14.9625 19.7917 15.5385V18.1427C19.7917 19.2917 18.8573 20.226 17.7084 20.226H7.29171C6.14275 20.226 5.20837 19.2917 5.20837 18.1427Z" fill="#F2C200"/>
<path d="M5.20837 10.4167V7.29167C5.20837 6.14271 6.14275 5.20834 7.29171 5.20834H17.7084C18.8573 5.20834 19.7917 6.14271 19.7917 7.29167V10.4167C19.7917 10.9927 19.325 11.4583 18.75 11.4583H6.25004C5.67504 11.4583 5.20837 10.9927 5.20837 10.4167Z" fill="#F2C200"/>
<path d="M4.16667 15.625H20.8333C21.4083 15.625 21.875 15.1594 21.875 14.5833C21.875 14.0073 21.4083 13.5417 20.8333 13.5417H4.16667C3.59167 13.5417 3.125 14.0073 3.125 14.5833C3.125 15.1594 3.59167 15.625 4.16667 15.625Z" fill="#616161"/>
<path d="M7.29167 0H3.125C1.40208 0 0 1.40208 0 3.125V7.29167C0 7.86771 0.466667 8.33333 1.04167 8.33333C1.61667 8.33333 2.08333 7.86771 2.08333 7.29167V3.125C2.08333 2.55 2.55104 2.08333 3.125 2.08333H7.29167C7.86667 2.08333 8.33333 1.61771 8.33333 1.04167C8.33333 0.465625 7.86667 0 7.29167 0Z" fill="#424242"/>
<path d="M1.04167 16.6667C0.466667 16.6667 0 17.1323 0 17.7083V21.875C0 23.5979 1.40208 25 3.125 25H7.29167C7.86667 25 8.33333 24.5344 8.33333 23.9583C8.33333 23.3823 7.86667 22.9167 7.29167 22.9167H3.125C2.55104 22.9167 2.08333 22.45 2.08333 21.875V17.7083C2.08333 17.1323 1.61667 16.6667 1.04167 16.6667Z" fill="#424242"/>
<path d="M12.5 15.625H5.20837V18.1427C5.20837 19.2917 6.14275 20.226 7.29171 20.226H12.5V15.625Z" fill="#FFCC00"/>
<path d="M12.5 5.20834H7.29171C6.14275 5.20834 5.20837 6.14271 5.20837 7.29167V10.4167C5.20837 10.9927 5.67504 11.4583 6.25004 11.4583H12.5V5.20834Z" fill="#FFCC00"/>
<path d="M12.5 13.5417H4.16667C3.59167 13.5417 3.125 14.0073 3.125 14.5833C3.125 15.1594 3.59167 15.625 4.16667 15.625H5.20833H12.5V13.5417Z" fill="#424242"/>
</svg>
