<svg width="42" height="42" viewBox="0 0 42 42" fill="none" xmlns="http://www.w3.org/2000/svg">
<circle cx="21" cy="21" r="21" fill="#F5F5F5"/>
<g clip-path="url(#clip0_1598_1222)">
<path d="M26.2053 24.2304C25.5519 23.5853 24.7362 23.5853 24.087 24.2304C23.5917 24.7215 23.0965 25.2126 22.6095 25.712C22.4764 25.8494 22.364 25.8785 22.2017 25.7869C21.8812 25.6121 21.54 25.4706 21.232 25.2792C19.7962 24.3761 18.5934 23.2149 17.528 21.9081C16.9994 21.2589 16.5291 20.5639 16.2004 19.7814C16.1338 19.6233 16.1463 19.5192 16.2753 19.3902C16.7705 18.9116 17.2533 18.4205 17.7402 17.9294C18.4186 17.2469 18.4186 16.4478 17.7361 15.7611C17.349 15.3699 16.962 14.987 16.5749 14.5958C16.1754 14.1963 15.78 13.7926 15.3763 13.3972C14.7229 12.7605 13.9072 12.7605 13.258 13.4014C12.7585 13.8925 12.2799 14.396 11.7722 14.8788C11.3019 15.3241 11.0647 15.8693 11.0147 16.5061C10.9357 17.5424 11.1895 18.5204 11.5475 19.4735C12.2799 21.4462 13.3953 23.1983 14.7479 24.8047C16.5749 26.9772 18.7557 28.696 21.3069 29.9363C22.4556 30.4939 23.6458 30.9226 24.9402 30.9934C25.8308 31.0433 26.6049 30.8186 27.225 30.1235C27.6495 29.6491 28.1281 29.2163 28.5776 28.7626C29.2435 28.0884 29.2476 27.2727 28.5859 26.6068C27.7952 25.8119 27.0003 25.0212 26.2053 24.2304Z" fill="#4893FF"/>
<path d="M25.4105 20.9135L26.9462 20.6513C26.7048 19.2404 26.0389 17.9627 25.0276 16.9473C23.958 15.8777 22.6054 15.2035 21.1155 14.9954L20.899 16.5394C22.0519 16.7017 23.1006 17.2219 23.9288 18.0501C24.7113 18.8326 25.2232 19.8231 25.4105 20.9135Z" fill="#4893FF"/>
<path d="M27.8119 14.2379C26.0389 12.465 23.7957 11.3454 21.3194 11L21.103 12.544C23.2422 12.8437 25.1816 13.8134 26.7131 15.3408C28.1656 16.7932 29.1187 18.6286 29.4641 20.6471L30.9998 20.3849C30.5961 18.0459 29.4932 15.9234 27.8119 14.2379Z" fill="#4893FF"/>
</g>
<defs>
<clipPath id="clip0_1598_1222">
<rect width="20" height="20" fill="white" transform="translate(11 11)"/>
</clipPath>
</defs>
</svg>
