<svg width="25" height="26" viewBox="0 0 25 26" fill="none" xmlns="http://www.w3.org/2000/svg">
<g clip-path="url(#clip0_1233_872)">
<path d="M16.8457 1.96484H2.19727C0.985645 1.96484 0 2.95049 0 4.16211V23.3027C0 24.5144 0.985645 25.5 2.19727 25.5H16.8457C18.0573 25.5 19.043 24.5144 19.043 23.3027V4.16211C19.043 2.95049 18.0573 1.96484 16.8457 1.96484ZM23.5352 9.38672H22.0703C21.2613 9.38672 20.6055 10.0425 20.6055 10.8516V19.7722C20.6055 21.1638 21.1477 22.5159 22.0703 23.5582V24.7676C22.0703 25.1724 22.3979 25.5 22.8027 25.5C23.2076 25.5 23.5352 25.1724 23.5352 24.7676V23.5582C24.4578 22.5159 25 21.1638 25 19.7722V10.8516C25 10.0425 24.3441 9.38672 23.5352 9.38672Z" fill="url(#paint0_linear_1233_872)"/>
<path d="M7.53883 8.13647L5.12697 10.5483L4.17994 9.60127C3.89386 9.31519 3.43033 9.31519 3.14425 9.60127C2.85817 9.88735 2.85817 10.3509 3.14425 10.637L4.60909 12.1018C4.75216 12.2449 4.93956 12.3164 5.12692 12.3164C5.31427 12.3164 5.50172 12.2449 5.64474 12.1018L8.57443 9.17212C8.86051 8.88603 8.86051 8.42251 8.57443 8.13643C8.28834 7.85034 7.82491 7.85034 7.53883 8.13647ZM7.53883 12.531L5.12697 14.9428L4.17994 13.9958C3.89386 13.7097 3.43033 13.7097 3.14425 13.9958C2.85817 14.2819 2.85817 14.7454 3.14425 15.0315L4.60909 16.4963C4.75216 16.6394 4.93956 16.7109 5.12692 16.7109C5.31427 16.7109 5.50172 16.6394 5.64474 16.4963L8.57443 13.5667C8.86051 13.2806 8.86051 12.817 8.57443 12.531C8.28834 12.2449 7.82491 12.2449 7.53883 12.531ZM7.53883 16.9255L5.12697 19.3374L4.17994 18.3903C3.89386 18.1042 3.43033 18.1042 3.14425 18.3903C2.85817 18.6764 2.85817 19.1399 3.14425 19.426L4.60909 20.8909C4.75216 21.0339 4.93956 21.1055 5.12692 21.1055C5.31427 21.1055 5.50172 21.0339 5.64474 20.8909L8.57443 17.9612C8.86051 17.6751 8.86051 17.2116 8.57443 16.9255C8.28834 16.6394 7.82491 16.6394 7.53883 16.9255ZM15.3809 9.38672H10.9863C10.5815 9.38672 10.2539 9.71431 10.2539 10.1191C10.2539 10.524 10.5815 10.8516 10.9863 10.8516H15.3809C15.7857 10.8516 16.1133 10.524 16.1133 10.1191C16.1133 9.71431 15.7857 9.38672 15.3809 9.38672ZM15.3809 13.7812H10.9863C10.5815 13.7812 10.2539 14.1088 10.2539 14.5137C10.2539 14.9185 10.5815 15.2461 10.9863 15.2461H15.3809C15.7857 15.2461 16.1133 14.9185 16.1133 14.5137C16.1133 14.1088 15.7857 13.7812 15.3809 13.7812ZM15.3809 18.1758H10.9863C10.5815 18.1758 10.2539 18.5034 10.2539 18.9082C10.2539 19.313 10.5815 19.6406 10.9863 19.6406H15.3809C15.7857 19.6406 16.1133 19.313 16.1133 18.9082C16.1133 18.5034 15.7857 18.1758 15.3809 18.1758ZM3.66212 4.89453C4.06696 4.89453 4.39454 4.56694 4.39454 4.16211V1.23242C4.39454 0.827588 4.06696 0.5 3.66212 0.5C3.25729 0.5 2.9297 0.827588 2.9297 1.23242V4.16211C2.9297 4.56694 3.25729 4.89453 3.66212 4.89453ZM10.2539 1.23242C10.2539 0.827588 9.92633 0.5 9.5215 0.5C9.11666 0.5 8.78907 0.827588 8.78907 1.23242V4.16211C8.78907 4.56694 9.11666 4.89453 9.5215 4.89453C9.92633 4.89453 10.2539 4.56694 10.2539 4.16211V1.23242ZM15.3809 0.5C14.976 0.5 14.6484 0.827588 14.6484 1.23242V4.16211C14.6484 4.56694 14.976 4.89453 15.3809 4.89453C15.7857 4.89453 16.1133 4.56694 16.1133 4.16211V1.23242C16.1133 0.827588 15.7857 0.5 15.3809 0.5ZM23.5352 5.1271V4.25977C23.5352 3.85493 23.2076 3.52734 22.8027 3.52734C22.3979 3.52734 22.0703 3.85493 22.0703 4.25977V5.1271C21.2196 5.43047 20.6055 6.23584 20.6055 7.18945V10.8516H25V7.18945C25 6.23584 24.3859 5.43047 23.5352 5.1271Z" fill="#424242"/>
</g>
<defs>
<linearGradient id="paint0_linear_1233_872" x1="12.5" y1="25.5" x2="12.5" y2="1.96484" gradientUnits="userSpaceOnUse">
<stop stop-color="#F3D55B"/>
<stop offset="1" stop-color="#FFCC00"/>
</linearGradient>
<clipPath id="clip0_1233_872">
<rect width="25" height="25" fill="white" transform="translate(0 0.5)"/>
</clipPath>
</defs>
</svg>
