<svg width="25" height="25" viewBox="0 0 25 25" fill="none" xmlns="http://www.w3.org/2000/svg">
<g clip-path="url(#clip0_1233_891)">
<path d="M18.2871 0H2.54631C1.52356 0 0.694458 0.829102 0.694458 1.85185V23.1481C0.694458 24.1709 1.52356 25 2.54631 25H18.2871C19.3098 25 20.1389 24.1709 20.1389 23.1481V1.85185C20.1389 0.829102 19.3098 0 18.2871 0Z" fill="#FFE26E"/>
<path d="M3.47224 4.62963V0H2.54631C2.05517 0 1.58414 0.195105 1.23685 0.542395C0.889563 0.889684 0.694458 1.36071 0.694458 1.85185L0.694458 23.1481C0.694458 23.6393 0.889563 24.1103 1.23685 24.4576C1.58414 24.8049 2.05517 25 2.54631 25H18.2867C18.7779 25 19.2489 24.8048 19.5961 24.4576C19.9434 24.1103 20.1385 23.6393 20.1386 23.1481V22.1977C15.6393 21.9605 11.4025 20.0062 8.30167 16.7376C5.20079 13.4689 3.47219 9.13512 3.47224 4.62963V4.62963Z" fill="#FFCC00"/>
<path d="M19.213 14.8148H21.0648C21.1876 14.8148 21.3054 14.8636 21.3922 14.9504C21.479 15.0372 21.5278 15.155 21.5278 15.2778V16.6667H18.75V15.2778C18.75 15.155 18.7988 15.0372 18.8856 14.9504C18.9724 14.8636 19.0902 14.8148 19.213 14.8148V14.8148Z" fill="#212121"/>
<path d="M17.3611 16.6667H22.9167C23.1622 16.6667 23.3977 16.7642 23.5714 16.9379C23.745 17.1115 23.8426 17.347 23.8426 17.5926V18.9815C23.8426 19.1043 23.7938 19.222 23.707 19.3089C23.6202 19.3957 23.5024 19.4444 23.3796 19.4444H16.8981C16.7754 19.4444 16.6576 19.3957 16.5708 19.3089C16.484 19.222 16.4352 19.1043 16.4352 18.9815V17.5923C16.4353 17.3468 16.5329 17.1113 16.7065 16.9378C16.8801 16.7642 17.1156 16.6667 17.3611 16.6667V16.6667Z" fill="#212121"/>
<path d="M12.2686 6.01852H4.86116C4.73837 6.01852 4.62061 5.96974 4.53379 5.88292C4.44697 5.7961 4.39819 5.67834 4.39819 5.55555C4.39819 5.43277 4.44697 5.31501 4.53379 5.22819C4.62061 5.14137 4.73837 5.09259 4.86116 5.09259H12.2686C12.3913 5.09259 12.5091 5.14137 12.5959 5.22819C12.6828 5.31501 12.7315 5.43277 12.7315 5.55555C12.7315 5.67834 12.6828 5.7961 12.5959 5.88292C12.5091 5.96974 12.3913 6.01852 12.2686 6.01852Z" fill="white"/>
<path d="M12.2686 7.87037H4.86116C4.80036 7.87037 4.74016 7.85839 4.68399 7.83513C4.62782 7.81186 4.57678 7.77776 4.53379 7.73477C4.4908 7.69178 4.4567 7.64074 4.43343 7.58457C4.41017 7.5284 4.39819 7.4682 4.39819 7.40741C4.39819 7.34661 4.41017 7.28641 4.43343 7.23024C4.4567 7.17407 4.4908 7.12303 4.53379 7.08004C4.57678 7.03705 4.62782 7.00295 4.68399 6.97968C4.74016 6.95642 4.80036 6.94444 4.86116 6.94444H12.2686C12.3294 6.94444 12.3896 6.95642 12.4457 6.97968C12.5019 7.00295 12.5529 7.03705 12.5959 7.08004C12.6389 7.12303 12.673 7.17407 12.6963 7.23024C12.7196 7.28641 12.7315 7.34661 12.7315 7.40741C12.7315 7.4682 12.7196 7.5284 12.6963 7.58457C12.673 7.64074 12.6389 7.69178 12.5959 7.73477C12.5529 7.77776 12.5019 7.81186 12.4457 7.83513C12.3896 7.85839 12.3294 7.87037 12.2686 7.87037Z" fill="white"/>
<path d="M12.2686 9.72222H4.86116C4.73837 9.72222 4.62061 9.67345 4.53379 9.58662C4.44697 9.4998 4.39819 9.38204 4.39819 9.25926C4.39819 9.13647 4.44697 9.01872 4.53379 8.93189C4.62061 8.84507 4.73837 8.7963 4.86116 8.7963H12.2686C12.3913 8.7963 12.5091 8.84507 12.5959 8.93189C12.6828 9.01872 12.7315 9.13647 12.7315 9.25926C12.7315 9.38204 12.6828 9.4998 12.5959 9.58662C12.5091 9.67345 12.3913 9.72222 12.2686 9.72222V9.72222Z" fill="white"/>
<path d="M9.95375 21.2963C11.7436 21.2963 13.1945 19.8454 13.1945 18.0556C13.1945 16.2657 11.7436 14.8148 9.95375 14.8148C8.16394 14.8148 6.71301 16.2657 6.71301 18.0556C6.71301 19.8454 8.16394 21.2963 9.95375 21.2963Z" fill="#212121"/>
<path d="M15.9722 7.87037C15.9709 7.31484 16.0807 6.76465 16.2952 6.25218C16.5096 5.7397 16.8244 5.27528 17.2209 4.88622C17.6175 4.49717 18.0878 4.19134 18.6043 3.98671C19.1208 3.78209 19.673 3.6828 20.2284 3.6947C20.7838 3.70659 21.3312 3.82942 21.8385 4.05597C22.3457 4.28252 22.8025 4.6082 23.1821 5.01388C23.5616 5.41955 23.8562 5.89702 24.0485 6.41821C24.2408 6.9394 24.327 7.49378 24.3019 8.04875C24.2325 9.89242 23.0953 10.9192 22.1881 11.4477C21.8483 11.6422 21.5656 11.9225 21.3683 12.2607C21.1711 12.5988 21.0662 12.9829 21.0643 13.3744V14.8145H19.2129V13.3744C19.2087 12.9799 19.1012 12.5934 18.901 12.2534C18.7009 11.9134 18.4151 11.6318 18.0721 11.4368C17.1388 10.8892 15.9722 9.81485 15.9722 7.87037V7.87037Z" fill="#666666"/>
<path d="M9.4392 19.4444C9.36872 19.4444 9.29917 19.4283 9.23587 19.3973C9.17257 19.3663 9.11718 19.3212 9.07394 19.2656L8.66252 18.7363C8.62405 18.6885 8.59549 18.6335 8.5785 18.5744C8.56151 18.5154 8.55643 18.4536 8.56355 18.3927C8.57068 18.3317 8.58987 18.2727 8.62001 18.2192C8.65014 18.1657 8.69063 18.1188 8.73909 18.0811C8.78756 18.0434 8.84304 18.0157 8.90231 17.9996C8.96158 17.9836 9.02345 17.9795 9.08431 17.9876C9.14518 17.9957 9.20382 18.0159 9.25683 18.0469C9.30983 18.0779 9.35614 18.1191 9.39305 18.1681L9.4392 18.2274L10.5144 16.8454C10.5515 16.797 10.5979 16.7564 10.6508 16.726C10.7037 16.6956 10.7621 16.6759 10.8227 16.6682C10.8832 16.6604 10.9446 16.6647 11.0035 16.6808C11.0624 16.6969 11.1175 16.7245 11.1656 16.7619C11.2138 16.7994 11.2541 16.846 11.2842 16.8991C11.3142 16.9522 11.3335 17.0108 11.3409 17.0713C11.3482 17.1319 11.3436 17.1934 11.3271 17.2521C11.3106 17.3109 11.2827 17.3658 11.2449 17.4137L9.80479 19.2656C9.76152 19.3213 9.70608 19.3664 9.64272 19.3974C9.57935 19.4284 9.50974 19.4445 9.4392 19.4444V19.4444Z" fill="#FFCC00"/>
</g>
<defs>
<clipPath id="clip0_1233_891">
<rect width="25" height="25" fill="white"/>
</clipPath>
</defs>
</svg>
