<svg width="360" height="226" viewBox="0 0 360 226" fill="none" xmlns="http://www.w3.org/2000/svg">
<rect width="360" height="226" fill="#4CAF50"/>
<path d="M115 113C115 157.735 78.7351 194 34 194C11.0261 194 3.33786e-06 185.5 3.33786e-06 169.852C0 156 3.33786e-06 136.261 3.33786e-06 114.5C3.33786e-06 81.9076 0 62 0 39.4598C10.3387 34.6719 21.8573 32 34 32C78.7351 32 115 68.2649 115 113Z" fill="url(#paint0_linear_1063_836)" fill-opacity="0.2"/>
<path d="M103 123.5C103 161.332 72.4445 192 34.7523 192C12.7702 192 0.000109453 183 2.40804e-08 166.5C-4.25411e-05 156 0.0563585 141.838 0.0563828 126C0.0563828 100.883 0.0563808 81.5 0.0563808 64.5C10.2229 58.4641 22.0846 55 34.7523 55C72.4445 55 103 85.6685 103 123.5Z" fill="url(#paint1_linear_1063_836)" fill-opacity="0.2"/>
<defs>
<linearGradient id="paint0_linear_1063_836" x1="34" y1="32" x2="34" y2="194" gradientUnits="userSpaceOnUse">
<stop stop-color="#B7E0B9"/>
<stop offset="0.68615" stop-color="#B7E0B9" stop-opacity="0"/>
</linearGradient>
<linearGradient id="paint1_linear_1063_836" x1="34.7524" y1="55" x2="34.7524" y2="192" gradientUnits="userSpaceOnUse">
<stop offset="0.255836" stop-color="#DBEFDC"/>
<stop offset="1" stop-color="#B7E0B9" stop-opacity="0"/>
</linearGradient>
</defs>
</svg>
