<svg width="30" height="30" viewBox="0 0 30 30" fill="none" xmlns="http://www.w3.org/2000/svg">
<g clip-path="url(#clip0_805_250)">
<path fill-rule="evenodd" clip-rule="evenodd" d="M0 30C0.36021 25.4736 -0.552822 25.6567 3.33194 24.2383C5.24016 23.5266 7.06902 22.6267 8.79013 21.5527L12.1096 30.0073L0 30ZM10.311 17.7612C9.92701 17.1611 9.60044 16.5277 9.33545 15.8691C7.23672 14.7168 6.90153 9.59229 8.19478 9.98047C8.19478 9.7876 8.15976 9.24805 8.15976 8.87695C8.15976 0.559082 21.8527 0.5542 21.8527 8.87695C21.8527 9.25781 21.8127 9.7876 21.8177 9.98047C23.111 9.58496 22.7633 14.7095 20.6771 15.8691C20.1443 17.3096 19.1937 18.2764 19.2712 18.9087C19.2612 21.0718 16.8273 21.8579 15.0088 21.8774C14.8437 21.8774 14.6761 21.8774 14.5085 21.853C14.9055 21.75 15.286 21.5939 15.6391 21.3892C16.4171 20.9253 16.9424 20.2393 16.9424 19.4165C16.9424 18.5937 16.4196 17.9028 15.6416 17.4414C14.9285 17.0329 14.1171 16.8164 13.2903 16.814C12.6479 16.8023 12.0096 16.9143 11.4117 17.1436C11.0407 17.2905 10.7012 17.5042 10.4111 17.7734H10.3185L10.311 17.7612ZM21.3725 21.1597C22.936 22.179 24.6265 22.9995 26.4029 23.6011C30.03 24.7778 30.03 24.9438 29.995 29.9902H17.933L21.3725 21.1597ZM15.9168 25.498H16.3821C16.5811 25.498 16.772 25.4209 16.9127 25.2835C17.0534 25.1462 17.1325 24.9599 17.1325 24.7656V23.5449C17.1325 23.3507 17.0534 23.1644 16.9127 23.027C16.772 22.8897 16.5811 22.8125 16.3821 22.8125H13.6305C13.4324 22.8156 13.2434 22.8938 13.1034 23.0305C12.9633 23.1672 12.8832 23.3517 12.88 23.5449V24.7656C12.8839 24.9587 12.9642 25.1428 13.1041 25.2794C13.244 25.4159 13.4326 25.4943 13.6305 25.498H14.1032L13.1827 30H16.7873L15.9168 25.498Z" fill="#BDBDBD"/>
<path fill-rule="evenodd" clip-rule="evenodd" d="M24.882 7.71729H24.7895C23.9315 4.16992 21.7252 1.70899 19.0962 0.690919C17.554 0.122367 15.9008 -0.101224 14.2583 0.0366221C12.6438 0.159622 11.0731 0.608556 9.64565 1.35498C8.4551 2.00171 7.43983 2.91632 6.68413 4.02286C5.92844 5.1294 5.45414 6.39594 5.30061 7.71729H5.12801C4.30253 7.71729 3.46704 8.37891 3.46704 9.18213V14.4727C3.46704 15.2783 4.30253 15.9375 5.12801 15.9375H5.61579C6.14861 18.0493 8.30736 19.9829 10.5061 19.9829H10.9389C11.3166 20.5249 12.0495 20.9082 13.2703 20.9082C14.491 20.9082 15.7917 20.2368 15.7917 19.4116C15.7917 18.5864 14.5085 17.9175 13.2803 17.9175C12.052 17.9175 11.2791 18.3154 10.9264 18.877H10.5061C8.62005 18.877 6.75396 16.9238 6.62138 15.1611V7.8125C6.76272 6.70577 7.16931 5.64713 7.80819 4.72243C8.44707 3.79772 9.30024 3.03299 10.2985 2.49024C11.5592 1.83597 12.9448 1.44284 14.3684 1.33545C15.8056 1.21474 17.2524 1.40823 18.6034 1.90186C20.7821 2.7417 22.6232 4.83154 23.4137 7.71729H23.3812V15.9375H24.882C25.71 15.9375 26.543 15.2783 26.543 14.4727V9.18457C26.543 8.37647 25.7075 7.71973 24.882 7.71973V7.71729Z" fill="#E0E0E0"/>
</g>
<defs>
<clipPath id="clip0_805_250">
<rect width="30" height="30" fill="white"/>
</clipPath>
</defs>
</svg>
