<svg width="33" height="27" viewBox="0 0 33 27" fill="none" xmlns="http://www.w3.org/2000/svg">
<path d="M21.9192 25.4496C21.8005 25.3837 21.6835 25.3147 21.5681 25.2424L21.165 25.4793C20.8555 25.6641 20.5035 25.7615 20.1467 25.7615C19.5944 25.7615 19.0571 25.5247 18.6529 25.0892C17.7036 24.0297 16.9879 22.7609 16.579 21.403C16.3031 20.4507 16.6999 19.4587 17.4984 19.0173L17.9118 18.7711C17.9084 18.6329 17.9084 18.4947 17.9118 18.3567L17.5171 18.1214C16.8829 17.7548 16.5168 17.0847 16.5044 16.3612C15.7575 16.1525 14.9737 16.0313 14.1642 16.0313H8.93578C4.00177 16.0313 0 20.1287 0 25.1754C0 26.1826 0.80025 27 1.78716 27H21.3108C21.6061 27 21.8728 26.9089 22.1182 26.7792C22.0011 26.5163 21.9192 26.236 21.9192 25.9322V25.4496ZM11.55 13.5C15.1955 13.5 18.15 10.4778 18.15 6.75C18.15 3.02221 15.1955 0 11.55 0C7.90453 0 4.95 3.02221 4.95 6.75C4.95 10.4778 7.90453 13.5 11.55 13.5ZM31.4789 19.6857C31.6143 18.9475 31.6143 18.1828 31.4789 17.4445L32.8066 16.6535C32.9613 16.5678 33.0322 16.3833 32.9807 16.2053C32.6326 15.0715 32.0396 14.0363 31.2662 13.1794C31.1502 13.0475 30.9568 13.0146 30.8021 13.1069L29.4744 13.8916C28.9134 13.4038 28.2689 13.0214 27.5728 12.7709V11.1955C27.5728 11.0175 27.4439 10.8593 27.2763 10.8264C26.129 10.5627 24.956 10.5693 23.8603 10.8264C23.6927 10.8593 23.5702 11.0175 23.5702 11.1955V12.7712C22.8742 13.0217 22.2296 13.404 21.6686 13.8918L20.3362 13.1045C20.188 13.0122 19.9946 13.0452 19.8722 13.177C19.0987 14.0339 18.5058 15.0691 18.1639 16.2029C18.1124 16.3809 18.1833 16.5654 18.3315 16.6511L19.6592 17.4422C19.5303 18.1804 19.5303 18.9451 19.6592 19.6834L18.3315 20.4744C18.1768 20.5601 18.1124 20.7446 18.1639 20.9226C18.5055 22.0564 19.0987 23.0847 19.8722 23.9485C19.9946 24.0804 20.1816 24.1133 20.3362 24.021L21.6707 23.2363C22.2317 23.7241 22.8762 24.1065 23.5723 24.357V25.9327C23.5723 26.1106 23.6948 26.2688 23.8623 26.3018C25.0163 26.5655 26.1827 26.5589 27.2784 26.3018C27.4459 26.2688 27.5748 26.1106 27.5748 25.9327V24.357C28.2709 24.1065 28.9155 23.7241 29.4765 23.2363L30.8042 24.021C30.9524 24.1133 31.1523 24.0804 31.2683 23.9485C32.0417 23.0916 32.6347 22.0564 32.9827 20.9226C33.0343 20.7446 32.9634 20.5601 32.8087 20.4744L31.4789 19.6857ZM25.575 21.1201C24.1957 21.1201 23.0742 19.9731 23.0742 18.5625C23.0742 17.1519 24.1957 16.0049 25.575 16.0049C26.9543 16.0049 28.0758 17.1519 28.0758 18.5625C28.0758 19.9731 26.9569 21.1201 25.575 21.1201Z" fill="#BDBDBD"/>
</svg>
