<svg width="81" height="24" viewBox="0 0 81 24" fill="none" xmlns="http://www.w3.org/2000/svg">
<path d="M9.51172 6.16602C10.707 6.16602 11.8304 6.3929 12.8818 6.84668C13.9333 7.28939 14.8574 7.90918 15.6543 8.70605C16.4512 9.50293 17.0765 10.4271 17.5303 11.4785C17.984 12.5299 18.2109 13.6533 18.2109 14.8486C18.2109 16.055 17.984 17.1839 17.5303 18.2354C17.0765 19.2868 16.4512 20.2109 15.6543 21.0078C14.8574 21.7936 13.9333 22.4134 12.8818 22.8672C11.8304 23.321 10.707 23.5479 9.51172 23.5479C8.30534 23.5479 7.17643 23.321 6.125 22.8672C5.07357 22.4134 4.15495 21.7936 3.36914 21.0078C3.23633 20.875 3.10905 20.7367 2.9873 20.5928V20.7256C2.9873 21.3454 2.76042 21.8822 2.30664 22.3359C1.86393 22.7786 1.33268 23 0.712891 23H0.679688V3.07812C0.679688 2.44727 0.901042 1.91048 1.34375 1.46777C1.78646 1.02507 2.32324 0.803711 2.9541 0.803711H2.9873V9.10449C3.10905 8.97168 3.23633 8.83887 3.36914 8.70605C4.15495 7.90918 5.07357 7.28939 6.125 6.84668C7.17643 6.3929 8.30534 6.16602 9.51172 6.16602ZM14.0273 10.333C13.4408 9.75749 12.7601 9.30371 11.9854 8.97168C11.2217 8.63965 10.3971 8.47363 9.51172 8.47363C8.6263 8.47363 7.79622 8.63965 7.02148 8.97168C6.25781 9.30371 5.58268 9.75749 4.99609 10.333C4.40951 10.9196 3.9502 11.6003 3.61816 12.375C3.28613 13.1497 3.12012 13.9743 3.12012 14.8486C3.12012 15.734 3.28613 16.5641 3.61816 17.3389C3.9502 18.1136 4.40951 18.7887 4.99609 19.3643C5.58268 19.9508 6.25781 20.4102 7.02148 20.7422C7.79622 21.0742 8.6263 21.2402 9.51172 21.2402C10.3971 21.2402 11.2217 21.0742 11.9854 20.7422C12.7601 20.4102 13.4408 19.9508 14.0273 19.3643C14.6139 18.7887 15.0732 18.1136 15.4053 17.3389C15.7373 16.5641 15.9033 15.734 15.9033 14.8486C15.9033 13.9743 15.7373 13.1497 15.4053 12.375C15.0732 11.6003 14.6139 10.9196 14.0273 10.333ZM37.2402 19.1816C36.4655 20.5208 35.403 21.5833 34.0527 22.3691C32.7357 23.1439 31.2913 23.5312 29.7197 23.5312C28.5133 23.5312 27.3844 23.3044 26.333 22.8506C25.2816 22.3968 24.3574 21.777 23.5605 20.9912C22.7747 20.1943 22.1549 19.2702 21.7012 18.2188C21.2474 17.1673 21.0205 16.0384 21.0205 14.832C21.0205 13.6367 21.2474 12.5133 21.7012 11.4619C22.1549 10.4105 22.7747 9.48633 23.5605 8.68945C24.3574 7.89258 25.2816 7.26725 26.333 6.81348C27.3844 6.3597 28.5133 6.13281 29.7197 6.13281C30.915 6.13281 32.0384 6.3597 33.0898 6.81348C34.1413 7.26725 35.0654 7.89258 35.8623 8.68945C36.6592 9.48633 37.2845 10.4105 37.7383 11.4619C38.1921 12.5133 38.4189 13.6367 38.4189 14.832V15.9941H23.4277C23.6934 17.3112 24.2855 18.429 25.2041 19.3477C25.7796 19.9342 26.4548 20.3936 27.2295 20.7256C28.0042 21.0576 28.8343 21.2236 29.7197 21.2236C30.8818 21.2236 31.9443 20.9414 32.9072 20.377C33.3831 20.1003 33.8203 19.7682 34.2188 19.3809C34.7168 18.9271 35.2425 18.7002 35.7959 18.7002C36.1722 18.7002 36.5596 18.8053 36.958 19.0156L37.2402 19.1816ZM25.2041 10.3164C24.2855 11.235 23.6934 12.3584 23.4277 13.6865H35.9951C35.7406 12.3584 35.154 11.235 34.2354 10.3164C33.6488 9.72982 32.9681 9.27051 32.1934 8.93848C31.4186 8.60645 30.5941 8.44043 29.7197 8.44043C28.8343 8.44043 28.0042 8.60645 27.2295 8.93848C26.4548 9.27051 25.7796 9.72982 25.2041 10.3164ZM49.6787 6.14941C50.874 6.14941 51.9974 6.3763 53.0488 6.83008C54.1003 7.28385 55.0244 7.90918 55.8213 8.70605C57.4372 10.3219 58.2839 12.3473 58.3613 14.7822V22.9834H58.3281C57.7083 22.9834 57.1826 22.7731 56.751 22.3525C56.3193 21.9209 56.0869 21.3841 56.0537 20.7422C55.9762 20.8307 55.8988 20.9137 55.8213 20.9912C55.0244 21.7881 54.1003 22.4134 53.0488 22.8672C51.9974 23.321 50.874 23.5479 49.6787 23.5479C48.4723 23.5479 47.3434 23.321 46.292 22.8672C45.2406 22.4134 44.3164 21.7881 43.5195 20.9912C42.7337 20.1943 42.1139 19.2702 41.6602 18.2188C41.2064 17.1673 40.9795 16.0439 40.9795 14.8486C40.9795 13.6423 41.2064 12.5133 41.6602 11.4619C42.1139 10.4105 42.7337 9.49186 43.5195 8.70605C44.3164 7.90918 45.2406 7.28385 46.292 6.83008C47.3434 6.3763 48.4723 6.14941 49.6787 6.14941ZM56.0537 14.8984V14.7988C55.9984 13.0059 55.3786 11.5173 54.1943 10.333C53.6077 9.74642 52.9271 9.28711 52.1523 8.95508C51.3776 8.62305 50.5531 8.45703 49.6787 8.45703C48.7933 8.45703 47.9632 8.62305 47.1885 8.95508C46.4137 9.28711 45.7386 9.74642 45.1631 10.333C44.5765 10.9196 44.1172 11.6003 43.7852 12.375C43.4531 13.1387 43.2871 13.9632 43.2871 14.8486C43.2871 15.734 43.4531 16.5641 43.7852 17.3389C44.1172 18.1025 44.5765 18.7777 45.1631 19.3643C45.7386 19.9508 46.4137 20.4102 47.1885 20.7422C47.9632 21.0742 48.7933 21.2402 49.6787 21.2402C50.5531 21.2402 51.3776 21.0742 52.1523 20.7422C52.9271 20.4102 53.6077 19.9508 54.1943 19.3643C55.3786 18.18 55.9984 16.6914 56.0537 14.8984ZM66.3174 8.97168V22.9668H66.2842C65.6533 22.9668 65.1165 22.7454 64.6738 22.3027C64.2311 21.86 64.0098 21.3232 64.0098 20.6924V8.97168H61.6689V6.66406H64.0098V3.04492C64.0098 2.42513 64.2311 1.89388 64.6738 1.45117C65.1165 0.997396 65.6533 0.770508 66.2842 0.770508H66.3174V6.66406H69.7705V6.69727C69.7705 7.32812 69.5436 7.86491 69.0898 8.30762C68.6471 8.75033 68.1159 8.97168 67.4961 8.97168H66.3174ZM77.2617 8.83887C76.9408 8.58431 76.5811 8.45703 76.1826 8.45703H76.083C75.6403 8.47917 75.2529 8.63411 74.9209 8.92188C74.5889 9.20964 74.4229 9.61914 74.4229 10.1504C74.4229 10.5931 74.5446 10.9971 74.7881 11.3623C75.0316 11.7165 75.347 12.0596 75.7344 12.3916C76.1328 12.7126 76.5645 13.0391 77.0293 13.3711C77.627 13.7917 78.2135 14.251 78.7891 14.749C79.3646 15.2471 79.8405 15.8281 80.2168 16.4922C80.6042 17.1562 80.7979 17.9476 80.7979 18.8662C80.7979 19.8291 80.5544 20.6702 80.0674 21.3896C79.5804 22.109 78.9827 22.6458 78.2744 23C77.5661 23.3542 76.8411 23.5312 76.0996 23.5312C75.9889 23.5312 75.8783 23.5257 75.7676 23.5146C74.9043 23.4593 74.0798 23.1439 73.2939 22.5684C72.4749 21.9264 71.9215 21.0908 71.6338 20.0615L72.2148 19.9121C72.4362 19.8568 72.6465 19.8291 72.8457 19.8291C73.4323 19.8291 73.9635 20.0615 74.4395 20.5264C74.7715 20.8584 75.0924 21.0576 75.4023 21.124C75.7122 21.1794 75.9502 21.207 76.1162 21.207C76.404 21.207 76.6862 21.1572 76.9629 21.0576C77.3945 20.9027 77.7542 20.6426 78.042 20.2773C78.3408 19.901 78.4902 19.4307 78.4902 18.8662C78.4902 18.335 78.3574 17.8646 78.0918 17.4551C77.8262 17.0345 77.4775 16.6471 77.0459 16.293C76.6143 15.9277 76.1494 15.568 75.6514 15.2139C75.0758 14.8154 74.5169 14.3838 73.9746 13.9189C73.4434 13.443 73.0007 12.9062 72.6465 12.3086C72.2923 11.6999 72.1152 10.9805 72.1152 10.1504C72.1152 9.2207 72.3421 8.44596 72.7959 7.82617C73.2607 7.20638 73.8031 6.77474 74.4229 6.53125C75.0426 6.28776 75.6292 6.16602 76.1826 6.16602C76.3597 6.16602 76.5368 6.17708 76.7139 6.19922C77.4665 6.28776 78.1416 6.57552 78.7393 7.0625C79.3369 7.53841 79.763 8.22461 80.0176 9.12109L79.3203 9.30371C79.11 9.35905 78.8997 9.38672 78.6895 9.38672C78.1803 9.38672 77.7044 9.2041 77.2617 8.83887Z" fill="#FAFAFA"/>
</svg>
