<svg width="30" height="30" viewBox="0 0 30 30" fill="none" xmlns="http://www.w3.org/2000/svg">
<path d="M0 4.99985C0 2.23851 2.23851 0 4.99986 0H8.75004C9.44037 0 10 0.559628 10 1.24996C10 1.9403 9.44037 2.49993 8.75004 2.49993H6.24989C4.17888 2.49993 2.5 4.17881 2.5 6.24982V8.74971C2.5 9.44007 1.94036 9.99971 1.25 9.99971C0.559644 9.99971 0 9.44007 0 8.74971V4.99985Z" fill="#BDBDBD"/>
<path d="M4.99986 29.9995C2.23851 29.9993 0.000219706 27.7606 0.000490727 24.9993L0.000858768 21.2494C0.000926526 20.5591 0.560626 19.9995 1.25098 19.9995C1.94134 19.9996 2.50093 20.5593 2.50086 21.2496L2.50061 23.7495C2.50041 25.8205 4.17913 27.4995 6.25014 27.4997L8.75028 27.4999C9.44062 27.4999 10.0002 28.0596 10.0001 28.7499C10.0001 29.4403 9.44037 29.9999 8.75004 29.9998L4.99986 29.9995Z" fill="#BDBDBD"/>
<path d="M24.0001 0C26.7615 0 29 2.23851 29 4.99986V8.74971C29 9.44007 28.4404 9.99971 27.75 9.99971C27.0596 9.99971 26.5 9.44007 26.5 8.74971V6.24982C26.5 4.17881 24.8211 2.49993 22.7501 2.49993L20.25 2.49993C19.5596 2.49993 19 1.9403 19 1.24996C19 0.559628 19.5596 0 20.25 0L24.0001 0Z" fill="#BDBDBD"/>
<path d="M29 24.9993C29 27.7606 26.7615 29.9991 24.0001 29.9991H20.25C19.5596 29.9991 19 29.4395 19 28.7492C19 28.0588 19.5596 27.4992 20.25 27.4992H22.7501C24.8211 27.4992 26.5 25.8203 26.5 23.7493V21.2494C26.5 20.5591 27.0596 19.9994 27.75 19.9994C28.4404 19.9994 29 20.5591 29 21.2494V24.9993Z" fill="#BDBDBD"/>
<path d="M5.00012 7.49978C5.00012 6.11911 6.11938 4.99986 7.50005 4.99986H9.37514C9.72031 4.99986 10.0001 5.27967 10.0001 5.62484C10.0001 5.97001 9.72031 6.24982 9.37514 6.24982H8.12507C7.08956 6.24982 6.25012 7.08926 6.25012 8.12476V9.37471C6.25012 9.71989 5.9703 9.99971 5.62512 9.99971C5.27994 9.99971 5.00012 9.71989 5.00012 9.37471V7.49978Z" fill="#D9D9D9"/>
<path d="M7.50005 24.9993C6.11938 24.9993 5.00012 23.88 5.00012 22.4994V20.6244C5.00012 20.2792 5.27994 19.9994 5.62512 19.9994C5.9703 19.9994 6.25012 20.2792 6.25012 20.6244V21.8744C6.25012 22.9099 7.08956 23.7493 8.12507 23.7493H9.37514C9.72031 23.7493 10.0001 24.0291 10.0001 24.3743C10.0001 24.7195 9.72031 24.9993 9.37514 24.9993H7.50005Z" fill="#D9D9D9"/>
<path d="M21.4999 4.99986C22.8806 4.99986 23.9999 6.11911 23.9999 7.49978V9.37471C23.9999 9.71989 23.7201 9.99971 23.3749 9.99971C23.0297 9.99971 22.7499 9.71989 22.7499 9.37471V8.12476C22.7499 7.08926 21.9104 6.24982 20.8749 6.24982H19.6249C19.2797 6.24982 18.9999 5.97001 18.9999 5.62484C18.9999 5.27967 19.2797 4.99986 19.6249 4.99986H21.4999Z" fill="#D9D9D9"/>
<path d="M23.9999 22.4994C23.9999 23.88 22.8806 24.9993 21.4999 24.9993H19.6249C19.2797 24.9993 18.9999 24.7195 18.9999 24.3743C18.9999 24.0291 19.2797 23.7493 19.6249 23.7493H20.8749C21.9104 23.7493 22.7499 22.9099 22.7499 21.8744V20.6244C22.7499 20.2792 23.0297 19.9994 23.3749 19.9994C23.7201 19.9994 23.9999 20.2792 23.9999 20.6244V22.4994Z" fill="#D9D9D9"/>
<path d="M14.5 9.83334V10.5417V9.83334ZM18.75 18.3333H20.1667H18.75ZM15.9167 18.3333H14.5V21.1667L15.9167 18.3333ZM14.5 13.375V15.5V13.375ZM14.5 15.5H14.5071H14.5ZM14.5 15.5H17.3405H14.5ZM17.3334 21.1667H20.1667H17.3334ZM8.83337 15.5H11.6667H8.83337ZM20.1667 15.5H20.1738H20.1667ZM9.54171 12.6667H10.9584C11.1462 12.6667 11.3264 12.592 11.4592 12.4592C11.5921 12.3264 11.6667 12.1462 11.6667 11.9583V10.5417C11.6667 10.3538 11.5921 10.1736 11.4592 10.0408C11.3264 9.90796 11.1462 9.83334 10.9584 9.83334H9.54171C9.35385 9.83334 9.17368 9.90796 9.04084 10.0408C8.908 10.1736 8.83337 10.3538 8.83337 10.5417V11.9583C8.83337 12.1462 8.908 12.3264 9.04084 12.4592C9.17368 12.592 9.35385 12.6667 9.54171 12.6667ZM18.0417 12.6667H19.4584C19.6462 12.6667 19.8264 12.592 19.9592 12.4592C20.0921 12.3264 20.1667 12.1462 20.1667 11.9583V10.5417C20.1667 10.3538 20.0921 10.1736 19.9592 10.0408C19.8264 9.90796 19.6462 9.83334 19.4584 9.83334H18.0417C17.8538 9.83334 17.6737 9.90796 17.5408 10.0408C17.408 10.1736 17.3334 10.3538 17.3334 10.5417V11.9583C17.3334 12.1462 17.408 12.3264 17.5408 12.4592C17.6737 12.592 17.8538 12.6667 18.0417 12.6667ZM9.54171 21.1667H10.9584C11.1462 21.1667 11.3264 21.092 11.4592 20.9592C11.5921 20.8264 11.6667 20.6462 11.6667 20.4583V19.0417C11.6667 18.8538 11.5921 18.6736 11.4592 18.5408C11.3264 18.408 11.1462 18.3333 10.9584 18.3333H9.54171C9.35385 18.3333 9.17368 18.408 9.04084 18.5408C8.908 18.6736 8.83337 18.8538 8.83337 19.0417V20.4583C8.83337 20.6462 8.908 20.8264 9.04084 20.9592C9.17368 21.092 9.35385 21.1667 9.54171 21.1667Z" stroke="#E0E0E0" stroke-width="2" stroke-linecap="round" stroke-linejoin="round"/>
</svg>
